<svg xmlns="http://www.w3.org/2000/svg" width="67" height="67" viewBox="6.5 6.5 67 67"><path fill="#af62f1" d="M14.084 18.076c2.007 3.897 5.885 5.3 9.451 6.08 1.657.37 2.241 1.793 2.32 3.137.077 1.326-.39 2.807-1.112 3.937-3.215 4.989-9.217 1.442-12.082-2.514-2.046-2.865-3.059-6.704-2.007-10.738.877-3.293 2.202-2.26 3.43.097z"/><path fill="#07090f" d="M14.318 17.959c.468.935 1.072 1.812 1.832 2.553.37.37.78.72 1.228 1.013l.33.234c.118.078.235.137.351.195.234.136.468.253.702.37.955.468 1.968.8 3.001 1.052.507.137 1.033.254 1.56.351.135.04.252.059.408.078.156.04.293.078.429.137.136.039.273.116.429.194.136.078.273.156.39.254.506.39.837.916 1.071 1.48.215.566.312 1.15.332 1.735s-.059 1.17-.215 1.735a7.67 7.67 0 0 1-.604 1.617 5.713 5.713 0 0 1-.448.74c-.078.117-.156.234-.253.351l-.273.332c-.39.448-.858.838-1.384 1.13a4.877 4.877 0 0 1-1.695.585 5.419 5.419 0 0 1-1.774-.02c-1.15-.195-2.202-.663-3.157-1.247s-1.812-1.286-2.61-2.085c-.78-.8-1.482-1.657-2.047-2.612a13.423 13.423 0 0 1-1.325-3.02 21.287 21.287 0 0 1-.41-1.598l-.077-.41-.059-.409c-.039-.272-.058-.545-.078-.818-.078-1.11-.039-2.222.195-3.313.059-.273.117-.545.195-.818.078-.273.175-.546.273-.8a3.32 3.32 0 0 1 .41-.779c.097-.117.194-.253.33-.37.137-.117.312-.214.507-.253a.916.916 0 0 1 .565.058c.176.059.312.156.429.253.253.195.429.41.604.644s.312.467.448.701c.117.292.254.526.39.76zm-.468.253a12.167 12.167 0 0 0-.37-.701c-.136-.234-.292-.429-.448-.643-.156-.195-.332-.39-.526-.507-.195-.136-.37-.195-.507-.136-.136.039-.292.175-.41.37a5.297 5.297 0 0 0-.311.663c-.175.467-.292.993-.41 1.5a13.979 13.979 0 0 0-.292 3.118c.02.253.02.526.059.78l.039.39.058.389c.078.526.215 1.033.37 1.54.332.993.8 1.948 1.365 2.845s1.247 1.676 2.007 2.416a12.37 12.37 0 0 0 2.514 1.87c.896.507 1.87.897 2.864 1.034.975.136 1.969-.02 2.787-.527a4.55 4.55 0 0 0 1.091-.935l.234-.292c.078-.098.137-.195.214-.312.156-.195.273-.41.39-.624.468-.877.78-1.87.819-2.845s-.234-2.007-.955-2.592a1.384 1.384 0 0 0-.273-.195 1.565 1.565 0 0 0-.312-.155 6.392 6.392 0 0 0-.331-.117c-.117-.04-.253-.059-.39-.098a24.168 24.168 0 0 1-1.578-.467 19.632 19.632 0 0 1-3.02-1.306c-.235-.137-.488-.253-.702-.41l-.351-.214-.331-.234c-.234-.155-.449-.33-.663-.487-.214-.156-.41-.35-.624-.526-.214-.175-.39-.39-.584-.584-.195-.195-.35-.43-.546-.624-.156-.214-.312-.448-.487-.682z"/><path fill="#ebf2fc" d="M64.809 21.955c-2.26-5.106-6.021-9.9-11.4-11.829-5.944-2.124-12.53.214-18.279 1.968-13.875 4.229-17.402.526-18.922.117-3.04-.838-1.754 3.761 2.085 7.776 2.241 2.319 1.91 5.495 1.423 7.112-1.286 4.327-4.755 11.81-6.275 16.564-2.046 6.49-1.228 14.498 3.488 19.643 1.189 1.326 2.007 1.345 1.325-.02-.195-.37-.37-.7-.507-1.09-.643-1.637.04-1.228 1.462.37 1.189 1.383 2.592 2.69 4.131 3.605 1.774 1.013 1.93.896 1.014-.663-.37-.643-.273-1.09.428-.467s1.852 1.403 2.71 1.851c1.422.76 2.844 1.345 4.228 2.222 1.033.662 1.851 1.403 2.514 2.358.662 1.013 1.11 1.11 1.734.195a7.845 7.845 0 0 1 3.352-2.787c2.065-.936 4.384-.955 6.528-1.52 2.416-.624 4.229-1.949 5.69-3.625 1.209-1.403 1.696-1.422.955.176-.195.506-.448.974-.701 1.422-.604 1.189-.468 1.637.78.955 3.137-1.617 5.923-4.482 7.248-7.775.78-1.93.916-1.54 1.092-.39.078.546.058 1.11.039 1.656-.059 1.111 0 2.105 1.15.721 1.773-2.143 3.195-4.657 3.936-7.366.331-1.189.487-1.247.506-.02.02.39-.019.78-.058 1.111-.117 1.111.546.858.974-.448a30.38 30.38 0 0 0 1.618-8.36c.37-6.937-.877-15.863-4.268-23.463z"/><path fill="#07090f" d="M64.282 22.188c-1.364-3.06-3.215-5.905-5.651-8.165a16.567 16.567 0 0 0-4.054-2.806 13.753 13.753 0 0 0-4.716-1.326c-1.636-.155-3.312-.077-4.969.176-1.656.253-3.293.643-4.93 1.091-1.637.448-3.254.975-4.891 1.462a55.284 55.284 0 0 1-5.009 1.247 36.9 36.9 0 0 1-2.552.429c-.858.097-1.715.194-2.592.214-1.734.058-3.488-.039-5.203-.507a12.038 12.038 0 0 1-2.456-.935l-.565-.292a5.584 5.584 0 0 0-.526-.234c-.35-.117-.76-.156-.994-.02-.117.059-.195.156-.253.312a1.493 1.493 0 0 0-.078.526c0 .37.097.78.234 1.17.253.779.643 1.539 1.072 2.24.428.721.935 1.404 1.461 2.047.273.331.546.643.838.954.292.312.585.663.819 1.033.467.74.779 1.598.935 2.456.156.877.156 1.754.02 2.611-.06.429-.156.857-.273 1.286-.137.41-.254.819-.39 1.228-.273.818-.546 1.617-.838 2.436a201.95 201.95 0 0 1-1.754 4.813l-1.87 4.774a71.956 71.956 0 0 0-.878 2.378c-.136.39-.272.799-.39 1.208a21.9 21.9 0 0 0-.33 1.208c-.78 3.255-.858 6.684-.137 9.939.35 1.617.916 3.215 1.715 4.657.39.721.838 1.423 1.344 2.085.254.332.507.643.8.955.136.156.272.312.409.448s.292.254.428.351a.732.732 0 0 0 .195.117c.02.02.059.02.059.02h-.04a.421.421 0 0 0-.116.039c-.04.02-.098.078-.117.097-.04.078-.04.117-.04.097 0 0 0-.077-.038-.136a2.639 2.639 0 0 0-.215-.507c-.097-.194-.194-.37-.292-.584-.039-.098-.097-.215-.136-.331l-.117-.312c-.04-.117-.078-.215-.117-.332a1.888 1.888 0 0 1-.078-.428v-.156c0-.059.02-.137.078-.254.02-.058.078-.116.136-.175.059-.058.156-.097.234-.136.156-.04.273-.02.351-.02a.878.878 0 0 1 .292.117.679.679 0 0 1 .176.117c.214.156.37.312.545.468.332.312.624.623.897.955a21.21 21.21 0 0 0 2.709 2.572c.33.253.662.487 1.013.701.331.215.72.41 1.072.585.077.04.175.078.233.098.04.019.059.019.078.019h-.02c-.019 0-.058 0-.155.039s-.195.156-.214.234c-.02.078-.02.117-.02.136v-.02a2.021 2.021 0 0 0-.097-.214 3.546 3.546 0 0 0-.293-.526l-.078-.136c-.039-.059-.058-.117-.097-.176-.058-.116-.117-.233-.156-.39a1.015 1.015 0 0 1-.02-.486.823.823 0 0 1 .156-.332.606.606 0 0 1 .41-.214c.136-.02.214 0 .292.02.136.038.214.077.292.116.137.078.234.176.332.254l.117.117c.039.039.077.058.116.097a13.83 13.83 0 0 0 2.027 1.403c.351.195.721.39 1.111.585.76.37 1.54.74 2.3 1.15.39.214.76.428 1.15.662.389.234.74.487 1.09.78.351.292.682.604.994.935.156.175.293.35.448.526.137.175.293.39.39.526.098.156.234.292.312.351.039.039.058.039.039.039h-.058c.02 0 .155-.117.253-.253l.175-.254c.059-.097.137-.195.195-.273.546-.72 1.228-1.364 1.988-1.87s1.598-.897 2.455-1.15c1.715-.526 3.45-.643 5.067-1.013 1.598-.351 3.079-1.053 4.326-2.105.312-.253.624-.526.896-.819.137-.155.293-.292.43-.448l.428-.487a5.89 5.89 0 0 1 .487-.487c.098-.078.195-.156.312-.253.058-.04.136-.078.234-.137.058-.02.117-.039.214-.058.059 0 .117-.02.175 0a.48.48 0 0 1 .254.078.422.422 0 0 1 .214.195.599.599 0 0 1 .098.194c.039.117.039.195.039.254 0 .117-.02.214-.02.292a4.904 4.904 0 0 1-.39 1.033l.02-.04c-.137.371-.312.702-.487 1.034l-.254.467c-.058.137-.136.293-.195.43-.019.077-.058.136-.058.194-.02.058-.02.117-.02.117s0-.02-.019-.059a.333.333 0 0 0-.156-.175.505.505 0 0 0-.136-.058c-.02 0-.02 0 0 0 .058 0 .214-.059.35-.137.137-.058.293-.156.449-.234a12.349 12.349 0 0 0 1.734-1.09c.546-.41 1.091-.839 1.578-1.307a14.949 14.949 0 0 0 2.573-3.176c.35-.585.662-1.189.916-1.832.136-.331.273-.662.467-1.033.059-.097.098-.175.195-.292a.905.905 0 0 1 .195-.195c.059-.039.137-.097.273-.117a.648.648 0 0 1 .429.059.532.532 0 0 1 .214.195 1.34 1.34 0 0 1 .156.331c.039.117.058.214.078.312.039.195.058.37.097.565.02.195.04.39.04.584.019.39 0 .76-.02 1.111 0 .176-.02.351-.02.507s0 .312.04.429c0 .058.038.078 0 .058-.02-.02-.06-.078-.137-.097-.078-.04-.137-.02-.175-.02-.059.02 0 0 .038-.02.04-.038.098-.077.137-.116.097-.098.214-.215.312-.351l.331-.41c.214-.272.429-.545.624-.837.409-.565.78-1.15 1.13-1.754a19.706 19.706 0 0 0 1.656-3.78c.098-.332.176-.663.312-1.053.04-.097.078-.195.156-.331.02-.02.039-.04.039-.078.02-.02.02-.04.039-.04l.058-.058c.04-.019.059-.039.098-.058a.33.33 0 0 1 .195-.058.54.54 0 0 1 .428.155c.04.02.059.059.078.098.02.02.02.039.04.058.019.04.038.059.038.098.02.058.02.097.04.117.019.136.038.234.038.331s.02.195.02.292v.565c0 .195-.02.39-.04.566l-.019.272c0 .078-.02.137-.02.215 0 .058 0 .117.02.136l-.02-.039c-.019-.02-.038-.058-.077-.078-.04-.02-.098-.039-.156-.058-.097 0-.156.02-.156.02.02-.02.059-.079.098-.118.077-.117.136-.253.214-.39.058-.136.117-.292.175-.467.059-.176.117-.331.176-.507a33.85 33.85 0 0 0 .584-2.007c.331-1.364.604-2.728.74-4.131.079-.702.118-1.403.137-2.105a37.98 37.98 0 0 0 .04-2.105 60.888 60.888 0 0 0-.215-4.209c-.273-2.806-.74-5.593-1.442-8.301a43.346 43.346 0 0 0-2.709-7.99zm1.052-.468.41.994.214.507.195.506.37 1.014.35 1.013c.118.331.235.682.332 1.033.098.35.214.682.312 1.033.175.701.39 1.383.546 2.085a56.836 56.836 0 0 1 1.344 8.477c.098 1.422.176 2.865.176 4.287-.02.721-.02 1.442-.059 2.144a79.436 79.436 0 0 1-.136 2.143 31.894 31.894 0 0 1-.682 4.268 25.31 25.31 0 0 1-.566 2.085c-.058.175-.117.35-.155.507-.059.156-.117.35-.195.545-.078.176-.176.37-.293.546a1.536 1.536 0 0 1-.234.292c-.058.059-.116.098-.194.156-.078.04-.215.117-.41.098a.465.465 0 0 1-.272-.098c-.078-.039-.137-.117-.176-.156a.878.878 0 0 1-.136-.273 1.578 1.578 0 0 1-.059-.39c0-.116 0-.214.02-.33l.02-.254c.019-.175.019-.331.019-.487v-.507c0-.078 0-.156-.02-.234 0-.078-.02-.156-.02-.194 0 .019 0 0 .02.038 0 .02.02.02.02.04a.27.27 0 0 1 .058.077.467.467 0 0 0 .37.117c.059 0 .117-.02.156-.039.04-.02.059-.02.078-.039l.04-.039.019-.019s0-.02.02-.02c0 0-.04.078-.06.156a21.91 21.91 0 0 0-.291.994 19.208 19.208 0 0 1-1.735 3.995c-.35.624-.76 1.247-1.169 1.832l-.643.877-.331.428c-.117.156-.254.293-.39.449a1.31 1.31 0 0 1-.254.214 1.059 1.059 0 0 1-.448.214c-.117.02-.273.02-.428-.039s-.273-.175-.332-.272a1.012 1.012 0 0 1-.175-.449 3.763 3.763 0 0 1-.059-.643c0-.195 0-.37.02-.565.02-.35.039-.701.02-1.013 0-.156-.02-.312-.04-.468s-.058-.35-.078-.487c-.019-.078-.038-.156-.058-.195 0-.02-.02-.039-.02-.039l.02.02c.02.02.039.058.117.097.078.04.214.078.312.04.097-.02.117-.04.156-.06.039-.019.02-.019.02-.019-.02.02-.06.098-.098.156a14.15 14.15 0 0 0-.41.916 15.618 15.618 0 0 1-.974 1.988 16.723 16.723 0 0 1-2.748 3.43 14.72 14.72 0 0 1-1.695 1.403c-.585.428-1.208.837-1.87 1.169-.157.078-.313.175-.507.253-.195.078-.37.175-.663.234-.078.02-.156.02-.253.02a1.23 1.23 0 0 1-.39-.117.737.737 0 0 1-.312-.39c-.058-.137-.058-.234-.058-.332 0-.175.039-.292.058-.409.04-.117.059-.214.098-.312a6.84 6.84 0 0 1 .253-.545l.253-.468c.156-.312.312-.604.41-.896v-.04c.077-.175.155-.37.233-.545a.588.588 0 0 0 .059-.234v-.039c0 .02 0 .04.02.098.019.02.038.078.058.117a.525.525 0 0 0 .156.136.448.448 0 0 0 .175.058h.097c.04 0 .059-.019.059-.019s-.02 0-.039.02c-.059.038-.117.097-.195.155-.136.117-.273.273-.41.41l-.428.467c-.156.176-.312.332-.448.488-.312.311-.643.623-.994.896a13.171 13.171 0 0 1-2.26 1.461c-.8.39-1.676.683-2.534.877-1.734.39-3.43.507-4.969.994-.76.234-1.5.585-2.163 1.014-.663.448-1.247.974-1.715 1.617l-.175.234c-.059.078-.117.175-.195.273-.078.097-.156.195-.273.311a1.38 1.38 0 0 1-.41.293.96.96 0 0 1-.662.078c-.234-.04-.39-.156-.526-.254-.253-.194-.39-.409-.546-.584-.136-.215-.234-.351-.35-.507s-.254-.312-.37-.448a8.515 8.515 0 0 0-.858-.819c-.624-.506-1.325-.915-2.066-1.325-.74-.39-1.5-.76-2.28-1.15-.39-.194-.78-.39-1.169-.623-.39-.214-.76-.468-1.11-.721a10.41 10.41 0 0 1-1.053-.8.848.848 0 0 0-.137-.116l-.116-.097a.861.861 0 0 0-.176-.137c-.02-.02-.039-.02 0 0 .02 0 .059.02.137 0 .078 0 .194-.058.272-.156.078-.078.078-.156.098-.175v-.059.04c.02.058.039.116.078.194l.058.117.078.137c.117.195.215.39.312.604.058.117.097.214.156.37.02.078.039.156.058.292 0 .078 0 .156-.039.293a.612.612 0 0 1-.311.35.795.795 0 0 1-.312.078c-.078 0-.137 0-.176-.02a2.021 2.021 0 0 1-.233-.058c-.137-.039-.234-.097-.351-.156-.429-.214-.78-.409-1.17-.643-.37-.233-.74-.487-1.09-.76a21.069 21.069 0 0 1-1.969-1.753 13.635 13.635 0 0 1-.877-.975c-.273-.312-.565-.623-.838-.916a3.624 3.624 0 0 0-.429-.37c-.038-.02-.058-.039-.077-.058s-.04-.02 0 0c.02 0 .077.019.194-.02a.424.424 0 0 0 .156-.097c.04-.04.078-.078.098-.117.039-.059.039-.098.039-.098 0 .04.02.117.039.215.02.078.058.175.078.272l.117.293c.039.078.078.175.116.253.078.175.176.37.273.565.098.195.215.41.293.663.039.136.078.273.078.487 0 .097-.02.234-.117.41a.83.83 0 0 1-.234.214c-.098.058-.195.078-.273.097-.156.02-.273 0-.37-.02-.098-.019-.176-.058-.234-.077a1.53 1.53 0 0 1-.35-.215 4.527 4.527 0 0 1-.547-.467c-.175-.156-.311-.332-.467-.488a21.045 21.045 0 0 1-.838-1.013 18.713 18.713 0 0 1-1.423-2.222 19.37 19.37 0 0 1-1.773-4.93c-.74-3.41-.643-6.976.195-10.367.097-.429.214-.838.35-1.266.117-.41.273-.819.41-1.228.292-.819.584-1.618.896-2.417s.624-1.598.955-2.377c.331-.799.663-1.578.994-2.358.662-1.559 1.384-3.118 2.027-4.696.33-.78.643-1.579.915-2.378.137-.41.273-.799.39-1.208a8.06 8.06 0 0 0 .254-1.228 8.111 8.111 0 0 0-.04-2.475 6.275 6.275 0 0 0-.896-2.28 5.22 5.22 0 0 0-.78-.954 43.586 43.586 0 0 1-.876-.955 17.99 17.99 0 0 1-1.54-2.085c-.467-.741-.877-1.501-1.169-2.339-.136-.429-.253-.857-.292-1.325 0-.234 0-.487.097-.74.078-.254.273-.527.526-.663a1.31 1.31 0 0 1 .78-.176c.253 0 .487.059.72.117.254.078.45.176.644.254l.585.273c.76.35 1.54.643 2.338.837 1.617.41 3.293.468 4.97.39.837-.039 1.675-.136 2.513-.234a37.046 37.046 0 0 0 2.494-.428c1.657-.332 3.294-.78 4.911-1.267 1.618-.487 3.255-1.033 4.911-1.5 1.656-.468 3.332-.897 5.047-1.17 1.715-.273 3.469-.39 5.223-.234s3.507.624 5.105 1.384a17.5 17.5 0 0 1 4.346 2.962c1.306 1.189 2.416 2.533 3.41 3.975.858 1.326 1.676 2.865 2.397 4.444z"/><path fill="#6bbde1" d="M55.182 41.734c-2.884-5.32-1.637-8.282-1.345-11.751.585-7.425-5.612-7.6-11.595-5.125-3.858 1.598-8.282 3.215-12.16.974-4.15-2.572-6.898-1.013-7.755 3.469-.624 3.332-1.15 7.19-2.982 10.328-8.38 16.038 8.672 24.65 22.8 22.586 12.082-1.773 19.585-8.77 13.037-20.481z"/><path fill="#07090f" d="M54.968 41.851a5.502 5.502 0 0 0-.253-.468l-.254-.467a45.128 45.128 0 0 1-.467-.955 14.468 14.468 0 0 1-.721-2.008c-.39-1.383-.507-2.864-.43-4.287.06-1.422.274-2.825.313-4.13a10.4 10.4 0 0 0-.098-1.93 4.64 4.64 0 0 0-.234-.897 3.898 3.898 0 0 0-.37-.818 4.686 4.686 0 0 0-.545-.721 3.884 3.884 0 0 0-.702-.565c-.526-.332-1.13-.546-1.773-.663s-1.326-.156-2.008-.117c-.682.04-1.364.156-2.026.293-.663.155-1.325.35-1.968.584-.644.234-1.267.526-1.91.8-1.286.564-2.592 1.11-3.976 1.48-1.383.37-2.845.585-4.306.429a8.32 8.32 0 0 1-2.163-.507 5.948 5.948 0 0 1-.526-.214 6.135 6.135 0 0 1-.507-.253l-.253-.137-.215-.136c-.136-.098-.292-.176-.429-.254-.584-.311-1.188-.565-1.792-.701s-1.228-.156-1.793.02c-.565.155-1.053.506-1.442.993a5.46 5.46 0 0 0-.526.78c-.156.292-.273.584-.39.896s-.215.624-.292.955c-.04.156-.078.331-.117.487l-.098.526a76.339 76.339 0 0 1-.429 2.047c-.311 1.364-.662 2.728-1.11 4.072a23.994 23.994 0 0 1-.8 1.949c-.292.643-.642 1.247-.974 1.87-.643 1.229-1.09 2.554-1.422 3.898a14.325 14.325 0 0 0-.468 4.054c.04 1.364.273 2.708.76 3.956.955 2.513 2.806 4.676 5.067 6.177a21.2 21.2 0 0 0 3.585 1.93c1.248.525 2.553.935 3.898 1.266 2.65.643 5.398.896 8.126.799a32.063 32.063 0 0 0 4.073-.429 30.27 30.27 0 0 0 3.975-.955 22.522 22.522 0 0 0 3.742-1.54c1.189-.642 2.3-1.383 3.254-2.299.487-.448.916-.955 1.306-1.48a9.04 9.04 0 0 0 1.598-3.566 9.499 9.499 0 0 0 .195-1.97c-.02-2.65-.838-5.339-2.105-7.794zm.41-.234a21.583 21.583 0 0 1 1.89 3.8c.506 1.345.857 2.767.896 4.229a10.331 10.331 0 0 1-.818 4.326 11.13 11.13 0 0 1-2.514 3.605 15.03 15.03 0 0 1-3.547 2.514 22.672 22.672 0 0 1-3.975 1.617c-1.364.43-2.748.741-4.151.975-1.403.234-2.826.39-4.248.429a29.316 29.316 0 0 1-8.438-.955c-2.748-.74-5.398-1.871-7.717-3.547-1.15-.838-2.222-1.812-3.138-2.923s-1.656-2.358-2.143-3.722a12.046 12.046 0 0 1-.702-4.229c0-.72.098-1.422.215-2.124.116-.701.292-1.384.506-2.066.429-1.344 1.072-2.61 1.696-3.858.33-.624.643-1.228.876-1.89.234-.643.43-1.325.585-1.988.156-.663.312-1.345.429-2.027.117-.682.234-1.364.331-2.046a75.77 75.77 0 0 1 .331-2.065l.078-.527c.04-.175.059-.35.117-.526.078-.35.176-.701.293-1.052a9.6 9.6 0 0 1 .428-1.033c.176-.331.37-.662.624-.955.468-.604 1.15-1.13 1.93-1.364.779-.253 1.597-.234 2.338-.078s1.442.448 2.085.8c.156.077.33.175.467.272l.234.136.215.117c.136.078.292.137.428.215.156.058.293.136.449.195a7.04 7.04 0 0 0 1.89.448c1.305.156 2.65 0 3.975-.273 1.325-.273 2.65-.702 3.956-1.17.643-.233 1.306-.506 1.968-.74a24.198 24.198 0 0 1 2.027-.604c1.364-.331 2.787-.585 4.268-.468.74.059 1.48.234 2.182.565s1.345.877 1.793 1.54c.234.331.41.682.546 1.052.136.37.253.74.312 1.111.077.37.116.76.136 1.13.02.37.02.74 0 1.111-.098 1.462-.448 2.826-.624 4.17a14.076 14.076 0 0 0-.136 2.008c.02.662.078 1.344.214 2.007a17.72 17.72 0 0 0 1.442 3.858z"/><path fill="#e98df7" d="M37.27 44.403c-.436-.829-1.243-1.832-2.006-2.42-1.701-1.33-3.947 1.352-4.296 2.834-.676 2.77 8.46 3.358 6.302-.414z"/><path fill="#772584" d="M36.944 44.556a7.24 7.24 0 0 0-1.287-1.854c-.261-.261-.545-.567-.828-.72a1.336 1.336 0 0 0-1.003-.13c-.35.065-.698.24-1.003.458-.306.218-.61.48-.829.785a5.328 5.328 0 0 0-.829 1.505l-.065.261c0 .088-.022.175-.022.262.022.327.218.61.502.829.283.218.632.37.981.48a6.239 6.239 0 0 0 2.202.26c.371-.02.742-.064 1.069-.173.174-.044.327-.11.48-.175a.686.686 0 0 0 .218-.109c.087-.022.13-.065.196-.109s.109-.087.174-.13c.044-.044.088-.11.131-.153a.934.934 0 0 0 .131-.371c.065-.262-.044-.589-.218-.916zm.632-.327c.197.37.415.785.415 1.308 0 .262-.066.524-.197.763a2.82 2.82 0 0 1-.218.327c-.087.088-.174.197-.283.262-.393.305-.829.436-1.243.523-.414.088-.85.088-1.265.088a6.938 6.938 0 0 1-2.398-.502c-.371-.152-.764-.37-1.069-.654-.153-.153-.305-.305-.414-.523l-.066-.153c-.021-.044-.021-.109-.043-.174-.044-.11-.022-.219-.044-.35 0-.108.022-.217.044-.326.022-.11.065-.197.087-.306.065-.196.174-.37.262-.545a6.16 6.16 0 0 1 .697-.981c.262-.305.524-.589.85-.85.306-.262.655-.48 1.07-.59a1.77 1.77 0 0 1 1.286.088c.196.087.37.218.545.349l.458.392a7.453 7.453 0 0 1 1.526 1.854z"/><path fill="#07090f" d="M33.223 45.05c.657-.579.026-1.973-.763-1.368-.71.553-.052 2.026.763 1.368zm2.181.413c1.025-.637.028-2.549-1.053-1.773-1.025.693 0 2.41 1.053 1.773z"/><path fill="#fff" d="M42.554 33.842c-6.138-1.423-6.665 9.432-.662 9.062 4.735-.273 5.222-8.049.662-9.062z"/><path fill="#126487" d="M42.496 34.115c-3.137-.78-4.93 2.144-4.619 4.97.176 1.597 1.248 3.234 2.924 3.487 1.032.176 2.182-.039 3-.701 2.436-1.988 2.066-6.996-1.305-7.756zm.117-.546c3.235.643 4.268 4.794 2.787 7.425-.897 1.695-2.845 2.514-4.697 2.066-1.832-.37-2.981-2.163-3.157-3.937-.487-3.235 1.5-6.372 5.067-5.554z"/><path fill="#07090f" d="M42.165 36.687c-1.656-.156-2.358 2.514-1.11 3.274 2.299 1.383 3.195-2.728 1.11-3.274z"/><path fill="#fff" d="M30.804 36.2c-2.572-4.599-7.99.156-6.255 4.424 2.436 5.222 9.178.857 6.255-4.424z"/><path fill="#126487" d="M30.59 36.316c-1.851-3.469-5.593-1.189-6.002 1.93-.448 3.137 2.748 5.884 5.476 3.565 1.598-1.383 1.578-3.76.526-5.495zm.41-.214c1.402 2.475.642 5.71-2.066 6.898-3.002 1.267-5.554-1.968-5.009-4.813.624-3.664 4.93-5.983 7.074-2.085z"/><path fill="#07090f" d="M28.446 37.155c-1.5-.136-1.988 2.202-.896 2.884 2.026 1.267 2.845-2.611.896-2.884zm12.219-6.158c.39-1.325 2.475-1.54 3.975-1.13 1.5.409 3.566 1.676 3.294 3.449-.117.74-2.202-.098-3.644-.643-1.092-.429-3.956-.585-3.625-1.676zM23.71 33.628c-.877-2.241 3.839-4.073 5.086-1.91.098.195.078.468-.097.624-.721.643-1.481.72-2.436.974-.838.195-2.183 1.247-2.553.312zM48.8 46.597c.039 2.202-1.734 4.073-3.683 4.872-1.403.604-2.943.877-4.463.916-2.416.039-4.794-.604-7.054-1.345-2.826-.916-7.347-2.494-9.997-.565 1.013-1.656 3.114-2.168 4.849-1.992 2.981.331 5.69 1.715 8.594 2.338 3.195.76 7.249.663 9.743-1.734.838-.8 1.582-1.399 1.972-2.51z"/><path fill="#6bbde1" d="M63.778 43.503c1.832-3.176 2.63-10.172-1.5-11.985-1.871-.799-5.145-.487-5.925 1.715-1.851 3.488 3.859 16.408 7.425 10.27z"/><path fill="#07090f" d="M63.583 43.386c.195-.35.37-.721.526-1.11.156-.39.273-.78.39-1.17.214-.799.35-1.617.41-2.436.038-.41.038-.818.038-1.228-.02-.409-.039-.818-.097-1.208-.117-.799-.332-1.578-.682-2.26a4.208 4.208 0 0 0-1.481-1.676 3.252 3.252 0 0 0-.994-.448c-.351-.117-.74-.156-1.13-.195a5.65 5.65 0 0 0-1.15.02c-.39.038-.76.136-1.111.272a3.24 3.24 0 0 0-.935.565 2.66 2.66 0 0 0-.585.877l-.02.04v.019c-.272.506-.33 1.208-.311 1.87.02.663.117 1.345.273 2.027.292 1.345.76 2.67 1.383 3.897.312.624.663 1.209 1.052 1.774.195.273.41.545.644.78.233.253.467.467.74.662.273.175.546.331.838.39.156.039.292.039.448.039.156-.02.293-.04.448-.098.293-.117.546-.312.78-.545.156-.273.35-.566.526-.858zm.39.234c-.195.312-.39.624-.643.896-.254.273-.546.546-.916.702-.176.078-.37.136-.585.175-.195.02-.41.02-.604 0-.41-.058-.76-.234-1.091-.428-.643-.41-1.15-.975-1.598-1.56s-.819-1.208-1.15-1.85a17.79 17.79 0 0 1-1.5-4.054 13.14 13.14 0 0 1-.312-2.163c-.02-.37 0-.74.039-1.13.058-.39.156-.78.331-1.15l-.02.058a3.57 3.57 0 0 1 .78-1.227c.35-.332.76-.585 1.17-.78a6.448 6.448 0 0 1 1.324-.39 6.345 6.345 0 0 1 1.364-.078 5.3 5.3 0 0 1 1.345.234c.448.137.896.332 1.267.604.39.273.74.585 1.033.955.292.37.526.76.72 1.17.37.818.566 1.714.644 2.572.039.429.039.877.039 1.305a14.271 14.271 0 0 1-.312 2.553c-.098.41-.195.838-.331 1.247a10.678 10.678 0 0 1-.994 2.339z"/><path fill="#af62f1" d="M65.764 9.95c-1.851 4.58-5.71 6.314-9.237 7.328-1.637.467-2.183 2.143-2.202 3.702-.039 1.54.487 3.235 1.267 4.521 3.39 5.671 9.276 1.403 12.004-3.274 1.929-3.39 2.806-7.853 1.597-12.49-.993-3.8-2.299-2.554-3.43.214z"/><path fill="#07090f" d="m66.017 10.048-.39.818-.448.78c-.175.253-.331.507-.507.74-.195.234-.37.468-.565.702-.409.448-.818.877-1.266 1.267l-.351.292-.35.273c-.235.195-.488.35-.722.506-.994.663-2.066 1.19-3.176 1.637-.546.215-1.13.41-1.676.585a1.963 1.963 0 0 0-.663.35 2.25 2.25 0 0 0-.507.546c-.292.41-.467.936-.545 1.462a6.557 6.557 0 0 0-.04 1.637 8.662 8.662 0 0 0 .995 3.157c.526.955 1.208 1.87 2.085 2.377a3.51 3.51 0 0 0 1.442.487c.507.059 1.033 0 1.559-.136 1.052-.273 2.027-.857 2.923-1.54a13.51 13.51 0 0 0 2.397-2.435c1.422-1.793 2.377-3.937 2.884-6.197.253-1.13.35-2.28.312-3.43a19.91 19.91 0 0 0-.429-3.41c-.136-.565-.253-1.13-.448-1.637-.098-.254-.195-.526-.331-.74-.117-.215-.293-.41-.43-.449a.338.338 0 0 0-.233.02.647.647 0 0 0-.273.194c-.195.176-.35.39-.507.624a5.486 5.486 0 0 0-.409.74 7.223 7.223 0 0 0-.331.78zm-.487-.195c.117-.273.234-.546.37-.818s.253-.546.41-.8c.155-.272.33-.525.564-.76.117-.116.254-.233.43-.33s.408-.137.623-.079c.214.059.39.176.526.293s.234.273.331.409c.176.273.312.565.429.857.117.293.195.585.292.858.078.292.137.584.215.877.506 2.358.428 4.794-.059 7.132a17.863 17.863 0 0 1-1.052 3.43 15.353 15.353 0 0 1-1.773 3.118c-.722.974-1.52 1.87-2.456 2.65-.935.78-1.988 1.462-3.215 1.812-.604.176-1.267.273-1.93.215a4.652 4.652 0 0 1-1.89-.585c-.565-.331-1.072-.76-1.48-1.247s-.741-1.013-1.034-1.578a9.098 9.098 0 0 1-.974-3.567c-.039-.623 0-1.247.117-1.87.058-.312.156-.624.273-.916.117-.293.273-.585.467-.858.195-.273.43-.506.721-.701.273-.195.585-.351.897-.43.292-.096.565-.155.857-.233.273-.078.565-.156.838-.253 1.091-.351 2.183-.78 3.177-1.384.253-.156.487-.292.72-.467.118-.078.235-.176.351-.254l.332-.273c.234-.175.428-.39.643-.584.097-.098.195-.215.292-.312l.273-.331a12.95 12.95 0 0 0 1.715-3.02z"/><ellipse cx="41.128" cy="37.764" fill="#fff" rx="1.047" ry="1.084"/><ellipse cx="27.77" cy="38.084" fill="#fff" rx=".904" ry=".935"/></svg>