<svg xmlns="http://www.w3.org/2000/svg" fill-rule="evenodd" stroke-linejoin="round" stroke-miterlimit="2" clip-rule="evenodd" viewBox="0 0 806 938"><path fill="#1a83af" fill-rule="nonzero" d="M795.04 406.26v251.4c0 341.46-773.78 341.46-773.78 0V373.45c0-155.71 91.99-289.94 224.59-351.3v293.59c0 114.59 331.3 114.59 331.3 0V108.15c128.13 35.718 217.89 145.04 217.89 298.11"/><path fill-rule="nonzero" d="m775.2 530.33-.1 62.53-.049 31.27-.021 15.63-.01 3.91v1.96c0 .66 0 1.3-.019 1.89-.061 2.43-.08 4.86-.16 7.28-.771 19.41-4.401 38.58-10.811 56.83s-15.609 35.54-26.97 51.42c-11.35 15.9-24.82 30.42-39.71 43.469-14.89 13.061-31.17 24.711-48.349 34.981-17.191 10.269-35.25 19.22-53.861 26.95-18.6 7.75-37.78 14.25-57.28 19.59-39 10.7-79.34 16.819-119.69 18.08l-7.571.18-7.56.05-7.48-.1c-2.5-.09-4.99-.141-7.49-.26-10-.44-20.01-1.27-30.01-2.431-19.99-2.329-39.91-5.979-59.56-10.759a530.709 530.709 0 0 1-58.01-17.741c-18.97-7-37.5-15.12-55.37-24.399-17.859-9.27-35.08-19.68-51.25-31.37-16.14-11.71-31.25-24.7-44.67-39.05-13.43-14.34-25.149-30.08-34.34-47.03-9.2-16.93-15.83-35.08-19.309-53.84a178.229 178.229 0 0 1-2.941-28.46l-.08-3.59c-.019-.57-.019-1.24-.019-1.89v-87.94l-.011-125.07v-31.27l-.01-15.63v-7.82c.01-2.59-.019-5.26.05-7.71.14-19.99 1.87-39.95 5.19-59.64 3.321-19.68 8.14-39.12 14.56-58.03l2.53-7.05c.87-2.34 1.63-4.72 2.6-7.02l2.79-6.95 1.39-3.48 1.52-3.42 3.01-6.86.76-1.72.81-1.68 1.63-3.37 3.25-6.75 3.5-6.63c9.37-17.65 20.1-34.6 32.2-50.54 12.07-15.95 25.441-30.93 39.84-44.86 23.851-22.98 50.79-42.74 79.82-58.88.77 30.58 1.34 61.17 1.88 91.76.67 37.91 1.18 75.81 1.58 113.72l.55 56.86.05 7.11.011 1.78c0 .28.009.61.029.96l.05 1.02.211 4.09c.129 1.36.369 2.72.549 4.08l.3 2.03c.12.68.31 1.34.46 2.01l.98 4.01 1.33 3.89c.24.65.42 1.31.7 1.93l.83 1.88c.58 1.23 1.08 2.52 1.73 3.7l1.98 3.56.5.89.561.84 1.119 1.67c1.44 2.29 3.15 4.33 4.8 6.42.82 1.05 1.76 1.97 2.63 2.96.9.97 1.77 1.97 2.73 2.85 7.49 7.31 15.91 13.28 24.73 18.11 8.821 4.84 17.98 8.76 27.281 12.02 18.629 6.49 37.819 10.41 57.089 12.83 19.28 2.37 38.69 3.11 58.06 2.39 9.69-.37 19.37-1.12 29.011-2.29 9.639-1.16 19.259-2.71 28.8-4.77 9.54-2.05 19.009-4.64 28.339-7.82 9.33-3.2 18.521-7.06 27.361-11.86 8.84-4.79 17.359-10.62 24.92-17.9l1.42-1.35c.46-.47.91-.97 1.359-1.45l2.681-2.92c.849-1.03 1.67-2.09 2.509-3.13l1.241-1.58 1.129-1.67c.75-1.13 1.52-2.23 2.25-3.38l2-3.56c.701-1.17 1.241-2.43 1.81-3.68l.841-1.88c.289-.63.569-1.25.779-1.91l1.35-3.91c.24-.65.421-1.32.57-1.99l.5-2.01c.76-2.67 1.04-5.42 1.46-8.15.15-1.37.181-2.74.271-4.11l.099-2.06c.04-.69.021-1.21.04-1.83l.08-7.1.38-28.43.941-56.87c.599-31.84 1.29-63.68 2.269-95.52 24.58 8.5 47.99 20.14 69.29 34.8 26.07 17.86 48.95 40.23 67.24 65.91 18.3 25.67 32.06 54.55 40.89 84.97 8.87 30.42 12.891 62.29 12.9 94.23l-.19 125.07zm29.851 115.3v-1.96l-.011-3.91-.02-15.63-.049-31.27-.101-62.53-.19-125.07c-.14-34.43-4.599-69.07-14.45-102.38-9.82-33.28-25.05-65.17-45.5-93.42-20.399-28.28-45.87-52.88-74.7-72.35-28.84-19.48-60.93-33.85-94.26-42.97l-17.12-4.69v17.7c1.28 37.91 2.12 75.82 2.851 113.72l.929 56.87.39 28.43.07 7.1c0 .57.031 1.24.01 1.73l-.059 1.49c-.04 1-.021 2-.111 2.99-.29 1.95-.399 3.95-.92 5.85l-.32 1.45c-.1.48-.2.97-.37 1.43l-.91 2.83c-.129.48-.329.94-.53 1.39l-.589 1.38c-.391.91-.741 1.85-1.26 2.72l-1.421 2.67c-.529.86-1.1 1.7-1.649 2.56l-.831 1.29-.94 1.23-1.89 2.46-2.089 2.34c-.351.39-.68.79-1.04 1.17l-1.14 1.11c-6 5.97-13.131 11.16-20.91 15.46-15.551 8.68-33.08 14.53-50.981 18.54-17.95 4.02-36.4 6.2-54.9 6.95-18.51.78-37.1-.04-55.44-2.32-18.32-2.3-36.45-6.2-53.589-12.29-8.561-3.05-16.861-6.68-24.611-11.06-7.76-4.34-14.849-9.57-20.87-15.55-.79-.72-1.45-1.53-2.16-2.31-.68-.79-1.44-1.54-2.069-2.36-1.25-1.66-2.601-3.26-3.641-5.01l-.84-1.29-.42-.64-1.8-3.35c-.48-.89-.799-1.84-1.22-2.75l-.6-1.38c-.21-.46-.32-.95-.49-1.42l-.93-2.84-.65-2.91c-.11-.49-.25-.97-.33-1.46l-.18-1.49c-.11-.99-.29-1.97-.37-2.97l-.1-3.01-.03-.75c-.02-.24-.03-.5-.02-.81l.01-1.78.06-7.11.54-56.86c.4-37.91.92-75.81 1.58-113.72.67-37.91 1.391-75.82 2.48-113.72l.6-21.15-19.77 8.89-.01.01a393.341 393.341 0 0 0-56.78 31.07c-9.06 5.91-17.78 12.32-26.35 18.93-2.15 1.64-4.19 3.41-6.3 5.11-2.08 1.73-4.2 3.42-6.25 5.17l-6.1 5.37c-2.02 1.79-4.08 3.56-6.02 5.45-31.72 29.47-58.81 64.08-79.38 102.32l-3.86 7.17-3.61 7.3-1.799 3.65-.901 1.82-.83 1.86-3.35 7.43-1.66 3.71-1.53 3.78-3.06 7.55c-1.06 2.5-1.9 5.08-2.85 7.62l-2.79 7.66c-7.029 20.55-12.42 41.67-16.029 63.08A406.15 406.15 0 0 0 .07 369.78c-.07 2.76-.05 5.3-.05 7.92v23.45l-.009 31.27L0 557.49v87.94c0 .65-.01 1.29.011 2.01l.089 4.23c.26 11.27 1.411 22.55 3.48 33.66 4.13 22.25 11.98 43.74 22.71 63.4 10.73 19.7 24.19 37.61 39.27 53.66 15.09 16.07 31.79 30.33 49.411 43.06 17.639 12.71 36.229 23.88 55.379 33.78 19.15 9.89 38.9 18.49 59.05 25.89a561.322 561.322 0 0 0 61.571 18.7c20.869 5.03 42.04 8.88 63.459 11.33 10.71 1.22 21.48 2.08 32.31 2.52 2.71.12 5.43.16 8.14.25l8.15.08 8.07-.08 8.071-.21c42.979-1.47 85.63-8.09 127-19.57 20.689-5.74 41.059-12.71 60.92-21.05 19.859-8.33 39.219-17.981 57.79-29.16C683.44 856.75 701.18 844 717.6 829.519c16.401-14.469 31.451-30.739 44.281-48.819 12.819-18.06 23.359-37.96 30.71-59.09 7.349-21.11 11.479-43.37 12.279-65.62.09-2.79.11-5.57.17-8.35.011-.71.02-1.37.011-2.01"/><path fill="#ffe797" fill-rule="nonzero" d="M484.97 578.03c-4.599 14.156-5.37 16.494-9.969 30.676l41.749 32.243a81.367 81.367 0 0 0 10.328 33.143l-15.029 48.634c12.049 8.761 14.027 10.2 26.103 18.961l41.544-28.364c5.909 1.362 12.075 2.081 18.395 2.081s12.485-.719 18.396-2.081l41.568 28.364 26.077-18.961-15.029-48.66a81.25 81.25 0 0 0 10.328-33.117l41.749-32.243c-4.599-14.182-5.344-16.52-9.968-30.676h-226.24z"/><path fill-rule="nonzero" d="M477.05 579.77a12.67 12.67 0 0 1 10.184-8.669c.333-.044.668-.093 1.004-.111l.502-.024.408-.011 7.163-.08 42.981-.48 57.308-.639 114.62-1.378 7.951-.095 1.228 6.753.003.019c1.218 6.986 2.933 13.808 4.738 20.601l1.403 5.078.743 2.526.187.659c.078.279.138.563.19.849a11.951 11.951 0 0 1-.173 5.163 11.89 11.89 0 0 1-3.517 5.85c-.211.195-.436.375-.659.556l-.362.278-.525.396-1.051.791-4.203 3.165-8.404 6.328-8.361 6.387c-5.586 4.24-11.106 8.568-16.649 12.866l2.721-4.974a88.844 88.844 0 0 1-11.124 36.047l.619-5.67 3.779 12.094 3.705 12.118c1.248 4.035 2.428 8.091 3.644 12.136 1.195 4.052 2.443 8.087 3.589 12.154l1.374 4.877-3.881 2.746-6.597 4.669-6.657 4.587c-2.21 1.541-4.46 3.028-6.694 4.536l-6.712 4.513-3.643 2.448-3.103-2.323-10.081-7.548c-3.363-2.512-6.749-4.99-10.136-7.467-3.421-2.427-6.796-4.921-10.254-7.293-3.453-2.38-6.872-4.81-10.371-7.122l3.576.673c-3.177.761-6.399 1.317-9.64 1.729a87.25 87.25 0 0 1-9.774.758c-3.272.081-6.556.025-9.833-.242-3.275-.269-6.554-.671-9.801-1.291l4.349-.819-10.089 7.526c-3.37 2.498-6.71 5.041-10.106 7.501-3.398 2.457-6.768 4.956-10.205 7.356-3.426 2.416-6.835 4.857-10.293 7.227l-4.053 2.776-4.035-2.892-26.225-18.804-4.151-2.976 1.498-5a2447.523 2447.523 0 0 1 7.453-24.336l7.524-24.315.627 5.746c-6.259-11.051-10.072-23.482-11.133-36.111l2.756 5.039-31.651-24.555-3.957-3.067-1.979-1.534-.989-.767-.495-.384-.329-.259a11.379 11.379 0 0 1-3.936-6.108 11.45 11.45 0 0 1-.158-4.878c.054-.268.103-.538.178-.799l.205-.7 1.571-4.755c2.093-6.341 4.207-12.675 6.212-19.045m13.313 4.328c-2.122 6.329-4.135 12.693-6.17 19.051l-1.524 4.769c-.028.084-.005.021.004-.005l.025-.093.043-.189a2.634 2.634 0 0 0-.034-1.155 2.735 2.735 0 0 0-.789-1.329l7.456 5.724 31.757 24.416 2.47 1.9.286 3.14a74.404 74.404 0 0 0 9.522 30.172l1.561 2.721-.934 3.026-7.505 24.319a2482.81 2482.81 0 0 1-7.576 24.299l-2.653-7.976 25.979 19.117-8.086-.116c3.465-2.358 6.98-4.643 10.478-6.954 3.486-2.328 7.041-4.557 10.566-6.827 3.529-2.267 7.113-4.451 10.666-6.681l10.684-6.655 2.248-1.4 2.101.58c2.778.768 5.607 1.408 8.476 1.832 2.867.426 5.767.716 8.681.798a77.976 77.976 0 0 0 8.738-.282c2.905-.282 5.788-.766 8.638-1.393l1.996-.439 1.58 1.112c3.43 2.415 6.939 4.712 10.414 7.059 3.47 2.356 7.023 4.589 10.53 6.89 3.541 2.249 7.083 4.499 10.649 6.714l10.704 6.634-6.745.125 6.29-5.084c2.099-1.69 4.184-3.402 6.307-5.061l6.346-5.008 6.406-4.928-2.506 7.623c-1.348-4.004-2.593-8.04-3.891-12.06-1.276-4.027-2.59-8.042-3.835-12.078l-3.774-12.096-3.7-12.119-.916-3.003 1.536-2.668a74.005 74.005 0 0 0 9.532-30.186l.279-3.096 2.441-1.878c5.56-4.277 11.142-8.523 16.658-12.856l8.292-6.475 8.248-6.532 4.124-3.267 1.03-.816.645-.51.064-.051-.038.024c-.059.038-.107.086-.161.129-.422.364-.738.85-.89 1.379a2.893 2.893 0 0 0-.079 1.252l.04.208c.009.054.063.208 0 .029l-.883-2.477-1.848-4.927c-2.532-6.547-5.154-13.065-8.271-19.419l-.009-.018 9.18 6.658-114.62-1.378-57.308-.639-42.981-.48-7.163-.079a.491.491 0 0 0-.041.001.357.357 0 0 0 .056-.007c.036-.009.076-.003.114-.017a1.387 1.387 0 0 0 1.086-.994"/><path fill="#fff" fill-rule="nonzero" d="M570.4 598.718c-14.322 8.174-19.312 26.418-11.135 40.747 8.175 14.321 26.422 19.303 40.743 11.128l14.004-18.068c2.02-7.373 1.222-15.512-2.866-22.673-8.178-14.328-26.418-19.312-40.746-11.134"/><path fill-rule="nonzero" d="M629.52 633.6c0 16.491-13.371 29.869-29.869 29.869-16.49 0-29.861-13.378-29.861-29.869h29.861l-21.111-21.118a29.735 29.735 0 0 1 21.111-8.751c16.498 0 29.869 13.371 29.869 29.869"/><path fill="#ffe797" fill-rule="nonzero" d="m282.96 673.943 14.998 48.559-26.022 18.921-41.483-28.305c-5.897 1.359-12.051 2.077-18.358 2.077s-12.46-.718-18.357-2.077l-41.457 28.305a23517.053 23517.053 0 0 1-26.049-18.921l14.999-48.534a81.169 81.169 0 0 1-10.307-33.073l-41.662-32.176c4.589-14.152 5.358-16.485 9.948-30.612l53.609-.257a81.29 81.29 0 0 1 25.562-18.331l17.614-51.739h32.201l17.614 51.739a81.298 81.298 0 0 1 25.561 18.331l53.61.257c4.615 14.127 5.358 16.46 9.948 30.612l-41.662 32.176a81.091 81.091 0 0 1-10.307 33.048"/><path fill="#fff" fill-rule="nonzero" d="M184.18 598.718c-14.322 8.174-19.312 26.418-11.134 40.747 8.175 14.321 26.421 19.303 40.743 11.128l14.003-18.068c2.02-7.373 1.222-15.512-2.865-22.673-8.178-14.328-26.419-19.312-40.747-11.134"/><path fill-rule="nonzero" d="M276.01 673.182a22.825 22.825 0 0 1 1.835-4.447l.915-1.771a87.033 87.033 0 0 0 1.686-3.611 74.379 74.379 0 0 0 2.776-7.464 74.405 74.405 0 0 0 3.08-15.609l.27-3.054 2.425-1.873 41.662-32.176-2.379 7.699-9.944-30.597 6.621 4.826-53.61-.256-3.01-.015-2.057-2.192a74.349 74.349 0 0 0-23.36-16.753l-2.752-1.251-.976-2.865-17.613-51.738 6.626 4.744-.019.001c-5.364.48-10.728.646-16.092.697-2.681.025-5.363.023-8.045-.08-2.682-.111-5.364-.259-8.045-.618l6.626-4.744-.006.018-17.556 51.737-.962 2.834-2.795 1.314-.016.007a74.333 74.333 0 0 0-23.366 16.697l-2.066 2.193-3.001.014h-.018l-53.592.256 6.624-4.837-9.947 30.608-2.379-7.699 41.662 32.176 2.428 1.875.266 3.052a74.354 74.354 0 0 0 9.419 30.227l1.497 2.631-.895 2.896-14.998 48.533-2.571-7.728.01.009c5.183 4.817 10.663 9.228 16.214 13.538 2.767 2.168 5.605 4.238 8.425 6.332l.265.196.132.099c.005.003-1.201-.774-1.828-.851a5.331 5.331 0 0 0-2.409-.036c-.581-.001-2.16.958-1.786.75l.034-.023.549-.364 1.097-.729 2.194-1.459 4.389-2.916 17.556-11.667c2.934-1.934 5.837-3.913 8.747-5.882l4.364-2.955.272-.185.494-.316c.375-.224.761-.431 1.159-.612a11.562 11.562 0 0 1 6.395-.932l.683.095c2.977.411 6.216.441 9.638.391l5.27-.104a79.39 79.39 0 0 0 4.88-.252 75.14 75.14 0 0 0 9.633-1.435l1.186-.266.296-.068.457-.093a8.302 8.302 0 0 1 3.358.111 8.28 8.28 0 0 1 2.511 1.07l.69.453 1.101.724 4.403 2.898 35.153 23.279-8.102.15 25.951-19.153-2.532 7.698a2508.742 2508.742 0 0 1-15.197-51.152m13.917 1.519c5.082 15.188 9.96 30.276 14.657 45.502l1.465 4.748-3.997 2.95-25.951 19.153-4.056 2.993-4.046-2.844-34.495-24.242-4.304-3.044-1.076-.76-.268-.19-.135-.096c-.024-.018-.161-.11.003-.001.401.252.848.442 1.307.55a4.227 4.227 0 0 0 1.725.051l.165-.032c.083-.019-.031.005-.031.005l-.348.068-1.395.264a87.61 87.61 0 0 1-16.907 1.391l-5.269-.054c-3.599-.045-7.411-.144-11.386-.792l-.62-.102c-.002-.007-.006-.005-.008-.01-.006-.008-.01-.009-.016-.015-.007-.008-.011-.008-.017-.012l-.01-.006h-.003c.005-.004.003-.006-.06.036l-.278.178-4.438 2.842c-2.958 1.895-5.923 3.781-8.857 5.712l-17.652 11.522-4.413 2.881-2.207 1.44-1.103.72-.552.36-.034.023c.352-.193-1.252.78-1.861.784a5.488 5.488 0 0 1-2.49-.037c-.654-.083-1.9-.844-1.901-.887l-.135-.095-.268-.192c-2.865-2.034-5.712-4.093-8.63-6.056-5.818-3.948-11.708-7.797-17.895-11.237l-.012-.008-4.147-2.631 1.575-5.098 14.999-48.533.602 5.526c-6.254-10.979-10.098-23.338-11.194-35.919l2.695 4.926-41.663-32.176-3.902-3.013 1.522-4.686 9.949-30.616 1.564-4.813 5.06-.024 53.593-.256h.017l-5.068 2.206a88.398 88.398 0 0 1 27.722-19.95l.019-.008-3.756 4.147 17.659-51.703.006-.018 1.287-4.031 5.34-.714c2.681-.358 5.363-.506 8.045-.618 2.682-.103 5.364-.105 8.045-.08 5.364.052 10.728.218 16.092.697l.019.002 5.156.424 1.471 4.32 17.614 51.738-3.728-4.115a88.343 88.343 0 0 1 27.763 19.909l-5.067-2.206 53.61.256 5.06.024 1.56 4.802 9.952 30.627 1.523 4.686-3.902 3.013-41.663 32.176 2.695-4.926a88.407 88.407 0 0 1-3.662 18.55 88.022 88.022 0 0 1-3.302 8.876 98.92 98.92 0 0 1-2.003 4.291l-1.086 2.104c.028-.047.001-.403-.269-.627"/><path fill-rule="nonzero" d="M243.3 633.6c0 16.491-13.371 29.869-29.869 29.869-16.49 0-29.861-13.378-29.861-29.869h29.861l-21.111-21.118a29.735 29.735 0 0 1 21.111-8.751c16.498 0 29.869 13.371 29.869 29.869"/><path fill="#ffaf37" fill-rule="nonzero" d="m405.224 899.061-51.667-76.666 51.667-30 52 30.333-52 76.333z"/><path fill-rule="nonzero" d="m362.22 822.727 43.035 63.857 45.73-63.542a2.862 2.862 0 0 0-.965-4.193l-42.17-22.743a5.143 5.143 0 0 0-5.295-.042l-39.58 23.326a2.35 2.35 0 0 0-.755 3.337m42.972 88.816-59.381-88.114a3.751 3.751 0 0 1 1.227-5.342l55.685-32.334a4.986 4.986 0 0 1 5.013.005l55.87 32.591a3.918 3.918 0 0 1 1.264 5.589l-59.678 87.605zm327.353-135.708c-6.035 12.857-13.548 24.917-20.303 37.392-.324.6.526 1.35.994.766 9.027-11.247 15.226-24.06 20.827-37.271.431-1.017-1.03-1.926-1.518-.887"/><path fill-rule="nonzero" d="M476.17 815.354c-1.704.874-3.031 2.165-4.895 2.714-2.037.599-4.555.364-6.679.308-3.604-.093-7.212-2.766-10.659-1.703-1.71.528-2.789 2.295-2.308 4.065 1.471 5.419 9.918 5.945 14.548 4.885 4.221-.966 9.841-5.12 11.439-9.157.341-.862-.759-1.465-1.446-1.112m-144.22.892c1.316 4.88 8.55 8.854 13.323 9.34 5.515.561 14.867-3.307 18.203-7.584 1.668-2.139.956-6.653-2.585-6.242-5.332.62-8.655 4.919-13.575 6.672-5.889 2.098-9.254-3.04-14.552-3.253-.554-.023-.952.556-.814 1.067m107.39 66.534c.064 0 .064-.1 0-.1s-.064.1 0 .1"/></svg>