<svg xmlns="http://www.w3.org/2000/svg" width="157" height="157" viewBox="185 192 157 157"><path fill="#762dd7" d="M202.37 221.42c4.493 8.725 13.174 11.866 21.156 13.61 3.708.829 5.017 4.014 5.191 7.024.175 2.966-.872 6.281-2.486 8.811-7.198 11.167-20.633 3.228-27.046-5.627-4.58-6.412-6.848-15.006-4.493-24.036 1.963-7.372 4.93-5.06 7.678.218z"/><path fill="#07090f" d="M202.9 221.16c1.047 2.094 2.399 4.057 4.1 5.714.829.829 1.745 1.614 2.748 2.268l.742.524c.262.174.523.305.785.436.524.306 1.047.567 1.571.829 2.137 1.047 4.405 1.788 6.717 2.356 1.135.305 2.312.567 3.49.785.305.087.567.131.916.174.349.088.654.175.96.306.305.087.611.261.96.436.305.174.61.349.872.567 1.134.872 1.876 2.05 2.399 3.315.48 1.265.698 2.574.742 3.883a13.008 13.008 0 0 1-.48 3.882c-.305 1.265-.785 2.486-1.352 3.621-.306.567-.611 1.134-1.004 1.657a8.625 8.625 0 0 1-.567.785l-.61.742a11.599 11.599 0 0 1-3.098 2.53c-1.177.654-2.486 1.134-3.795 1.309-1.308.218-2.661.174-3.969-.044-2.574-.436-4.93-1.483-7.067-2.792-2.138-1.308-4.057-2.879-5.845-4.667-1.745-1.789-3.316-3.708-4.581-5.846a30.036 30.036 0 0 1-2.966-6.761 47.882 47.882 0 0 1-.916-3.577l-.175-.916-.13-.916c-.088-.611-.131-1.222-.175-1.832-.174-2.487-.087-4.973.436-7.416.131-.611.262-1.221.437-1.832.174-.611.392-1.222.61-1.789a7.49 7.49 0 0 1 .916-1.745c.218-.261.436-.567.742-.828a2.53 2.53 0 0 1 1.134-.567c.436-.088.916-.044 1.265.13.393.131.698.349.96.568.567.436.959.916 1.352 1.439s.698 1.047 1.003 1.57c.262.655.567 1.178.873 1.702zm-1.047.567a27.661 27.661 0 0 0-.829-1.571c-.305-.523-.654-.959-1.003-1.439-.349-.436-.742-.873-1.178-1.134-.436-.306-.829-.437-1.134-.306-.306.088-.655.393-.916.829-.262.436-.48.96-.698 1.483-.393 1.047-.655 2.225-.916 3.359a31.315 31.315 0 0 0-.655 6.98c.044.567.044 1.177.131 1.745l.087.872.131.872c.175 1.178.48 2.312.829 3.447.742 2.224 1.789 4.362 3.054 6.368 1.265 2.007 2.791 3.752 4.493 5.409 1.701 1.615 3.577 3.054 5.627 4.188 2.007 1.134 4.188 2.007 6.412 2.312 2.181.306 4.406-.043 6.238-1.178a10.209 10.209 0 0 0 2.443-2.093l.524-.655c.174-.218.305-.436.479-.698.349-.436.611-.916.873-1.396 1.047-1.963 1.745-4.187 1.832-6.368.087-2.182-.523-4.494-2.137-5.802-.175-.175-.393-.306-.611-.436-.218-.131-.436-.262-.698-.349-.218-.088-.48-.175-.742-.262-.261-.087-.567-.131-.872-.218a54.717 54.717 0 0 1-3.533-1.047 43.907 43.907 0 0 1-6.762-2.923c-.523-.305-1.09-.567-1.57-.916l-.785-.48-.742-.523c-.524-.349-1.003-.742-1.483-1.091s-.916-.785-1.396-1.178c-.48-.392-.873-.872-1.309-1.308s-.785-.96-1.221-1.396c-.349-.48-.698-1.003-1.091-1.527z"/><path fill="#af62f1" d="M207.87 251.92c2.879-.567 5.322-1.178 7.982-3.402 4.581-3.752 5.279-8.376 4.799-13.305.741.262 2.05.48 3.446 1.09 1.003 4.537-1.483 9.684-4.798 13.261-1.789 1.789-3.883 3.49-6.762 4.712-1.483-.567-3.228-1.484-4.667-2.356zm-8.332-8.201c.698 1.091 1.832 2.399 2.704 3.359 3.359-.567 6.107-2.356 8.289-4.275 3.184-2.923 4.754-6.107 5.06-9.422-1.004-.437-1.876-.785-2.879-1.309 0 .218.043.611.043.829-.261 3.315-2.399 6.369-5.409 8.463-2.53 1.701-5.06 2.093-7.808 2.355zm9.902-13.654c-.96-.567-1.658-1.134-2.53-1.963-.567 2.356-2.225 4.842-5.235 5.846-2.006.698-4.057.785-6.194.61.349 1.178.742 2.356 1.091 3.447 2.966.043 5.976-.742 8.375-2.181 2.312-1.396 3.97-3.621 4.493-5.759zm-5.802-5.54c-.61-.741-1.875-2.879-1.875-2.966-1.396 1.571-4.363 3.446-6.849 3.359-.131 1.047-.175 2.05-.218 3.054 1.352-.088 2.792-.262 4.057-.655 1.483-.523 3.838-1.832 4.885-2.792z"/><path fill="#3d176e" d="M224.01 249.21c-2.138 3.621-4.755 5.148-7.503 4.973-11.124-.61-23.992-16.663-19.674-34.199 0-.218.131-.437.131-.742.567 5.845 2.487 11.385 6.02 16.533 2.661 3.839 6.107 7.372 10.164 9.858 3.708 2.269 7.459 2.792 11.429 2.225-.087.524-.305.96-.567 1.352z" opacity=".44"/><path fill="#ebf2fc" d="M315.92 230.11c-5.06-11.429-13.479-22.16-25.519-26.478-13.304-4.755-28.049.479-40.917 4.405-31.059 9.466-38.955 1.178-42.357.262-6.805-1.876-3.926 8.419 4.667 17.405 5.017 5.191 4.275 12.302 3.185 15.922-2.879 9.684-10.644 26.435-14.046 37.079-4.581 14.526-2.749 32.455 7.808 43.971 2.661 2.966 4.493 3.01 2.966-.044-.436-.829-.829-1.57-1.134-2.443-1.439-3.664.087-2.748 3.272.829 2.661 3.097 5.801 6.02 9.248 8.07 3.969 2.269 4.318 2.007 2.268-1.483-.829-1.439-.611-2.443.96-1.047 1.57 1.396 4.144 3.141 6.063 4.144 3.184 1.702 6.369 3.01 9.466 4.973 2.312 1.483 4.144 3.141 5.627 5.278 1.483 2.269 2.487 2.487 3.883.437 1.832-2.705 4.362-4.842 7.503-6.238 4.623-2.094 9.814-2.138 14.613-3.403 5.409-1.396 9.466-4.362 12.737-8.113 2.705-3.141 3.796-3.185 2.138.392-.436 1.134-1.003 2.181-1.57 3.185-1.353 2.661-1.047 3.664 1.744 2.137 7.024-3.621 13.262-10.033 16.228-17.405 1.745-4.319 2.05-3.446 2.443-.873.174 1.222.13 2.487.087 3.708-.131 2.487 0 4.711 2.574 1.614 3.969-4.798 7.154-10.425 8.811-16.489.742-2.661 1.091-2.792 1.134-.043.044.872-.043 1.745-.13 2.486-.262 2.487 1.221 1.919 2.181-1.003a68.004 68.004 0 0 0 3.62-18.714c.829-15.529-1.963-35.508-9.553-52.521z"/><path fill="#07090f" d="M314.74 230.63c-3.054-6.849-7.198-13.218-12.651-18.278-2.704-2.53-5.758-4.668-9.073-6.282s-6.892-2.617-10.556-2.966c-3.665-.349-7.416-.174-11.124.393s-7.372 1.439-11.036 2.443c-3.665 1.003-7.285 2.181-10.95 3.271-3.707 1.091-7.415 2.05-11.21 2.792-1.876.393-3.795.698-5.715.96-1.919.218-3.839.436-5.802.48-3.882.13-7.808-.088-11.647-1.135-1.919-.479-3.751-1.221-5.496-2.093l-1.265-.655a12.477 12.477 0 0 0-1.178-.523c-.785-.262-1.701-.349-2.225-.044-.261.131-.436.349-.567.698-.13.349-.174.742-.174 1.178 0 .829.218 1.745.523 2.617.567 1.745 1.44 3.446 2.4 5.017.959 1.614 2.093 3.14 3.271 4.58.611.742 1.222 1.44 1.876 2.137.654.698 1.309 1.484 1.832 2.312 1.047 1.658 1.745 3.577 2.094 5.497.349 1.963.349 3.926.044 5.845-.131.96-.349 1.92-.611 2.879-.306.916-.567 1.832-.873 2.748a266.382 266.382 0 0 1-1.875 5.453 452.861 452.861 0 0 1-3.926 10.775l-4.188 10.687a161.534 161.534 0 0 0-1.963 5.322 48.36 48.36 0 0 0-.872 2.705 48.472 48.472 0 0 0-.742 2.704c-1.745 7.285-1.919 14.962-.305 22.247.785 3.621 2.05 7.198 3.838 10.426a35.462 35.462 0 0 0 3.01 4.667c.567.742 1.134 1.44 1.789 2.138.305.349.61.698.916 1.003.305.306.654.567.959.785.175.131.306.219.437.262.043.044.131.044.131.044h-.088a.891.891 0 0 0-.261.087c-.088.044-.219.175-.262.218-.087.175-.087.262-.087.218 0 0 0-.174-.088-.305-.087-.349-.261-.698-.479-1.134-.219-.436-.437-.829-.655-1.309-.087-.218-.218-.48-.305-.741l-.262-.698c-.087-.262-.174-.48-.262-.742-.087-.262-.13-.523-.174-.96v-.349c0-.131.044-.305.174-.567.044-.131.175-.261.306-.392s.349-.218.523-.306c.349-.087.611-.043.785-.043.349.087.524.174.655.261.174.088.305.175.392.262.48.349.829.698 1.222 1.047a22.822 22.822 0 0 1 2.006 2.138 47.552 47.552 0 0 0 6.064 5.758 26.28 26.28 0 0 0 2.268 1.57c.742.48 1.614.916 2.399 1.309.175.087.393.174.524.218a.333.333 0 0 0 .174.043h-.043c-.044 0-.131 0-.349.088-.218.087-.437.349-.48.523-.044.175-.044.262-.044.305v-.043c-.043-.131-.131-.305-.218-.48a7.875 7.875 0 0 0-.654-1.178l-.175-.305c-.087-.131-.131-.262-.218-.393-.131-.261-.262-.523-.349-.872-.043-.175-.087-.349-.087-.611 0-.131 0-.262.044-.48.043-.218.13-.436.349-.741.261-.306.654-.48.916-.48.305-.044.479 0 .654.044.305.087.48.174.654.261.306.175.524.393.742.567l.262.262c.087.087.174.131.261.218.698.567 1.44 1.134 2.181 1.658a31.233 31.233 0 0 0 2.356 1.483c.785.436 1.614.872 2.486 1.309 1.702.828 3.447 1.657 5.148 2.573.872.48 1.701.96 2.574 1.483a19.235 19.235 0 0 1 2.442 1.745 25.335 25.335 0 0 1 2.225 2.094c.349.393.654.785 1.003 1.178.306.393.655.872.873 1.178.218.349.523.654.698.785.087.087.131.087.087.087h-.131c.044 0 .349-.262.567-.567l.393-.567c.131-.218.305-.436.436-.611a18.468 18.468 0 0 1 4.45-4.187 20.344 20.344 0 0 1 5.496-2.574c3.839-1.178 7.721-1.44 11.342-2.268 3.577-.786 6.892-2.356 9.684-4.712.698-.567 1.396-1.177 2.006-1.832.306-.349.655-.654.96-1.003l.96-1.091c.349-.392.698-.741 1.09-1.09.218-.175.436-.349.698-.567.131-.087.305-.175.524-.306.13-.043.261-.087.479-.13.131 0 .262-.044.393 0 .175 0 .349.043.567.174a.946.946 0 0 1 .48.436c.131.175.174.306.218.437.087.261.087.436.087.567 0 .261-.043.479-.043.654a11.292 11.292 0 0 1-.873 2.312l.044-.087c-.305.828-.698 1.57-1.091 2.312l-.567 1.047c-.131.305-.305.654-.436.959-.044.175-.131.306-.131.436-.043.131-.043.262-.043.262s0-.043-.044-.131a.746.746 0 0 0-.349-.392c-.175-.088-.262-.131-.305-.131-.044 0-.044 0 0 0 .13 0 .479-.131.785-.306.305-.13.654-.348 1.003-.523a27.627 27.627 0 0 0 3.882-2.443c1.222-.916 2.443-1.876 3.534-2.922a33.452 33.452 0 0 0 5.758-7.111c.785-1.309 1.483-2.661 2.05-4.1.306-.742.611-1.483 1.047-2.312.131-.218.218-.393.436-.655.088-.13.218-.261.437-.436.13-.087.305-.218.61-.262.306-.087.698 0 .96.131s.393.306.48.437a3.06 3.06 0 0 1 .349.741c.087.262.131.48.174.698.087.436.131.829.218 1.265.044.436.088.873.088 1.309.043.872 0 1.701-.044 2.486 0 .393-.044.785-.044 1.134s0 .698.088.96c0 .131.087.175 0 .131-.044-.044-.131-.175-.306-.218-.174-.087-.305-.044-.392-.044-.131.044 0 0 .087-.043.087-.088.218-.175.305-.262.218-.218.48-.48.698-.785l.742-.916c.48-.611.959-1.222 1.396-1.876a46.273 46.273 0 0 0 2.53-3.926c1.526-2.705 2.792-5.54 3.708-8.463.218-.741.392-1.483.698-2.355.087-.218.174-.437.349-.742.043-.044.087-.087.087-.174.043-.044.043-.088.087-.088l.131-.131c.087-.043.131-.087.218-.13a.732.732 0 0 1 .436-.131c.436-.044.785.174.96.349.087.043.131.131.174.218.044.043.044.087.088.131.043.087.087.131.087.218.043.131.043.218.087.262.044.305.087.523.087.741s.044.436.044.654v1.265c0 .437-.044.873-.087 1.265l-.044.611c0 .175-.044.306-.044.48 0 .131 0 .262.044.305l-.044-.087c-.043-.043-.087-.131-.174-.174a2.809 2.809 0 0 0-.349-.131c-.218 0-.349.043-.349.043.044-.043.131-.174.218-.261.175-.262.305-.567.48-.873.131-.305.262-.654.393-1.047.13-.392.261-.741.392-1.134.48-1.483.916-2.966 1.309-4.493.741-3.053 1.352-6.107 1.657-9.248.175-1.57.262-3.141.306-4.711.087-1.57.087-3.141.087-4.711a136.278 136.278 0 0 0-.48-9.422c-.61-6.282-1.657-12.52-3.228-18.583a97.004 97.004 0 0 0-6.063-17.885zm2.355-1.047.916 2.224.48 1.135.436 1.134.829 2.268.785 2.268c.262.742.524 1.527.742 2.312.218.786.48 1.527.698 2.312.393 1.571.872 3.097 1.221 4.668a127.09 127.09 0 0 1 3.01 18.975c.218 3.185.393 6.413.393 9.597-.044 1.614-.044 3.228-.131 4.799a175.466 175.466 0 0 1-.305 4.798c-.306 3.184-.785 6.413-1.527 9.553a56.546 56.546 0 0 1-1.265 4.668c-.131.392-.262.785-.349 1.134-.131.349-.262.785-.436 1.221a8.367 8.367 0 0 1-.655 1.222 3.445 3.445 0 0 1-.523.654c-.131.131-.262.218-.436.349-.175.087-.48.262-.916.218-.218 0-.437-.087-.611-.218-.175-.087-.305-.262-.393-.349-.174-.262-.261-.436-.305-.611-.087-.349-.131-.61-.131-.872s0-.48.044-.742l.043-.567c.044-.392.044-.741.044-1.09v-1.134c0-.175 0-.349-.044-.524 0-.174-.043-.349-.043-.436 0 .044 0 0 .043.087 0 .044.044.044.044.087a.614.614 0 0 1 .131.175c.131.131.436.305.829.262a.819.819 0 0 0 .349-.088c.087-.043.13-.043.174-.087l.131-.131s0-.043.044-.043c0 0-.088.174-.131.349-.218.654-.436 1.439-.655 2.224a42.963 42.963 0 0 1-3.882 8.943c-.785 1.396-1.701 2.792-2.617 4.1l-1.44 1.963-.741.96c-.262.349-.567.654-.873 1.003-.174.175-.349.349-.567.48-.218.175-.48.349-1.003.48-.262.044-.611.044-.96-.087s-.611-.393-.741-.611a2.268 2.268 0 0 1-.393-1.003 8.441 8.441 0 0 1-.131-1.44c0-.436 0-.829.044-1.265.043-.785.087-1.57.043-2.268 0-.349-.043-.698-.087-1.047s-.131-.785-.174-1.091c-.044-.174-.088-.349-.131-.436 0-.043-.044-.087-.044-.087l.044.044c.043.043.087.13.261.218.175.087.48.174.698.087.219-.044.262-.087.349-.131.088-.044.044-.044.044-.044-.044.044-.131.219-.218.349a31.444 31.444 0 0 0-.916 2.051 35.01 35.01 0 0 1-2.181 4.449c-1.702 2.835-3.795 5.409-6.151 7.678a32.954 32.954 0 0 1-3.795 3.14c-1.309.96-2.705 1.876-4.188 2.618-.349.174-.698.392-1.134.567-.436.174-.829.392-1.483.523-.175.044-.349.044-.567.044-.262-.044-.524-.087-.873-.262-.349-.218-.61-.567-.698-.872-.13-.306-.13-.524-.13-.742 0-.393.087-.654.13-.916.088-.262.131-.48.219-.698.174-.436.349-.785.567-1.221l.567-1.047c.349-.698.698-1.353.916-2.007v-.087c.174-.393.349-.829.523-1.222.087-.174.131-.392.131-.523v-.087c0 .043 0 .087.044.218.043.043.087.174.131.262.087.13.218.218.349.305.174.087.305.131.392.131h.218c.088 0 .131-.044.131-.044s-.043 0-.087.044c-.131.087-.262.218-.436.349-.306.261-.611.61-.916.916l-.96 1.047c-.349.392-.698.741-1.003 1.09-.698.698-1.44 1.396-2.225 2.007a29.554 29.554 0 0 1-5.06 3.272c-1.789.872-3.752 1.526-5.671 1.963-3.882.872-7.678 1.134-11.124 2.224a19.65 19.65 0 0 0-4.842 2.269c-1.483 1.003-2.792 2.181-3.838 3.62l-.393.524c-.131.174-.262.392-.436.61-.175.218-.349.437-.611.698-.218.218-.523.48-.916.655a2.149 2.149 0 0 1-1.483.174c-.524-.087-.873-.349-1.178-.567-.567-.436-.872-.916-1.221-1.309a16.668 16.668 0 0 0-.786-1.134c-.261-.349-.567-.698-.828-1.003-.611-.654-1.222-1.265-1.92-1.832-1.396-1.134-2.966-2.05-4.624-2.967-1.657-.872-3.359-1.701-5.103-2.573-.873-.436-1.745-.873-2.618-1.396-.872-.48-1.701-1.047-2.486-1.614-.829-.567-1.614-1.134-2.356-1.789-.087-.087-.174-.174-.305-.261l-.262-.218a1.959 1.959 0 0 0-.392-.306c-.044-.043-.088-.043 0 0 .043 0 .13.044.305 0 .174 0 .436-.131.611-.349.174-.174.174-.349.218-.392v-.131.087c.043.131.087.262.174.436l.131.262.175.305c.261.437.479.873.697 1.353.131.261.219.479.349.828.044.175.088.349.131.655 0 .174 0 .349-.087.654s-.393.654-.698.785-.523.175-.698.175c-.174 0-.305 0-.392-.044a4.302 4.302 0 0 1-.524-.131c-.305-.087-.523-.218-.785-.349-.96-.48-1.745-.916-2.617-1.439a30.628 30.628 0 0 1-2.443-1.702c-1.571-1.221-3.01-2.53-4.406-3.925a30.53 30.53 0 0 1-1.963-2.182c-.611-.698-1.265-1.395-1.876-2.05a8.141 8.141 0 0 0-.959-.829c-.088-.043-.131-.087-.175-.13-.044-.044-.087-.044 0 0 .044 0 .175.043.436-.044a.955.955 0 0 0 .349-.218c.088-.087.175-.175.218-.262.088-.131.088-.218.088-.218 0 .087.043.262.087.48.043.174.131.392.174.61l.262.655c.087.174.175.392.262.567.174.393.392.829.611 1.265.218.436.479.916.654 1.483.087.305.174.611.174 1.091 0 .218-.043.523-.261.916a1.875 1.875 0 0 1-.524.48c-.218.13-.436.174-.611.218-.349.043-.61 0-.828-.044-.219-.044-.393-.131-.524-.174a3.448 3.448 0 0 1-.785-.48c-.48-.349-.872-.698-1.221-1.047-.393-.349-.698-.742-1.047-1.091a46.626 46.626 0 0 1-1.876-2.268 41.955 41.955 0 0 1-3.185-4.973c-1.832-3.49-3.14-7.198-3.969-11.036-1.658-7.634-1.44-15.617.436-23.207.218-.96.48-1.876.785-2.836.262-.916.611-1.832.916-2.748.655-1.832 1.309-3.62 2.007-5.409.698-1.788 1.396-3.577 2.137-5.322.742-1.788 1.484-3.533 2.225-5.278 1.483-3.49 3.097-6.98 4.537-10.513a79.091 79.091 0 0 0 2.05-5.322c.305-.916.611-1.788.873-2.704.261-.873.436-1.789.567-2.749a18.157 18.157 0 0 0-.088-5.54c-.349-1.832-1.003-3.577-2.006-5.103-.48-.786-1.091-1.484-1.745-2.138-.654-.698-1.309-1.396-1.963-2.137a40.227 40.227 0 0 1-3.446-4.668c-1.047-1.657-1.963-3.359-2.618-5.234-.305-.96-.567-1.92-.654-2.967 0-.523 0-1.09.218-1.657.175-.567.611-1.178 1.178-1.484.567-.349 1.221-.436 1.745-.392.567 0 1.09.131 1.614.262.567.174 1.003.392 1.439.567l1.309.61c1.701.786 3.446 1.44 5.235 1.876 3.62.916 7.372 1.047 11.123.873 1.876-.088 3.752-.306 5.628-.524a82.988 82.988 0 0 0 5.583-.96c3.708-.741 7.372-1.744 10.993-2.835 3.62-1.091 7.285-2.312 10.993-3.359 3.707-1.047 7.459-2.007 11.298-2.617 3.838-.611 7.764-.873 11.69-.524s7.852 1.396 11.429 3.097c3.577 1.702 6.849 3.97 9.728 6.631 2.923 2.661 5.409 5.671 7.634 8.899 1.919 2.966 3.751 6.412 5.365 9.946z"/><path fill="#d0d9e6" d="M290.4 229.23c-1.526 6.674 2.967 16.489 8.943 18.409 6.063 1.919 10.426-2.4 10.513-8.376.087-5.365-2.574-10.818-6.587-14.177-3.839-3.315-10.687-5.802-12.869 4.144z"/><path fill="#d0d9e6" d="M320.54 299.46c-.218 2.53-.043 5.235 1.309-.262 7.939-32.28-2.181-67.832-16.489-81.922 13.043 29.227 16.533 43.666 16.489 70.624-.349 9.03-3.228-6.892-5.191 2.138-4.842 33.327-6.151 3.359-11.036 15.878-2.399 6.063-5.497 9.64-9.466 14.046-10.688 11.778 3.315-14.351-8.899-1.134-9.597 10.382-23.512 9.03-33.938 16.097-3.184 2.137-2.181 2.835-5.845-.175-6.326-5.191-15.05-6.761-20.852-12.563-10.382-8.942 3.447 12.956-14.569-8.681-1.571-1.788-3.01-2.966-3.054.655-1.701 7.284-9.946-16.097-5.889-38.475-6.63 16.227-2.661 34.767 3.228 43.011 4.58 6.325 6.762 7.896 3.883.916-3.141-7.808 5.932 5.671 12.824 9.466 5.846 3.228-.305-6.325 4.275-2.835 4.799 3.62 7.809 5.278 15.442 9.117 3.272 1.657 5.715 8.157 7.983 5.54 6.195-7.111 15.137-7.983 22.117-9.771 5.54-1.44 9.553-4.145 13.348-8.812 4.842-5.976 2.443.916 1.221 3.49-3.795 7.764 11.953-3.01 17.318-14.483 5.366-11.385-.087 11.255 5.191 3.926 3.97-4.798 6.5-9.858 8.768-15.704 1.178-2.748 2.051-2.661 1.832-.087z"/><path fill="#89d1f1" d="M294.37 274.38c-6.456-11.908-3.664-18.539-3.01-26.304 1.309-16.62-12.563-17.012-25.955-11.472-8.637 3.577-18.539 7.197-27.22 2.181-9.291-5.758-15.442-2.268-17.361 7.765-1.396 7.459-2.574 16.096-6.674 23.119-18.758 35.901 19.411 55.182 51.037 50.558 27.046-3.97 43.84-19.63 29.183-45.847z"/><path fill="#07090f" d="M293.89 274.64a12.219 12.219 0 0 0-.567-1.047l-.567-1.047c-.349-.698-.698-1.396-1.047-2.138-.654-1.439-1.178-2.966-1.614-4.493-.872-3.097-1.134-6.412-.96-9.596.131-3.185.611-6.326.698-9.248.044-1.483 0-2.923-.218-4.319-.131-.698-.262-1.352-.523-2.007-.218-.654-.48-1.265-.829-1.832s-.742-1.09-1.222-1.614a8.69 8.69 0 0 0-1.57-1.265c-1.178-.741-2.53-1.221-3.969-1.483-1.44-.262-2.967-.349-4.494-.262-1.526.088-3.053.349-4.536.655a39.298 39.298 0 0 0-4.406 1.308c-1.44.524-2.835 1.178-4.275 1.789-2.879 1.265-5.802 2.486-8.899 3.315s-6.369 1.309-9.64.96c-1.658-.175-3.272-.524-4.842-1.134-.393-.131-.786-.306-1.178-.48a13.777 13.777 0 0 1-1.134-.567l-.567-.306-.48-.305c-.306-.218-.655-.393-.96-.567-1.309-.698-2.661-1.265-4.013-1.57-1.352-.306-2.748-.349-4.013.043-1.265.349-2.356 1.134-3.228 2.225-.437.523-.829 1.134-1.178 1.745-.349.654-.611 1.308-.873 2.006a17.537 17.537 0 0 0-.654 2.138c-.087.349-.174.741-.262 1.09l-.218 1.178c-.305 1.527-.61 3.054-.959 4.581-.698 3.053-1.484 6.107-2.487 9.117-.523 1.483-1.134 2.922-1.788 4.362-.655 1.439-1.44 2.792-2.182 4.187-1.439 2.749-2.442 5.715-3.184 8.725a32.075 32.075 0 0 0-1.047 9.073c.087 3.054.611 6.064 1.701 8.855 2.138 5.628 6.282 10.47 11.342 13.829a47.471 47.471 0 0 0 8.027 4.318c2.791 1.178 5.714 2.094 8.724 2.836 5.933 1.439 12.083 2.006 18.19 1.788a71.73 71.73 0 0 0 9.117-.96c3.01-.523 6.02-1.221 8.899-2.137 2.923-.916 5.715-2.05 8.376-3.446 2.66-1.44 5.147-3.097 7.284-5.148 1.091-1.003 2.051-2.137 2.923-3.315.873-1.178 1.614-2.443 2.225-3.795s1.047-2.748 1.352-4.188c.305-1.439.436-2.922.436-4.405-.043-5.933-1.875-11.953-4.711-17.449zm.916-.524a48.364 48.364 0 0 1 4.232 8.507c1.134 3.009 1.919 6.194 2.006 9.466a23.495 23.495 0 0 1-.392 4.929 23.032 23.032 0 0 1-1.44 4.755c-1.309 3.053-3.272 5.801-5.627 8.07-2.356 2.268-5.06 4.144-7.939 5.627a50.8 50.8 0 0 1-8.899 3.62c-3.054.96-6.151 1.658-9.292 2.182-3.141.523-6.325.872-9.509.959-6.369.218-12.738-.523-18.889-2.137-6.15-1.658-12.083-4.188-17.274-7.939-2.574-1.876-4.973-4.057-7.023-6.544-2.05-2.486-3.708-5.278-4.798-8.331-1.091-3.01-1.614-6.282-1.571-9.466 0-1.614.218-3.185.48-4.755.262-1.571.654-3.097 1.134-4.624.96-3.01 2.399-5.845 3.795-8.637.742-1.396 1.44-2.748 1.963-4.232.524-1.439.96-2.966 1.309-4.449s.698-3.01.96-4.537c.261-1.527.523-3.053.741-4.58s.48-3.097.742-4.624l.174-1.178c.087-.392.131-.785.262-1.178.174-.785.393-1.57.654-2.355.262-.785.611-1.571.96-2.312.393-.742.829-1.483 1.396-2.138 1.047-1.352 2.574-2.53 4.318-3.053 1.745-.567 3.577-.524 5.235-.175s3.228 1.004 4.668 1.789c.349.174.741.392 1.047.611l.523.305.48.262c.305.174.654.305.96.48.349.13.654.305 1.003.436 1.352.523 2.792.872 4.231 1.003 2.923.349 5.933 0 8.899-.611 2.966-.61 5.933-1.57 8.855-2.617 1.44-.523 2.923-1.134 4.406-1.658 1.483-.523 3.01-.959 4.537-1.352 3.053-.741 6.238-1.309 9.553-1.047 1.658.131 3.315.524 4.886 1.265 1.57.742 3.01 1.963 4.013 3.446.523.742.916 1.527 1.221 2.356.306.829.567 1.658.698 2.486.175.829.262 1.702.306 2.53a23.99 23.99 0 0 1 0 2.487c-.219 3.272-1.004 6.325-1.396 9.335a31.552 31.552 0 0 0-.306 4.493c.044 1.483.175 3.01.48 4.493a39.508 39.508 0 0 0 3.228 8.637z"/><path fill="#e6fffe" d="M271.73 293.18c.393 1.57 2.661-.044 3.752-.698 3.184-2.051 3.926-2.749-.087-5.148-5.191-3.446-4.319 3.272-3.665 5.846z"/><path fill="#07090f" d="M272.21 293.1c.218.96 2.312-.654 2.835-.959.829-.611 1.92-1.134 2.487-2.007.043-.131.087-.174.043-.305-.174-.611-1.09-1.309-1.614-1.745-.785-.48-1.57-1.047-2.355-1.265-2.967-.785-1.876 4.755-1.396 6.281zm-.916.219c-.742-3.054-1.178-9.466 3.795-6.587l1.221.741c.873.524 1.963 1.003 2.312 2.094.306 1.265-1.003 2.094-1.832 2.705-1.265.785-2.399 1.701-3.882 2.05-.742.131-1.483-.262-1.614-1.003z"/><path fill="#e98df7" d="M254.11 278.74c-.873-1.658-2.487-3.665-4.014-4.842-3.402-2.661-7.895 2.704-8.593 5.67-1.352 5.54 16.925 6.718 12.607-.828z"/><path fill="#07090f" d="M253.46 279.05a14.453 14.453 0 0 0-2.574-3.708c-.523-.524-1.09-1.134-1.657-1.44a2.676 2.676 0 0 0-2.007-.262c-.698.131-1.396.48-2.007.916-.61.437-1.221.96-1.657 1.571-.48.611-.873 1.265-1.222 1.963-.174.349-.305.698-.436 1.047a99.89 99.89 0 0 1-.131.523c0 .175-.043.349-.043.524.043.654.436 1.221 1.003 1.657.567.437 1.265.742 1.963.96 1.396.436 2.923.611 4.406.523.741-.043 1.483-.13 2.137-.348.349-.088.655-.219.96-.349.174-.044.305-.131.436-.219.175-.043.262-.13.393-.218.131-.087.218-.174.349-.261.087-.088.174-.219.262-.306a1.87 1.87 0 0 0 .261-.741c.131-.524-.087-1.178-.436-1.832zm1.265-.655c.393.742.829 1.571.829 2.618a3.18 3.18 0 0 1-.393 1.526c-.131.218-.261.437-.436.655-.174.174-.349.392-.567.523-.785.611-1.658.873-2.486 1.047-.829.175-1.702.175-2.531.175a13.88 13.88 0 0 1-4.798-1.004c-.742-.305-1.527-.741-2.137-1.308-.306-.306-.611-.611-.829-1.047l-.131-.306c-.044-.087-.044-.218-.087-.349-.088-.218-.044-.436-.088-.698 0-.218.044-.436.088-.654.043-.218.131-.393.174-.611.131-.392.349-.741.524-1.09.392-.698.872-1.353 1.396-1.963.523-.611 1.046-1.178 1.701-1.701.61-.524 1.308-.96 2.137-1.178.785-.262 1.745-.218 2.574.174.393.175.741.436 1.09.698l.917.785c1.177 1.047 2.224 2.269 3.053 3.708z"/><path fill="#07090f" d="M245.65 280.1c1.09-.96.043-3.272-1.265-2.268-1.178.916-.088 3.359 1.265 2.268zm4.1.83c1.614-1.004.044-4.014-1.657-2.792-1.614 1.09 0 3.795 1.657 2.792z"/><path fill="#fff" d="M266.1 256.72c-13.741-3.185-14.919 21.113-1.483 20.284 10.6-.611 11.691-18.016 1.483-20.284z"/><path fill="#07090f" d="M265.97 257.33c-7.023-1.745-11.036 4.798-10.338 11.123.392 3.577 2.791 7.241 6.543 7.809 2.312.392 4.885-.088 6.718-1.571 5.452-4.449 4.624-15.66-2.923-17.361zm.262-1.222c7.241 1.44 9.553 10.731 6.238 16.62-2.007 3.795-6.369 5.627-10.513 4.624-4.101-.829-6.674-4.842-7.067-8.812-1.091-7.241 3.359-14.264 11.342-12.432z"/><path fill="#07090f" d="M265.23 263.08c-3.708-.349-5.278 5.627-2.487 7.328 5.148 3.098 7.154-6.107 2.487-7.328z"/><path fill="#fff" d="M239.8 261.99c-5.758-10.295-17.885.349-14.003 9.902 5.453 11.691 20.546 1.92 14.003-9.902z"/><path fill="#07090f" d="M239.32 262.26c-4.144-7.765-12.52-2.661-13.436 4.319-1.003 7.023 6.151 13.174 12.258 7.983 3.577-3.098 3.533-8.419 1.178-12.302zm.916-.48c3.14 5.54 1.439 12.782-4.624 15.442-6.718 2.836-12.432-4.405-11.211-10.774 1.396-8.201 11.036-13.392 15.835-4.668z"/><path fill="#07090f" d="M234.52 264.13c-3.359-.305-4.449 4.929-2.007 6.456 4.537 2.835 6.369-5.845 2.007-6.456z"/><path fill="#1a83af" d="M256.46 276.48c1.396.916 2.705 1.963 4.363 2.748 2.05 1.004 5.278.698 7.328.218.131 0 .262.131.131.262-2.268 1.614-4.101 2.225-6.892 1.483-2.094-.741-4.319-2.486-4.93-4.711-.131 0-.131 0 0 0z"/><path fill="#07090f" d="M261.87 250.35c.873-2.966 5.54-3.446 8.899-2.53s7.983 3.752 7.372 7.721c-.261 1.658-4.929-.218-8.157-1.439-2.443-.96-8.855-1.309-8.114-3.752zm-37.95 5.89c-1.963-5.017 8.593-9.117 11.385-4.275.218.436.175 1.047-.218 1.396-1.614 1.439-3.315 1.614-5.453 2.181-1.875.436-4.885 2.792-5.714.698z"/><path fill="#1a83af" d="M229.29 279.84c1.745-.087 3.49.043 5.235-.306 2.225-.479 4.231-1.919 5.889-3.271.131-.131.262 0 .262.131-2.181 4.057-7.285 5.496-11.473 3.708 0-.131 0-.262.087-.262zm59.02 31.75c14.962-9.379 11.69-25.868 5.496-37.123-3.184-5.801-5.627-12.606-4.319-22.901-4.885 18.452 0 20.72 3.883 32.934 9.379 37.21-63.601 45.454-82.053 11.866 11.821 28.354 53.35 28.179 76.993 15.224z"/><path fill="#1a83af" d="M229.81 293.79c3.446-3.271 10.688-2.312 13.261 1.527.262.48.088 1.221-.567 1.396-2.224.48-4.1-.044-6.238-.436-2.268-.393-4.231-.393-6.412-1.396-.349-.044-.393-.698-.044-1.091z"/><path fill="#07090f" d="M220.04 237.91c4.231-3.839 11.385-5.016 15.966-1.134l-1.091 1.352c-4.318-3.577-10.164-2.355-14.875-.218zm61.94 45.55c.087 4.929-3.883 9.117-8.245 10.905-3.141 1.352-6.587 1.963-9.989 2.05-5.409.088-10.731-1.352-15.791-3.009-6.326-2.051-16.446-5.584-22.378-1.266 2.268-3.707 7.372-3.969 11.254-3.577 6.674.742 12.738 3.839 19.237 5.235 7.154 1.701 16.228 1.483 21.811-3.882 1.876-1.789 3.141-4.013 4.014-6.5z"/><path fill="#89d1f1" d="M313.17 280.58c4.1-7.111 5.889-22.771-3.359-26.828-4.188-1.788-11.516-1.09-13.261 3.839-4.144 7.808 8.637 36.729 16.62 22.989z"/><path fill="#07090f" d="M312.74 280.32a21.79 21.79 0 0 0 1.178-2.486c.349-.873.61-1.745.872-2.618.48-1.788.785-3.62.916-5.453.087-.916.087-1.832.087-2.748-.043-.916-.087-1.832-.218-2.704-.262-1.789-.741-3.534-1.527-5.06a10.156 10.156 0 0 0-1.439-2.138c-.567-.611-1.178-1.178-1.876-1.614-.698-.48-1.439-.785-2.225-1.003-.785-.262-1.657-.349-2.53-.436-.872-.088-1.745-.044-2.573.043-.873.087-1.702.306-2.487.611s-1.483.741-2.094 1.265a5.946 5.946 0 0 0-1.308 1.963l-.044.087v.044c-.611 1.134-.742 2.704-.698 4.188.044 1.483.262 3.009.611 4.536a36.473 36.473 0 0 0 3.097 8.725 32.789 32.789 0 0 0 2.356 3.969c.436.611.916 1.222 1.439 1.745a10.626 10.626 0 0 0 1.658 1.483c.61.393 1.221.742 1.875.873.349.087.655.087 1.004.087.349-.044.654-.087 1.003-.218.654-.262 1.221-.698 1.745-1.222.349-.61.785-1.265 1.178-1.919zm.872.523c-.436.698-.872 1.396-1.439 2.007s-1.222 1.221-2.051 1.57a5.688 5.688 0 0 1-1.308.393 6.95 6.95 0 0 1-1.353 0c-.916-.131-1.701-.523-2.442-.96-1.44-.916-2.574-2.181-3.577-3.489-1.004-1.309-1.832-2.705-2.574-4.144a39.875 39.875 0 0 1-3.359-9.074c-.349-1.57-.611-3.184-.698-4.842-.043-.829 0-1.658.087-2.53.131-.872.349-1.745.742-2.574l-.044.131c.393-1.003.96-1.963 1.745-2.748.785-.742 1.701-1.309 2.618-1.745a14.402 14.402 0 0 1 2.966-.872c1.003-.175 2.006-.218 3.053-.175 1.004.044 2.051.218 3.01.524 1.004.305 2.007.741 2.836 1.352.872.611 1.657 1.309 2.312 2.137a13.728 13.728 0 0 1 1.614 2.618c.828 1.832 1.265 3.839 1.439 5.758.087.96.087 1.963.087 2.923-.043.959-.087 1.919-.218 2.879-.131.959-.261 1.919-.48 2.835-.218.916-.436 1.876-.741 2.792a23.911 23.911 0 0 1-2.225 5.234z"/><path fill="#1a83af" d="M303.88 260.82c-1.963-1.178-5.104-.698-7.11.393-.262 8.942 4.667 16.533 5.671 17.798 1.003.218 2.748-.611 4.056-1.484 5.061-4.231 2.661-13.61-2.617-16.707z"/><path fill="#07090f" d="M298.86 249.08c-1.44 5.322-2.879 10.6-2.094 16.097.262 1.788.654 3.533 1.352 5.191 1.309 3.402 2.792 6.805 4.798 9.902 1.963 3.184 4.668 5.496 7.852 7.459-1.832-.436-3.62-1.221-5.191-2.399-4.58-3.534-7.066-9.117-9.16-14.308-2.225-5.366-2.399-11.56-.48-17.013.654-1.788 1.57-3.577 2.923-4.929z"/><path fill="#762dd7" d="M318.06 203.24c-4.144 10.251-12.781 14.133-20.676 16.401-3.665 1.047-4.886 4.799-4.93 8.289-.087 3.446 1.091 7.241 2.836 10.12 7.59 12.694 20.764 3.141 26.871-7.329 4.318-7.59 6.281-17.579 3.577-27.961-2.225-8.506-5.148-5.715-7.678.48z"/><path fill="#07090f" d="m318.63 203.45-.873 1.832-1.003 1.745c-.392.567-.741 1.134-1.134 1.658-.436.523-.829 1.046-1.265 1.57-.916 1.003-1.832 1.963-2.836 2.835l-.785.655-.785.61c-.523.437-1.09.786-1.614 1.135-2.225 1.483-4.624 2.661-7.11 3.664-1.222.48-2.53.916-3.752 1.308-.567.175-1.047.437-1.483.786s-.829.741-1.134 1.221c-.654.916-1.047 2.094-1.222 3.272a14.692 14.692 0 0 0-.087 3.664c.262 2.443 1.047 4.886 2.225 7.067 1.178 2.137 2.705 4.187 4.668 5.322a7.893 7.893 0 0 0 3.228 1.09c1.134.131 2.311 0 3.489-.305 2.356-.611 4.537-1.92 6.544-3.446a30.282 30.282 0 0 0 5.365-5.453c3.184-4.013 5.322-8.812 6.456-13.872.567-2.53.785-5.104.698-7.677-.087-2.574-.436-5.148-.96-7.634-.305-1.265-.567-2.53-1.003-3.664-.218-.567-.436-1.178-.741-1.658-.262-.48-.655-.916-.96-1.003-.131-.044-.306-.044-.524.043a1.443 1.443 0 0 0-.61.437c-.437.392-.786.872-1.135 1.395a12.467 12.467 0 0 0-.916 1.658 16.285 16.285 0 0 0-.741 1.745zm-1.091-.436c.262-.611.524-1.222.829-1.832.305-.611.567-1.222.916-1.789.349-.611.742-1.178 1.265-1.701.262-.262.567-.524.96-.742.392-.218.916-.305 1.396-.174s.872.392 1.178.654c.305.262.523.611.741.916.393.611.698 1.265.96 1.92.262.654.436 1.308.654 1.919.175.654.306 1.309.48 1.963 1.134 5.278.96 10.731-.131 15.966-.523 2.617-1.308 5.191-2.355 7.677s-2.4 4.842-3.97 6.979c-1.614 2.182-3.403 4.188-5.496 5.933-2.094 1.745-4.45 3.272-7.198 4.057-1.352.393-2.835.611-4.319.48a10.413 10.413 0 0 1-4.231-1.309 12.805 12.805 0 0 1-3.315-2.792c-.916-1.09-1.658-2.268-2.312-3.533a20.364 20.364 0 0 1-2.181-7.983c-.087-1.396 0-2.792.261-4.188.131-.698.349-1.396.611-2.05s.611-1.309 1.047-1.919a6.162 6.162 0 0 1 1.614-1.571c.611-.436 1.309-.785 2.007-.959.654-.218 1.265-.349 1.919-.524.611-.174 1.265-.349 1.876-.567 2.443-.785 4.886-1.745 7.11-3.097.567-.349 1.091-.654 1.614-1.047.262-.174.524-.393.785-.567l.742-.611c.523-.392.96-.872 1.44-1.308.218-.218.436-.48.654-.698l.611-.742c1.614-2.094 2.879-4.406 3.838-6.761z"/><path fill="#af62f1" d="M309.07 241.54c-2.923-1.352-5.104-3.228-6.936-5.235-3.446-4.056-6.107-9.945-5.278-15.224 1.395-.698 2.704-1.047 3.402-1.352-.305 5.715.567 11.036 5.278 15.268 2.749 2.443 5.191 3.097 8.114 3.708-1.439 1.047-3.097 2.137-4.58 2.835zm4.711-15.093c-3.097-2.312-5.322-5.802-5.715-9.641-.043-.261 0-.741 0-.959-.959.654-1.832 1.09-2.835 1.614.436 3.839 2.137 7.459 5.409 10.774 2.225 2.138 5.06 4.101 8.419 4.668.829-1.178 1.876-2.705 2.574-3.97-2.705-.218-5.235-.61-7.852-2.486zm2.181-6.456a14 14 0 0 0 8.463 2.268c.305-1.265.698-2.661 1.003-4.013-2.094.218-4.144.218-6.194-.523-3.054-1.091-4.799-3.926-5.453-6.631-.829.916-1.483 1.658-2.443 2.312.567 2.443 2.268 4.973 4.624 6.587zm5.889-10.12c1.265.436 2.705.61 4.057.654a33.32 33.32 0 0 0-.306-3.49c-2.486.131-5.496-1.919-6.935-3.708 0 .131-1.178 2.618-1.745 3.49 1.047 1.091 3.446 2.53 4.929 3.054z"/><path fill="#3d176e" d="M297.38 236.04c2.268 4.1 4.929 5.845 7.677 5.54 11.124-1.004 23.425-19.979 18.452-40.176 0-.262-.13-.48-.174-.873-.349 6.762-2.094 13.261-5.453 19.325-2.53 4.536-5.845 8.724-9.815 11.69-3.62 2.705-7.328 3.447-11.341 2.923.174.567.392 1.047.654 1.571z" opacity=".44"/></svg>