<svg xmlns="http://www.w3.org/2000/svg" width="433" height="157" viewBox="342 192 433 157"><path fill="#89d1f1" d="M372.85 301.59c-4.727 0-8.879-.909-12.455-2.728-3.576-1.879-6.334-4.485-8.274-7.819-1.939-3.333-2.909-7.182-2.909-11.546v-21.002c0-4.364.97-8.213 2.909-11.547 1.94-3.333 4.698-5.909 8.274-7.728 3.576-1.818 7.728-2.727 12.455-2.727 4.668 0 8.759.879 12.274 2.636 3.576 1.697 6.334 4.152 8.274 7.365 2 3.151 3 6.819 3 11.001 0 .545-.364.879-1.091 1l-10.637.636h-.182c-.606 0-.909-.333-.909-1 0-3.212-1-5.788-3.001-7.728-1.939-1.939-4.515-2.909-7.728-2.909-3.273 0-5.909.97-7.909 2.909-1.94 1.94-2.91 4.516-2.91 7.728v21.911c0 3.152.97 5.698 2.91 7.637 2 1.94 4.636 2.91 7.909 2.91 3.213 0 5.789-.97 7.728-2.91 2.001-1.939 3.001-4.485 3.001-7.637 0-.666.363-1 1.091-1l10.637.455c.303 0 .546.091.727.273.243.181.364.393.364.636 0 4.182-1 7.879-3 11.092-1.94 3.212-4.698 5.697-8.274 7.455-3.515 1.758-7.606 2.637-12.274 2.637zm30.95-.73c-.303 0-.576-.091-.819-.272a1.338 1.338 0 0 1-.272-.819v-61.46c0-.303.091-.545.272-.727.243-.243.516-.364.819-.364h10.637c.303 0 .546.121.727.364a.863.863 0 0 1 .364.727v61.46c0 .303-.121.576-.364.819-.181.181-.424.272-.727.272zm39.47.73c-5.092 0-9.456-1.334-13.092-4.001-3.637-2.667-6.122-6.303-7.456-10.91-.848-2.848-1.272-5.94-1.272-9.273 0-3.576.424-6.789 1.272-9.638 1.394-4.485 3.91-8 7.547-10.546 3.636-2.546 8-3.819 13.092-3.819 4.97 0 9.213 1.273 12.728 3.819 3.516 2.485 6.001 5.97 7.455 10.455.97 3.031 1.455 6.213 1.455 9.547 0 3.273-.424 6.334-1.273 9.183-1.333 4.727-3.818 8.455-7.455 11.182-3.576 2.667-7.91 4.001-13.001 4.001zm0-11.001c2 0 3.697-.606 5.091-1.819 1.394-1.212 2.394-2.879 3-5 .485-1.94.728-4.061.728-6.364 0-2.546-.243-4.698-.728-6.455-.666-2.061-1.697-3.667-3.091-4.819s-3.091-1.728-5.091-1.728c-2.061 0-3.788.576-5.182 1.728-1.334 1.152-2.304 2.758-2.91 4.819-.485 1.454-.727 3.606-.727 6.455 0 2.727.212 4.849.636 6.364.606 2.121 1.606 3.788 3.001 5 1.454 1.213 3.212 1.819 5.273 1.819zm54.97-35.369c0-.303.091-.546.273-.728.242-.242.515-.363.818-.363h10.638c.303 0 .545.121.727.363a.867.867 0 0 1 .364.728v44.549c0 .303-.122.576-.364.819-.182.181-.424.272-.727.272h-10.638c-.303 0-.576-.091-.818-.272a1.332 1.332 0 0 1-.273-.819v-3.091c0-.182-.06-.273-.182-.273-.121-.06-.242 0-.363.182-2.425 3.273-6.183 4.91-11.274 4.91-4.607 0-8.395-1.394-11.365-4.182-2.97-2.789-4.455-6.698-4.455-11.729V255.22c0-.303.091-.546.273-.728.242-.242.515-.363.818-.363h10.547c.303 0 .545.121.727.363a.867.867 0 0 1 .364.728v27.184c0 2.425.636 4.394 1.909 5.91 1.333 1.515 3.152 2.273 5.455 2.273 2.061 0 3.758-.606 5.091-1.819 1.334-1.272 2.152-2.909 2.455-4.909zm49-16.91c0-.303.091-.545.272-.727.243-.243.516-.364.819-.364h10.637c.303 0 .546.121.727.364a.863.863 0 0 1 .364.727v61.46c0 .303-.121.576-.364.819-.181.181-.424.272-.727.272h-10.637c-.303 0-.576-.091-.819-.272a1.338 1.338 0 0 1-.272-.819v-3c0-.182-.061-.273-.182-.273-.121-.06-.243-.03-.364.091-2.546 3.334-6.031 5.001-10.455 5.001-4.243 0-7.91-1.182-11.001-3.546-3.031-2.364-5.213-5.607-6.546-9.728-1.031-3.152-1.546-6.819-1.546-11.001 0-4.304.545-8.062 1.636-11.274 1.395-3.879 3.577-6.94 6.547-9.183 3.03-2.303 6.758-3.455 11.182-3.455 4.364 0 7.759 1.516 10.183 4.546.121.182.243.243.364.182.121-.06.182-.182.182-.364zm-1.91 48.368c1.213-2.242 1.819-5.303 1.819-9.182 0-4.061-.667-7.244-2-9.547-1.394-2.364-3.425-3.546-6.092-3.546-2.849 0-5 1.182-6.455 3.546-1.515 2.364-2.273 5.577-2.273 9.638 0 3.636.636 6.667 1.909 9.091 1.516 2.607 3.758 3.91 6.728 3.91 2.728 0 4.849-1.303 6.364-3.91z"/><path fill="#ebf2fc" d="M583.92 289.31c-.121.121-.151.242-.09.364.06.121.181.181.363.181h24.639c.303 0 .545.122.727.364a.863.863 0 0 1 .364.727v8.819c0 .303-.121.576-.364.819-.182.181-.424.272-.727.272h-40.913c-.303 0-.576-.091-.818-.272a1.332 1.332 0 0 1-.273-.819v-8.364c0-.546.182-1 .545-1.364a230.286 230.286 0 0 0 9.092-9.455c3.091-3.455 5.031-5.607 5.819-6.455a118.396 118.396 0 0 1 5.182-5.728c5.516-6.122 8.274-10.668 8.274-13.638 0-2.121-.758-3.849-2.273-5.182-1.516-1.394-3.485-2.091-5.91-2.091-2.424 0-4.394.697-5.91 2.091-1.515 1.333-2.272 3.121-2.272 5.364v2.273c0 .303-.122.576-.364.818-.182.182-.424.273-.727.273h-10.729c-.303 0-.576-.091-.818-.273a1.327 1.327 0 0 1-.273-.818v-4.273c.182-3.273 1.212-6.152 3.091-8.637 1.879-2.546 4.364-4.486 7.456-5.819 3.151-1.334 6.667-2 10.546-2 4.304 0 8.031.818 11.183 2.455 3.212 1.575 5.667 3.727 7.364 6.455 1.758 2.727 2.637 5.758 2.637 9.091 0 2.546-.636 5.152-1.909 7.819s-3.182 5.546-5.728 8.638c-1.879 2.363-3.91 4.697-6.092 7s-5.424 5.637-9.728 10.001z"/><path fill="#89d1f1" d="M638.7 301.59c-4.849 0-9.092-.758-12.729-2.273-3.637-1.576-6.455-3.788-8.455-6.637-1.94-2.91-2.909-6.273-2.909-10.092v-2c0-.303.09-.546.272-.728.243-.242.515-.363.819-.363h10.364c.303 0 .546.121.727.363a.864.864 0 0 1 .364.728v1.364c0 2.424 1.121 4.485 3.364 6.182 2.243 1.636 5.273 2.455 9.092 2.455 3.212 0 5.606-.667 7.182-2 1.576-1.395 2.364-3.092 2.364-5.092 0-1.455-.485-2.667-1.454-3.637-.97-1.03-2.304-1.909-4.001-2.636-1.636-.788-4.273-1.849-7.91-3.182-4.061-1.394-7.516-2.819-10.364-4.273a21.543 21.543 0 0 1-7.092-5.91c-1.879-2.546-2.818-5.667-2.818-9.365 0-3.636.939-6.818 2.818-9.546 1.879-2.727 4.485-4.819 7.819-6.273 3.334-1.455 7.183-2.182 11.547-2.182 4.606 0 8.697.818 12.273 2.455 3.637 1.636 6.456 3.939 8.456 6.909 2.061 2.91 3.091 6.304 3.091 10.183v1.364c0 .303-.121.576-.364.818-.182.182-.424.273-.727.273h-10.456a1.33 1.33 0 0 1-.818-.273 1.327 1.327 0 0 1-.273-.818v-.728c0-2.545-1.06-4.697-3.182-6.455-2.06-1.818-4.909-2.727-8.546-2.727-2.849 0-5.091.606-6.728 1.818-1.576 1.212-2.364 2.879-2.364 5.001 0 1.515.455 2.788 1.364 3.818.97 1.031 2.364 1.97 4.182 2.819 1.879.788 4.758 1.879 8.637 3.273 4.304 1.576 7.668 2.97 10.092 4.182 2.485 1.212 4.698 3.03 6.637 5.455 2 2.364 3.001 5.455 3.001 9.273 0 5.698-2.092 10.214-6.274 13.547-4.182 3.273-9.849 4.91-17.001 4.91zm51.34-65.1c4.607 0 8.668.939 12.183 2.818 3.516 1.879 6.243 4.546 8.183 8.001 1.939 3.455 2.909 7.455 2.909 12.001v20.366c0 5.394-1.455 9.97-4.364 13.728-2.909 3.697-6.91 6.152-12.001 7.364-.242.061-.364.213-.364.455v7.455a.866.866 0 0 1-.363.728.866.866 0 0 1-.728.363h-10.637c-.303 0-.576-.121-.818-.363-.182-.182-.273-.425-.273-.728v-7.364c0-.242-.121-.394-.364-.455-5.091-1.212-9.122-3.697-12.092-7.455s-4.455-8.334-4.455-13.728V259.31c0-4.546.97-8.516 2.91-11.91 1.939-3.455 4.667-6.122 8.182-8.001 3.516-1.939 7.546-2.909 12.092-2.909zm10.456 22.184c0-3.334-.97-6.031-2.91-8.092-1.879-2.061-4.394-3.091-7.546-3.091-3.091 0-5.606 1.03-7.546 3.091-1.879 2.061-2.818 4.758-2.818 8.092v20.729c0 3.334.939 6.031 2.818 8.092 1.94 2.06 4.455 3.091 7.546 3.091 3.152 0 5.667-1.031 7.546-3.091 1.94-2.061 2.91-4.758 2.91-8.092zm20.894 42.186c-.303 0-.576-.091-.818-.272a1.332 1.332 0 0 1-.273-.819v-61.46c0-.303.091-.545.273-.727.242-.243.515-.364.818-.364h10.638c.303 0 .545.121.727.364a.865.865 0 0 1 .364.727v51.096c0 .303.151.454.454.454h29.73c.303 0 .546.122.728.364a.864.864 0 0 1 .363.727v8.819c0 .303-.121.576-.363.819-.182.181-.425.272-.728.272z"/></svg>