<svg xmlns="http://www.w3.org/2000/svg" width="249.5" height="249.5" viewBox="17.25 17.25 249.5 249.5"><path fill="#762dd7" d="M44.161 59.237c7.577 14.714 22.218 20.01 35.68 22.953 6.253 1.398 8.46 6.768 8.755 11.844.294 5.003-1.472 10.594-4.194 14.861-12.139 18.833-34.798 5.444-45.612-9.49-7.724-10.814-11.55-25.307-7.577-40.536 3.31-12.433 8.313-8.534 12.948.367z"/><path fill="#07090f" d="M45.043 58.796c1.766 3.531 4.046 6.842 6.915 9.637 1.398 1.398 2.943 2.722 4.635 3.826l1.25.883c.442.294.884.515 1.325.735.883.515 1.766.957 2.648 1.398 3.605 1.766 7.43 3.017 11.33 3.973 1.913.515 3.9.956 5.886 1.324.515.147.956.22 1.545.294.588.148 1.103.295 1.618.515.515.147 1.03.442 1.619.736.515.294 1.03.589 1.471.956 1.913 1.472 3.164 3.458 4.046 5.592.81 2.133 1.177 4.34 1.25 6.547.075 2.207-.22 4.414-.808 6.547-.515 2.134-1.324 4.194-2.28 6.106-.516.957-1.03 1.913-1.693 2.796-.294.441-.589.883-.956 1.324l-1.03 1.251c-1.472 1.692-3.237 3.163-5.224 4.267-1.986 1.103-4.193 1.912-6.4 2.207-2.207.368-4.488.294-6.695-.074-4.34-.736-8.313-2.5-11.918-4.708s-6.841-4.856-9.858-7.872c-2.943-3.016-5.59-6.253-7.724-9.858-2.134-3.604-3.826-7.43-5.003-11.403a80.449 80.449 0 0 1-1.545-6.032l-.294-1.545-.22-1.545c-.148-1.03-.222-2.06-.295-3.09-.294-4.193-.147-8.387.735-12.506.221-1.03.442-2.06.736-3.09a36.29 36.29 0 0 1 1.03-3.016c.368-1.03.883-1.986 1.545-2.943.368-.441.736-.956 1.25-1.398s1.178-.809 1.914-.956c.735-.147 1.544-.074 2.133.22.662.221 1.177.59 1.618.957.957.736 1.619 1.545 2.281 2.428s1.177 1.765 1.692 2.648c.441 1.104.956 1.987 1.471 2.87zm-1.766.956c-.441-.882-.883-1.765-1.398-2.648-.514-.883-1.103-1.619-1.691-2.428-.59-.736-1.251-1.471-1.987-1.913-.736-.515-1.398-.735-1.913-.514-.515.147-1.103.662-1.545 1.397-.44.736-.809 1.619-1.177 2.502-.662 1.765-1.103 3.752-1.545 5.664a52.763 52.763 0 0 0-1.103 11.771c.073.957.073 1.987.22 2.943l.148 1.471.22 1.472c.295 1.986.81 3.899 1.398 5.812 1.25 3.752 3.016 7.356 5.15 10.74s4.708 6.328 7.577 9.123c2.87 2.722 6.033 5.15 9.49 7.063 3.385 1.913 7.063 3.384 10.815 3.899 3.678.515 7.43-.074 10.52-1.986a17.203 17.203 0 0 0 4.12-3.532l.882-1.103c.295-.368.515-.736.81-1.177.588-.736 1.03-1.545 1.47-2.354 1.767-3.311 2.944-7.063 3.09-10.741.148-3.679-.882-7.578-3.604-9.785-.294-.294-.662-.515-1.03-.735s-.736-.442-1.177-.59c-.368-.146-.81-.293-1.25-.44s-.957-.221-1.472-.368a91.273 91.273 0 0 1-5.96-1.766c-3.898-1.324-7.724-2.943-11.402-4.929-.883-.515-1.84-.956-2.649-1.545l-1.324-.81-1.25-.882c-.883-.588-1.693-1.25-2.502-1.84-.809-.588-1.545-1.323-2.354-1.985-.81-.663-1.471-1.472-2.207-2.207-.736-.736-1.324-1.619-2.06-2.355-.588-.809-1.177-1.692-1.839-2.575z"/><path fill="#af62f1" d="M53.43 110.66c4.855-.956 8.975-1.986 13.463-5.738 7.725-6.327 8.902-14.125 8.092-22.438 1.251.441 3.458.81 5.812 1.84 1.692 7.65-2.501 16.331-8.092 22.364-3.016 3.016-6.548 5.885-11.403 7.945-2.502-.957-5.444-2.5-7.872-3.973zM39.378 96.83c1.177 1.84 3.09 4.046 4.561 5.665 5.665-.957 10.3-3.973 13.978-7.21 5.37-4.929 8.02-10.3 8.534-15.891-1.692-.736-3.163-1.324-4.855-2.207 0 .368.073 1.03.073 1.398-.441 5.59-4.046 10.74-9.122 14.272-4.267 2.869-8.534 3.531-13.17 3.972zm16.7-23.027c-1.619-.956-2.796-1.913-4.267-3.31-.956 3.972-3.752 8.165-8.828 9.858-3.384 1.177-6.842 1.324-10.447 1.03.588 1.986 1.25 3.972 1.84 5.811 5.002.074 10.078-1.25 14.124-3.678 3.9-2.354 6.695-6.106 7.578-9.711zm-9.784-9.343c-1.03-1.25-3.164-4.856-3.164-5.003-2.354 2.649-7.357 5.812-11.55 5.665-.22 1.766-.294 3.458-.368 5.15 2.28-.147 4.709-.442 6.842-1.104 2.501-.883 6.474-3.09 8.24-4.708z"/><path fill="#ebf2fc" d="M235.66 73.876c-8.533-19.275-22.732-37.372-43.037-44.656-22.438-8.019-47.304.81-69.006 7.43-52.381 15.964-65.696 1.987-71.435.442-11.477-3.164-6.621 14.199 7.872 29.354 8.46 8.754 7.21 20.746 5.37 26.852-4.855 16.332-17.95 44.582-23.689 62.533-7.724 24.498-4.635 54.734 13.17 74.156 4.487 5.003 7.577 5.076 5.002-.074-.736-1.397-1.398-2.648-1.913-4.12-2.428-6.18.147-4.634 5.518 1.398 4.487 5.224 9.784 10.153 15.596 13.61 6.694 3.826 7.283 3.385 3.825-2.501-1.398-2.428-1.03-4.12 1.619-1.765 2.648 2.354 6.989 5.296 10.226 6.989 5.37 2.869 10.74 5.076 15.964 8.386 3.899 2.502 6.989 5.297 9.49 8.902 2.502 3.825 4.194 4.193 6.548.736 3.09-4.562 7.357-8.166 12.654-10.521 7.798-3.531 16.552-3.604 24.645-5.738 9.122-2.354 15.964-7.357 21.482-13.683 4.56-5.297 6.4-5.371 3.605.662-.736 1.912-1.693 3.678-2.65 5.37-2.28 4.488-1.765 6.18 2.944 3.605 11.844-6.106 22.364-16.921 27.367-29.354 2.943-7.283 3.458-5.812 4.12-1.471.294 2.06.22 4.193.147 6.253-.221 4.194 0 7.946 4.34 2.722 6.695-8.092 12.066-17.582 14.86-27.808 1.252-4.488 1.84-4.71 1.914-.074.074 1.47-.074 2.943-.221 4.193-.441 4.194 2.06 3.237 3.679-1.692 3.825-11.108 5.59-21.702 6.106-31.56 1.398-26.19-3.311-59.884-16.112-88.576z"/><path fill="#07090f" d="M233.67 74.759c-5.15-11.55-12.138-22.291-21.334-30.825-4.562-4.267-9.711-7.872-15.303-10.594a51.92 51.92 0 0 0-17.803-5.003c-6.18-.588-12.507-.294-18.76.662-6.253.957-12.433 2.428-18.612 4.12-6.18 1.692-12.286 3.679-18.466 5.518-6.253 1.84-12.506 3.458-18.907 4.708-3.163.662-6.4 1.177-9.637 1.619-3.237.368-6.474.735-9.785.809-6.547.22-13.169-.147-19.643-1.913-3.237-.809-6.327-2.06-9.27-3.531l-2.133-1.104a20.984 20.984 0 0 0-1.986-.882c-1.324-.442-2.87-.589-3.752-.074-.441.22-.736.589-.956 1.177-.221.589-.295 1.25-.295 1.986 0 1.398.368 2.943.883 4.415.956 2.942 2.428 5.811 4.046 8.46 1.619 2.722 3.532 5.297 5.518 7.724 1.03 1.251 2.06 2.428 3.163 3.605s2.207 2.502 3.09 3.9c1.766 2.795 2.943 6.032 3.531 9.269a29.58 29.58 0 0 1 .074 9.858c-.22 1.619-.589 3.237-1.03 4.856-.515 1.544-.956 3.09-1.471 4.634-1.03 3.09-2.06 6.107-3.164 9.197a763.516 763.516 0 0 1-6.62 18.17l-7.063 18.025a271.148 271.148 0 0 0-3.31 8.975 82.853 82.853 0 0 0-1.472 4.562 82.35 82.35 0 0 0-1.25 4.56c-2.944 12.287-3.238 25.234-.516 37.52 1.324 6.106 3.458 12.139 6.474 17.583a59.752 59.752 0 0 0 5.076 7.872c.957 1.25 1.913 2.428 3.016 3.605.515.588 1.03 1.177 1.545 1.692.515.515 1.104.956 1.619 1.324.294.22.515.368.736.44.073.075.22.075.22.075h-.147c-.073 0-.294.073-.441.147-.147.074-.368.294-.442.368-.147.294-.147.44-.147.368 0 0 0-.295-.147-.515-.147-.59-.441-1.177-.81-1.913-.367-.736-.735-1.398-1.103-2.207-.147-.368-.368-.81-.515-1.251l-.441-1.177c-.147-.441-.294-.81-.442-1.25-.147-.442-.22-.883-.294-1.62v-.588c0-.22.074-.514.294-.956.074-.221.295-.441.515-.662s.59-.368.883-.515c.589-.147 1.03-.074 1.324-.074.59.148.883.295 1.104.442.294.147.515.294.662.44.81.59 1.398 1.178 2.06 1.767a38.566 38.566 0 0 1 3.384 3.605 71.698 71.698 0 0 0 3.237 3.457c2.207 2.207 4.561 4.34 6.99 6.254a44.378 44.378 0 0 0 3.825 2.648c1.25.809 2.722 1.545 4.046 2.207.294.147.662.294.883.368.147.074.22.074.294.074h-.074c-.073 0-.22 0-.588.147s-.736.588-.81.882c-.073.295-.073.442-.073.515v-.073c-.073-.221-.22-.515-.368-.81a13.407 13.407 0 0 0-1.103-1.986l-.295-.515c-.147-.22-.22-.441-.367-.662-.221-.441-.442-.883-.589-1.471a3.839 3.839 0 0 1-.147-1.03c0-.221 0-.441.074-.81.073-.367.22-.735.588-1.25.441-.515 1.104-.81 1.545-.81.515-.073.81 0 1.103.074.515.147.81.295 1.104.442.515.294.883.662 1.25.956l.442.442c.147.147.294.22.441.367a68.846 68.846 0 0 0 3.679 2.796c1.25.883 2.575 1.692 3.973 2.5 1.324.737 2.722 1.473 4.193 2.208 2.869 1.398 5.812 2.796 8.68 4.34a130.49 130.49 0 0 1 4.342 2.502 32.333 32.333 0 0 1 4.12 2.943 42.613 42.613 0 0 1 3.752 3.53c.588.663 1.103 1.325 1.692 1.987a67.456 67.456 0 0 1 1.47 1.987c.369.588.884 1.103 1.178 1.324.147.147.22.147.147.147h-.221c.074 0 .589-.441.957-.956l.662-.957c.22-.368.515-.735.736-1.03a31.146 31.146 0 0 1 7.504-7.062 34.364 34.364 0 0 1 9.269-4.341c6.474-1.986 13.022-2.427 19.128-3.825 6.032-1.324 11.623-3.973 16.332-7.945 1.177-.957 2.354-1.987 3.384-3.09.515-.59 1.103-1.104 1.618-1.692l1.619-1.84a21.71 21.71 0 0 1 1.839-1.84c.368-.293.736-.587 1.177-.955.22-.147.515-.294.883-.515.22-.074.44-.147.809-.221.22 0 .442-.073.662 0 .295 0 .589.074.957.294.368.148.662.442.809.736.22.294.294.515.368.736.147.44.147.735.147.956 0 .442-.074.809-.074 1.104-.147.588-.294 1.03-.441 1.47a18.478 18.478 0 0 1-1.03 2.429l.074-.147c-.515 1.397-1.178 2.648-1.84 3.899l-.956 1.765c-.221.515-.515 1.104-.736 1.619-.073.294-.22.515-.22.736-.074.22-.074.44-.074.44s0-.073-.074-.22c-.073-.22-.294-.515-.588-.662s-.441-.221-.515-.221-.074 0 0 0c.22 0 .809-.22 1.324-.515.515-.22 1.104-.588 1.692-.882 2.28-1.177 4.488-2.575 6.548-4.12s4.12-3.164 5.959-4.93c3.752-3.53 7.062-7.577 9.71-11.991 1.325-2.207 2.502-4.487 3.458-6.915.515-1.251 1.03-2.501 1.766-3.9.22-.367.368-.661.736-1.103.147-.22.368-.441.735-.735.22-.148.515-.368 1.03-.442.515-.147 1.177 0 1.619.22.44.222.662.516.809.737.147.22.22.367.294.515.147.294.22.515.295.735.147.442.22.809.294 1.177.147.736.22 1.398.368 2.134.073.735.147 1.47.147 2.207.073 1.47 0 2.869-.074 4.193 0 .662-.073 1.324-.073 1.913 0 .588 0 1.177.147 1.618 0 .22.147.295 0 .22-.074-.072-.221-.293-.515-.367-.294-.147-.515-.073-.662-.073-.221.073 0 0 .147-.074.147-.147.368-.294.515-.441.368-.368.809-.81 1.177-1.324l1.25-1.545c.81-1.03 1.619-2.06 2.355-3.164 1.545-2.133 2.943-4.34 4.267-6.621 2.575-4.561 4.708-9.343 6.253-14.272.368-1.251.662-2.501 1.177-3.973.147-.368.294-.735.589-1.25.073-.074.147-.148.147-.295.073-.073.073-.147.147-.147l.22-.221c.148-.073.22-.147.368-.22.22-.147.442-.221.736-.221.736-.073 1.324.294 1.619.589.147.073.22.22.294.367.073.074.073.148.147.22.074.148.147.222.147.369.074.22.074.368.147.44.074.516.147.884.147 1.252s.074.736.074 1.104v2.133c0 .736-.074 1.47-.147 2.134l-.074 1.029c0 .295-.073.515-.073.81 0 .22 0 .44.073.515l-.073-.147c-.074-.074-.147-.221-.295-.295a5.037 5.037 0 0 0-.588-.22c-.368 0-.59.073-.59.073.075-.073.222-.294.369-.441.294-.442.515-.957.809-1.472.22-.515.442-1.103.663-1.765.22-.662.44-1.251.662-1.913a128.538 128.538 0 0 0 2.207-7.577c1.25-5.15 2.28-10.3 2.795-15.597.295-2.648.442-5.297.515-7.945.147-2.65.147-5.297.147-7.946-.073-5.296-.367-10.593-.81-15.89-1.03-10.594-2.794-21.114-5.443-31.34-2.428-10.447-5.885-20.526-10.226-30.163zm3.973-1.766 1.545 3.752.809 1.913.736 1.913 1.398 3.825 1.324 3.826c.441 1.25.883 2.575 1.25 3.899.368 1.324.81 2.575 1.177 3.9.663 2.648 1.472 5.223 2.06 7.87a214.533 214.533 0 0 1 5.077 32.003c.367 5.37.662 10.814.662 16.185-.074 2.722-.074 5.444-.221 8.092-.147 2.722-.294 5.37-.515 8.093-.515 5.37-1.324 10.814-2.575 16.11-.588 2.65-1.324 5.298-2.133 7.873-.221.662-.442 1.324-.589 1.913-.221.588-.441 1.324-.736 2.06-.294.662-.662 1.397-1.103 2.059a5.81 5.81 0 0 1-.883 1.104c-.221.22-.441.368-.736.589-.294.147-.809.44-1.545.367-.367 0-.735-.147-1.029-.367-.295-.148-.515-.442-.663-.59-.294-.44-.441-.735-.515-1.03-.147-.587-.22-1.03-.22-1.47 0-.442 0-.81.073-1.251l.074-.956c.073-.662.073-1.251.073-1.84v-1.912c0-.295 0-.59-.073-.883 0-.294-.074-.59-.074-.736 0 .074 0 0 .074.147 0 .074.073.074.073.148a.99.99 0 0 1 .221.294c.221.22.736.515 1.398.44.221 0 .441-.072.588-.146.148-.074.221-.074.295-.147l.147-.147.073-.074s0-.073.074-.073c0 0-.147.294-.221.588-.368 1.104-.735 2.428-1.103 3.752a72.56 72.56 0 0 1-6.548 15.082c-1.324 2.354-2.869 4.708-4.414 6.915l-2.428 3.31-1.25 1.619c-.442.588-.957 1.103-1.472 1.692-.294.294-.588.589-.956.809-.368.295-.809.589-1.692.81a3.182 3.182 0 0 1-1.618-.148 2.56 2.56 0 0 1-1.251-1.03c-.442-.662-.589-1.177-.662-1.692a14.18 14.18 0 0 1-.221-2.427c0-.736 0-1.398.074-2.134.073-1.324.147-2.648.073-3.825 0-.59-.073-1.177-.147-1.766s-.221-1.324-.294-1.84c-.074-.293-.147-.588-.221-.735 0-.073-.073-.147-.073-.147l.073.074c.074.073.147.22.441.367.295.148.81.295 1.178.148.367-.074.441-.148.588-.221.147-.074.074-.074.074-.074-.074.074-.221.368-.368.589a53.175 53.175 0 0 0-1.545 3.457c-1.03 2.575-2.281 5.077-3.678 7.504-2.87 4.782-6.401 9.123-10.374 12.948a55.467 55.467 0 0 1-6.4 5.297c-2.207 1.619-4.561 3.164-7.062 4.414-.589.295-1.178.662-1.913.957-.736.294-1.398.662-2.502.882-.294.074-.588.074-.956.074-.441-.074-.883-.147-1.471-.441-.589-.368-1.03-.957-1.177-1.472-.221-.515-.221-.883-.221-1.25 0-.662.147-1.104.221-1.545.147-.442.22-.81.367-1.177.295-.736.589-1.325.957-2.06l.956-1.766c.589-1.177 1.177-2.28 1.545-3.384v-.147c.294-.662.589-1.398.883-2.06.147-.294.221-.662.221-.883v-.147c0 .074 0 .147.073.368.074.073.147.294.221.44.147.222.368.369.589.516.294.147.514.22.662.22h.367c.148 0 .221-.073.221-.073s-.073 0-.147.074c-.221.147-.441.368-.736.588-.515.442-1.03 1.03-1.545 1.545l-1.618 1.766c-.589.662-1.177 1.25-1.692 1.839-1.177 1.177-2.428 2.354-3.752 3.384a49.743 49.743 0 0 1-8.534 5.518c-3.016 1.47-6.327 2.575-9.564 3.31-6.547 1.472-12.948 1.913-18.76 3.752a33.124 33.124 0 0 0-8.166 3.826c-2.501 1.692-4.708 3.678-6.474 6.106l-.662.883c-.22.294-.441.662-.735 1.03-.295.368-.589.736-1.03 1.177-.368.368-.883.809-1.545 1.103-.662.368-1.692.515-2.502.295-.882-.147-1.471-.59-1.986-.957-.956-.735-1.471-1.545-2.06-2.207a27.614 27.614 0 0 0-1.324-1.912c-.441-.59-.956-1.178-1.398-1.693-1.03-1.103-2.06-2.133-3.237-3.09-2.354-1.912-5.002-3.457-7.798-5.002-2.796-1.471-5.665-2.87-8.607-4.34-1.472-.736-2.943-1.472-4.414-2.355-1.472-.81-2.87-1.765-4.194-2.722-1.398-.956-2.722-1.912-3.972-3.016a3.198 3.198 0 0 0-.515-.441l-.442-.368c-.22-.221-.515-.442-.662-.515-.073-.074-.147-.074 0 0 .074 0 .22.073.515 0 .294 0 .736-.221 1.03-.59.294-.293.294-.587.368-.661v-.221.148c.073.22.147.44.294.735l.22.442.295.515c.441.735.81 1.47 1.177 2.28.22.442.368.81.589 1.398.073.294.147.589.22 1.104 0 .294 0 .588-.147 1.103s-.662 1.104-1.177 1.324c-.515.22-.883.295-1.177.295-.294 0-.515 0-.662-.074a7.625 7.625 0 0 1-.883-.221c-.515-.147-.883-.367-1.324-.588a62.315 62.315 0 0 1-4.414-2.428 51.689 51.689 0 0 1-4.12-2.87c-2.648-2.06-5.076-4.266-7.43-6.62a51.43 51.43 0 0 1-3.31-3.68c-1.03-1.176-2.134-2.353-3.164-3.456a13.703 13.703 0 0 0-1.619-1.398 1.015 1.015 0 0 1-.294-.221c-.074-.073-.147-.073 0 0 .074 0 .294.074.736-.073.22-.074.441-.221.588-.368s.295-.294.368-.442c.147-.22.147-.367.147-.367 0 .147.074.44.147.809.074.294.221.662.295 1.03l.441 1.103c.147.295.294.662.441.957.295.662.663 1.397 1.03 2.133.368.736.81 1.545 1.104 2.5.147.516.294 1.03.294 1.84 0 .368-.073.883-.441 1.546-.221.294-.515.588-.883.809s-.736.294-1.03.368a4.1 4.1 0 0 1-1.398-.074c-.368-.073-.662-.221-.883-.294a5.792 5.792 0 0 1-1.324-.81 17.172 17.172 0 0 1-2.06-1.765c-.662-.59-1.177-1.251-1.765-1.84a79.593 79.593 0 0 1-3.164-3.825c-1.986-2.648-3.752-5.444-5.37-8.387-3.09-5.885-5.297-12.138-6.695-18.612-2.795-12.875-2.428-26.337.736-39.138.368-1.62.809-3.164 1.324-4.782.441-1.545 1.03-3.09 1.545-4.635a333.065 333.065 0 0 1 3.384-9.122c1.177-3.017 2.354-6.033 3.605-8.976 1.25-3.016 2.501-5.96 3.752-8.901 2.501-5.886 5.223-11.771 7.65-17.73a132.722 132.722 0 0 0 3.459-8.975c.515-1.545 1.03-3.017 1.47-4.562.442-1.471.737-3.016.957-4.634.442-3.09.368-6.254-.147-9.344-.588-3.09-1.692-6.032-3.384-8.607-.81-1.324-1.84-2.501-2.943-3.605-1.103-1.177-2.207-2.354-3.31-3.605a67.89 67.89 0 0 1-5.812-7.871c-1.766-2.796-3.31-5.665-4.414-8.829-.515-1.618-.957-3.237-1.104-5.002 0-.883 0-1.84.368-2.796.294-.956 1.03-1.986 1.987-2.501.956-.589 2.06-.736 2.942-.662.957 0 1.84.22 2.722.441.957.295 1.692.662 2.428.957l2.207 1.03c2.87 1.324 5.812 2.427 8.828 3.163 6.106 1.545 12.433 1.766 18.76 1.471 3.164-.147 6.327-.515 9.49-.882 3.164-.442 6.253-.957 9.417-1.619 6.253-1.25 12.433-2.943 18.54-4.782s12.285-3.899 18.538-5.665c6.253-1.765 12.58-3.384 19.054-4.414 6.474-1.03 13.095-1.471 19.716-.882 6.621.588 13.242 2.354 19.275 5.223 6.033 2.869 11.55 6.695 16.406 11.182 4.93 4.487 9.122 9.564 12.874 15.008 3.237 5.002 6.327 10.814 9.05 16.774z"/><path fill="#89d1f1" d="M199.32 148.55c-10.889-20.084-6.18-31.266-5.077-44.361 2.207-28.03-21.187-28.692-43.773-19.349-14.566 6.033-31.266 12.139-45.906 3.678-15.67-9.71-26.043-3.825-29.28 13.095-2.354 12.58-4.34 27.146-11.256 38.991-31.634 60.546 32.738 93.063 86.075 85.265 45.612-6.695 73.935-33.106 49.217-77.32z"/><path fill="#07090f" d="M198.51 148.99c-.294-.589-.589-1.177-.957-1.766l-.956-1.766a167.132 167.132 0 0 1-1.766-3.604c-1.103-2.428-1.986-5.003-2.722-7.578-1.471-5.223-1.912-10.814-1.618-16.185.221-5.37 1.03-10.667 1.177-15.596.074-2.502 0-4.93-.368-7.283-.221-1.177-.441-2.281-.883-3.384-.368-1.104-.809-2.134-1.397-3.09a17.705 17.705 0 0 0-2.06-2.722c-.81-.81-1.692-1.545-2.649-2.134-1.986-1.25-4.267-2.06-6.694-2.501-2.428-.442-5.003-.589-7.578-.442-2.575.148-5.15.589-7.651 1.104a66.106 66.106 0 0 0-7.43 2.207c-2.428.883-4.782 1.986-7.21 3.016-4.855 2.134-9.785 4.194-15.008 5.591s-10.741 2.207-16.258 1.619c-2.796-.294-5.518-.883-8.166-1.913-.662-.22-1.325-.515-1.987-.81s-1.25-.588-1.912-.955l-.957-.516-.809-.514c-.515-.368-1.104-.662-1.619-.957-2.207-1.177-4.487-2.133-6.768-2.648-2.28-.515-4.635-.589-6.768.073-2.133.589-3.973 1.913-5.444 3.752-.736.883-1.398 1.913-1.986 2.943-.589 1.103-1.03 2.207-1.472 3.384s-.809 2.354-1.103 3.605c-.147.588-.295 1.251-.442 1.839l-.368 1.986c-.514 2.575-1.03 5.15-1.618 7.725-1.177 5.15-2.501 10.3-4.193 15.376-.883 2.501-1.913 4.929-3.017 7.357-1.103 2.427-2.427 4.708-3.678 7.062-2.428 4.635-4.12 9.637-5.37 14.714a54.07 54.07 0 0 0-1.766 15.302c.147 5.149 1.03 10.226 2.869 14.934 3.605 9.49 10.594 17.656 19.128 23.321 4.267 2.869 8.828 5.297 13.536 7.283 4.708 1.987 9.638 3.531 14.714 4.782 10.005 2.428 20.378 3.384 30.677 3.016 5.15-.22 10.226-.735 15.376-1.618 5.076-.883 10.153-2.06 15.008-3.605 4.929-1.545 9.637-3.458 14.125-5.812 4.488-2.428 8.681-5.223 12.286-8.681 1.839-1.692 3.458-3.605 4.929-5.591s2.722-4.12 3.752-6.4c1.03-2.281 1.765-4.635 2.28-7.063s.736-4.929.736-7.43c-.073-10.005-3.163-20.158-7.945-29.427zm1.545-.883c2.795 4.488 5.223 9.269 7.136 14.346 1.913 5.076 3.237 10.446 3.384 15.964a39.663 39.663 0 0 1-.662 8.313 38.706 38.706 0 0 1-2.428 8.019c-2.207 5.15-5.518 9.784-9.49 13.61-3.973 3.825-8.534 6.989-13.39 9.49a85.622 85.622 0 0 1-15.007 6.106c-5.15 1.619-10.373 2.796-15.67 3.679-5.297.882-10.668 1.471-16.038 1.618-10.741.368-21.482-.883-31.855-3.605-10.373-2.795-20.378-7.062-29.133-13.389-4.34-3.163-8.387-6.842-11.844-11.035-3.458-4.194-6.253-8.902-8.092-14.052-1.84-5.076-2.722-10.593-2.649-15.964 0-2.722.368-5.37.81-8.019.44-2.648 1.103-5.223 1.912-7.798 1.619-5.076 4.046-9.858 6.4-14.566 1.251-2.355 2.428-4.635 3.311-7.136.883-2.428 1.619-5.003 2.207-7.504.589-2.502 1.177-5.077 1.619-7.651.441-2.575.882-5.15 1.25-7.725.368-2.575.81-5.223 1.25-7.798l.295-1.987c.147-.662.22-1.324.442-1.986a40.004 40.004 0 0 1 1.103-3.973c.441-1.324 1.03-2.648 1.619-3.899.662-1.25 1.397-2.5 2.354-3.605 1.765-2.28 4.34-4.266 7.283-5.15 2.943-.956 6.033-.882 8.828-.294 2.796.59 5.444 1.693 7.872 3.017.588.294 1.25.662 1.765 1.03l.883.515.81.441c.514.294 1.103.515 1.618.81.588.22 1.103.514 1.692.735a26.555 26.555 0 0 0 7.136 1.692c4.93.589 10.005 0 15.008-1.03 5.002-1.03 10.005-2.648 14.934-4.414 2.428-.883 4.93-1.913 7.43-2.796 2.502-.882 5.077-1.618 7.651-2.28 5.15-1.25 10.521-2.207 16.112-1.766 2.795.221 5.591.883 8.24 2.134 2.648 1.25 5.076 3.31 6.768 5.812.882 1.25 1.545 2.574 2.06 3.972s.956 2.796 1.177 4.194c.294 1.397.441 2.869.515 4.267a40.175 40.175 0 0 1 0 4.193c-.368 5.518-1.692 10.667-2.355 15.743a53.312 53.312 0 0 0-.515 7.578c.074 2.501.295 5.076.81 7.577a66.585 66.585 0 0 0 5.444 14.567z"/><path fill="#e6fffe" d="M161.13 180.26c.662 2.649 4.487-.073 6.326-1.177 5.371-3.458 6.621-4.635-.147-8.681-8.754-5.812-7.283 5.518-6.179 9.858z"/><path fill="#07090f" d="M161.94 180.11c.368 1.619 3.899-1.103 4.782-1.618 1.398-1.03 3.237-1.913 4.193-3.384.074-.221.147-.295.074-.515-.295-1.03-1.839-2.207-2.722-2.943-1.325-.809-2.649-1.766-3.973-2.134-5.003-1.324-3.163 8.019-2.354 10.594zm-1.545.368c-1.251-5.15-1.986-15.964 6.4-11.109l2.06 1.251c1.472.883 3.311 1.692 3.899 3.531.515 2.134-1.692 3.532-3.09 4.561-2.133 1.325-4.046 2.87-6.547 3.458-1.251.221-2.501-.441-2.722-1.692z"/><path fill="#e98df7" d="M131.41 155.9c-1.472-2.796-4.194-6.18-6.768-8.166-5.739-4.488-13.316 4.561-14.493 9.564-2.281 9.343 28.544 11.329 21.261-1.398z"/><path fill="#07090f" d="M130.31 156.42a24.414 24.414 0 0 0-4.34-6.253c-.883-.883-1.839-1.913-2.796-2.428-1.03-.589-2.207-.736-3.384-.442-1.177.221-2.354.81-3.384 1.545-1.03.736-2.06 1.619-2.796 2.649-.809 1.03-1.471 2.133-2.059 3.31-.295.589-.515 1.177-.736 1.766l-.221.883c0 .294-.073.588-.073.883.073 1.103.735 2.06 1.692 2.795.956.736 2.133 1.251 3.31 1.619 2.354.735 4.929 1.03 7.431.882 1.25-.073 2.501-.22 3.604-.588.589-.147 1.104-.368 1.619-.589.294-.073.515-.22.736-.367.294-.074.441-.221.662-.368.22-.147.367-.295.588-.442.147-.147.294-.368.442-.515a3.16 3.16 0 0 0 .441-1.25c.221-.883-.147-1.987-.736-3.09zm2.134-1.104c.662 1.251 1.398 2.649 1.398 4.414 0 .883-.221 1.766-.663 2.575-.22.368-.441.736-.735 1.104-.295.294-.589.662-.957.883-1.324 1.03-2.795 1.471-4.193 1.765s-2.869.294-4.267.294a23.383 23.383 0 0 1-8.092-1.692c-1.251-.515-2.575-1.25-3.605-2.207-.515-.515-1.03-1.03-1.398-1.765l-.221-.515c-.073-.147-.073-.368-.147-.589-.147-.368-.073-.735-.147-1.177 0-.368.074-.736.147-1.103.074-.368.221-.662.294-1.03.221-.662.589-1.251.883-1.839.662-1.178 1.472-2.281 2.354-3.311.883-1.03 1.766-1.986 2.87-2.869 1.03-.883 2.207-1.619 3.604-1.987 1.325-.441 2.943-.367 4.341.295.662.294 1.251.735 1.839 1.177l1.545 1.324c1.986 1.766 3.752 3.826 5.15 6.253z"/><path fill="#07090f" d="M117.14 158.19c1.839-1.619.073-5.518-2.134-3.826-1.986 1.545-.147 5.665 2.134 3.826zm6.92 1.39c2.722-1.692.074-6.768-2.796-4.708-2.722 1.839 0 6.4 2.796 4.708z"/><path fill="#fff" d="M151.64 118.75c-23.174-5.37-25.16 35.607-2.501 34.209 17.877-1.03 19.716-30.383 2.501-34.209z"/><path fill="#07090f" d="M151.42 119.78c-11.845-2.942-18.613 8.093-17.436 18.76.662 6.033 4.708 12.212 11.035 13.169 3.899.662 8.24-.147 11.33-2.649 9.196-7.504 7.798-26.41-4.929-29.28zm.441-2.059c12.212 2.427 16.111 18.097 10.52 28.029-3.384 6.4-10.741 9.49-17.73 7.798-6.915-1.398-11.256-8.166-11.918-14.861-1.839-12.212 5.665-24.056 19.128-20.966z"/><path fill="#07090f" d="M150.17 129.49c-6.254-.588-8.902 9.491-4.194 12.36 8.681 5.223 12.065-10.3 4.194-12.36z"/><path fill="#fff" d="M107.28 127.66c-9.71-17.362-30.163.589-23.615 16.7 9.196 19.716 34.65 3.237 23.615-16.7z"/><path fill="#07090f" d="M106.47 128.1c-6.99-13.096-21.114-4.488-22.659 7.283-1.692 11.844 10.373 22.217 20.672 13.463 6.033-5.224 5.959-14.199 1.987-20.746zm1.545-.81c5.297 9.343 2.427 21.556-7.799 26.043-11.329 4.782-20.966-7.43-18.906-18.171 2.354-13.831 18.613-22.585 26.706-7.872z"/><path fill="#07090f" d="M98.38 131.26c-5.665-.515-7.504 8.313-3.384 10.888 7.651 4.782 10.74-9.858 3.384-10.888zm46.13-23.25c1.472-5.002 9.343-5.811 15.008-4.267 5.665 1.545 13.463 6.327 12.433 13.022-.441 2.796-8.313-.368-13.757-2.428-4.12-1.618-14.934-2.207-13.684-6.327zm-64.007 9.93c-3.31-8.46 14.493-15.375 19.201-7.209.368.735.294 1.765-.368 2.354-2.722 2.428-5.591 2.722-9.196 3.678-3.163.736-8.24 4.709-9.637 1.177zm-6.547-30.894c7.136-6.474 19.201-8.46 26.925-1.913l-1.839 2.28c-7.283-6.032-17.14-3.972-25.087-.367zM178.42 163.85c.147 8.313-6.548 15.376-13.904 18.392-5.297 2.28-11.109 3.31-16.847 3.458-9.123.147-18.098-2.281-26.632-5.077-10.667-3.457-27.735-9.416-37.74-2.133 3.826-6.253 12.433-6.695 18.98-6.033 11.256 1.251 21.482 6.474 32.444 8.828 12.065 2.87 27.367 2.502 36.784-6.547 3.163-3.016 5.297-6.768 6.768-10.962z"/><path fill="#89d1f1" d="M231.02 159c6.916-11.992 9.932-38.403-5.665-45.245-7.062-3.016-19.421-1.839-22.364 6.474-6.989 13.169 14.566 61.944 28.029 38.771z"/><path fill="#07090f" d="M230.29 158.55a36.686 36.686 0 0 0 1.987-4.193c.588-1.472 1.029-2.943 1.471-4.414a49.087 49.087 0 0 0 1.545-9.196c.147-1.545.147-3.09.147-4.635-.074-1.545-.147-3.09-.368-4.561-.441-3.017-1.251-5.959-2.575-8.534a17.182 17.182 0 0 0-2.427-3.605c-.957-1.03-1.987-1.986-3.164-2.722-1.177-.809-2.428-1.324-3.752-1.692-1.324-.442-2.795-.589-4.267-.736-1.471-.147-2.943-.073-4.34.074a15.914 15.914 0 0 0-4.194 1.03 12.233 12.233 0 0 0-3.531 2.133 10.047 10.047 0 0 0-2.207 3.311l-.074.147v.073c-1.029 1.913-1.25 4.562-1.177 7.063.074 2.501.442 5.076 1.03 7.651a61.49 61.49 0 0 0 5.224 14.713 55.24 55.24 0 0 0 3.972 6.695c.736 1.03 1.545 2.06 2.428 2.943.883.956 1.766 1.766 2.796 2.501 1.03.662 2.06 1.251 3.163 1.472.589.147 1.104.147 1.692.147.589-.074 1.104-.147 1.692-.368 1.104-.442 2.06-1.177 2.943-2.06.588-1.03 1.324-2.134 1.986-3.237zm1.472.883c-.736 1.177-1.472 2.354-2.428 3.384-.957 1.03-2.06 2.06-3.458 2.648a9.643 9.643 0 0 1-2.207.662c-.736.074-1.545.074-2.28 0-1.545-.22-2.87-.882-4.12-1.618-2.428-1.545-4.341-3.678-6.033-5.885-1.692-2.208-3.09-4.562-4.34-6.989a67.17 67.17 0 0 1-5.665-15.303c-.589-2.648-1.03-5.37-1.177-8.166-.074-1.397 0-2.795.147-4.267.221-1.471.589-2.942 1.251-4.34l-.074.221c.662-1.692 1.619-3.311 2.943-4.635 1.324-1.251 2.869-2.207 4.414-2.943 1.618-.662 3.31-1.177 5.002-1.471s3.385-.368 5.15-.294c1.692.073 3.458.367 5.076.882 1.692.515 3.385 1.251 4.782 2.281 1.472 1.03 2.796 2.207 3.899 3.605a22.983 22.983 0 0 1 2.722 4.414c1.398 3.09 2.134 6.474 2.428 9.711.147 1.618.147 3.31.147 4.929-.073 1.618-.147 3.237-.368 4.855-.22 1.619-.441 3.237-.809 4.782s-.736 3.164-1.25 4.709c-.883 3.016-2.134 6.032-3.752 8.828z"/><path fill="#07090f" d="M206.89 105.88c-2.428 8.975-4.856 17.877-3.532 27.146.442 3.017 1.104 5.959 2.281 8.755 2.207 5.738 4.708 11.477 8.092 16.7 3.311 5.37 7.872 9.269 13.243 12.58-3.09-.736-6.107-2.06-8.755-4.046-7.725-5.959-11.918-15.376-15.449-24.13-3.752-9.049-4.046-19.496-.809-28.692 1.103-3.016 2.648-6.032 4.929-8.313z"/><path fill="#762dd7" d="M239.26 28.559c-6.989 17.288-21.555 23.836-34.871 27.662-6.18 1.766-8.239 8.093-8.313 13.978-.147 5.812 1.839 12.212 4.782 17.068 12.801 21.408 35.018 5.297 45.318-12.359 7.283-12.801 10.593-29.648 6.032-47.157-3.752-14.346-8.681-9.637-12.948.81z"/><path fill="#07090f" d="m240.22 28.927-1.472 3.09-1.692 2.942c-.662.957-1.25 1.913-1.912 2.796-.736.883-1.398 1.766-2.134 2.648-1.545 1.693-3.09 3.311-4.782 4.782l-1.324 1.104-1.324 1.03c-.883.736-1.839 1.324-2.722 1.913-3.752 2.501-7.798 4.487-11.992 6.18-2.06.809-4.267 1.544-6.327 2.206a7.421 7.421 0 0 0-2.501 1.325c-.736.588-1.398 1.25-1.913 2.06-1.103 1.544-1.765 3.53-2.06 5.517-.294 1.986-.367 4.12-.147 6.18.442 4.12 1.766 8.24 3.752 11.918 1.987 3.605 4.561 7.062 7.872 8.975 1.692 1.03 3.531 1.619 5.444 1.84s3.899 0 5.885-.516c3.973-1.03 7.652-3.237 11.036-5.812 3.384-2.648 6.4-5.738 9.048-9.196 5.371-6.768 8.976-14.86 10.889-23.394.956-4.267 1.324-8.608 1.177-12.948-.147-4.341-.736-8.681-1.619-12.874-.515-2.134-.956-4.267-1.692-6.18-.368-.957-.736-1.986-1.251-2.796-.441-.809-1.103-1.545-1.618-1.692-.221-.073-.515-.073-.883.074a2.438 2.438 0 0 0-1.03.735c-.736.663-1.324 1.472-1.913 2.355a20.85 20.85 0 0 0-1.545 2.795 27.332 27.332 0 0 0-1.25 2.943zm-1.839-.736c.441-1.03.882-2.06 1.397-3.09.515-1.03.957-2.06 1.545-3.016.589-1.03 1.251-1.986 2.134-2.869a7.228 7.228 0 0 1 1.618-1.25 3.226 3.226 0 0 1 2.354-.295c.81.22 1.472.662 1.987 1.104s.883 1.03 1.25 1.545c.663 1.03 1.178 2.133 1.619 3.236s.736 2.207 1.103 3.237c.295 1.104.515 2.208.81 3.311 1.912 8.902 1.618 18.098-.221 26.926a67.448 67.448 0 0 1-3.973 12.948 57.945 57.945 0 0 1-6.694 11.771c-2.722 3.678-5.739 7.063-9.27 10.005s-7.504 5.518-12.139 6.842c-2.28.662-4.781 1.03-7.283.809a17.568 17.568 0 0 1-7.136-2.207c-2.133-1.25-4.046-2.87-5.591-4.708s-2.796-3.826-3.899-5.96a34.357 34.357 0 0 1-3.679-13.462 28.553 28.553 0 0 1 .442-7.063 18.681 18.681 0 0 1 1.03-3.457 15.495 15.495 0 0 1 1.765-3.237 10.385 10.385 0 0 1 2.722-2.649c1.03-.736 2.208-1.324 3.385-1.618 1.103-.368 2.133-.589 3.237-.883 1.03-.295 2.133-.589 3.163-.957 4.12-1.324 8.24-2.942 11.992-5.223.956-.588 1.839-1.103 2.722-1.766.441-.294.882-.662 1.324-.956l1.25-1.03c.883-.662 1.619-1.471 2.428-2.207.368-.368.736-.81 1.104-1.177l1.03-1.25c2.722-3.532 4.855-7.431 6.474-11.404z"/><path fill="#af62f1" d="M224.11 93.152c-4.929-2.28-8.607-5.444-11.697-8.828-5.812-6.842-10.3-16.773-8.902-25.675 2.354-1.177 4.561-1.766 5.738-2.28-.514 9.637.957 18.612 8.902 25.748 4.635 4.12 8.755 5.224 13.684 6.254-2.428 1.765-5.224 3.604-7.725 4.781zm7.946-25.454c-5.224-3.9-8.976-9.784-9.638-16.258-.073-.441 0-1.25 0-1.618-1.618 1.103-3.09 1.839-4.782 2.722.736 6.474 3.605 12.58 9.123 18.17 3.752 3.605 8.533 6.916 14.198 7.872 1.398-1.986 3.164-4.561 4.341-6.694-4.561-.368-8.828-1.03-13.242-4.194zm3.678-10.888c4.12 2.722 9.196 4.12 14.272 3.826.515-2.134 1.177-4.488 1.692-6.769-3.531.368-6.989.368-10.447-.883-5.149-1.839-8.092-6.62-9.195-11.182-1.398 1.545-2.502 2.796-4.12 3.9.956 4.12 3.825 8.386 7.798 11.109zm9.932-17.068c2.133.736 4.561 1.03 6.841 1.104a55.862 55.862 0 0 0-.515-5.886c-4.193.22-9.269-3.237-11.697-6.253 0 .22-1.986 4.414-2.943 5.885 1.766 1.84 5.812 4.267 8.314 5.15z"/></svg>