<svg xmlns="http://www.w3.org/2000/svg" width="237" height="35" fill="none"><path fill="#762DD7" d="M33.192 18.496c.544 1.536.816 3.072.816 4.608 0 1.6-.288 3.136-.864 4.608-.832 1.984-2.224 3.584-4.176 4.8-1.92 1.184-4.144 1.776-6.672 1.776-2.528 0-4.752-.576-6.672-1.728-1.92-1.184-3.312-2.784-4.176-4.8a13.59 13.59 0 0 1-.768-2.88v-.096c0-.352.192-.528.576-.528h7.008c.288 0 .512.16.672.48.032.192.144.448.336.768.608 1.312 1.584 1.968 2.928 1.968.672 0 1.28-.16 1.824-.48.544-.352.976-.848 1.296-1.488.352-.64.528-1.44.528-2.4 0-.896-.16-1.664-.48-2.304a2.627 2.627 0 0 0-1.152-1.344c-.512-.352-1.104-.528-1.776-.528-.736 0-1.424.176-2.064.528-.64.352-1.072.8-1.296 1.344-.096.32-.304.48-.624.48h-7.152a.702.702 0 0 1-.432-.144.702.702 0 0 1-.144-.432V.976c0-.16.048-.288.144-.384A.597.597 0 0 1 11.304.4h21.024c.16 0 .288.064.384.192a.456.456 0 0 1 .192.384V6.64c0 .16-.064.304-.192.432a.519.519 0 0 1-.384.144H18.936c-.16 0-.24.08-.24.24v5.616c0 .096.032.16.096.192s.128.016.192-.048c1.312-.768 2.8-1.152 4.464-1.152 2.272 0 4.272.576 6 1.728 1.728 1.152 2.976 2.72 3.744 4.704ZM68.763.784c.128-.256.352-.384.672-.384h6.768c.16 0 .288.064.384.192a.456.456 0 0 1 .192.384v32.448c0 .16-.064.304-.192.432a.519.519 0 0 1-.384.144h-6.816a.702.702 0 0 1-.432-.144.702.702 0 0 1-.144-.432V14.128c0-.128-.032-.192-.096-.192s-.128.048-.192.144l-4.128 6.624c-.128.256-.352.384-.672.384h-3.408c-.32 0-.544-.128-.672-.384l-4.176-6.672c-.064-.096-.128-.144-.192-.144s-.096.064-.096.192v19.344c0 .16-.064.304-.192.432a.519.519 0 0 1-.384.144h-6.816a.702.702 0 0 1-.432-.144.702.702 0 0 1-.144-.432V.976c0-.16.048-.288.144-.384A.597.597 0 0 1 47.787.4h6.768c.288 0 .512.128.672.384L61.9 11.248c.096.192.192.192.288 0L68.763.784ZM82.053 34a.702.702 0 0 1-.432-.144.702.702 0 0 1-.144-.432V.976c0-.16.048-.288.144-.384A.597.597 0 0 1 82.053.4h6.816c.16 0 .288.064.384.192a.456.456 0 0 1 .192.384v32.448c0 .16-.064.304-.192.432a.519.519 0 0 1-.384.144h-6.816ZM113.236.976c0-.16.048-.288.144-.384a.597.597 0 0 1 .432-.192h6.816c.16 0 .288.064.384.192a.456.456 0 0 1 .192.384v32.448c0 .16-.064.304-.192.432a.519.519 0 0 1-.384.144H114.1c-.32 0-.544-.128-.672-.384l-11.04-18.336c-.064-.096-.128-.128-.192-.096-.064 0-.096.064-.096.192l.048 18.048c0 .16-.064.304-.192.432a.519.519 0 0 1-.384.144h-6.816a.702.702 0 0 1-.432-.144.702.702 0 0 1-.144-.432V.976c0-.16.048-.288.144-.384A.597.597 0 0 1 94.756.4h6.576c.32 0 .544.128.672.384l10.992 18.288c.064.096.128.144.192.144.064-.032.096-.112.096-.24l-.048-18Zm25.349 33.408c-2.528 0-4.768-.48-6.72-1.44-1.92-.992-3.424-2.384-4.512-4.176-1.056-1.792-1.584-3.856-1.584-6.192V.976c0-.16.048-.288.144-.384a.597.597 0 0 1 .432-.192h6.816c.16 0 .288.064.384.192a.456.456 0 0 1 .192.384v21.6c0 1.504.432 2.72 1.296 3.648.896.896 2.08 1.344 3.552 1.344 1.44 0 2.592-.448 3.456-1.344.896-.928 1.344-2.144 1.344-3.648V.976c0-.16.048-.288.144-.384a.597.597 0 0 1 .432-.192h6.816c.16 0 .288.064.384.192a.456.456 0 0 1 .192.384v21.6c0 2.336-.528 4.4-1.584 6.192-1.056 1.792-2.56 3.184-4.512 4.176-1.92.96-4.144 1.44-6.672 1.44ZM180.156.4c.16 0 .288.064.384.192a.456.456 0 0 1 .192.384v5.712c0 .16-.064.304-.192.432a.519.519 0 0 1-.384.144h-8.4c-.16 0-.24.08-.24.24v25.92c0 .16-.064.304-.192.432a.519.519 0 0 1-.384.144h-6.816a.702.702 0 0 1-.432-.144.702.702 0 0 1-.144-.432V7.504c0-.16-.08-.24-.24-.24h-8.112a.702.702 0 0 1-.432-.144.702.702 0 0 1-.144-.432V.976c0-.16.048-.288.144-.384a.597.597 0 0 1 .432-.192h24.96Zm27.88 6.24c0 .16-.064.304-.192.432a.519.519 0 0 1-.384.144h-15.072c-.16 0-.24.08-.24.24v5.904c0 .16.08.24.24.24h9.648c.16 0 .288.064.384.192a.456.456 0 0 1 .192.384v5.616c0 .16-.064.304-.192.432a.519.519 0 0 1-.384.144h-9.648c-.16 0-.24.08-.24.24v6.336c0 .16.08.24.24.24h15.072c.16 0 .288.064.384.192a.456.456 0 0 1 .192.384v5.664c0 .16-.064.304-.192.432a.519.519 0 0 1-.384.144h-22.704a.702.702 0 0 1-.432-.144.702.702 0 0 1-.144-.432V.976c0-.16.048-.288.144-.384a.597.597 0 0 1 .432-.192h22.704c.16 0 .288.064.384.192a.456.456 0 0 1 .192.384V6.64Zm16.039 27.744c-2.656 0-4.976-.416-6.96-1.248-1.952-.864-3.472-2.08-4.56-3.648-1.056-1.6-1.584-3.44-1.584-5.52v-.912c0-.16.048-.288.144-.384a.597.597 0 0 1 .432-.192h6.672c.16 0 .288.064.384.192a.456.456 0 0 1 .192.384v.576c0 1.056.528 1.984 1.584 2.784 1.056.768 2.48 1.152 4.272 1.152 1.408 0 2.448-.304 3.12-.912.672-.608 1.008-1.312 1.008-2.112 0-.64-.208-1.152-.624-1.536-.384-.416-.912-.752-1.584-1.008-.672-.288-1.712-.672-3.12-1.152a2.034 2.034 0 0 0-.576-.192 9.608 9.608 0 0 1-.528-.192c-2.08-.672-3.888-1.392-5.424-2.16a12.086 12.086 0 0 1-3.936-3.264c-1.088-1.408-1.632-3.136-1.632-5.184 0-1.984.512-3.712 1.536-5.184 1.056-1.504 2.512-2.656 4.368-3.456 1.856-.8 3.952-1.2 6.288-1.2 2.464 0 4.672.448 6.624 1.344 1.984.896 3.536 2.16 4.656 3.792 1.12 1.632 1.68 3.504 1.68 5.616v.672c0 .16-.064.304-.192.432a.519.519 0 0 1-.384.144h-6.672a.702.702 0 0 1-.432-.144.702.702 0 0 1-.144-.432v-.336c0-1.12-.496-2.112-1.488-2.976-.992-.864-2.32-1.296-3.984-1.296-1.248 0-2.224.256-2.928.768-.704.512-1.056 1.232-1.056 2.16 0 .704.224 1.296.672 1.776.448.448 1.136.88 2.064 1.296.96.384 2.416.896 4.368 1.536 2.24.768 3.984 1.44 5.232 2.016 1.248.576 2.416 1.52 3.504 2.832 1.12 1.28 1.68 2.976 1.68 5.088 0 2.08-.528 3.872-1.584 5.376-1.056 1.504-2.544 2.672-4.464 3.504-1.888.8-4.096 1.2-6.624 1.2Z"/><path fill="#AF62F1" d="M29.192 18.496c.544 1.536.816 3.072.816 4.608 0 1.6-.288 3.136-.864 4.608-.832 1.984-2.224 3.584-4.176 4.8-1.92 1.184-4.144 1.776-6.672 1.776-2.528 0-4.752-.576-6.672-1.728-1.92-1.184-3.312-2.784-4.176-4.8a13.59 13.59 0 0 1-.768-2.88v-.096c0-.352.192-.528.576-.528h7.008c.288 0 .512.16.672.48.032.192.144.448.336.768.608 1.312 1.584 1.968 2.928 1.968.672 0 1.28-.16 1.824-.48.544-.352.976-.848 1.296-1.488.352-.64.528-1.44.528-2.4 0-.896-.16-1.664-.48-2.304a2.627 2.627 0 0 0-1.152-1.344c-.512-.352-1.104-.528-1.776-.528-.736 0-1.424.176-2.064.528-.64.352-1.072.8-1.296 1.344-.096.32-.304.48-.624.48H7.304a.702.702 0 0 1-.432-.144.702.702 0 0 1-.144-.432V.976c0-.16.048-.288.144-.384A.597.597 0 0 1 7.304.4h21.024c.16 0 .288.064.384.192a.456.456 0 0 1 .192.384V6.64c0 .16-.064.304-.192.432a.519.519 0 0 1-.384.144H14.936c-.16 0-.24.08-.24.24v5.616c0 .096.032.16.096.192s.128.016.192-.048c1.312-.768 2.8-1.152 4.464-1.152 2.272 0 4.272.576 6 1.728 1.728 1.152 2.976 2.72 3.744 4.704ZM64.763.784c.128-.256.352-.384.672-.384h6.768c.16 0 .288.064.384.192a.456.456 0 0 1 .192.384v32.448c0 .16-.064.304-.192.432a.519.519 0 0 1-.384.144h-6.816a.702.702 0 0 1-.432-.144.702.702 0 0 1-.144-.432V14.128c0-.128-.032-.192-.096-.192s-.128.048-.192.144l-4.128 6.624c-.128.256-.352.384-.672.384h-3.408c-.32 0-.544-.128-.672-.384l-4.176-6.672c-.064-.096-.128-.144-.192-.144s-.096.064-.096.192v19.344c0 .16-.064.304-.192.432a.519.519 0 0 1-.384.144h-6.816a.702.702 0 0 1-.432-.144.702.702 0 0 1-.144-.432V.976c0-.16.048-.288.144-.384A.597.597 0 0 1 43.787.4h6.768c.288 0 .512.128.672.384L57.9 11.248c.096.192.192.192.288 0L64.763.784ZM78.053 34a.702.702 0 0 1-.432-.144.702.702 0 0 1-.144-.432V.976c0-.16.048-.288.144-.384A.597.597 0 0 1 78.053.4h6.816c.16 0 .288.064.384.192a.456.456 0 0 1 .192.384v32.448c0 .16-.064.304-.192.432a.519.519 0 0 1-.384.144h-6.816ZM109.236.976c0-.16.048-.288.144-.384a.597.597 0 0 1 .432-.192h6.816c.16 0 .288.064.384.192a.456.456 0 0 1 .192.384v32.448c0 .16-.064.304-.192.432a.519.519 0 0 1-.384.144H110.1c-.32 0-.544-.128-.672-.384L98.388 15.28c-.064-.096-.128-.128-.192-.096-.064 0-.096.064-.096.192l.048 18.048c0 .16-.064.304-.192.432a.519.519 0 0 1-.384.144h-6.816a.702.702 0 0 1-.432-.144.702.702 0 0 1-.144-.432V.976c0-.16.048-.288.144-.384A.597.597 0 0 1 90.756.4h6.576c.32 0 .544.128.672.384l10.992 18.288c.064.096.128.144.192.144.064-.032.096-.112.096-.24l-.048-18Zm25.349 33.408c-2.528 0-4.768-.48-6.72-1.44-1.92-.992-3.424-2.384-4.512-4.176-1.056-1.792-1.584-3.856-1.584-6.192V.976c0-.16.048-.288.144-.384a.597.597 0 0 1 .432-.192h6.816c.16 0 .288.064.384.192a.456.456 0 0 1 .192.384v21.6c0 1.504.432 2.72 1.296 3.648.896.896 2.08 1.344 3.552 1.344 1.44 0 2.592-.448 3.456-1.344.896-.928 1.344-2.144 1.344-3.648V.976c0-.16.048-.288.144-.384a.597.597 0 0 1 .432-.192h6.816c.16 0 .288.064.384.192a.456.456 0 0 1 .192.384v21.6c0 2.336-.528 4.4-1.584 6.192-1.056 1.792-2.56 3.184-4.512 4.176-1.92.96-4.144 1.44-6.672 1.44ZM176.156.4c.16 0 .288.064.384.192a.456.456 0 0 1 .192.384v5.712c0 .16-.064.304-.192.432a.519.519 0 0 1-.384.144h-8.4c-.16 0-.24.08-.24.24v25.92c0 .16-.064.304-.192.432a.519.519 0 0 1-.384.144h-6.816a.702.702 0 0 1-.432-.144.702.702 0 0 1-.144-.432V7.504c0-.16-.08-.24-.24-.24h-8.112a.702.702 0 0 1-.432-.144.702.702 0 0 1-.144-.432V.976c0-.16.048-.288.144-.384a.597.597 0 0 1 .432-.192h24.96Zm27.88 6.24c0 .16-.064.304-.192.432a.519.519 0 0 1-.384.144h-15.072c-.16 0-.24.08-.24.24v5.904c0 .16.08.24.24.24h9.648c.16 0 .288.064.384.192a.456.456 0 0 1 .192.384v5.616c0 .16-.064.304-.192.432a.519.519 0 0 1-.384.144h-9.648c-.16 0-.24.08-.24.24v6.336c0 .16.08.24.24.24h15.072c.16 0 .288.064.384.192a.456.456 0 0 1 .192.384v5.664c0 .16-.064.304-.192.432a.519.519 0 0 1-.384.144h-22.704a.702.702 0 0 1-.432-.144.702.702 0 0 1-.144-.432V.976c0-.16.048-.288.144-.384a.597.597 0 0 1 .432-.192h22.704c.16 0 .288.064.384.192a.456.456 0 0 1 .192.384V6.64Zm16.039 27.744c-2.656 0-4.976-.416-6.96-1.248-1.952-.864-3.472-2.08-4.56-3.648-1.056-1.6-1.584-3.44-1.584-5.52v-.912c0-.16.048-.288.144-.384a.597.597 0 0 1 .432-.192h6.672c.16 0 .288.064.384.192a.456.456 0 0 1 .192.384v.576c0 1.056.528 1.984 1.584 2.784 1.056.768 2.48 1.152 4.272 1.152 1.408 0 2.448-.304 3.12-.912.672-.608 1.008-1.312 1.008-2.112 0-.64-.208-1.152-.624-1.536-.384-.416-.912-.752-1.584-1.008-.672-.288-1.712-.672-3.12-1.152a2.034 2.034 0 0 0-.576-.192 9.608 9.608 0 0 1-.528-.192c-2.08-.672-3.888-1.392-5.424-2.16a12.086 12.086 0 0 1-3.936-3.264c-1.088-1.408-1.632-3.136-1.632-5.184 0-1.984.512-3.712 1.536-5.184 1.056-1.504 2.512-2.656 4.368-3.456 1.856-.8 3.952-1.2 6.288-1.2 2.464 0 4.672.448 6.624 1.344 1.984.896 3.536 2.16 4.656 3.792 1.12 1.632 1.68 3.504 1.68 5.616v.672c0 .16-.064.304-.192.432a.519.519 0 0 1-.384.144h-6.672a.702.702 0 0 1-.432-.144.702.702 0 0 1-.144-.432v-.336c0-1.12-.496-2.112-1.488-2.976-.992-.864-2.32-1.296-3.984-1.296-1.248 0-2.224.256-2.928.768-.704.512-1.056 1.232-1.056 2.16 0 .704.224 1.296.672 1.776.448.448 1.136.88 2.064 1.296.96.384 2.416.896 4.368 1.536 2.24.768 3.984 1.44 5.232 2.016 1.248.576 2.416 1.52 3.504 2.832 1.12 1.28 1.68 2.976 1.68 5.088 0 2.08-.528 3.872-1.584 5.376-1.056 1.504-2.544 2.672-4.464 3.504-1.888.8-4.096 1.2-6.624 1.2Z"/><path fill="#E98DF7" d="M23.192 18.496c.544 1.536.816 3.072.816 4.608 0 1.6-.288 3.136-.864 4.608-.832 1.984-2.224 3.584-4.176 4.8-1.92 1.184-4.144 1.776-6.672 1.776-2.528 0-4.752-.576-6.672-1.728-1.92-1.184-3.312-2.784-4.176-4.8a13.59 13.59 0 0 1-.768-2.88v-.096c0-.352.192-.528.576-.528h7.008c.288 0 .512.16.672.48.032.192.144.448.336.768.608 1.312 1.584 1.968 2.928 1.968.672 0 1.28-.16 1.824-.48.544-.352.976-.848 1.296-1.488.352-.64.528-1.44.528-2.4 0-.896-.16-1.664-.48-2.304a2.627 2.627 0 0 0-1.152-1.344c-.512-.352-1.104-.528-1.776-.528-.736 0-1.424.176-2.064.528-.64.352-1.072.8-1.296 1.344-.096.32-.304.48-.624.48H1.304a.702.702 0 0 1-.432-.144.702.702 0 0 1-.144-.432V.976c0-.16.048-.288.144-.384A.597.597 0 0 1 1.304.4h21.024c.16 0 .288.064.384.192a.456.456 0 0 1 .192.384V6.64c0 .16-.064.304-.192.432a.519.519 0 0 1-.384.144H8.936c-.16 0-.24.08-.24.24v5.616c0 .096.032.16.096.192s.128.016.192-.048c1.312-.768 2.8-1.152 4.464-1.152 2.272 0 4.272.576 6 1.728 1.728 1.152 2.976 2.72 3.744 4.704ZM58.763.784c.128-.256.352-.384.672-.384h6.768c.16 0 .288.064.384.192a.456.456 0 0 1 .192.384v32.448c0 .16-.064.304-.192.432a.519.519 0 0 1-.384.144h-6.816a.702.702 0 0 1-.432-.144.702.702 0 0 1-.144-.432V14.128c0-.128-.032-.192-.096-.192s-.128.048-.192.144l-4.128 6.624c-.128.256-.352.384-.672.384h-3.408c-.32 0-.544-.128-.672-.384l-4.176-6.672c-.064-.096-.128-.144-.192-.144s-.096.064-.096.192v19.344c0 .16-.064.304-.192.432a.519.519 0 0 1-.384.144h-6.816a.702.702 0 0 1-.432-.144.702.702 0 0 1-.144-.432V.976c0-.16.048-.288.144-.384A.597.597 0 0 1 37.787.4h6.768c.288 0 .512.128.672.384L51.9 11.248c.096.192.192.192.288 0L58.763.784ZM72.053 34a.702.702 0 0 1-.432-.144.702.702 0 0 1-.144-.432V.976c0-.16.048-.288.144-.384A.597.597 0 0 1 72.053.4h6.816c.16 0 .288.064.384.192a.456.456 0 0 1 .192.384v32.448c0 .16-.064.304-.192.432a.519.519 0 0 1-.384.144h-6.816ZM103.236.976c0-.16.048-.288.144-.384a.597.597 0 0 1 .432-.192h6.816c.16 0 .288.064.384.192a.456.456 0 0 1 .192.384v32.448c0 .16-.064.304-.192.432a.519.519 0 0 1-.384.144H104.1c-.32 0-.544-.128-.672-.384L92.388 15.28c-.064-.096-.128-.128-.192-.096-.064 0-.096.064-.096.192l.048 18.048c0 .16-.064.304-.192.432a.519.519 0 0 1-.384.144h-6.816a.702.702 0 0 1-.432-.144.702.702 0 0 1-.144-.432V.976c0-.16.048-.288.144-.384A.597.597 0 0 1 84.756.4h6.576c.32 0 .544.128.672.384l10.992 18.288c.064.096.128.144.192.144.064-.032.096-.112.096-.24l-.048-18Zm25.349 33.408c-2.528 0-4.768-.48-6.72-1.44-1.92-.992-3.424-2.384-4.512-4.176-1.056-1.792-1.584-3.856-1.584-6.192V.976c0-.16.048-.288.144-.384a.597.597 0 0 1 .432-.192h6.816c.16 0 .288.064.384.192a.456.456 0 0 1 .192.384v21.6c0 1.504.432 2.72 1.296 3.648.896.896 2.08 1.344 3.552 1.344 1.44 0 2.592-.448 3.456-1.344.896-.928 1.344-2.144 1.344-3.648V.976c0-.16.048-.288.144-.384a.597.597 0 0 1 .432-.192h6.816c.16 0 .288.064.384.192a.456.456 0 0 1 .192.384v21.6c0 2.336-.528 4.4-1.584 6.192-1.056 1.792-2.56 3.184-4.512 4.176-1.92.96-4.144 1.44-6.672 1.44ZM170.156.4c.16 0 .288.064.384.192a.456.456 0 0 1 .192.384v5.712c0 .16-.064.304-.192.432a.519.519 0 0 1-.384.144h-8.4c-.16 0-.24.08-.24.24v25.92c0 .16-.064.304-.192.432a.519.519 0 0 1-.384.144h-6.816a.702.702 0 0 1-.432-.144.702.702 0 0 1-.144-.432V7.504c0-.16-.08-.24-.24-.24h-8.112a.702.702 0 0 1-.432-.144.702.702 0 0 1-.144-.432V.976c0-.16.048-.288.144-.384a.597.597 0 0 1 .432-.192h24.96Zm27.88 6.24c0 .16-.064.304-.192.432a.519.519 0 0 1-.384.144h-15.072c-.16 0-.24.08-.24.24v5.904c0 .16.08.24.24.24h9.648c.16 0 .288.064.384.192a.456.456 0 0 1 .192.384v5.616c0 .16-.064.304-.192.432a.519.519 0 0 1-.384.144h-9.648c-.16 0-.24.08-.24.24v6.336c0 .16.08.24.24.24h15.072c.16 0 .288.064.384.192a.456.456 0 0 1 .192.384v5.664c0 .16-.064.304-.192.432a.519.519 0 0 1-.384.144h-22.704a.702.702 0 0 1-.432-.144.702.702 0 0 1-.144-.432V.976c0-.16.048-.288.144-.384a.597.597 0 0 1 .432-.192h22.704c.16 0 .288.064.384.192a.456.456 0 0 1 .192.384V6.64Zm16.039 27.744c-2.656 0-4.976-.416-6.96-1.248-1.952-.864-3.472-2.08-4.56-3.648-1.056-1.6-1.584-3.44-1.584-5.52v-.912c0-.16.048-.288.144-.384a.597.597 0 0 1 .432-.192h6.672c.16 0 .288.064.384.192a.456.456 0 0 1 .192.384v.576c0 1.056.528 1.984 1.584 2.784 1.056.768 2.48 1.152 4.272 1.152 1.408 0 2.448-.304 3.12-.912.672-.608 1.008-1.312 1.008-2.112 0-.64-.208-1.152-.624-1.536-.384-.416-.912-.752-1.584-1.008-.672-.288-1.712-.672-3.12-1.152a2.034 2.034 0 0 0-.576-.192 9.608 9.608 0 0 1-.528-.192c-2.08-.672-3.888-1.392-5.424-2.16a12.086 12.086 0 0 1-3.936-3.264c-1.088-1.408-1.632-3.136-1.632-5.184 0-1.984.512-3.712 1.536-5.184 1.056-1.504 2.512-2.656 4.368-3.456 1.856-.8 3.952-1.2 6.288-1.2 2.464 0 4.672.448 6.624 1.344 1.984.896 3.536 2.16 4.656 3.792 1.12 1.632 1.68 3.504 1.68 5.616v.672c0 .16-.064.304-.192.432a.519.519 0 0 1-.384.144h-6.672a.702.702 0 0 1-.432-.144.702.702 0 0 1-.144-.432v-.336c0-1.12-.496-2.112-1.488-2.976-.992-.864-2.32-1.296-3.984-1.296-1.248 0-2.224.256-2.928.768-.704.512-1.056 1.232-1.056 2.16 0 .704.224 1.296.672 1.776.448.448 1.136.88 2.064 1.296.96.384 2.416.896 4.368 1.536 2.24.768 3.984 1.44 5.232 2.016 1.248.576 2.416 1.52 3.504 2.832 1.12 1.28 1.68 2.976 1.68 5.088 0 2.08-.528 3.872-1.584 5.376-1.056 1.504-2.544 2.672-4.464 3.504-1.888.8-4.096 1.2-6.624 1.2Z"/></svg>