<svg xmlns="http://www.w3.org/2000/svg" width="504" height="450" fill="none"><circle cx="233.4" cy="339.491" r="16.126" fill="url(#a)" transform="rotate(-180 233.4 339.491)"/><circle cx="323.789" cy="51.348" r="25.037" fill="url(#b)" transform="rotate(-180 323.789 51.348)"/><circle cx="245.706" cy="420.544" r="29.281" fill="url(#c)" transform="rotate(-180 245.706 420.544)"/><circle cx="31.403" cy="51.773" r="21.218" fill="url(#d)" transform="rotate(-180 31.403 51.773)"/><circle cx="482.077" cy="123.065" r="21.218" fill="url(#e)" transform="rotate(-180 482.077 123.065)"/><circle cx="305.542" cy="373.44" r="10.185" fill="url(#f)" transform="rotate(-180 305.542 373.44)"/><circle cx="404.843" cy="329.306" r="10.185" fill="url(#g)" transform="rotate(-180 404.843 329.306)"/><circle cx="293.659" cy="188.417" r="10.185" fill="url(#h)" transform="rotate(-180 293.659 188.417)"/><circle cx="412.057" cy="78.507" r="5.517" fill="url(#i)" transform="rotate(-180 412.057 78.507)"/><circle cx="318.697" cy="313.605" r="5.517" fill="url(#j)" transform="rotate(-180 318.697 313.605)"/><circle cx="5.517" cy="5.517" r="5.517" fill="url(#k)" transform="rotate(-180 5.517 5.517)"/><circle cx="329.73" cy="122.641" r="5.517" fill="url(#l)" transform="rotate(-180 329.73 122.641)"/><circle cx="359.436" cy="261.832" r="21.642" fill="url(#m)" transform="rotate(-180 359.436 261.832)"/><circle cx="381.078" cy="160.409" r="13.58" fill="url(#n)" transform="rotate(-180 381.078 160.409)"/><defs><radialGradient id="a" cx="0" cy="0" r="1" gradientTransform="rotate(90 -53.046 286.446) scale(16.1258)" gradientUnits="userSpaceOnUse"><stop stop-color="#fff" stop-opacity=".51"/><stop offset=".641" stop-color="#fff" stop-opacity="0"/></radialGradient><radialGradient id="b" cx="0" cy="0" r="1" gradientTransform="rotate(90 136.22 187.569) scale(25.0374)" gradientUnits="userSpaceOnUse"><stop stop-color="#fff" stop-opacity=".51"/><stop offset="1" stop-color="#fff" stop-opacity="0"/></radialGradient><radialGradient id="c" cx="0" cy="0" r="1" gradientTransform="rotate(90 -87.419 333.125) scale(29.2811)" gradientUnits="userSpaceOnUse"><stop stop-color="#fff" stop-opacity=".51"/><stop offset="1" stop-color="#fff" stop-opacity="0"/></radialGradient><radialGradient id="d" cx="0" cy="0" r="1" gradientTransform="rotate(90 -10.185 41.588) scale(21.2182)" gradientUnits="userSpaceOnUse"><stop stop-color="#fff" stop-opacity=".51"/><stop offset=".641" stop-color="#fff" stop-opacity="0"/></radialGradient><radialGradient id="e" cx="0" cy="0" r="1" gradientTransform="rotate(90 179.506 302.571) scale(21.2182)" gradientUnits="userSpaceOnUse"><stop stop-color="#fff" stop-opacity=".51"/><stop offset=".641" stop-color="#fff" stop-opacity="0"/></radialGradient><radialGradient id="f" cx="0" cy="0" r="1" gradientTransform="rotate(90 -33.949 339.491) scale(10.1847)" gradientUnits="userSpaceOnUse"><stop stop-color="#fff" stop-opacity=".51"/><stop offset=".641" stop-color="#fff" stop-opacity="0"/></radialGradient><radialGradient id="g" cx="0" cy="0" r="1" gradientTransform="rotate(90 37.768 367.075) scale(10.1847)" gradientUnits="userSpaceOnUse"><stop stop-color="#fff" stop-opacity=".51"/><stop offset=".641" stop-color="#fff" stop-opacity="0"/></radialGradient><radialGradient id="h" cx="0" cy="0" r="1" gradientTransform="rotate(90 52.621 241.038) scale(10.1847)" gradientUnits="userSpaceOnUse"><stop stop-color="#fff" stop-opacity=".51"/><stop offset=".641" stop-color="#fff" stop-opacity="0"/></radialGradient><radialGradient id="i" cx="0" cy="0" r="1" gradientTransform="rotate(90 166.775 245.282) scale(5.51672)" gradientUnits="userSpaceOnUse"><stop stop-color="#fff" stop-opacity=".51"/><stop offset=".641" stop-color="#fff" stop-opacity="0"/></radialGradient><radialGradient id="j" cx="0" cy="0" r="1" gradientTransform="rotate(90 2.546 316.151) scale(5.51672)" gradientUnits="userSpaceOnUse"><stop stop-color="#fff" stop-opacity=".51"/><stop offset=".641" stop-color="#fff" stop-opacity="0"/></radialGradient><radialGradient id="k" cx="0" cy="0" r="1" gradientTransform="rotate(90 0 5.517) scale(5.51672)" gradientUnits="userSpaceOnUse"><stop stop-color="#fff" stop-opacity=".51"/><stop offset=".641" stop-color="#fff" stop-opacity="0"/></radialGradient><radialGradient id="l" cx="0" cy="0" r="1" gradientTransform="rotate(90 103.544 226.186) scale(5.51672)" gradientUnits="userSpaceOnUse"><stop stop-color="#fff" stop-opacity=".51"/><stop offset=".641" stop-color="#fff" stop-opacity="0"/></radialGradient><radialGradient id="m" cx="0" cy="0" r="1" gradientTransform="rotate(90 48.802 310.634) scale(21.6425)" gradientUnits="userSpaceOnUse"><stop stop-color="#fff" stop-opacity=".51"/><stop offset=".641" stop-color="#fff" stop-opacity="0"/></radialGradient><radialGradient id="n" cx="0" cy="0" r="1" gradientTransform="rotate(90 110.334 270.744) scale(13.5796)" gradientUnits="userSpaceOnUse"><stop stop-color="#fff" stop-opacity=".51"/><stop offset=".641" stop-color="#fff" stop-opacity="0"/></radialGradient></defs></svg>