<svg xmlns="http://www.w3.org/2000/svg" width="182" height="67" fill="none"><path fill="#762DD7" d="M38.691 66.058c-4.89 0-9.2-.978-12.93-2.934-3.668-1.957-6.541-4.708-8.62-8.254-2.018-3.546-3.026-7.642-3.026-12.288v-18.8c0-4.646 1.008-8.711 3.026-12.196 2.079-3.546 4.952-6.297 8.62-8.254 3.73-1.956 8.04-2.934 12.93-2.934 4.83 0 9.11.948 12.839 2.843 3.73 1.834 6.603 4.371 8.62 7.611 2.079 3.24 3.118 6.817 3.118 10.73v.458c0 .306-.122.581-.367.826-.183.183-.428.275-.733.275H49.146c-.306 0-.581-.092-.826-.275a1.341 1.341 0 0 1-.275-.826c0-2.384-.856-4.402-2.567-6.052-1.651-1.712-3.913-2.568-6.787-2.568-2.812 0-5.074.917-6.786 2.751-1.712 1.834-2.567 4.219-2.567 7.153V43.04c0 2.935.947 5.32 2.842 7.153 1.896 1.835 4.28 2.752 7.153 2.752 2.69 0 4.86-.703 6.511-2.11 1.651-1.467 2.476-3.484 2.476-6.052v-2.568c0-.306-.152-.458-.458-.458h-9.17a1.34 1.34 0 0 1-.826-.276 1.342 1.342 0 0 1-.275-.825V30.57c0-.306.092-.55.275-.734.245-.245.52-.367.825-.367h23.477a.87.87 0 0 1 .733.367.872.872 0 0 1 .367.734v12.47c0 4.585-1.04 8.62-3.118 12.104-2.017 3.485-4.89 6.175-8.62 8.07-3.668 1.896-7.948 2.843-12.839 2.843Zm72.522-.733c-.672 0-1.1-.306-1.284-.917l-2.384-8.162c-.122-.245-.275-.367-.459-.367H86.178c-.184 0-.337.122-.459.367l-2.384 8.162c-.183.61-.611.917-1.284.917h-14.03c-.368 0-.643-.092-.826-.276-.183-.244-.214-.58-.092-1.008L86.728 2.049c.183-.612.58-.917 1.192-.917h17.332c.612 0 1.009.305 1.192.917l19.717 61.992c.061.122.092.275.092.458 0 .55-.337.826-1.009.826h-14.031ZM89.388 43.59c-.062.367.06.55.366.55h13.664c.367 0 .489-.183.367-.55l-6.97-23.568c-.06-.245-.152-.337-.275-.275-.122 0-.214.091-.275.275L89.388 43.59Zm70.918-42.458c4.157 0 7.825.855 11.004 2.567 3.24 1.712 5.716 4.127 7.428 7.245 1.773 3.057 2.66 6.603 2.66 10.638 0 3.973-.917 7.489-2.751 10.546-1.773 3.056-4.311 5.41-7.612 7.06-3.301 1.651-7.122 2.477-11.463 2.477h-11.188c-.306 0-.458.153-.458.458v22.101c0 .306-.123.58-.367.825-.184.184-.428.276-.734.276h-13.022c-.306 0-.581-.092-.825-.276a1.338 1.338 0 0 1-.275-.825V2.232c0-.306.091-.55.275-.734.244-.244.519-.366.825-.366h26.503ZM157.83 29.56c2.506 0 4.524-.703 6.052-2.11 1.59-1.405 2.384-3.24 2.384-5.502 0-2.323-.794-4.187-2.384-5.593-1.528-1.468-3.546-2.201-6.052-2.201h-9.446c-.306 0-.458.152-.458.458v14.49c0 .305.152.458.458.458h9.446Z"/><path fill="#AF62F1" d="M31.728 66.06c-4.907 0-9.23-.98-12.972-2.944-3.68-1.962-6.563-4.722-8.648-8.28-2.024-3.557-3.036-7.666-3.036-12.328v-18.86c0-4.66 1.012-8.74 3.036-12.236 2.085-3.557 4.968-6.317 8.648-8.28C22.497 1.17 26.82.188 31.728.188c4.845 0 9.138.951 12.88 2.852 3.741 1.84 6.624 4.386 8.648 7.637 2.085 3.25 3.128 6.838 3.128 10.764v.46c0 .306-.123.582-.368.828-.184.184-.43.276-.736.276H42.216c-.307 0-.583-.092-.828-.276a1.346 1.346 0 0 1-.276-.828c0-2.392-.859-4.416-2.576-6.072-1.656-1.718-3.926-2.577-6.808-2.577-2.822 0-5.09.92-6.808 2.76-1.718 1.84-2.576 4.232-2.576 7.177v19.78c0 2.944.95 5.335 2.852 7.175 1.901 1.84 4.293 2.76 7.176 2.76 2.698 0 4.876-.705 6.532-2.116 1.656-1.471 2.484-3.495 2.484-6.071V42.14c0-.307-.154-.46-.46-.46h-9.2c-.307 0-.583-.092-.828-.276a1.346 1.346 0 0 1-.276-.828v-10.12c0-.307.092-.553.276-.736.245-.246.521-.369.828-.369H55.28c.306 0 .552.123.736.369a.873.873 0 0 1 .368.735v12.512c0 4.6-1.043 8.648-3.128 12.144-2.024 3.496-4.907 6.195-8.648 8.096-3.68 1.902-7.974 2.853-12.88 2.853Zm72.755-.735c-.674 0-1.104-.307-1.288-.92l-2.392-8.188c-.122-.246-.276-.368-.46-.368H79.367c-.184 0-.337.122-.46.368l-2.392 8.188c-.184.613-.613.92-1.288.92H61.151c-.368 0-.644-.093-.828-.276-.184-.246-.214-.583-.092-1.013L79.92 1.845c.184-.613.583-.92 1.196-.92h17.388c.614 0 1.012.307 1.196.92l19.78 62.193c.062.122.092.275.092.46 0 .552-.337.828-1.012.828h-14.076ZM82.587 43.52c-.061.368.062.552.368.552h13.708c.368 0 .49-.184.368-.552L90.04 19.877c-.061-.245-.153-.337-.276-.276-.122 0-.214.092-.276.276l-6.9 23.644ZM153.734.924c4.171 0 7.851.86 11.04 2.576 3.251 1.718 5.735 4.14 7.452 7.268 1.779 3.067 2.668 6.624 2.668 10.672 0 3.987-.92 7.514-2.76 10.58-1.779 3.067-4.324 5.428-7.636 7.084-3.312 1.657-7.145 2.485-11.5 2.485h-11.224c-.307 0-.46.153-.46.46V64.22c0 .306-.123.582-.368.828-.184.183-.429.275-.736.275h-13.064c-.307 0-.583-.091-.828-.275a1.346 1.346 0 0 1-.276-.829V2.029c0-.306.092-.552.276-.736.245-.245.521-.368.828-.368h26.588Zm-2.484 28.52c2.515 0 4.539-.705 6.072-2.116 1.595-1.41 2.392-3.25 2.392-5.52 0-2.33-.797-4.2-2.392-5.611-1.533-1.472-3.557-2.208-6.072-2.208h-9.476c-.307 0-.46.153-.46.46v14.536c0 .306.153.46.46.46h9.476Z"/><path fill="#E98DF7" d="M24.583 66.058c-4.89 0-9.2-.978-12.93-2.934-3.668-1.957-6.542-4.708-8.62-8.254C1.015 51.324.006 47.228.006 42.582v-18.8c0-4.646 1.01-8.711 3.027-12.196 2.078-3.546 4.952-6.297 8.62-8.254 3.73-1.956 8.04-2.934 12.93-2.934 4.83 0 9.11.948 12.839 2.843 3.729 1.834 6.602 4.371 8.62 7.611 2.078 3.24 3.118 6.817 3.118 10.73v.458c0 .306-.122.581-.367.826-.183.183-.428.275-.734.275H35.037c-.305 0-.58-.092-.825-.275a1.341 1.341 0 0 1-.275-.826c0-2.384-.856-4.402-2.568-6.052-1.65-1.712-3.913-2.568-6.786-2.568-2.812 0-5.074.917-6.786 2.751-1.712 1.834-2.568 4.219-2.568 7.153V43.04c0 2.935.948 5.32 2.843 7.153 1.895 1.835 4.28 2.752 7.153 2.752 2.69 0 4.86-.703 6.511-2.11 1.65-1.467 2.476-3.484 2.476-6.052v-2.568c0-.306-.153-.458-.459-.458h-9.17c-.306 0-.58-.092-.825-.276a1.342 1.342 0 0 1-.275-.825V30.57c0-.306.091-.55.275-.734.244-.245.52-.367.825-.367H48.06c.306 0 .55.122.734.367a.872.872 0 0 1 .367.734v12.47c0 4.585-1.04 8.62-3.118 12.104-2.018 3.485-4.891 6.175-8.62 8.07-3.668 1.896-7.948 2.843-12.839 2.843Zm72.522-.733c-.673 0-1.1-.306-1.284-.917l-2.384-8.162c-.123-.245-.275-.367-.459-.367H72.07c-.184 0-.337.122-.46.367l-2.383 8.162c-.184.61-.612.917-1.284.917H53.912c-.367 0-.642-.092-.825-.276-.184-.244-.214-.58-.092-1.008L72.62 2.049c.183-.612.58-.917 1.192-.917h17.332c.611 0 1.009.305 1.192.917l19.717 61.992c.061.122.091.275.091.458 0 .55-.336.826-1.009.826h-14.03ZM75.279 43.59c-.061.367.061.55.367.55H89.31c.367 0 .489-.183.367-.55l-6.97-23.568c-.061-.245-.153-.337-.275-.275-.122 0-.214.091-.275.275L75.279 43.59Zm70.918-42.458c4.158 0 7.826.855 11.005 2.567 3.24 1.712 5.716 4.127 7.428 7.245 1.773 3.057 2.659 6.603 2.659 10.638 0 3.973-.917 7.489-2.751 10.546-1.773 3.056-4.31 5.41-7.611 7.06-3.302 1.651-7.123 2.477-11.463 2.477h-11.188c-.306 0-.459.153-.459.458v22.101c0 .306-.122.58-.367.825-.183.184-.427.276-.733.276h-13.022a1.34 1.34 0 0 1-.826-.276 1.344 1.344 0 0 1-.275-.825V2.232c0-.306.092-.55.275-.734.245-.244.52-.366.826-.366h26.502Zm-2.476 28.428c2.507 0 4.524-.703 6.053-2.11 1.589-1.405 2.384-3.24 2.384-5.502 0-2.323-.795-4.187-2.384-5.593-1.529-1.468-3.546-2.201-6.053-2.201h-9.445c-.306 0-.459.152-.459.458v14.49c0 .305.153.458.459.458h9.445Z"/></svg>