<svg xmlns="http://www.w3.org/2000/svg" width="455" height="668" fill="none"><path fill="#EBF2FC" d="M68.332 535.256c-5.393 21.274-16.518 56.057-23.597 76.993-3.035 8.105-5.057 14.184-6.406 16.547-10.787 20.937-48.88 29.717-11.461 32.757 27.98 2.026 84.952 4.727 91.357 2.701 9.439-3.039 15.507-9.118 22.923-20.937 4.72-7.767 16.856-47.277 23.261-72.604 6.742-29.717-88.997-63.148-96.077-35.457Z"/><path fill="#000" d="M63.95 533.905c-4.72 18.911-10.45 37.821-16.181 56.732-3.034 9.455-6.068 18.911-9.102 28.029-.674 2.363-1.686 4.727-2.697 6.753-.674 2.027-2.023 4.053-3.371 5.741-2.697 3.715-6.405 6.754-10.113 9.793-3.709 3.04-7.754 5.741-11.8 9.456-1.01 1.013-2.022 1.688-3.033 4.39-.338 1.35 0 3.377 1.01 4.39 1.012 1.013 1.686 1.688 2.698 2.026 3.034 1.351 5.394 1.688 8.09 2.026 5.057.675 10.114 1.013 14.833 1.351l14.833 1.013c19.89 1.013 39.442 2.701 59.332 2.364 2.36 0 5.057-.338 7.754-.338.674 0 1.685-.338 2.359-.338.675-.337 1.349-.337 2.023-.675 1.348-.338 2.36-1.013 3.708-1.689 5.057-2.701 9.102-6.416 12.136-10.806 1.686-2.026 3.034-4.39 4.383-6.416l2.022-3.377c.675-1.013 1.349-2.364 2.023-3.714 2.023-4.728 3.708-9.456 5.394-14.183 3.371-9.456 6.405-18.911 9.439-28.367 1.348-4.727 3.034-9.455 4.382-14.183l2.023-7.091 1.011-3.715c.338-1.351.675-2.364 1.012-4.052.674-3.377 0-6.416-1.012-9.456-1.011-2.701-2.696-5.403-4.382-7.429-3.371-4.39-7.416-8.104-11.799-10.806-4.382-3.039-8.765-5.741-13.484-7.767-4.72-2.364-9.44-4.39-14.159-5.741-9.439-3.377-19.553-6.078-30.003-7.091-5.057-.338-10.45-.676-16.181.675-2.697.675-5.731 2.026-8.428 3.715-1.686 2.364-3.708 5.74-4.72 8.78Zm8.428 2.364c.337-1.351 1.349-2.702 2.36-3.715 1.348-1.013 3.034-1.688 5.056-2.364 4.046-1.013 8.765-1.351 13.148-1.013 9.439.675 18.878 3.039 27.643 6.416 8.765 3.377 17.53 7.767 25.283 13.17 3.709 2.702 7.417 5.741 10.114 9.118 1.348 1.688 2.36 3.377 3.034 5.065.674 1.689 1.011 3.377.674 5.066 0 .675-.337 2.026-.674 3.377l-.674 3.714-1.686 7.092c-1.348 4.727-2.36 9.455-3.708 14.183-2.697 9.455-5.394 18.911-8.428 28.366-1.686 4.728-3.034 9.455-5.057 13.508-.337 1.013-1.011 2.026-1.685 3.039l-2.023 3.039c-1.348 2.026-2.697 4.053-4.382 5.741-3.034 3.377-6.406 6.416-10.451 8.442-1.011.338-2.023 1.013-3.034 1.351-.674 0-1.011.338-1.685.338h-1.012c-2.36.337-4.719.337-7.079.337-19.553 0-39.442-.337-58.995-1.35l-14.833-.676c-5.056-.337-9.776-.675-14.495-1.013-2.36-.337-4.72-.675-6.068-1.351-.338 0-.675-.337-.338-.337 0 0 0 .337.338.337v.338s.674-1.013 1.348-1.688c3.034-3.04 7.416-5.741 11.462-9.118 4.045-3.039 7.753-6.754 11.125-10.806 1.685-2.026 3.034-4.39 4.382-7.092 1.011-2.364 2.023-4.727 2.697-7.091 3.708-9.456 6.742-18.573 10.113-28.029 6.405-18.235 12.473-37.146 17.53-56.394Z"/><path fill="#D0D9E6" d="M63.613 659.864c8.09-1.351 16.181-3.377 23.935-7.091 10.45-5.066 19.889-13.17 21.238-25.327 1.011-10.131-4.045-19.924-8.428-28.704-8.765-17.56-17.867-33.094-19.89-53.018-.674-7.767-.674-15.872.675-23.639 27.306-5.403 89.334 20.937 83.603 44.576-6.068 25.327-18.541 64.837-23.26 72.604-7.417 12.157-13.485 17.898-22.924 20.937-4.719 1.351-30.003.675-54.949-.338Z"/><path fill="#EBF2FC" d="M20.463 363.708c8.765-13.508 19.89-26.34 32.363-35.796 10.45-8.104 22.924-13.845 35.734-7.767 10.788 5.066 16.518 18.236 20.564 29.042 8.765 24.651 9.102 51.667 4.719 77.331-3.034 17.561-9.102 37.484-23.935 48.966-20.563 15.534-50.23-8.105-66.074-25.327-10.113-11.144-20.226-23.976-20.9-39.51 0-17.222 8.764-33.769 17.53-46.939Z"/><path fill="#000" d="M22.823 365.058c9.439-14.858 21.238-28.703 35.396-38.834 7.08-4.728 15.508-8.443 23.935-6.754 8.428 1.351 14.833 7.767 19.216 15.196 4.382 7.429 7.079 16.209 9.439 24.652 2.022 8.442 3.371 17.222 4.045 26.34 1.011 17.56-1.348 35.457-5.731 52.68-2.36 8.442-5.731 16.547-10.45 23.638-2.36 3.377-5.394 6.754-8.428 9.118-1.686 1.351-3.371 2.364-5.057 3.377-2.022.675-3.708 1.351-5.73 1.688-3.709.676-8.091.338-11.8-.675-2.022-.338-4.045-1.351-6.068-2.026-2.022-1.013-4.045-1.689-5.73-2.702-7.417-4.052-14.496-9.455-20.901-15.534-3.372-3.039-6.068-6.078-9.102-9.455-3.034-3.377-5.731-6.754-8.428-10.131-5.057-6.754-9.102-14.521-10.45-22.625-1.012-8.105.674-16.885 3.708-24.652 3.034-8.104 7.416-15.871 12.136-23.301Zm-4.72-3.039c-5.057 7.429-9.776 15.534-13.147 23.976-3.371 8.443-5.731 17.898-4.72 28.029 1.011 9.793 5.731 18.573 11.462 26.002 5.73 7.429 11.799 14.183 18.541 20.262 6.742 6.078 14.159 11.819 22.25 16.209 2.022 1.013 4.382 2.026 6.405 3.039 2.36.676 4.382 1.689 6.742 2.026 2.36.676 4.72 1.013 7.08 1.013 2.359 0 5.056 0 7.416-.675 2.36-.338 4.72-1.351 7.079-2.364 2.023-1.351 4.382-2.701 6.068-4.052 3.708-3.039 6.742-6.754 9.439-10.806 5.057-7.767 8.428-16.547 10.788-25.665 4.382-17.898 5.731-36.133 4.719-54.031-1.011-18.235-5.731-36.133-14.158-52.342-2.36-4.052-5.057-7.767-8.765-10.806-3.709-3.039-8.091-5.403-12.81-6.079-4.72-1.013-9.777-.337-14.16 1.013-4.382 1.351-8.764 3.715-12.472 6.079-15.17 10.468-27.644 24.314-37.757 39.172Z"/><path fill="#D0D9E6" d="M51.477 343.108c6.068-8.78 13.148-17.56 21.238-25.327 5.057-1.013 10.45-.675 15.844 2.027 10.788 5.065 16.519 18.235 20.564 29.041 8.765 24.652 9.102 51.667 4.72 77.332-3.034 17.56-9.102 37.484-23.935 48.965-6.742 5.066-14.496 6.079-22.25 4.39-15.507-16.209-26.968-37.146-33.71-58.083-4.383-13.17-6.743-27.353-3.372-40.861 3.371-14.183 12.81-26.34 20.901-37.484Z"/><path fill="#EBF2FC" d="M70.693 370.799c1.348-10.806 3.37-21.275 6.068-31.068 13.147-46.939 82.929-81.046 159.453-70.24 53.601 7.43 93.043 41.874 99.448 95.23 1.686 14.858 1.686 30.054 1.686 44.237-.337 36.134-9.439 74.293-28.317 105.361-13.148 26.002 4.045 86.111 8.09 97.255 3.034 8.105 5.057 14.183 6.405 16.547 10.788 20.937 48.882 29.717 11.462 32.756-27.98 2.026-84.952 4.728-91.357 2.702-9.439-3.04-15.507-9.118-22.924-20.937-2.359-4.053-7.079-16.885-11.799-32.081-6.405-20.937-23.935-21.95-49.218-24.989-19.215-2.026-37.756-7.092-54.612-14.183-34.048-14.521-59.332-42.55-66.074-80.371-11.125-63.824 28.992-98.269 31.689-120.219Z"/><path fill="#000" d="M74.4 371.475c1.35-10.807 3.372-21.275 6.406-31.406 2.697-10.131 8.765-18.911 15.507-26.678 7.079-7.767 15.17-14.52 24.609-19.923l3.371-2.027 3.371-2.026c2.36-1.351 4.72-2.364 7.08-3.714 5.056-2.027 9.776-4.39 14.833-5.741 10.113-3.715 20.563-5.741 31.351-7.429 5.394-.676 10.788-1.351 15.844-1.689 5.394 0 10.788-.675 16.182-.338l8.09.338c2.697 0 5.394.676 8.091.676 2.697.337 5.394.337 8.091 1.013l7.753 1.35c10.451 2.364 20.564 5.403 30.34 10.131 9.439 4.728 18.541 10.469 26.295 17.56 7.754 7.092 14.496 15.534 19.552 24.989 5.057 9.456 8.765 19.587 10.788 30.055 2.023 10.469 2.697 21.275 3.034 32.081.337 10.806.337 21.95-.337 32.418-.674 10.807-2.023 21.613-4.383 32.081-4.382 21.275-12.136 41.536-23.597 59.772-3.371 7.091-4.72 14.521-5.394 21.612-.674 7.429-.337 14.521.337 21.95 1.348 14.521 4.045 28.704 7.754 42.549 1.011 3.377 2.022 7.092 3.034 10.469 1.011 3.715 2.359 6.754 3.708 10.131 1.348 3.377 2.36 6.753 4.382 10.468a47.115 47.115 0 0 0 7.08 9.118c5.393 5.403 11.461 9.455 16.855 13.845 1.349 1.013 2.697 2.026 3.034 3.039 0 .338.337.338 0 0v-1.013c.337-.675 0 0-.337 0-2.36 1.013-6.068 1.689-9.439 2.027-13.822 1.35-28.317 2.026-42.476 2.701a891.886 891.886 0 0 1-42.476 1.013c-3.371 0-7.08 0-9.439-1.013-3.034-1.013-5.731-2.701-8.428-4.728-5.057-4.052-9.102-10.13-12.136-15.871-2.697-6.079-5.057-12.832-7.417-19.586l-3.371-10.131c-1.348-3.377-2.697-7.092-4.719-10.469-2.36-3.377-5.057-6.078-8.428-8.104-3.371-2.026-7.079-3.377-10.451-4.728-7.079-2.026-14.495-2.701-21.575-3.715-14.158-1.35-27.643-3.714-41.127-8.104-13.485-4.052-26.295-9.456-37.757-17.222-5.73-3.715-11.125-8.105-16.181-12.833-5.057-4.727-9.44-10.131-13.148-15.871-15.507-22.626-20.226-52.005-15.844-79.358 2.023-13.846 7.08-26.678 13.485-39.172 3.034-6.417 6.742-12.495 10.113-18.574 2.697-5.403 6.405-11.819 8.09-19.923Zm-7.079-1.014c-1.011 6.079-4.382 12.157-7.753 18.574-3.371 6.078-7.08 12.494-10.114 18.91-6.405 12.833-11.798 26.678-14.158 41.199-2.36 14.521-2.023 29.379.674 43.562 2.697 14.521 8.09 28.366 16.518 40.523 4.046 6.079 8.765 11.82 14.16 16.885 5.393 5.065 11.124 9.793 17.192 13.845 12.136 8.105 25.957 13.508 39.779 17.898 13.822 4.052 28.317 6.754 42.476 8.105 7.079.675 14.159 1.688 20.564 3.377 3.371 1.013 6.405 2.026 9.102 3.714 2.697 1.689 5.057 3.715 6.742 6.416 2.023 2.702 3.034 5.741 4.045 8.78l3.372 10.131c2.359 6.754 4.382 13.508 7.753 20.262 1.011 2.026 2.023 3.377 3.034 4.727 1.012 1.689 2.023 3.04 3.034 4.39 2.36 3.04 4.72 5.741 7.754 8.443 3.034 2.364 6.405 4.39 10.113 5.741l1.349.337 1.685.338c1.011.338 2.023.338 3.034.338 2.023 0 3.708.337 5.394.337 14.496.338 28.654-.337 42.813-1.013 14.159-.675 28.317-1.351 42.813-2.364 3.709-.337 7.08-.675 11.462-2.026.674-.337 1.011-.337 1.686-1.013.337-.338.674-.675 1.011-.675.337-.338.674-1.013 1.011-1.351.337-.338.337-1.351.675-1.688v-1.689c-.338-1.013-.675-1.688-1.012-2.364-1.685-2.026-3.034-3.377-4.382-4.39-5.731-4.727-11.462-8.78-15.845-13.507-2.359-2.364-4.382-5.066-5.73-7.767-1.349-2.702-2.697-6.079-3.709-9.456-1.348-3.377-2.359-6.754-3.371-9.793l-3.034-10.131c-3.708-13.507-6.742-27.353-8.09-41.198-.675-7.092-1.349-13.846-1.012-20.937.337-6.754 1.349-13.846 4.046-19.586v.337c11.124-19.248 18.878-40.185 23.597-61.797 2.36-10.807 3.709-21.613 4.383-32.757.674-11.143.674-21.95.337-33.093-.337-11.144-1.011-21.95-3.034-33.094-2.023-10.806-5.731-21.613-11.125-31.406s-12.136-18.911-20.226-26.677c-8.091-7.767-17.53-13.846-27.644-18.911-10.113-5.066-20.563-8.443-31.688-10.806l-8.091-1.351-8.09-1.013c-2.697-.338-5.394-.676-8.091-.676l-8.428-.337c-5.394-.338-11.125 0-16.518 0-5.394.337-11.125 1.013-16.519 1.688-10.787 1.689-21.912 3.715-32.363 7.429-5.393 1.689-10.45 4.053-15.507 6.079a76.14 76.14 0 0 0-7.416 3.714l-3.708 2.027-3.709 2.026c-9.776 5.403-18.541 12.832-25.957 20.937-7.417 8.442-13.822 18.235-17.193 29.379-4.72 10.468-6.405 21.612-8.09 32.418Z"/><path fill="#EBF2FC" d="M342.404 314.067c6.068 7.429 11.125 15.871 15.508 24.651 9.776-9.455 21.912-19.248 33.711-26.002 27.98-15.872 57.309 4.052 54.275 38.159-3.034 34.783-25.958 68.214-54.612 86.787-41.128 26.34-78.21 6.079-107.876-35.457-7.754-10.807-20.564-31.406-25.283-44.914-17.53-49.303 47.532-88.475 84.277-43.224Z"/><path fill="#000" d="m342.405 314.067 7.079 12.157c2.36 4.052 4.72 8.104 7.417 12.157l1.348 2.026 1.686-1.689c7.079-7.091 15.17-13.507 23.597-18.573 8.428-5.065 17.867-9.117 27.306-9.455 9.44-.676 18.879 3.039 25.284 10.468 6.405 7.43 9.776 17.56 10.113 27.691.337 10.131-1.685 20.262-5.731 29.379-4.045 9.456-9.776 17.898-16.181 25.327-13.147 15.197-30.34 26.678-48.207 35.12h-.337c-1.349 1.013-3.708 1.689-5.731 2.364-2.023.676-4.045 1.351-6.068 1.689-4.045 1.013-8.428 1.013-12.81.675-8.765-.675-17.193-3.377-25.284-7.091-8.09-4.053-15.507-9.456-22.249-15.197-6.742-6.078-13.147-12.832-19.216-19.586l-.674.338c5.057 7.767 10.788 15.196 17.193 21.95 6.405 6.754 13.822 12.832 22.249 17.56 8.428 4.728 17.53 8.105 27.306 9.118 9.777.675 19.89-.338 28.992-5.741l-.337.338c18.541-9.118 36.408-21.613 49.218-38.497 12.81-16.547 20.564-37.147 20.227-58.084-.337-5.065-1.011-10.468-2.36-15.533-1.348-5.066-3.708-10.131-6.742-14.521-6.068-8.78-17.53-14.521-28.655-14.183-5.393 0-10.787 1.35-15.844 3.377-5.057 2.026-9.776 4.39-14.159 7.429-8.764 5.741-16.518 12.832-23.26 20.937l3.034.338c-2.697-3.715-5.731-7.767-8.428-11.482-2.697-3.715-5.731-7.767-8.428-11.482l-1.348.676Z"/><path fill="#D0D9E6" d="M285.095 404.906c22.25 33.094 47.87 40.861 47.533 41.536-4.045 24.314-12.473 47.953-24.946 68.552-10.788 23.301-.674 77.669 3.034 88.813 3.034 8.105 12.473 31.406 13.821 33.094-3.034-2.364-24.272-27.353-31.688-56.057-4.72-17.56-7.079-36.133-6.742-54.369 0-10.806 2.697-21.612 5.393-32.08 5.394-22.626 8.091-57.07-6.405-89.489Z"/><path fill="#AF62F1" d="M420.277 279.622c1.686 5.066 2.023 10.806 2.36 16.209.337 7.092 1.011 14.521-2.697 20.6-2.022 3.714-8.428 4.052-10.113 0-2.697-6.079-2.023-12.157-2.023-18.911 0-6.079 0-12.157 1.686-18.236 1.348-5.065 9.102-4.727 10.787.338Z"/><path fill="#000" d="M418.929 280.298c.674 2.026.674 4.052.674 6.078v6.078c0 4.053.337 8.443 0 12.495 0 2.026 0 3.715-.337 5.741 0 1.688-.337 4.052-1.011 5.403-.674 1.351-2.697 2.026-4.046 1.688-.674-.337-1.348-.675-1.685-1.35-.337-.676-.337-1.013-.674-2.026-1.012-3.377-1.349-7.43-1.012-11.482.337-4.052.337-8.78.674-12.495l.338-6.078.337-3.039.337-1.351c0-.338 0-.676.337-.676.337-1.013 1.348-1.688 3.034-1.688 1.011.338 2.36 1.351 3.034 2.702Zm3.034-1.014c-.674-2.701-3.034-4.727-5.731-5.403-2.697-.675-6.068 0-8.091 2.702-.337.675-1.011 1.351-1.011 2.026-.337.675-.337 1.013-.674 1.689-.337 1.013-.674 2.363-1.012 3.376-.337 2.364-.674 4.39-.674 6.754v12.833c0 4.39.337 9.117 2.36 13.507.337 1.013 1.348 2.702 2.697 3.377 1.348 1.013 2.697 1.013 4.045 1.013 2.697 0 5.057-1.013 7.08-3.039 1.685-2.026 3.034-3.715 4.045-6.078.674-2.364 1.011-4.728 1.011-6.754 0-2.364 0-4.39-.337-6.416 0-2.027 0-4.053-.337-6.417-.337-2.026-.674-4.39-1.348-6.416-.675-2.701-1.349-4.727-2.023-6.754Z"/><path fill="#AF62F1" d="M449.944 287.389c-.675 6.079-2.36 11.482-4.72 17.222-2.697 6.754-4.719 13.508-10.787 17.898-4.046 2.702-8.765-1.013-8.765-5.065-.337-6.416 3.371-12.495 6.068-18.236 2.022-5.065 4.045-10.13 7.416-14.52 3.371-4.053 11.462-3.715 10.788 2.701Z"/><path fill="#000" d="M448.258 287.051c-.337 4.053-1.348 8.105-3.034 11.82-.674 2.026-1.685 3.714-2.36 5.74l-2.022 6.079c-1.349 4.052-3.371 7.429-6.406 9.455-1.348 1.013-2.359 1.013-3.708.338-1.348-.675-2.022-2.364-2.022-3.377 0-3.377 2.022-6.754 3.708-10.468 1.685-3.715 3.371-8.105 5.394-11.482l2.697-5.403c1.011-1.689 2.022-3.715 2.696-4.39 1.012-1.013 2.697-1.351 3.709-1.013.674.338 1.348 1.013 1.348 2.701Zm3.708.338c0-1.351 0-2.701-.674-4.39-.674-1.351-2.023-2.364-3.371-3.039-3.034-1.013-6.068-.676-8.765 1.013-.674.338-1.348.675-1.685 1.351l-1.349 1.35c-.674 1.014-1.348 1.689-2.023 2.702-1.348 2.026-2.359 4.052-3.034 6.078-.674 2.027-1.685 4.053-2.359 5.741-1.012 1.689-2.023 3.715-3.034 5.741-2.023 4.052-3.034 8.78-2.023 13.845.674 3.04 2.36 5.066 5.057 6.417 1.348.675 2.696 1.013 4.382.675 1.348-.338 3.034-1.013 3.708-1.688 3.709-3.04 6.068-7.092 8.091-10.807 2.023-4.052 3.371-7.767 4.72-12.157 1.011-4.052 1.685-8.442 2.359-12.832Z"/><path fill="#AF62F1" d="M413.535 338.043c-6.068 3.715-13.484-.675-17.867-5.065-2.697-2.702-2.697-6.417-1.348-9.793.674-1.351 1.685-2.027 2.697-2.702 3.371-2.026 6.742-1.013 9.776 1.351 2.697 2.026 5.057 4.052 6.742 7.091 1.686 2.364 3.371 7.092 0 9.118Z"/><path fill="#000" d="M412.524 336.017c-1.012.675-2.023.675-3.034.675-1.012 0-2.023-.337-3.034-.337-1.349 0-2.36-.676-3.034-1.351-1.012-.676-2.023-1.013-3.034-1.689a3198.8 3198.8 0 0 1-3.034-2.026c-.675-.675-1.349-1.351-1.686-2.364-.337-1.013-.337-2.026 0-3.377.337-.675.337-1.013.674-1.35l1.012-1.013c2.022-1.351 3.371-1.351 5.056-.676.675.338 1.686 1.013 2.36 1.689 1.011.675 2.023 1.688 3.034 2.363 2.023 1.689 3.371 3.04 4.383 5.066.674 1.013 1.011 2.026 1.011 2.701 0 1.013-.337 1.351-.674 1.689Zm2.022 3.714c1.012-.675 1.686-1.35 2.36-2.363.674-1.013.674-2.027 1.011-3.04 0-2.026-.337-3.377-.674-5.065-1.011-3.039-3.034-5.741-5.056-7.767-1.012-1.013-2.023-2.026-3.372-3.039-1.348-1.013-3.034-1.689-4.719-2.026-1.686-.338-3.708-.338-5.731.337-1.011.338-1.686.676-2.36 1.351-.674.338-1.348 1.013-1.685 1.689-.675.675-1.012 1.35-1.349 2.363-.337.676-.337 1.689-.674 2.364-.337 1.689-.337 3.04-.337 4.728.337 1.688 1.011 3.377 2.023 4.728 1.011 1.35 2.022 2.026 3.034 3.039 1.011 1.013 2.359 2.026 3.708 2.701 1.348.676 3.034.676 4.382 1.689 3.034 1.351 6.742 0 9.439-1.689Z"/><path fill="#AF62F1" d="M448.932 335.679c-2.023 1.351-6.068 2.026-10.451 0-3.034-1.688-4.382-5.741-2.359-9.118 1.685-2.701 4.382-4.39 7.753-4.39 2.36 0 5.057 1.013 6.068 1.689 2.023 1.688 2.697 3.715 2.36 6.416-.337 2.026-1.011 4.052-3.371 5.403Z"/><path fill="#000" d="M447.921 333.991c-1.349 1.013-3.371 1.013-5.057.675-1.686-.338-3.371-1.351-4.382-1.688-1.012-.676-2.36-2.364-2.023-4.053 0-1.013.337-1.688 1.348-2.026.675-.675 1.686-.675 2.36-1.013 1.349-.675 2.36-1.351 4.045-.675.675.337 1.686.675 2.36 1.013.674.337 1.012.337 1.012.337l.337.338c1.011.676 1.685 1.689 1.685 3.377 0 1.351-.337 2.702-1.685 3.715Zm2.022 3.377c2.36-1.013 4.383-3.715 4.72-6.417.337-1.35.337-2.701.337-4.39-.337-1.688-1.011-3.039-2.023-4.052-.337-.338-.337-.675-.674-.675l-.674-.676c-.337-.337-.337-.337-.674-.337-.675-.338-1.349-.676-2.023-.676-1.348-.337-2.36-.337-3.708-.337-2.36 0-5.731 0-7.754 2.026-1.011 1.013-1.685 2.026-2.022 3.377-.338 1.013-1.012 2.364-1.349 3.714-.674 2.364-.337 5.403 1.349 7.767 2.022 2.364 4.382 3.039 7.079 3.039 2.697-.675 5.057-1.35 7.416-2.363Z"/><path fill="#07090F" d="M209.583 613.6c-4.72-10.131-9.44-17.222-20.564-20.599-8.091-2.702-16.856-3.039-24.946-4.39-21.576-3.039-45.173-6.079-63.715-18.911-.337-.338-.337-1.013.338-1.013 22.249 8.442 45.847 12.832 69.107 16.209 18.879 2.702 37.083 6.416 40.454 28.366 0 .676-.674 1.014-.674.338Z"/><path fill="#89D1F1" d="M84.851 370.799c3.709-13.507 7.754-26.677 19.89-34.782 45.847-31.406 92.706 16.209 102.819 43.225 2.023 5.74 3.708 11.819 5.057 17.897 6.068 27.691 6.405 57.746-6.068 83.748-23.261 48.29-96.751 69.227-135.182 1.688-20.901-36.47 3.708-76.318 13.484-111.776Z"/><path fill="#1A83AF" d="M71.03 482.575c-2.697-4.727-4.72-9.455-6.068-14.183 10.113 17.56 25.62 32.081 44.162 39.51 14.158 5.741 30.677 8.105 45.51 3.715 14.496-4.39 27.643-15.871 35.397-28.704 16.181-26.002 12.81-63.148 4.719-91.177-7.753-26.002-24.272-45.588-42.813-63.824 26.969 8.105 48.544 33.769 54.949 51.33 2.023 5.74 3.708 11.819 5.057 17.897 6.068 27.691 6.405 57.746-6.068 83.748-22.587 48.29-96.077 69.227-134.845 1.688Z"/><path fill="#000" d="M86.537 371.137c3.034-11.144 6.742-22.288 14.833-30.055 8.428-7.091 19.215-12.157 30.003-12.832 11.125-1.013 22.249 2.026 32.025 7.429 9.777 5.403 18.879 12.495 26.295 20.937 7.417 8.442 14.159 17.898 17.193 29.042 3.371 10.806 5.394 22.287 6.405 33.769 1.011 11.482.674 22.963-1.011 34.107-2.023 11.144-5.731 22.288-11.462 31.743-5.731 9.793-13.822 17.56-23.261 23.639-9.102 6.078-19.889 10.468-30.677 12.157-10.788 1.688-22.249.675-32.7-3.04-5.056-2.026-10.113-4.39-14.833-7.767-4.72-3.039-8.765-6.754-12.81-10.806s-7.416-8.442-10.45-13.17c-1.349-2.364-3.034-4.728-4.383-7.429l-2.023-3.715c-.674-1.35-1.01-2.701-1.348-4.052-2.023-5.065-2.697-10.806-3.371-16.547-.337-5.741 0-11.482 1.011-16.885 3.708-22.625 14.159-43.9 20.564-66.525Zm-3.371-1.013c-6.068 22.288-16.856 43.224-20.901 66.863-1.011 5.741-1.349 11.819-1.349 17.898.338 6.078 1.349 12.157 3.372 17.897.674 1.351 1.011 3.04 1.348 4.39l2.023 4.053c1.348 2.701 2.697 5.403 4.382 7.767 3.034 5.065 6.742 9.793 10.788 14.52 4.045 4.39 8.428 8.443 13.484 12.157 4.72 3.715 10.114 6.754 15.845 8.78 5.73 2.364 11.798 3.715 17.866 4.39 6.068.676 12.136.676 18.204-.337 12.136-1.689 23.935-6.416 33.712-13.508 9.776-7.092 18.204-16.209 23.935-26.678 6.068-10.468 9.776-21.95 11.798-33.769 2.023-11.819 2.023-23.638 1.012-35.458-1.349-11.819-3.371-23.301-6.742-34.782-1.012-2.702-2.023-5.741-3.034-8.442l-4.046-8.105c-3.034-5.065-6.405-10.131-10.45-14.521-7.754-9.118-16.856-16.884-27.643-22.625-10.788-5.403-22.924-8.78-35.397-7.092-6.068.676-12.136 2.364-17.53 5.066l-4.045 2.026c-1.349.675-2.697 1.351-3.709 2.364-2.696 1.688-5.056 3.377-7.079 5.74-4.382 4.39-7.416 9.793-9.776 15.197-3.034 5.065-4.72 10.806-6.068 16.209Z"/><path fill="#762DD7" d="M28.217 37.159c9.439 18.91 29.666 45.926 66.41 64.161 17.531 8.78 17.531 30.055 7.417 45.251-15.844 24.652-38.093 20.262-57.983 1.013-10.45-9.793-18.204-22.625-24.272-35.457-10.45-22.626-15.507-52.343-8.765-77.332 4.72-17.222 7.754-16.21 17.193 2.364Z"/><path fill="#3D176E" d="M108.787 126.647c-7.08 2.364-14.16 4.39-21.576 5.403-18.204 1.689-35.396-6.078-47.195-19.248-20.227-22.963-26.97-57.746-24.947-88.138-1.348 2.026-2.696 5.403-4.045 10.469-6.742 25.327-2.022 54.706 8.765 77.331 6.068 12.833 13.822 25.665 24.272 35.458 19.89 18.911 42.14 23.301 57.983-1.013 4.046-6.416 6.406-13.508 6.743-20.262Z" opacity=".44"/><path fill="#AF62F1" d="M27.542 36.146c0 .337.337.675.337 1.013 1.349 2.364 2.697 5.065 4.383 7.767-1.686 1.013-3.371 2.026-5.394 2.364-4.045 1.35-12.136 2.026-18.204.337.337-3.039.674-5.74 1.348-8.78 6.406 2.026 12.474.676 17.53-2.701Zm36.071 44.913c-3.034-2.702-6.068-5.066-8.765-7.767-3.034 5.065-6.405 10.13-10.45 14.183-9.102 9.118-19.216 11.482-30.003 10.13 1.348 4.053 2.697 7.768 4.382 11.482 16.519 1.351 35.06-11.481 44.836-28.028Zm15.844 11.82c-2.022 7.428-5.393 14.52-11.124 20.936-8.09 9.118-22.924 16.209-37.42 18.911l6.068 8.104c13.485-2.701 27.306-9.455 35.397-16.546 6.405-5.741 13.147-15.197 17.193-25.327l-10.114-6.079ZM8.327 67.212c.337 3.04.337 6.079 1.011 8.78 8.765 2.027 19.553-.337 26.632-3.376 4.045-1.689 8.09-4.39 11.462-7.43-2.36-2.701-4.383-5.065-6.405-7.767-2.023 2.026-4.046 3.715-6.742 5.403-8.428 5.404-17.53 7.092-25.958 4.39Z"/><path fill="#762DD7" d="M28.89 96.93c-4.72 1.351-9.776 1.689-14.832 1.013 1.348 4.053 2.697 7.767 4.382 11.482 5.394.338 11.125-.675 16.518-3.039-2.022-3.039-4.045-6.079-6.067-9.456Zm25.621 27.691c-7.08 3.715-15.17 6.754-23.26 8.105l6.067 8.104c9.777-2.026 19.89-6.078 27.98-11.143-3.707-1.351-7.416-3.04-10.787-5.066ZM8.664 47.965c2.023.675 4.383.675 6.742 1.013-.337-3.04-.337-5.74-.674-8.78-1.686 0-3.034-.338-4.72-.675-.674 2.363-1.01 5.403-1.348 8.442Zm9.776 20.262c-3.37.337-6.742-.338-10.113-1.014.337 3.04.337 6.079 1.012 8.78 3.708.676 7.416 1.014 11.461.676-1.011-2.702-1.685-5.403-2.36-8.442Z"/><path fill="#000" d="M26.53 37.834c14.16 28.029 38.094 50.654 66.075 64.837 3.37 1.689 6.068 3.715 8.428 6.416 2.359 2.702 3.708 5.741 4.719 9.118 1.686 6.754.337 14.183-2.697 20.937-1.348 3.377-3.37 6.416-5.73 9.118-1.012 1.35-2.36 2.701-3.709 4.052-1.348 1.013-2.697 2.364-4.045 3.377-5.731 4.052-12.81 5.403-19.553 3.715-6.742-1.351-13.147-5.066-19.215-9.794-5.73-4.727-11.125-10.13-15.507-16.209-8.765-12.157-15.844-26.002-20.227-40.523-4.382-14.52-6.405-30.054-4.72-44.913a64.578 64.578 0 0 1 2.023-11.144c1.011-3.715 2.023-7.43 3.371-10.468.337-.676.675-1.351 1.349-1.689h.674c1.011.338 2.023 2.026 3.034 3.377 2.023 3.04 3.708 6.416 5.73 9.793Zm3.372-1.688c-1.686-3.377-3.371-7.092-5.73-10.469-1.35-1.688-2.024-3.377-4.72-4.727-.338 0-.675-.338-1.012-.338h-1.348c-1.011 0-1.686.675-2.36 1.013-1.011 1.013-1.685 2.026-2.023 3.04-1.685 3.714-2.697 7.428-3.708 11.48-1.011 3.715-1.685 7.768-2.023 11.82-2.022 15.534 0 31.743 4.046 46.94 4.382 15.195 11.124 29.716 20.227 42.549 4.72 6.416 10.113 12.494 16.18 17.56 6.069 5.065 13.148 9.455 21.576 11.481s17.867 0 24.61-5.403c1.685-1.013 3.033-2.702 4.719-4.052 1.348-1.689 2.697-3.04 4.045-4.728 2.36-3.377 4.72-6.754 6.068-10.468 3.034-7.43 4.72-16.21 2.36-24.314-1.011-4.053-3.034-8.105-6.068-11.144-2.697-3.377-6.742-5.403-10.114-7.092C81.144 92.54 68.334 84.098 57.209 73.63 46.083 62.148 36.644 49.99 29.902 36.146Z"/><path fill="#EBF2FC" stroke="#000" stroke-miterlimit="10" stroke-width=".25" d="M15.07 273.544c1.685-21.95 8.09-42.55 16.18-62.811 8.091-20.262 16.519-40.186 23.598-60.785l5.057-15.196c3.708-11.819-.674-13.508-7.416-5.741-1.686 2.026-3.372 4.39-5.057 6.416-7.754 10.469-7.754 5.741-7.417-4.727.337-14.183 4.72-27.691 12.81-39.51 2.697-3.715 6.069-7.767 10.114-11.482 8.428-7.767 10.113-7.43 2.36-15.534-12.473-13.17-19.553-33.431-20.564-51.33-1.011-13.507 2.697-9.117 9.102-4.727 15.507 11.144 33.374 16.547 51.915 19.249 7.08 1.013 2.697-1.689 1.012-3.04-3.034-2.701-5.394-4.39-9.777-6.753-7.753-4.728-6.742-5.066 2.023-2.702 10.45 3.04 18.541 8.442 29.329 9.455 5.056.338 16.855 4.39 3.371-4.727-11.462-7.767-10.451-9.118 11.462-5.403 25.283 4.052 50.229 3.377 75.85 6.078 6.068.676 12.136 1.351 17.867 2.364 1.011 0 2.022.338 3.034.338 30.677 3.714 60.343 13.845 84.952 32.756 45.847 35.12 58.994 79.358 59.332 146.559 0 24.313-2.697 48.965-9.44 72.603-3.371 11.482-7.079 23.639-12.81 34.445-4.382 8.442-10.113 15.872-15.844 23.301-8.765 11.144-11.125 10.131-8.428-2.364 3.034-13.508 3.034-17.222-5.731-6.754-8.428 10.469-18.204 19.924-27.643 28.704-15.844 15.196-7.079 0-3.708-8.442 2.022-4.728 5.056-19.249 4.045-14.183-1.011 5.403 6.068-17.223-8.428 0-4.382 5.065-8.765 10.13-12.81 14.52-11.462 13.17-21.912 26.34-25.283 42.887-2.023 9.456-.674 13.846-13.148 9.794-22.923-7.767-46.858-6.417-71.467-7.767-13.822-.676-27.306-2.364-40.117-8.105l-7.079-3.039c-4.72-2.364-17.193-9.793-11.125 1.688.337 1.013 1.012 1.689 1.349 2.702 7.753 13.507 9.439 16.547-7.417 7.767-33.037-16.885-62.365-46.602-73.49-81.722-3.708-11.819-7.417-14.858-7.754-4.052-.337 4.727 0 9.455.337 14.52 1.349 13.171-2.36 14.521-7.416 2.027-5.394-14.859-6.742-32.081-5.73-47.277Z"/><path fill="#D0D9E6" d="M271.611 262.062c-2.023-10.806-4.045-20.599-3.708-31.743.337-10.131 2.022-20.262 0-30.392-4.383-23.976-15.508-39.51-40.117-46.602-25.283-7.091-60.68-1.688-79.221 3.377-60.343 16.209-115.63 59.434-97.762 128.323 18.204 71.253 121.697 76.994 176.646 52.005 29.666-13.508 50.23-41.874 44.162-74.968Zm29.329-151.624c-13.822-10.131-36.409-13.845-43.151 5.066-4.719 12.832.674 32.418 7.08 41.198 11.798 16.547 39.442 22.963 50.903 3.039 9.44-16.884-.674-38.834-14.832-49.303Z"/><path fill="#D0D9E6" d="M384.207 202.291c-.338-48.966-13.148-86.787-34.723-116.504 1.686 3.039 9.102 7.429 10.45 10.468 14.159 31.068 32.7 91.515.675 198.563-4.383 14.183-9.102 9.456-9.102-3.714 0-14.183-16.519 13.845-23.935 24.651-10.788 15.872-11.799 3.377-12.473-3.377-1.012-16.209-6.743-22.287-17.193-1.35-10.451 21.274-29.329 36.47-43.15 56.057-1.686 2.363-3.371 5.065-4.72 7.767-4.382 8.104-4.72 12.156-19.215 8.104-9.102-2.701-18.879-3.714-27.643-4.728-18.879-2.026-39.105 1.689-57.984-1.35-15.507-2.702-27.98-8.443-39.105-18.911-5.731-5.403-13.821-10.131-9.776 3.039.674 2.364 1.686 4.728 2.697 6.754 4.045 8.78 7.416 12.495-4.72 3.715-33.037-24.314-48.88-49.979-61.691-84.761-5.73-15.872-7.08-10.806-8.765-2.702-1.011 4.728-3.708 7.767-3.708-1.013 0-12.832 2.36-37.146 14.496-81.384-1.349 3.039-2.36 6.079-3.709 9.118-8.09 20.261-14.495 41.198-16.181 62.811-1.011 15.196.337 32.418 6.068 46.939 5.057 12.832 8.765 11.144 7.416-2.026-.337-4.728-.674-9.793-.337-14.521.337-10.806 4.046-7.767 7.754 4.052 11.125 35.458 40.453 64.837 73.49 81.722 16.856 8.78 15.17 5.741 7.417-7.767-.337-.675-1.012-1.688-1.349-2.701-6.068-11.482 6.068-3.715 11.125-1.689l7.079 3.039c12.811 5.403 26.295 7.43 40.117 8.105 24.609 1.351 48.207 0 71.467 7.767 12.474 4.052 11.462-.338 13.148-9.793 3.371-16.547 13.484-29.717 25.283-42.887 4.045-4.39 8.428-9.456 12.81-14.521 14.496-17.56 7.417 5.403 8.428 0 1.012-4.728-2.36 9.455-4.045 14.183-3.371 8.105-12.136 23.301 3.708 8.442 9.102-8.78 18.878-18.573 27.643-28.703 8.765-10.469 8.765-7.092 5.731 6.753-2.697 12.495-.337 13.508 8.428 2.364 5.731-7.429 11.462-14.858 15.844-23.301 5.394-10.806 9.439-22.625 12.81-34.444 6.743-23.301 9.44-47.953 9.44-72.266Z"/><path fill="#000" d="M17.766 273.881c1.686-16.547 6.068-32.756 11.8-48.627 5.73-15.872 12.472-31.406 18.877-47.277 3.034-7.767 6.068-15.872 9.102-23.976l4.046-12.157 2.022-6.079c.675-2.364 1.349-4.39 1.349-7.091 0-1.351.337-2.702-.674-5.066-.337-1.013-1.686-2.701-3.371-3.039-1.686-.675-3.035-.338-4.046 0-2.023.675-3.034 1.351-4.045 2.364a10.264 10.264 0 0 0-2.697 2.701c-1.686 1.689-2.697 3.377-4.383 5.066-1.348 1.688-2.696 3.377-4.045 4.727l-1.685 1.689h1.348c.337 0 .674.338 1.349.675l1.01 1.013v-4.727c0-4.39.338-8.105 1.012-12.157 2.36-15.872 10.45-30.73 22.924-40.861 1.685-1.35 3.034-2.702 5.056-5.066.337-.337.675-.675.675-1.35.337-.676.337-1.013.674-1.689.337-1.35.337-2.701 0-3.714-.674-2.026-1.686-3.04-2.36-4.053-3.371-3.714-5.73-6.078-8.09-9.455-4.72-6.416-8.091-13.846-10.451-21.612-2.36-7.767-4.045-15.872-4.382-23.639V7.78c0-.676.337-1.689 0-.676 0 .338-2.023 1.351-2.697 1.351h-.338c.338.338 1.349.675 2.023 1.35 3.371 2.365 7.08 5.066 11.125 7.092 7.753 4.39 16.181 7.43 24.609 9.793 4.045 1.013 8.428 2.026 12.81 3.04 2.023.337 4.383.675 6.405 1.013 1.012.337 2.023.337 3.371.675h2.36c.337 0 .674 0 1.012-.338.337 0 1.348-.337 2.359-1.35 1.012-1.351.675-3.377.675-3.715-.338-.675-.338-1.013-.675-1.35-.674-1.014-1.011-1.352-1.685-1.69l-1.349-1.012-2.359-2.027c-1.686-1.35-3.372-3.039-5.731-4.052-2.36-1.013-4.046-1.688-5.394-2.701-.337-.338-.674-.338-.674-.338l.337.338c.337.675.674.675.337 2.701-1.011 1.689-1.011 1.351-2.023 1.689h-.337s1.349 0 2.023.337c7.753 1.689 15.17 5.403 23.935 8.105 2.022.675 4.382 1.013 6.742 1.35 2.36.338 4.045.338 6.068 1.014 1.011.337 2.023.337 3.371.675h2.023c.337 0 1.011 0 2.022-.337.338 0 1.349-1.014 1.686-2.027.337-1.35 0-2.026 0-2.364-.674-1.688-1.348-1.688-1.686-2.363-.337-.338-1.011-.676-1.348-1.351-1.348-1.35-2.023-2.026-3.034-2.702-1.686-1.35-3.371-2.364-5.057-3.714-1.011-.338-1.685-1.013-2.359-1.689-.338-.337-.675-.675-.338-.337 0 0 .338.337 0 1.35-.337 1.013-1.011 1.351-1.011 1.351h2.023c1.011 0 2.022 0 3.034.338 2.022.338 4.045.675 6.068.675 8.09 1.351 16.855 2.702 25.283 3.377 8.428.675 16.856 1.35 25.621 1.689 8.427.337 16.855 1.013 25.283 1.688s16.856 2.026 24.946 3.377c16.519 2.364 33.037 6.078 48.544 12.157 15.508 6.078 30.003 14.52 42.476 25.327 12.811 10.468 23.598 23.638 31.689 37.821 7.754 14.521 12.81 30.73 15.507 46.94 2.697 16.547 3.371 33.431 3.371 49.978 0 16.885-1.011 33.432-3.708 49.979-1.348 8.104-3.371 16.209-5.394 24.314-2.36 8.104-4.719 16.209-7.753 23.638-3.034 7.767-6.743 14.859-11.462 21.612-2.36 3.377-4.72 6.754-7.417 10.131-1.348 1.689-2.359 3.377-3.708 4.728l-2.023 2.026c-.337.338-.674.338-.674.675h-.337 1.011c.338 0 .675 0 1.012.338.337 0 1.011.338 1.011.676.337.337.337.337.337.675.337.675 0 .338.337.338v-2.702c.337-2.026.675-3.715 1.012-6.078.337-2.027 1.011-4.39 1.348-6.417 0-1.013.337-2.363.337-4.052v-1.351c0-.337-.337-.675-.337-1.013 0-.337-.337-.675-1.011-1.35-.674-.676-1.349-1.014-2.023-1.351-.674-.338-1.685-.338-2.36-.338-.674 0-1.685.675-2.022.675l-1.012.676-.674.675c-.674.338-1.011 1.013-1.348 1.351-.675 1.013-1.686 1.688-2.36 2.702l-4.045 4.727c-2.697 3.039-5.394 6.416-8.428 9.456a446.725 446.725 0 0 1-17.867 17.897c-1.349 1.351-3.034 2.702-4.383 3.377h-.337.675c.674 0 1.011.338 1.685.676.674.675.674 1.013 1.011 1.35v.338c0-.338.338-1.351.675-2.026 1.348-3.715 3.371-7.429 5.056-11.819 1.349-4.39 2.697-8.443 3.371-12.833.338-1.013.338-2.363.338-3.714 0-.676 0-1.351-.338-2.364 0-.338-.337-1.013-.337-1.689-.337-.675-.674-1.35-1.685-2.026-2.023-1.35-4.046-1.013-5.057-.337-1.011.337-1.685 1.013-2.023 1.35-1.011 1.013-2.022 1.689-2.696 2.702-3.035 3.715-5.731 6.416-8.765 9.455a112.493 112.493 0 0 0-8.428 9.456c-5.731 6.416-11.125 13.17-15.844 20.937-4.72 7.429-8.091 16.209-9.44 24.989-.337 2.026-.674 4.39-1.011 5.065h-1.348c-1.686-.337-3.371-.675-5.394-1.35-2.023-.676-4.045-1.351-6.405-1.689-8.428-2.364-17.193-3.377-25.621-4.39-17.192-1.351-34.385-1.013-50.567-2.364a97.61 97.61 0 0 1-23.934-5.065c-3.709-1.351-7.754-3.039-11.462-4.728-1.686-.675-3.708-2.026-5.731-2.701-1.011-.338-2.023-1.013-3.371-1.351-.674-.338-1.349-.338-2.023-.676-.674 0-1.686-.337-3.371.338-.674.338-1.686 1.351-2.36 2.026-.337 1.013-.674 1.689-.674 2.364 0 1.013.337 2.026.337 2.702.337 1.35 1.011 2.364 1.686 3.377 1.011 2.026 2.022 3.714 3.034 5.74 1.011 1.689 2.022 3.715 3.034 5.403.337.338.337 1.014.674 1.351 0 .338.337.676.337.676v-.338s0-.338.337-.675c.337-.676 1.348-1.351 1.686-1.351.337 0 .674 0 0 0-1.349-.338-3.372-1.351-5.394-2.026-2.023-1.013-3.708-1.689-5.731-2.702l-5.394-3.039-5.394-3.039c-28.317-17.56-51.915-43.563-62.028-75.644-.674-2.026-1.686-4.052-2.697-6.078-.337-.675-.674-1.013-1.011-1.689-.338-.337-.337-.675-.675-.675-.337-.338-.674-.675-1.348-1.013-.337-.338-1.686-.338-2.36 0-.674.338-1.348 1.013-1.348 1.351-.675 1.013-.675 1.351-.675 2.026-1.01 4.728-.674 8.78-.337 13.17 0 2.026.337 4.39.675 6.416.337 2.026.337 4.052.337 6.079 0 1.013-.337 2.026-.337 2.363 0 .338-.338.338.337 0 .674 0 .337 0 .337-.337-1.012-1.013-2.023-3.039-2.697-4.728-8.09-14.183-9.44-31.068-8.09-47.615Zm-5.394-.337c-1.01 17.222.675 34.782 8.091 50.991 1.011 2.026 1.686 4.053 4.045 6.079.338.337.675.337 1.012.675.337.338 1.348.338 2.022.338 1.349-.338 2.023-1.689 2.36-2.364.674-1.351.674-2.702.674-3.715 0-2.363 0-4.39-.337-6.753-.337-2.027-.337-4.053-.337-6.417 0-4.052-.337-8.442.674-12.157 0-.337.337-.675.337-1.013 0-.337 0 0-.337 0-.337.338-1.01 0-1.01 0l.336.338c.337.338.337.675.674 1.013 1.012 1.689 1.686 3.715 2.36 5.403 5.057 16.209 13.485 32.081 24.272 45.251 10.788 13.508 23.935 24.989 38.768 34.107l5.394 3.377 5.731 3.039c2.022 1.013 3.708 2.026 5.731 3.039 2.022 1.013 3.708 2.027 6.405 2.702.674 0 1.348.338 3.034 0 .674 0 2.36-1.013 2.697-2.364.337-.675.337-1.013.337-1.351v-1.013c-.337-2.026-1.011-3.039-1.349-4.052-1.011-2.026-2.022-4.052-3.034-5.741l-3.034-5.403c-.337-1.013-.674-1.688-1.011-2.364v-.337s0 .337-.337.675-.674 1.013-1.011 1.013c-.675.338-.675 0-.338.338.338 0 .675 0 1.012.337.674.338 1.685.676 2.697 1.013 1.685 1.014 3.708 1.689 5.731 2.702 4.045 1.688 7.753 3.715 12.136 5.065 8.427 3.04 16.855 4.728 25.62 5.741 17.193 1.689 34.048 1.351 50.904 2.702 8.428.675 16.518 2.026 24.272 4.052 2.023.338 4.045 1.013 5.731 1.688 2.023.676 4.382 1.351 7.079 1.689 1.349 0 2.697.338 5.057-.338 2.023-.675 3.708-2.701 4.382-4.052 1.349-3.039 1.349-5.065 1.686-7.092 2.36-15.871 12.136-29.379 23.261-42.211 2.697-3.039 5.393-6.416 8.09-9.793 2.697-3.377 5.731-6.754 8.091-9.456.674-.675 1.349-1.35 2.023-1.688.337-.338.674-.338.674-.338s-1.011.338-2.023-.338l-.674-.675v1.013c0 .676 0 1.689-.337 2.702-.674 3.714-1.686 7.767-3.034 11.481-1.349 3.715-3.371 7.429-4.72 11.819-.337 1.014-.674 2.027-1.011 4.053v1.013c0 .338 0 .675.337 1.351.337.675.337 1.35 1.349 2.026.674.675 1.685 1.013 2.359 1.013h1.686c.337 0 .674-.338 1.011-.338.337-.338.675-.337 1.349-.675 2.36-1.351 4.045-3.039 5.731-4.39 6.405-6.079 12.473-11.819 18.541-17.898 3.034-3.039 6.068-6.078 8.765-9.455l4.045-4.728 2.023-2.026 1.011-1.013.337-.338h.337s-.337.338-.674.338h-1.686c-.337-.338-1.011-.338-1.348-1.013-.337-.676-.337-.676-.674-.676v-.337c0 .675 0 1.35-.337 2.363-.337 2.027-.675 4.053-1.349 6.079-.337 2.026-1.011 4.39-1.348 6.416 0 1.351-.337 2.364-.337 4.052v1.351c0 .676 0 1.013.674 2.026.337.338.337.676.674 1.351.337.338 1.011 1.013 1.686 1.351.674.338 1.011.338 1.685.338h1.686c2.697-1.014 3.371-2.027 4.382-2.702 1.012-1.013 1.686-1.688 2.36-2.702 1.348-1.688 3.034-3.376 4.382-5.065 2.697-3.377 5.394-6.754 7.754-10.468 5.057-7.092 9.439-15.197 12.473-23.301 3.371-8.105 5.731-16.209 8.091-24.652 2.36-8.442 4.382-16.884 5.731-25.327 3.034-16.884 4.045-34.444 3.708-51.667-.337-17.222-1.686-34.444-5.057-51.329-3.034-16.885-8.765-33.769-16.855-48.965-8.428-15.197-19.89-28.704-33.037-39.848-13.148-11.482-28.318-20.262-44.499-26.34-16.181-6.416-33.037-10.131-49.892-12.157-8.428-1.013-16.856-2.364-25.284-3.04-8.428-.675-16.855-1.35-25.62-1.688-8.428-.338-16.856-1.013-25.284-1.688-8.428-.676-16.518-2.026-24.946-3.377-2.023-1.013-4.045-1.351-6.405-1.689-1.011 0-2.36-.337-3.371-.337h-2.023c-.674 0-1.348 0-2.36.675-.337 0-1.685.675-2.022 2.364-.338 1.688 0 2.364.337 3.04.674 1.012 1.011 1.35 1.685 2.025 1.012 1.013 1.686 1.689 2.697 2.364l5.057 3.377c.674.675 1.685 1.35 2.36 1.688l1.011 1.014c.337.337.674.675.337 0 0-.338-.337-.676 0-1.689s1.011-1.35 1.349-1.35c.674-.338.337 0 .337 0h-1.012c-1.011 0-2.022-.338-3.034-.676-2.022-.338-4.719-.675-6.405-1.013-2.022-.338-3.708-.675-5.731-1.35-7.753-2.365-15.17-6.417-24.272-8.443-1.348-.338-2.022-.676-4.045-.338-.337 0-.674 0-1.011.338-1.012.675-1.686.337-2.36 2.364-.674 2.364 0 2.364.337 3.377.337.675.337.675.674 1.013.674.675 1.349 1.013 2.023 1.35 2.023 1.351 4.382 2.027 5.73 3.04 1.686.675 2.698 2.026 4.383 3.377 1.349 1.35 3.708 3.377 4.045 3.714l-.337-.675s-.337-2.026.675-3.04c.674-1.012 1.685-1.012 1.685-1.012h.337-1.011l-3.034-.676c-2.023-.338-4.045-.675-6.068-1.35L86.2 19.26c-7.754-2.364-15.507-5.403-22.587-9.455-3.37-2.026-6.742-4.39-10.113-6.754-1.011-.676-1.685-1.35-3.371-2.026-.337-.338-.674-.338-1.348-.676-.338-.337-1.012-.337-2.023-.337-.674 0-2.023 0-3.034.675-1.011.338-2.023 1.35-2.36 2.026-1.685 2.702-1.348 4.052-1.685 5.403v3.715c.337 9.118 2.022 17.56 4.719 26.34a84.587 84.587 0 0 0 12.136 23.976c2.697 3.715 6.068 7.092 8.428 9.793.337.676 1.011 1.351 1.011 1.351v-1.012c-.674.675-2.36 2.364-4.045 3.715-6.742 5.74-12.473 12.832-16.856 20.936-4.382 7.767-7.08 16.547-8.428 25.327a90.043 90.043 0 0 0-1.01 13.17v5.403c0 .676.336 1.351.673 2.702.337.675.675 1.351 1.686 2.364.674.338 1.011.675 2.023.675h2.022c2.023-.337 2.36-1.013 3.034-1.688l2.697-2.702c1.686-1.688 2.697-3.714 4.046-5.065 1.348-1.689 2.696-3.377 3.708-4.728.674-.675 1.348-1.351 2.022-1.688a5.797 5.797 0 0 1 1.349-1.013h-1.011c-.675-.338-1.012-1.013-1.012-1.013v1.35c0 1.689-.674 3.377-1.011 5.403l-2.023 6.079c-1.348 4.052-2.697 8.105-4.045 11.819-2.697 8.105-5.731 15.872-8.765 23.639-6.068 15.871-12.81 31.405-18.541 47.614-5.057 14.521-9.102 31.406-10.114 48.966Z"/><path fill="#89D1F1" d="M233.855 142.181c-17.867-12.157-47.533-18.235-77.199-6.754-32.7 12.495-52.927 7.43-60.343 6.417-12.81-1.689-11.799-.676-13.484 14.858-2.023 16.209-10.114 31.068-17.53 45.589-8.428 16.884-14.833 33.769-14.496 52.68.337 35.457 23.935 66.863 55.96 80.708 30.341 13.17 67.76 9.793 99.111 2.026 33.374-8.104 58.995-25.664 63.377-60.784 1.349-10.131-4.045-17.898-4.382-29.38-.674-14.858 3.034-33.431-.337-47.614-6.405-25.665-16.519-47.953-30.677-57.746Z"/><path fill="#EBF2FC" d="M216.662 260.374c-1.348-1.689-3.708-3.715-6.405-5.404-5.731-3.376-10.113-6.753-9.439 5.741 0 3.377 1.011 7.092 1.011 8.443-.337 1.35 15.507-7.767 14.833-8.78Z"/><path fill="#000" d="M216.999 260.036c-3.034-3.377-7.079-5.403-10.788-7.767-1.011-.338-2.022-1.013-3.371-.675-1.348.337-2.022 1.688-2.359 2.701-.675 2.364-.675 4.39-.675 6.754s.337 4.39.675 6.416v2.026c0 .338.337.338.337.676h1.348c.337 0 .674-.338.674-.338 1.012-.338 2.023-1.013 3.034-1.351 2.023-1.013 3.709-2.364 5.731-3.377 1.012-.675 1.686-1.35 2.697-2.026.337-.337 1.011-.675 1.349-1.013l.674-.675.337-.338.337-.338v-.675Zm-1.011.675c-.337-.337-.337 0-.337 0-.338 0-.338.338-.675.338-.337.338-1.011.675-1.348 1.013-1.011.676-1.686 1.013-2.697 1.689-2.023 1.013-3.708 2.026-5.731 3.039-1.011.338-2.023 1.013-3.034 1.351-.337 0-.337.337-.674.337 0 0 .337 0 .337.338v.338c0-.676 0-1.013-.337-1.689-.337-2.026-.674-4.39-.674-6.416 0-2.026-.337-4.39.337-6.416.337-1.013.674-1.689 1.348-2.026.674-.338 2.023 0 2.697.675 4.383 1.689 8.428 4.052 10.788 7.429Z"/><path fill="#89D1F1" d="M301.614 188.107c-27.643 2.702-25.62 76.657-4.045 79.021 15.844 2.026 26.295-11.82 31.014-27.691 7.08-23.976 1.349-54.369-26.969-51.33Z"/><path fill="#000" d="M301.277 186.757c-4.72.675-9.102 3.039-12.136 6.753-3.034 3.377-5.394 7.767-7.08 11.82-3.371 8.442-4.382 17.897-3.708 26.677.674 9.118 3.034 17.898 7.08 26.003 2.022 4.052 5.056 7.767 9.439 9.793 4.719 1.688 9.102 1.351 13.821 0 4.383-1.351 8.765-4.052 11.799-7.429 3.371-3.377 5.731-7.43 7.754-11.482 4.045-8.442 6.068-17.56 6.405-26.678 0-9.117-1.686-18.91-8.091-26.677-3.034-3.715-7.416-6.417-11.799-7.767l-3.371-1.013c-1.011 0-2.36-.338-3.371-.338h-3.371l-3.371.338Zm.337 2.701c4.045 0 8.428 0 12.136 1.689 3.708 1.688 6.742 4.39 8.765 7.767 4.045 6.753 5.394 15.196 5.057 23.3-.338 8.105-1.686 16.547-5.057 24.314-1.686 3.715-3.708 7.429-6.068 10.469-2.36 3.039-5.394 6.078-9.102 7.429-1.686.675-3.708 1.351-5.731 1.688-2.023.338-4.045.338-6.068-.337-3.708-1.351-6.405-5.066-8.091-8.78-1.685-3.715-2.697-8.105-3.034-12.157-.674-4.39-.674-8.443-.674-12.833 0-8.442 1.011-16.884 3.034-24.989a33.4 33.4 0 0 1 5.057-11.144c2.359-3.714 6.068-6.078 9.776-6.416Z"/><path fill="#1A83AF" d="M294.872 255.646c6.742-1.351 12.136-8.442 15.17-14.183 7.079-13.508 7.753-35.458-9.439-41.536-5.057-1.689-9.439-1.351-13.822.337-4.72 11.144-6.405 23.977-5.394 35.458v2.702c0 1.013.337 1.688.337 2.701v1.351c.675 4.728 2.023 8.78 3.709 12.495 3.371 1.013 6.405 1.013 9.439.675Z"/><path fill="#07090F" d="M309.705 177.301c-7.754 7.092-14.833 12.495-19.553 22.288-4.719 10.131-6.405 22.288-6.068 33.432.337 9.117 2.36 19.923 8.091 27.353 6.068 7.767 21.912 7.429 30.34 4.727.337-.337.674.676.337.676-8.428 6.078-22.249 8.442-31.351 2.026-8.091-5.741-11.462-17.222-12.811-26.34-2.022-14.183-.337-28.366 5.394-41.536 3.708-8.78 13.822-23.639 24.946-22.626.675-.337 1.012 0 .675 0Z"/><path fill="#E98DF7" stroke="#000" stroke-miterlimit="10" stroke-width=".691" d="M144.183 236.06c-2.023-4.39-5.057-8.78-8.765-12.157-3.371-3.039-6.068-2.702-9.439 0-2.023 1.688-10.788 9.793-11.462 13.17-.674 4.052 3.708 6.754 6.742 8.105 3.708 1.688 7.754 2.026 11.799 2.363 3.708.338 8.091.338 11.125-2.363 2.36-2.702 1.011-6.417 0-9.118Z"/><path fill="#07090F" d="M122.945 240.787c2.023-1.35 2.023-5.403 0-6.416a3.059 3.059 0 0 0-3.371 0c-1.012.676-1.686 2.026-1.686 3.377s.674 2.702 1.686 3.377c1.348.338 2.36.338 3.371-.338Zm12.136 2.364c2.697-1.35 2.697-6.416 0-7.767-1.348-.675-2.697-1.013-4.045 0-1.011.676-2.023 2.364-2.023 3.715 0 1.688.675 3.039 2.023 3.715 1.348 1.013 2.697 1.013 4.045.337Z"/><path fill="#EBF2FC" d="M201.491 192.16c-2.359-5.404-7.079-9.118-12.81-10.807-14.496-4.052-24.946 4.728-27.98 20.262-1.011 5.741-1.011 11.481.674 16.885 6.068 21.274 35.397 19.923 42.139-.676 2.36-8.104 1.686-17.898-2.023-25.664Z"/><path fill="#07090F" d="M190.03 198.914c-2.023-.338-4.382.337-5.731 2.026-2.023 2.026-2.36 4.052-2.697 6.754-.337 2.363.674 5.403 2.697 6.753 3.371 2.364 8.428 3.04 10.788-1.35.337-1.013.674-2.026.674-3.04.337-3.039-.337-6.753-1.349-8.104-1.348-1.689-2.696-2.702-4.382-3.039Z"/><path fill="#000" d="M202.166 192.16c-2.697-6.079-8.765-10.806-15.507-11.819a25.469 25.469 0 0 0-10.113 0c-3.372.675-6.406 2.701-8.765 5.065-5.057 4.728-7.417 11.481-8.765 17.898-1.012 6.753-.674 13.845 2.36 19.923 1.685 3.04 4.045 5.741 6.742 7.767 3.034 2.027 6.068 3.377 9.776 3.715 6.742 1.013 14.159-1.013 19.215-5.741 5.394-4.39 7.754-11.144 8.428-17.897.674-6.079-.337-13.17-3.371-18.911Zm-1.348.337c2.696 5.741 3.708 12.495 3.034 18.574-.675 6.416-3.372 12.494-8.091 16.546-4.72 4.053-11.462 5.741-17.53 4.728-3.034-.338-5.731-1.688-8.428-3.377-2.359-1.688-4.382-4.39-5.731-7.091-2.696-5.403-3.371-12.157-2.696-18.236 1.011-6.078 3.034-12.494 7.416-16.884 9.102-9.456 26.969-6.079 32.026 5.74Z"/><path fill="#1A83AF" d="M160.027 230.994c3.709 2.702 7.08 5.741 11.462 8.105 5.394 3.039 14.159 2.702 19.89 1.688.337 0 .674.338.337.676-6.405 4.052-11.462 5.403-18.878 3.039-5.731-2.364-11.125-7.429-12.811-13.508Z"/><path fill="#07090F" d="M158.004 171.898c3.034-9.117 10.114-14.521 19.553-15.871 9.439-1.351 20.226.675 24.272 10.13.674 1.351.674 3.377-1.012 4.053-6.405 2.701-12.136 2.364-18.541 2.364-7.079 0-14.496 1.688-21.575 2.701-2.023 0-3.371-2.026-2.697-3.377Zm-70.793-5.065c1.349-7.429 10.45-8.78 16.519-8.442 7.753.337 15.844 4.39 16.181 13.17 0 1.35-1.011 2.701-2.36 3.039-5.731 1.351-10.113-.338-15.844-2.026-4.382-1.351-9.439-.676-13.484-3.04-.675-.675-1.012-1.688-1.012-2.701Z"/><path fill="#1A83AF" d="M264.195 199.927c-2.023-8.78-4.72-17.223-7.754-24.652 1.348 11.482 1.348 22.963-.674 35.12-2.697 15.872-2.023 31.406-1.349 47.615.675 16.884-.674 33.769-13.147 46.264-7.079 7.429-17.193 12.157-26.295 16.547-9.776 4.727-20.226 8.442-30.677 11.481-37.756 10.469-78.21 4.39-105.179-25.327-13.484-14.858-20.564-34.107-22.586-53.693-1.349-10.806-.675-21.612.337-32.418v-.676c-4.046 11.144-6.742 22.626-6.742 35.12.337 35.458 23.935 66.863 55.96 80.709 30.34 13.17 67.76 9.793 99.111 2.026 33.374-8.105 58.995-25.665 63.377-60.785 1.348-10.13-4.045-17.897-4.382-29.379-.338-14.858 3.371-33.769 0-47.952Z"/><path fill="#07090F" d="M79.12 251.256c25.621-.338 43.488 16.885 66.748 24.652 26.969 9.117 60.006-6.417 79.222-25.665 1.348-1.351 3.708.675 2.359 2.364-18.204 18.235-46.521 31.743-72.816 28.704-11.124-1.351-21.575-6.754-31.351-12.157-14.159-7.767-27.643-14.521-44.499-14.521-1.685 0-1.685-3.039.337-3.377Z"/><path fill="#000" d="M235.203 139.817c-21.238-14.183-48.544-16.547-72.479-9.455-6.068 1.688-11.462 4.39-17.193 5.741-5.731 1.688-11.462 3.039-17.53 3.714-5.731.676-11.799 1.013-17.867.676-3.034-.338-5.73-.676-8.764-1.013l-4.72-.676c-1.686-.337-3.034-.337-4.72-.337-1.685 0-3.37-.338-5.393.337-1.012.338-2.36 1.013-3.034 2.026-.675 1.014-1.012 2.027-1.349 3.04-1.011 3.377-1.011 6.416-1.348 9.455-.674 6.079-2.023 11.819-3.709 17.222-3.708 11.144-9.776 21.95-15.17 32.757-2.696 5.403-5.73 11.143-7.753 16.884-2.36 5.741-4.045 11.82-5.394 18.236-2.36 12.494-2.36 25.664 1.011 38.159 4.72 17.898 15.508 34.445 29.33 46.602 13.82 12.494 31.688 20.261 49.555 23.3 18.204 3.04 36.408 2.364 54.275-.675 8.765-1.351 17.529-3.377 26.294-5.741s17.193-5.403 25.284-9.793c8.09-4.39 15.844-9.793 21.912-16.885 6.068-7.091 10.788-15.196 13.484-24.313 1.349-4.39 2.023-8.78 2.697-13.508.337-5.066-.674-9.793-1.685-14.183-1.012-4.39-2.36-8.443-2.697-12.495-.337-4.052 0-8.442.337-12.832 1.011-8.78 2.697-17.222 3.371-26.34.337-4.39.337-9.118-.674-14.183-1.011-4.39-2.36-8.78-3.708-13.17-3.034-8.443-7.08-16.885-12.473-24.314-5.731-6.079-12.136-12.833-19.89-18.236Zm-2.697 4.39c6.742 4.728 12.81 11.482 17.53 18.574 4.719 7.091 8.428 14.858 11.125 22.963 1.348 4.052 2.359 8.442 3.371 12.494.674 3.715 1.011 8.105.674 12.495-.337 8.442-2.023 17.222-2.697 26.34-.337 4.39-.674 9.118 0 13.845.337 4.728 1.686 9.118 2.697 13.508 1.011 4.052 2.023 8.105 1.348 12.157-.674 4.052-1.348 8.442-2.697 12.495-2.696 8.104-6.742 15.533-12.473 21.612-5.731 6.078-12.81 11.144-20.226 14.858-15.17 7.767-32.7 10.807-49.556 13.508-17.193 2.364-34.722 2.702-51.241-.675-8.428-1.689-16.518-4.39-23.935-7.767-7.416-3.715-14.496-8.443-20.9-13.846-12.81-10.806-22.25-25.327-26.97-41.536-3.37-11.144-4.382-22.963-2.697-34.444 1.686-11.482 5.394-22.964 10.45-34.107 5.395-10.807 11.463-21.613 15.508-33.432 2.023-5.741 3.371-12.157 4.045-18.235.338-3.04.675-6.079 1.349-8.443 0-.675.337-1.013.674-1.351 0-.337.337-.337.674-.337.675-.338 2.023-.338 3.709 0 1.348 0 3.034.337 4.382.337l4.382.676c3.034.338 6.068.675 9.44 1.013 6.405.338 12.473 0 18.878-.675 6.068-.676 12.136-2.364 18.204-4.053 6.068-1.688 11.799-4.052 17.193-5.741 11.461-3.376 23.26-4.39 35.059-3.039 11.462.338 22.924 4.39 32.7 10.806Z"/><path fill="#07090F" d="M73.727 136.103c7.754 7.767 22.923 8.104 33.037 9.455 14.159 1.351 27.643-1.013 41.128-5.065 16.855-5.066 32.699-10.131 50.903-8.442 17.193 1.688 31.689 9.793 45.173 20.261.337.338.675-.338.675-.675-14.833-26.34-53.264-28.366-78.885-21.613-16.855 4.39-32.699 11.482-50.566 11.144-7.754 0-15.507-1.013-22.924-2.364-6.068-1.013-11.799-3.039-17.867-3.039-1.011-.338-1.011 0-.674.338Z"/><path fill="#762DD7" d="M354.54 49.316c-12.473 17.222-36.408 40.523-75.85 52.68-18.878 5.741-21.912 26.678-14.495 43.562 11.798 26.678 34.385 26.003 57.309 10.469 11.798-8.105 21.575-19.249 29.328-31.406 14.159-20.937 23.598-49.303 20.901-74.968-1.685-17.56-5.057-17.222-17.193-.337Z"/><path fill="#AF62F1" d="M329.931 149.61c-2.697 2.364-5.393 4.39-8.427 6.417-2.36 1.688-4.72 3.039-7.417 4.39-10.45-2.364-20.227-7.767-27.643-16.547-8.765-10.806-13.822-26.003-12.473-40.186 1.348-.675 2.697-1.351 4.382-1.688 2.697-1.013 5.731-1.689 8.428-2.702-1.011 3.039-2.023 6.416-2.023 9.793 0 11.482 3.709 22.288 12.811 30.055 10.787 8.78 21.575 10.806 32.362 10.468Zm6.068-27.69c-19.215-3.715-24.272-18.573-23.597-34.445a111728 111728 0 0 0-11.125 6.079c1.011 13.845 8.765 27.69 20.227 35.12 6.068 4.052 13.821 6.078 21.912 6.753 2.697-3.377 5.394-7.091 7.753-10.468.337-.675 1.012-1.351 1.349-2.026-5.394.337-10.788 0-16.519-1.013Zm31.352-51.33c1.348.338 2.697.676 4.045.676.337-3.377.674-6.416.674-9.793-8.765 0-13.821-6.079-16.855-13.508-.337.338-.674.675-.674 1.013-1.686 2.364-3.372 4.728-5.394 7.092 3.708 7.091 10.113 12.494 18.204 14.52Zm-3.708 25.327c-10.114.338-17.867-4.727-22.924-13.17-2.697-4.727-3.034-9.455-2.697-14.183-3.034 3.04-6.405 5.741-10.113 8.78 1.348 11.82 7.753 22.626 19.552 27.353 4.045 1.689 8.765 2.702 13.485 3.04 1.685-3.715 3.371-7.767 4.719-11.82-.674-.337-1.348-.337-2.022 0Z"/><path fill="#3D176E" d="M371.733 49.654c-.674-6.417-1.685-10.469-3.034-12.158 1.349 29.38-11.125 59.434-29.666 82.398-16.181 19.923-40.79 39.847-66.748 38.834 12.473 13.17 30.677 10.131 48.881-2.364 11.799-8.104 21.576-19.248 29.329-31.405 14.496-20.937 23.935-49.303 21.238-75.305Z" opacity=".44"/><path fill="#762DD7" d="M337.348 121.92c-2.697 3.377-5.731 6.416-9.102 9.793 4.719 1.688 9.776 3.039 14.833 3.377 2.697-3.377 5.393-7.092 7.753-10.469.337-.675 1.012-1.351 1.349-2.026-4.72.675-9.439.338-14.833-.675Zm-22.924 38.497c2.36-1.351 4.72-2.702 7.417-4.39 3.034-2.027 5.731-4.053 8.428-6.417-6.743.338-13.148-.337-19.553-3.039-4.045 2.702-8.428 5.066-12.81 6.754 4.719 3.377 10.45 5.741 16.518 7.092Zm51.241-64.837h-2.023c-3.034 0-5.731-.338-8.09-1.013-1.686 3.714-3.709 7.091-6.068 10.468 3.371 1.013 7.416 2.026 11.124 2.026 2.023-3.377 3.709-7.429 5.057-11.481Zm-.674-25.665c.674.338 1.349.338 2.023.675 1.348.338 2.697.676 4.045.676.337-3.377.674-6.416.674-9.793-1.685 0-3.371-.338-5.056-.676 0 3.04-.675 6.079-1.686 9.118Z"/><path fill="#000" d="M353.529 48.303c-9.102 12.494-20.226 22.963-32.7 31.743-12.473 8.78-26.631 15.196-41.127 19.586-3.708 1.013-7.754 2.701-11.125 5.403-3.371 2.702-5.731 6.079-7.416 10.131-3.371 7.767-3.371 16.547-1.349 24.314 1.012 4.052 2.697 7.767 4.383 11.481 1.011 1.689 2.022 3.377 3.034 5.403 1.348 1.689 2.359 3.377 4.045 4.728 5.731 6.078 14.833 9.793 23.261 9.118 8.427-.676 16.181-4.053 23.26-8.105 6.743-4.052 13.148-9.118 18.879-14.858 11.124-11.482 19.889-24.652 26.631-38.835 6.406-14.183 10.451-29.717 11.125-45.589 0-4.052 0-7.767-.337-11.819-.337-4.052-.674-7.767-2.023-11.819-.337-1.013-.674-2.026-1.685-3.04-.337-.337-1.012-1.012-1.686-1.35-.337 0-.674-.338-1.348-.338-.337 0-.674 0-1.012.338-2.696 1.013-3.708 2.364-5.056 4.052-3.371 3.377-5.394 6.416-7.754 9.456Zm2.36 1.688c2.36-3.04 4.72-6.078 7.079-8.78 1.349-1.35 2.697-2.701 3.709-3.04.674-.337.674 0 1.011.339.337.337.674 1.35 1.011 2.026 1.012 3.377 1.349 7.429 1.686 11.144.337 3.714.337 7.429.337 11.481-.674 15.196-5.394 30.055-11.799 43.9-6.742 13.508-15.844 26.34-26.632 36.809-5.394 5.065-11.462 9.793-17.867 13.507-6.405 3.715-13.484 6.417-20.564 6.417-7.079.675-13.821-1.689-18.541-6.754-1.348-1.013-2.359-2.702-3.371-4.053-1.011-1.35-2.022-3.039-3.034-4.727-1.685-3.377-3.371-6.416-4.045-10.131-2.023-7.092-2.023-14.521.674-21.275 1.349-3.377 3.371-6.078 6.068-8.442 2.697-2.364 5.731-3.715 9.439-5.065 29.329-9.456 56.635-27.691 74.839-53.356Z"/><path fill="#07090F" d="M93.616 207.018c3.708-1.688 7.417-2.026 12.136-1.35 2.023.337 4.046 1.013 5.731 1.688-1.348-2.364-2.697-4.728-4.382-6.754-3.709-4.39-8.428-6.416-12.81-8.78-3.372-1.688-4.383-3.715 0-3.715 5.73 0 10.787 3.04 15.169 7.43 3.034 3.377 6.406 8.78 7.754 13.845 1.011 4.39 0 4.728-3.034 3.715-2.697-.676-5.057-2.026-7.754-2.702-3.371-1.013-7.753-1.013-11.799-.675-3.37.338-3.708-1.351-1.01-2.702Z"/><path fill="#1A83AF" d="M116.54 220.188c-3.371.338-7.08.338-10.788.338-4.045 0-7.416 1.351-11.125 1.688-.337 0-.674-.337-.337-.675 3.034-8.105 16.856-5.065 22.25-1.351.337 0 .337-.337 0 0Z"/><path fill="#07090F" d="M117.551 203.641c-1.011-2.364-3.034-5.065-4.382-7.429-1.686-2.701-4.383-6.078-7.079-7.767-.338-.338 0-.675.337-.675 7.416 1.688 10.787 8.442 11.124 15.871Z"/><path fill="#1A83AF" d="M109.123 278.271c-4.382.338-7.753-.337-12.136-1.688-4.382-1.351-9.102-2.364-12.136-6.079-1.011-1.013-1.348-3.039 0-4.052 4.72-4.052 10.114-3.039 15.17-1.013 5.394 2.026 8.765 4.728 11.125 10.131.674 1.351-.674 2.701-2.023 2.701Z"/></svg>