<svg xmlns="http://www.w3.org/2000/svg" width="460" height="602" fill="none"><g clip-path="url(#a)"><path fill="#EBF2FC" d="M343.675 212.088c9.718-6.203 20.025-11.52 30.627-16.246 10.013-5.612 20.615-10.634 31.216-15.656 30.628-14.178 60.077 10.93 42.113 49.035-10.013 20.972-22.676 41.059-37.106 59.373-19.142 24.517-61.255 69.711-92.471 36.923-12.075-12.702-17.081-30.72-16.492-48.443 1.178-28.948 16.197-48.444 42.113-64.986Z"/><path fill="#000" d="M343.38 211.793c9.719-6.499 20.026-11.816 30.628-16.837 7.951-4.726 16.197-8.862 24.443-12.997l6.184-2.954c2.062-.886 4.417-1.772 6.773-2.659 4.712-1.181 9.424-2.067 14.136-1.477 9.718.591 19.142 5.613 24.443 13.884 5.301 8.271 6.479 18.904 4.418 28.061-.589 2.364-1.178 4.727-1.767 6.794l-2.651 6.794c-1.767 4.136-3.828 8.271-5.89 12.702-4.123 8.271-8.835 16.246-13.841 24.222-5.006 7.68-10.602 15.36-16.197 22.745-5.595 7.384-11.485 14.474-17.964 21.268-6.479 6.793-13.547 13.292-21.204 18.609-7.951 5.317-16.786 9.748-27.093 11.225-5.007.59-10.308.295-15.314-1.477-5.006-1.477-9.424-4.136-13.252-7.68-7.657-6.499-13.252-15.065-16.786-24.222-7.068-18.314-5.596-39.287 2.356-56.715 2.061-4.43 4.711-8.566 7.362-12.11 2.945-3.84 6.184-7.385 9.424-10.339 6.479-6.794 14.135-11.816 21.792-16.837Zm.589.591c-15.313 10.043-28.566 23.926-34.456 40.763-2.945 8.271-4.122 17.133-3.828 25.994.295 8.567 1.472 17.428 4.417 25.404 2.945 7.975 7.952 15.36 14.136 20.972 6.185 5.612 14.136 8.271 22.382 7.385 8.246-.886 16.197-4.726 23.559-9.453 7.363-4.726 14.136-10.634 20.615-17.132 12.958-12.702 23.854-27.176 34.161-42.536 5.007-7.68 10.013-15.36 14.43-23.336 2.356-3.84 4.418-7.975 6.479-12.11l2.651-6.204c.883-2.067 1.178-4.135 1.767-6.203 2.061-8.566 1.178-17.723-3.24-25.108-4.417-7.384-12.663-12.111-21.498-12.406-4.417-.591-8.835.591-12.958 1.477-2.061.591-4.123 1.477-6.184 2.363l-6.184 2.954c-8.246 3.84-16.492 7.68-24.738 12.111-11.191 4.135-21.792 9.157-31.511 15.065Z"/><path fill="#D0D9E6" d="M343.675 212.088c6.184-3.84 12.663-7.384 19.436-10.929-11.191 15.655-20.614 32.197-22.97 52.579-2.651 21.859 7.951 56.714 35.928 52.579 18.259-2.659 41.229-36.037 53.009-49.921-3.534 5.022-14.725 26.881-18.553 31.902-19.142 24.517-61.255 69.712-92.471 36.924-12.075-12.702-17.081-30.721-16.492-48.444 1.178-28.652 16.197-48.148 42.113-64.69Z"/><path fill="#EBF2FC" d="M32.395 479.71c2.945.886 6.184 2.067 9.13 3.544.588-40.468 30.627-59.963 49.18-66.757-6.185-20.973-6.48-44.013-3.24-65.576 2.356-14.77-11.485-33.379-26.504-51.398-18.259-22.154-32.395-49.33-41.819-70.597-6.478-14.179-11.485-29.835-10.307-45.49.59-10.043 5.007-19.2 13.841-24.517 9.719-5.613 22.088-3.25 32.1.295 16.786 6.203 31.806 17.428 45.352 28.653 5.301 4.43 10.602 9.157 15.314 14.178 25.621 26.585 44.469 13.293 73.035 1.773 27.682-10.93 167.861-6.204 162.855 77.391-.883 16.246-1.767 34.856 2.356 55.828 7.068 36.628 32.983 77.097-7.657 126.426-5.89 7.09-12.663 12.997-20.026 18.019.884 23.336 0 51.397-11.779 71.484-6.185 10.338-6.185 15.065-.589 19.495 4.417 3.545 8.54 7.385 11.485 12.407 4.123 7.089-1.472 10.043-8.246 11.224-5.301.887-42.996 1.182-59.488-.295-25.915-2.068-21.203-2.068-25.621-18.609-3.534-13.884-8.245-35.447-11.485-51.989-3.239-16.246-21.793-28.948-55.365-24.221-15.019 2.067-27.977 7.089-41.524 15.655-27.388 18.019-45.352 32.197-63.905 18.314-13.841-10.043-27.388-23.631-37.695-38.105-14.725-19.791-2.945-21.268 10.602-17.132Z"/><path fill="#000" d="M32.983 477.642c3.24 1.181 6.185 2.363 9.424 3.249l-3.24 2.068c.295-7.68 1.473-15.065 3.83-22.45 2.355-7.384 5.89-14.178 10.601-20.086 9.13-12.111 22.087-21.268 36.223-26.29l-1.473 2.954c-5.89-18.314-7.067-37.514-5.595-56.419l.883-7.089c0-1.182.295-2.363.295-3.545 0-.886.294-2.067 0-2.953 0-4.136-1.472-8.271-3.24-12.111-3.533-7.976-9.129-15.361-14.724-22.745l-8.835-10.634c-2.945-3.545-5.89-7.385-8.54-11.225-5.596-7.68-10.602-15.655-15.314-23.926-4.712-8.271-9.13-16.542-13.252-25.108-4.123-8.567-8.246-17.133-11.191-26.29-2.945-9.157-4.712-18.905-4.712-28.652 0-5.022.884-10.044 2.945-15.065 1.767-4.726 5.006-9.453 9.13-12.702 4.122-3.249 9.129-5.612 14.43-6.203 5.3-.591 10.307 0 15.019.886 9.718 2.363 18.258 6.499 26.504 11.225 8.246 4.726 15.903 10.634 22.97 16.542a215.003 215.003 0 0 1 20.91 19.2c6.184 6.794 13.547 12.406 22.087 14.474 8.54 2.068 17.67.295 26.21-2.954 8.835-3.249 16.786-7.089 25.915-10.339 9.424-2.363 18.554-2.953 27.977-3.249 18.848-.295 37.401 1.477 55.66 5.613 18.258 4.135 36.223 10.633 51.536 21.858 7.657 5.613 14.43 12.702 19.437 20.973 4.712 8.271 7.362 18.018 7.951 27.471v7.089l-.294 7.089c-.295 4.727-.295 9.157-.295 13.884 0 9.157.589 18.314 2.062 27.471 2.65 18.018 10.307 35.151 14.135 54.056a116.736 116.736 0 0 1 2.651 28.652c-.589 9.748-2.945 19.496-6.774 28.357l-2.944 6.499-3.829 6.203-1.767 3.249-2.061 2.954-4.418 5.908c-5.89 7.68-13.252 14.179-21.203 19.791l1.767-3.84c.589 11.52.589 23.335-.884 35.151-1.178 11.815-3.828 23.631-9.129 34.856l-2.062 4.135c-.589 1.182-1.472 2.363-2.061 3.545-1.178 2.363-2.062 4.726-2.062 6.203 0 .591 0 1.182.589 1.772.295.591 1.178 1.182 2.062 2.068 2.356 1.772 4.712 3.84 6.773 6.203 2.062 2.363 4.123 4.726 5.89 7.68.884 1.477 1.767 3.545 1.767 6.203 0 1.182-.294 2.659-.883 4.136-.589 1.181-1.473 2.363-2.356 3.249-1.767 1.772-3.534 2.363-5.301 2.954-1.767.591-3.24.886-5.007 1.181-1.767.296-3.239.296-5.006.296l-4.417.295c-11.78.296-23.265.296-34.751 0-5.89-.295-11.485-.295-17.375-.886l-8.835-.886c-2.945-.295-5.89-.591-9.424-1.772-.883-.296-1.766-.887-2.944-1.182-.884-.591-2.062-1.477-2.945-2.363-1.473-2.068-2.356-4.135-2.651-5.612-.883-3.25-1.178-5.908-2.061-8.567-1.473-5.612-2.945-11.224-4.123-16.837-2.651-11.224-4.712-22.745-7.068-33.969-.589-2.954-.884-5.317-2.062-7.385-.883-2.068-2.356-4.431-3.828-6.203-3.239-3.84-7.657-6.499-12.663-8.271-10.013-3.84-21.204-3.84-32.1-2.659-11.191 1.182-21.793 4.431-31.511 9.748-5.006 2.659-9.718 5.613-14.43 8.862-4.712 3.249-9.719 6.203-14.725 9.452-5.006 2.954-10.013 5.908-15.903 8.271-5.595 2.363-12.074 3.545-18.553 2.659-3.24-.591-6.184-1.773-9.13-3.25-1.471-.886-2.65-1.772-3.828-2.658l-3.533-2.659a123.518 123.518 0 0 1-13.253-11.52c-8.54-8.271-16.197-17.132-22.676-26.88-1.767-2.363-3.24-5.022-4.417-7.975-.59-1.477-1.178-2.954-1.178-4.727-.295-.886 0-1.772 0-2.954 0-.59.294-.886.589-1.476.294-.591.294-.887.883-1.477.59-.887 1.473-1.477 2.356-2.068l2.65-.886c1.768-.296 3.24-.296 5.007 0 4.123.886 6.773 1.477 9.718 2.363Zm-1.177 4.135a38.45 38.45 0 0 0-7.952-1.772c-2.65-.295-5.3 0-5.89 1.181-.883.887-.294 3.545.59 5.908 1.177 2.363 2.355 4.726 4.122 7.09 6.185 9.452 13.841 18.018 22.087 25.698 4.123 3.84 8.54 7.68 12.958 10.93l3.534 2.658c1.178.591 2.356 1.477 3.24 2.068 2.355 1.181 4.711 2.068 7.067 2.363 5.007.886 10.308-.295 15.314-2.363s10.013-5.022 14.725-7.976c4.712-2.954 9.423-6.203 14.43-9.452 4.712-3.249 9.718-6.499 15.019-9.452 10.602-5.613 22.087-9.453 33.867-10.93 11.78-1.477 24.148-1.772 35.928 2.659 5.89 2.067 11.485 5.317 15.903 10.338 2.356 2.363 4.123 5.317 5.595 8.271 1.473 2.954 2.062 6.499 2.651 9.157 2.356 11.225 4.712 22.45 7.362 33.674 1.178 5.613 2.651 10.93 4.123 16.837.589 2.954 1.178 5.908 1.767 8.271.294 1.182.589 1.773.883 2.068 0 .295.295.295.589.295.295 0 .589.296 1.178.591 2.062.591 4.712.886 7.657 1.182 2.651.295 5.596.59 8.541.59 5.595.296 11.19.591 17.08.887 11.486.295 22.971.295 34.162 0l4.123-.296c1.472 0 2.65-.295 3.828-.295 2.356-.296 5.006-1.182 5.595-2.068l.295-.295c0-.296-.295-1.182-.589-2.068-1.178-2.068-2.651-4.135-4.418-5.908-1.767-1.772-3.828-3.544-5.889-5.317-1.178-1.181-2.651-2.363-4.123-4.135-1.178-1.772-2.062-4.431-2.062-6.499 0-4.43 1.473-7.384 2.945-10.338.589-1.477 1.473-2.659 2.062-4.136l2.061-3.544c4.712-9.748 7.362-20.677 8.54-31.607 1.178-11.225 1.473-22.449 1.178-33.969v-2.363l2.062-1.477c7.362-5.022 14.136-10.93 19.731-18.019l4.123-5.317 2.061-2.658 1.767-2.954 3.534-5.613 2.945-5.908c3.534-8.27 6.185-16.837 6.773-25.698.589-8.862.001-18.019-1.766-26.881-3.24-18.018-10.308-35.446-12.958-54.646-1.178-9.453-1.767-18.905-1.473-28.357 0-4.727.295-9.453.589-14.179l.589-7.089v-6.794c-.294-8.862-2.65-18.019-6.773-25.699-4.417-7.975-10.602-14.769-17.964-20.086-7.363-5.613-15.314-10.044-23.854-13.588-8.541-3.545-17.375-6.203-26.505-8.271-17.964-4.135-36.517-6.203-55.07-5.612-9.129.295-18.553.886-27.388 3.249-8.54 2.954-17.081 7.385-25.621 10.634-4.418 1.477-8.835 3.249-13.841 3.84-4.712.886-9.719.886-14.431-.295-9.718-2.364-17.669-8.567-24.443-15.065-6.478-6.499-13.546-12.407-20.909-18.314-7.362-5.613-14.724-10.93-22.676-15.36-7.951-4.431-16.197-8.271-25.032-10.044-8.54-1.772-17.375-1.181-23.56 4.431-6.184 5.317-9.129 13.883-8.834 22.45 0 8.861 1.767 17.723 4.417 26.289 2.945 8.566 6.774 16.837 10.897 25.108s8.245 16.542 12.957 24.517c4.712 7.976 9.424 15.656 14.725 23.336 2.65 3.84 5.595 7.385 8.246 10.929 2.945 3.545 5.89 7.385 8.835 10.93 5.595 7.68 11.19 15.36 15.019 24.517 2.061 4.431 3.534 9.452 3.534 14.769 0 1.182 0 2.659-.295 4.136 0 1.181-.294 2.363-.589 3.544-.294 2.363-.589 4.431-.883 6.794-2.062 18.314-1.178 36.628 3.534 54.351l.589 2.364-2.062.886c-13.252 5.021-25.62 13.292-34.161 24.812-4.417 5.613-7.657 12.111-10.013 18.61a84.497 84.497 0 0 0-3.534 20.972l-.294 3.545-2.945-1.477c-3.24-1.182-6.184-2.363-9.13-3.545Z"/><path fill="#D0D9E6" d="M59.782 276.778c10.602 10.93 21.204 21.859 30.039 34.265 10.013 14.474 14.43 29.834 15.019 47.262.295 18.61-2.65 36.628.884 54.942-5.007-.295-10.308.591-15.02 2.363-6.184-20.972-6.478-43.717-3.239-64.985 2.356-14.769-8.246-32.493-23.265-50.511-18.259-21.859-32.1-52.579-41.524-73.847 10.308 18.314 22.676 35.742 37.106 50.511Z"/><path fill="#AF62F1" d="M50.653 165.417c-5.595-.591-7.362-5.317-8.835-10.043-.883-2.659-1.472-6.203.295-8.566 1.178-1.773 2.356-3.545 5.006-3.545 5.596-.295 8.835 4.135 10.013 9.157.59 2.659.884 5.317 0 7.975-.883 2.068-3.534 5.317-6.479 5.022Z"/><path fill="#000" d="M50.653 166.303c-2.65-.295-5.3-1.772-7.068-4.135-1.767-2.363-2.65-4.726-3.24-7.385-.588-2.658-1.177-5.612.59-8.566.883-1.182 1.472-2.068 2.65-3.249 1.178-1.182 3.24-1.477 4.418-1.182 2.945 0 5.89 1.772 7.657 4.136 1.767 2.363 2.65 5.317 2.945 7.68.294 2.658.294 5.612-1.178 8.27-.59 1.182-1.767 2.364-2.651 3.25-1.178.591-2.65 1.181-4.123 1.181Zm.295-1.772c2.061 0 3.828-1.772 4.712-3.84.883-2.068.883-4.431.294-6.794-.589-2.363-1.178-4.726-2.356-6.499-1.178-1.772-3.24-2.953-5.3-2.953-1.179 0-1.768 0-2.651.59-.59.591-1.473 1.773-2.062 2.659-.883 1.477-.883 4.135-.294 6.498.589 2.363 1.178 4.727 2.061 7.09.884 1.772 2.945 2.954 5.596 3.249Z"/><path fill="#AF62F1" d="M26.8 165.417c-5.302.591-12.958-1.182-14.725-6.794-.59-2.068.294-5.317 2.65-6.203 2.65-1.182 4.712-1.182 7.068 0 1.472.591 2.65 1.477 4.123 2.658 1.767 1.773 3.24 5.022 2.945 7.681-.295 1.181-.884 2.363-2.062 2.658Z"/><path fill="#000" d="M26.8 166.008c-2.062.295-4.124 0-6.48 0-2.061 0-4.417-.591-6.184-2.363-1.767-1.773-2.945-3.25-3.534-5.908-.295-2.363.589-5.022 2.945-6.499 1.178-.59 2.356-.886 3.534-1.181 1.178-.295 2.65 0 3.534.295 2.061.886 3.828 2.068 5.595 3.545 1.767 1.477 2.65 3.84 2.945 5.908.295 1.181.295 2.067 0 3.249 0 1.182-.883 2.658-2.356 2.954Zm-.295-1.477c.589 0 1.178-.591 1.178-1.477 0-.886 0-1.772-.295-2.659-.589-1.772-1.767-3.249-2.945-4.43-1.472-1.182-3.24-2.068-5.006-2.659-1.767-.591-3.24-.295-4.712.591-1.178.591-2.061 2.363-2.061 3.84 0 .591.588 1.477.883 2.363.589.591 1.178 1.182 2.061 1.772 2.062.591 3.534 1.477 5.301 2.068 1.767.886 3.829.886 5.596.591Z"/><path fill="#AF62F1" d="M5.89 179.005c-2.65.295-4.712-2.363-4.712-4.726 0-2.954 2.356-4.726 4.712-5.022 2.061-.295 4.123.296 5.89 1.477 1.472 1.182 3.239 3.249 3.239 3.545.589 1.181 0 2.954-1.767 3.544-2.65.887-4.712.887-7.362 1.182Z"/><path fill="#000" d="M5.89 179.596c-2.062 0-3.829-.886-4.712-2.363-.589-.887-.884-1.773-1.178-2.659 0-.886 0-2.068.589-2.954.883-1.772 2.65-2.954 4.417-3.249a15.986 15.986 0 0 1 5.301 0c1.473.591 2.945 1.772 4.123 2.954l.884.886.589.591c0 .295.294.295.589.886.589 1.477.294 2.658-.295 3.545-.589.886-1.767 1.477-2.65 1.772-.884.295-1.767.591-2.356.591H5.89Zm0-1.477c1.472 0 3.24-.296 4.712-.591.589-.295 1.178-.591 2.061-.886.59-.296.884-.591 1.178-.886v-1.182l-.294-.591c-.295-.295-.295-.59-.59-.886-.883-1.181-2.06-2.068-3.239-2.658-1.178-.591-2.945-.886-4.123-.296-1.472.296-2.356 1.182-2.945 2.363-.294 1.182-.294 2.659.295 3.545.294 1.182 1.472 2.068 2.945 2.068Z"/><path fill="#AF62F1" d="M11.486 192.593c-2.062.886-3.829 1.772-5.89 1.772-2.945.296-4.712-4.135-2.356-5.908 1.767-1.477 3.534-2.067 5.595-1.477 1.767.296 2.945 1.477 3.829 2.954.883.886 0 2.068-1.178 2.659Z"/><path fill="#000" d="M11.78 192.888c-2.061 1.182-3.828 3.249-7.362 2.659-1.767-.591-2.65-2.068-2.945-3.545-.295-1.477-.295-3.249.883-4.431.884-1.181 2.356-1.772 3.829-2.068 1.472 0 2.945 0 4.122.887 1.473.886 2.062 2.067 2.651 2.953.294.591.589 1.477.294 2.068a3.55 3.55 0 0 1-1.472 1.477Zm-.294-.886c.294 0 .883-.591.883-.886 0-.591 0-.886-.589-1.182-.883-.886-1.767-1.477-2.65-1.772-.884-.295-2.062 0-2.945.295-.884.296-1.767.591-2.65 1.182-.59.295-.884 1.181-.59 2.068.295.886 1.178 1.477 1.767 1.477h1.473l1.767-.296c.883-.591 2.355-.295 3.534-.886Z"/><path fill="#AF62F1" d="M420.243 183.436c-1.472 0-2.65-.591-3.534-.887-1.472-.886-2.061-1.181-3.239-2.658-3.239-3.545-3.828-10.634 0-13.883 2.945-2.363 6.773-2.659 9.718 0 2.945 2.954 3.534 8.566 3.24 9.748-.295 3.544-.589 7.384-6.185 7.68Z"/><path fill="#000" d="M420.243 184.026c-5.006 0-9.718-4.135-10.307-9.157-.294-2.363 0-5.021 1.473-7.384 1.472-2.068 3.534-3.84 6.184-4.431 2.65-.591 5.595.591 7.362 2.658 1.767 2.068 2.356 4.727 2.651 7.09 0 1.181.294 2.658 0 3.84-.295 1.181-.589 2.363-1.178 3.544-.589 1.182-1.473 2.364-2.651 2.954-.883.591-2.356.886-3.534.886Zm0-1.181c1.178 0 2.062-.295 2.945-.886.884-.591 1.473-1.477 1.767-2.363.295-.887.295-2.068.589-3.25 0-1.181 0-2.067-.294-3.249-.884-4.135-3.24-7.975-7.363-7.975-1.767 0-4.122 1.181-5.006 2.954-1.178 1.772-1.178 4.135-.589 6.203.589 2.067 1.178 3.84 2.651 5.612.588.886 1.472 1.477 2.355 2.068.884.886 2.062 1.181 2.945.886Z"/><path fill="#AF62F1" d="M439.385 186.094c0-1.772.295-3.544.884-5.021.883-2.364 1.178-5.022 2.945-6.794 2.061-2.363 6.773-1.182 7.362 2.067 1.178 5.317-3.534 12.111-9.129 12.111-1.178-.295-2.356-1.181-2.062-2.363Z"/><path fill="#000" d="M438.502 186.094c0-1.772 0-3.544.589-5.612.294-1.477.589-3.249 1.767-5.022.589-.886 1.178-1.772 2.061-2.363.884-.591 2.062-.886 2.945-.886 2.062 0 4.417.591 5.301 2.954.883 2.068.589 4.135.294 5.908-.294 1.772-1.472 3.84-2.944 5.021-1.473 1.182-3.24 2.363-5.007 2.954-.589 0-.883.295-1.472.295s-.884 0-1.767-.295c-.884-.295-2.062-1.477-1.767-2.954Zm1.767 0c0 .296.294.886.883.886h.884c.294 0 .589-.295 1.178-.295 1.472-.591 2.65-1.477 3.534-2.659.883-1.181 1.766-2.658 2.061-4.135.589-1.477.589-3.249.294-4.431-.294-1.181-1.766-2.068-3.239-2.068-1.472.296-2.356 1.182-2.945 2.659-.589 1.477-.883 2.954-1.767 4.726-.589 2.068-.883 3.545-.883 5.317Z"/><path fill="#AF62F1" d="M454.404 191.116c2.651 0 4.418 2.658 3.829 5.021-.589 2.068-2.651 4.136-5.007 4.431-1.177.296-3.239 0-4.711-.591-.884-.295-1.767-2.658-1.473-3.84.884-2.953 4.123-5.021 7.362-5.021Z"/><path fill="#000" d="M454.405 190.23c.294 0 .883 0 1.178.295.294 0 .589.591 1.178.296.883.295 1.178.886 1.767 1.772.883 1.477.883 3.249.294 4.726-.589 1.477-2.061 2.363-3.239 3.249-1.473.591-2.945 1.182-4.418 1.182-.883 0-1.472 0-2.356-.296-.294 0-.294-.295-.589-.295-.294 0-.589-.295-.883-.591-.295-.295-.589-.886-.884-1.181-.294-.886-.589-1.477-.883-2.363v-1.477c.294-.296.294-.886.589-1.182 2.061-2.954 5.301-4.135 8.246-4.135Zm0 1.477c-2.356.295-4.712 1.772-5.596 3.544 0 .296-.294.591-.294.591v.591c0 .295.294.886.294 1.477 0 .295.295.295.295.591h.294c.589.295.884.295 1.473.295 1.178.295 2.356.591 3.534-.295.883-.591 1.767-1.773 2.061-2.659a2.69 2.69 0 0 0 0-2.954c-.294-.591-.589-.886-.883-1.181v-.296h-.589c0 .296-.295.296-.589.296Z"/><path fill="#AF62F1" d="M448.515 207.953c.589-1.477 2.356-2.068 3.828-2.659 2.062-.59 4.123-.295 5.89 1.182.884.886 1.178 2.363.589 3.545-1.178 2.067-4.123 2.954-6.479 2.067-1.767-.295-4.417-2.067-3.828-4.135Z"/><path fill="#000" d="M447.926 207.953c.589-1.477 1.767-2.363 2.945-2.954 1.178-.591 2.356-.886 3.828-.886 1.473 0 2.65.591 3.828 1.477 1.473.886 1.767 2.658 1.473 4.135-.589 1.477-1.767 2.659-2.945 3.25-1.178.886-2.65.886-4.123.59-1.472-.295-2.65-1.181-3.534-2.067-.589-.591-.883-.887-1.178-1.773-.294-.295-.589-1.181-.294-1.772Zm1.178.295c-.295.887.589 1.773 1.472 2.068.884.591 1.767.886 2.945.886.884 0 1.767 0 2.651-.295.883-.296 1.472-.886 1.766-1.772.295-.887.295-1.773-.588-2.068-.884-.591-1.767-.886-2.651-.886-.883 0-2.061.295-2.945.295-1.178.591-2.356.886-2.65 1.772Z"/><path fill="#07090F" d="M114.853 413.543c-5.89 1.477-12.074 1.477-18.259 2.954-6.773 1.477-13.547 4.135-19.436 7.68-15.314 8.861-22.677 22.154-31.806 36.628-.294.295-.589 0-.589-.296 2.945-16.246 15.314-30.129 29.155-38.105 11.485-6.794 28.272-11.815 40.935-8.861.294 0 .294-.296 0 0Zm252.971-10.634c3.533 25.108-9.719 53.76-26.799 70.893-17.965 17.723-43.291 21.268-68.618 18.609-.294 0-.294-.591 0-.591 11.191-1.181 22.087-2.953 32.689-6.498 11.191-3.84 22.087-7.68 30.628-15.36 19.731-17.428 30.627-41.059 32.1-67.053Z"/><path fill="#1A83AF" d="M268.873 493.002c-.883.295-4.712 1.772-4.712 0 0-2.363 3.829-.591 4.712 0 0-.295 0-.295 0 0Z"/><path fill="#D0D9E6" d="M34.161 505.999c6.774 6.499 5.007 4.431 12.958 9.452 7.952 5.022 17.08 7.976 26.505 7.681 10.307-.296 20.32-6.499 29.155-11.225 28.566-15.36 67.144-31.016 99.833-19.791 30.922 10.634 27.388 50.216 39.168 75.028 8.54 18.019 37.99 23.04 48.297 23.631 2.945 0 29.449-.886 32.394-1.181-1.178 2.658-17.964 7.089-23.854 7.975-5.595.591-24.443.296-40.934-.886-25.916-2.068-21.204-2.068-25.621-18.609-3.534-13.884-8.246-35.447-11.486-51.989-3.239-16.246-21.792-28.948-55.365-24.221-15.019 2.067-27.977 7.089-41.523 15.655-27.388 18.019-45.352 32.197-63.906 18.314-13.84-10.043-17.67-13.292-29.449-28.652-7.068-8.862-10.896-18.019-12.074-22.745 2.061 3.84 12.663 18.314 15.902 21.563Z"/><path fill="#89D1F1" stroke="#07090F" stroke-miterlimit="10" stroke-width="3" d="M202.907 358.896c2.65-27.471 13.841-56.714 37.695-73.847 20.909-15.065 55.954-18.905 72.74 3.249 15.019 19.791 5.006 32.493 15.019 54.647 4.418 9.748 8.246 19.791 11.78 30.13 13.547 39.582-3.239 78.868-37.695 89.502-27.094 8.271-59.194.886-77.747-19.791-20.32-22.154-24.443-55.828-21.792-83.89Z"/><path fill="#1A83AF" d="M224.405 442.786c-20.026-22.154-24.443-55.828-21.498-83.89 2.65-27.471 13.841-56.714 37.695-73.847 6.184-4.431 13.841-7.975 21.793-10.043-40.052 34.265-58.31 92.456-33.573 142.377 7.952 16.246 22.087 25.994 38.873 31.606 17.965 5.908 34.162 5.317 50.653-4.135 8.541-5.022 13.547-15.36 18.848-23.04-5.006 19.2-16.197 34.855-34.75 40.763-27.094 8.271-59.488.591-78.041-19.791Z"/><path fill="#762DD7" d="M408.169 44.604c-12.075 14.178-34.456 33.083-69.501 41.058-16.786 3.84-20.909 21.859-15.608 37.219 8.54 24.222 28.271 24.813 49.18 12.702 10.896-6.203 20.026-15.36 27.683-25.403 13.546-17.133 23.559-41.355 22.97-64.1-.294-15.655-3.239-15.36-14.724-1.476Z"/><path fill="#3D176E" d="M321.293 104.272c5.595 3.545 11.191 6.794 17.375 8.862 15.019 5.317 31.217 2.067 43.88-6.794 22.087-15.36 34.75-43.718 39.168-70.007.589 1.772 1.178 5.021 1.178 9.748.589 22.744-9.424 46.966-22.971 64.099-7.657 9.747-16.786 18.904-27.682 25.403-20.91 12.111-40.641 11.225-49.181-12.702-2.061-6.203-2.65-12.701-1.767-18.609Z" opacity=".44"/><path fill="#AF62F1" d="m408.758 44.013-.589.59c-1.473 1.773-3.24 3.84-5.007 5.613 1.178 1.181 2.651 2.363 4.123 3.25 3.24 2.067 9.719 4.135 15.314 4.135.294-2.659.589-5.022.589-7.68-5.89.295-10.896-2.068-14.43-5.908Zm-39.757 30.72c3.239-1.477 6.184-3.25 9.129-5.022 1.473 5.022 3.24 9.748 6.185 14.18 5.89 9.747 14.135 13.587 23.559 14.768-1.767 3.25-3.828 6.204-5.89 8.862-15.019-2.068-28.271-16.837-32.983-32.788Zm-15.903 6.794c0 6.794 1.473 13.588 5.007 20.086 5.006 9.453 16.197 18.314 27.977 23.631-2.062 2.068-4.418 3.84-6.774 5.613-10.896-5.022-21.203-13.588-26.799-21.564-4.417-6.203-7.951-15.36-9.424-25.108 3.534-.59 6.774-1.772 10.013-2.658Zm65.672-7.385c-.883 2.364-1.766 5.022-2.65 7.385-7.951 0-16.786-4.43-22.087-8.27-3.239-2.364-5.89-5.318-8.246-8.862l7.068-5.317c1.178 2.067 2.65 4.135 4.417 5.907 6.479 6.499 13.842 9.748 21.498 9.157Z"/><path fill="#762DD7" d="M395.211 95.115c3.828 2.068 7.951 3.25 12.369 3.84-1.767 3.249-3.829 6.203-5.89 8.862-4.712-.887-9.424-2.954-13.547-5.908 2.356-2.068 4.712-4.136 7.068-6.794Zm-27.094 18.314c5.301 4.726 11.486 8.861 17.965 11.815-2.062 2.068-4.418 3.84-6.774 5.613-7.951-3.545-15.608-9.453-21.498-15.36 3.534-.296 6.773-.887 10.307-2.068ZM422.304 57.6c-1.767 0-3.828-.295-5.889-.59.883-2.363 1.472-5.022 2.356-7.385 1.177.295 2.65.295 4.122.295 0 2.659-.294 5.022-.589 7.68Zm-12.369 15.36c2.945.887 5.89 1.182 8.835 1.182-.883 2.363-1.767 5.022-2.65 7.385-3.24 0-6.479-.886-9.719-1.772 1.473-2.364 2.651-4.431 3.534-6.794Z"/><path fill="#000" d="M409.347 45.785c-17.964 20.677-42.702 35.447-69.206 41.059-3.24.886-6.185 1.772-8.835 3.545-2.651 1.772-4.712 4.135-6.185 7.089-2.945 5.612-3.534 12.406-2.356 18.905.589 3.249 1.767 6.203 2.945 9.452.589 1.477 1.473 2.954 2.356 4.431.884 1.182 1.767 2.658 2.945 3.84 4.418 4.726 10.307 7.089 16.492 7.089 6.184 0 12.369-2.067 18.258-5.021 5.89-2.954 11.191-6.499 16.198-10.93 5.006-4.43 9.424-9.157 13.546-14.178 4.123-5.022 7.952-10.339 11.191-16.246 6.479-11.225 11.485-23.927 13.252-36.924a54.55 54.55 0 0 0 .884-9.748c0-3.249 0-6.794-.589-9.452-.295-.591-.295-1.182-.589-1.773-.589 0-2.062 1.182-3.24 2.068-2.65 1.773-4.711 4.136-7.067 6.794Zm-2.651-2.363a84.131 84.131 0 0 1 6.774-7.68c.589-.59 1.472-1.182 2.061-1.772.884-.591 1.767-1.182 2.945-1.477h1.178c.294 0 .883.295 1.178.295.589 0 .883.296 1.178.59l.883.887c.884 1.182 1.178 2.068 1.178 2.954.884 3.84.884 7.09 1.178 10.634 0 3.544 0 7.09-.294 10.338-1.473 13.884-5.89 27.176-12.663 39.582-6.774 12.111-15.609 23.041-26.505 31.902-5.301 4.431-11.191 8.271-17.67 11.225-6.478 2.954-13.252 5.022-20.614 4.726-7.362-.295-14.725-3.84-18.848-9.748-1.178-1.181-2.061-2.954-2.945-4.43-.883-1.477-1.767-3.25-2.356-4.727-1.178-3.249-2.356-6.498-2.945-10.043-1.178-6.794-.883-14.178 2.356-20.677 1.473-3.25 3.829-6.203 6.774-8.27 2.945-2.069 6.479-3.25 9.718-4.136 12.958-3.25 25.621-7.976 37.106-14.77a108.818 108.818 0 0 0 30.333-25.403Z"/><path fill="#EBF2FC" d="M126.044 48.148c21.498-16.542 47.708-25.699 74.212-28.652 27.683-3.25 55.659 3.249 83.342 4.43 27.682 1.182 56.543-1.476 79.219-17.723 5.595-4.135 8.835-7.68 7.951 4.136-1.178 15.655-7.068 33.674-17.964 44.898-7.068 7.385-5.595 6.794 2.062 13.588 3.533 3.25 6.478 6.794 8.834 10.043 7.068 10.34 10.897 22.45 11.191 34.561.295 9.157.589 13.292-6.479 4.135-1.472-2.067-2.945-3.84-4.417-5.612-5.89-6.794-9.424-5.317-6.479 5.022l4.417 13.292c6.185 18.019 13.547 35.446 20.615 53.17 7.068 17.723 12.663 36.037 14.136 54.942.883 13.292-.295 28.357-5.301 41.059-4.418 11.224-7.657 9.748-6.479-1.773.294-4.135.589-8.566.294-12.701-.294-9.453-3.533-6.794-6.773 3.544-9.718 31.016-35.339 56.715-64.2 71.484-14.724 7.68-13.252 5.022-6.479-6.794.295-.591.884-1.477 1.178-2.363 5.301-10.043-5.3-3.249-9.718-1.477l-6.184 2.659c-11.191 4.726-22.971 6.498-35.045 7.089-21.498 1.182-42.113 0-62.433 6.794-10.896 3.545-10.013-.295-11.485-8.566-2.945-14.474-11.78-25.994-22.087-37.515-3.534-3.84-7.363-8.27-11.191-12.701-12.663-15.36-6.479 4.726-7.362 0-.884-4.136 2.061 8.271 3.534 12.406 2.945 7.089 10.601 20.382-3.24 7.385-7.951-7.68-16.492-16.247-24.148-25.108-7.657-9.157-7.657-6.203-5.007 5.908 2.356 10.929.295 11.815-7.362 2.067-5.007-6.498-10.013-12.997-13.841-20.381-4.712-9.453-8.246-19.791-11.191-30.13-5.89-20.677-8.54-41.945-8.246-63.508.589-58.487 12.369-96.888 52.126-127.608Z"/><path fill="#D0D9E6" d="M172.868 228.335c1.767-9.453 3.534-18.019 3.24-27.767-.295-8.861-1.767-17.723 0-26.585 3.828-20.972 13.546-34.56 35.044-40.763 22.087-6.203 53.009-1.477 69.207 2.954 52.714 14.178 101.011 51.988 85.403 112.247-15.903 62.327-106.018 67.348-154.315 45.49-26.21-11.816-44.174-36.628-38.579-65.576ZM147.247 95.706c12.074-8.862 31.805-12.111 37.695 4.43 4.123 11.225-.589 28.358-6.184 36.038-10.013 14.474-34.456 20.086-44.469 2.658-8.54-14.769.589-33.969 12.958-43.126Z"/><path fill="#D0D9E6" d="M74.212 176.051c.295-42.831 6.48-74.733 25.032-100.727-1.472 2.658-2.65 5.317-3.828 7.975-12.369 27.176-28.566 80.05-.589 173.688 3.828 12.407 7.951 8.271 7.951-3.249 0-12.406 14.431 12.111 20.909 21.563 9.424 13.883 10.308 2.954 10.897-2.954.883-14.178 5.89-19.495 15.019-1.181 9.129 18.609 25.621 31.902 37.695 49.034 1.473 2.068 2.945 4.431 4.123 6.794 3.829 7.089 4.123 10.634 16.786 7.089 7.952-2.363 16.492-3.249 24.149-4.135 16.491-1.772 34.161 1.477 50.653-1.182 13.547-2.363 24.443-7.384 34.161-16.541 5.007-4.726 12.074-8.862 8.54 2.658-.589 2.068-1.472 4.136-2.355 5.908-3.534 7.68-6.479 10.929 4.122 3.249 28.861-21.268 42.702-43.717 53.893-74.142 5.006-13.883 6.184-9.452 7.657-2.363.883 4.135 3.239 6.794 3.239-.886 0-11.225-2.061-32.493-12.663-71.189 1.178 2.659 2.061 5.317 3.239 7.976 7.068 17.723 12.664 36.037 14.136 54.942.884 13.292-.294 28.357-5.301 41.059-4.417 11.224-7.657 9.747-6.479-1.773.295-4.135.589-8.566.295-12.701-.295-9.453-3.534-6.794-6.774 3.544-9.718 31.016-35.339 56.715-64.199 71.484-14.725 7.68-13.253 5.022-6.479-6.794.294-.591.883-1.477 1.178-2.363 5.301-10.043-5.301-3.249-9.718-1.477l-6.185 2.659c-11.191 4.726-22.97 6.498-35.045 7.089-21.498 1.182-42.112 0-62.432 6.794-10.897 3.545-10.013-.295-11.486-8.566-2.945-14.474-11.78-25.994-22.087-37.515-3.534-3.84-7.362-8.27-11.191-12.701-12.663-15.36-6.478 4.726-7.362 0-.883-4.136 2.062 8.271 3.534 12.406 2.945 7.089 10.602 20.382-3.239 7.385-7.952-7.68-16.492-16.247-24.149-25.108-7.657-9.157-7.657-6.203-5.006 5.908 2.356 10.929.294 11.815-7.363 2.067-5.006-6.498-10.013-12.997-13.841-20.381-4.712-9.453-8.246-19.791-11.19-30.13-5.89-20.382-8.247-41.945-8.247-63.213Z"/><path fill="#89D1F1" d="M205.851 123.472c15.608-10.634 41.524-15.951 67.439-5.908 28.566 10.93 46.236 6.499 52.715 5.613 11.191-1.477 10.307-.591 11.78 12.997 1.767 14.178 8.835 27.175 15.313 39.877 7.363 14.769 12.958 29.539 12.664 46.08-.295 31.016-20.909 58.487-48.886 70.598-26.505 11.52-59.194 8.566-86.582 1.772-29.155-7.089-51.536-22.449-55.365-53.169-1.178-8.862 3.534-15.656 3.829-25.699.589-12.997-5.301-31.902-2.356-44.604 5.301-22.449 17.081-38.991 29.449-47.557Z"/><path fill="#EBF2FC" d="M220.871 226.858c1.178-1.477 3.239-3.25 5.595-4.726 5.007-2.954 8.835-5.908 8.246 5.021 0 2.954-.589 6.203-.884 7.385 0 1.181-13.546-6.794-12.957-7.68Z"/><path fill="#000" d="M220.282 226.562c2.65-2.954 5.89-5.317 9.424-6.794.883-.295 1.767-.886 3.239-.59 1.178.295 1.767 1.477 2.061 2.363.589 2.067.295 3.84.589 5.908 0 2.067.295 3.84 0 5.907 0 .591 0 .886-.294 1.477v.296c0 .295-.589.59-.589.59h-1.178c-.295 0-.589-.295-.884-.295-.883-.591-1.766-.886-2.65-1.182-1.767-.886-3.239-2.067-5.006-2.953-.884-.591-1.473-1.182-2.356-1.773-.295-.295-.884-.591-1.178-.886l-.589-.591-.295-.295-.294-.295v-.887Zm.883.591c.295-.295.295-.295.295 0 .294 0 .294.296.589.296.294.295.883.59 1.178.886.883.59 1.767.886 2.356 1.477 1.767.886 3.239 1.772 5.006 2.658.884.296 1.767.886 2.356 1.182h.589-.295s-.294.295-.589.295v.295c0-.295.295-.886.295-1.181.294-1.772.883-3.545.883-5.612.295-1.773.295-3.841-.294-5.613-.295-.886-.589-1.477-1.472-1.772-.589-.296-1.473.295-2.356.591-2.651 2.067-6.185 3.544-8.541 6.498Z"/><path fill="#EBF2FC" d="M335.723 226.562c-.883-1.477-2.65-3.249-4.417-4.726-4.123-2.954-7.068-5.908-6.774 5.022 0 2.954.589 6.203.589 7.384 0 1.182 11.191-6.794 10.602-7.68Z"/><path fill="#000" d="M335.134 226.858c-1.767-2.954-4.712-5.022-7.362-6.794-.589-.296-1.473-.591-1.767-.296-.589.296-.589 1.182-.884 2.068-.294 1.772 0 3.249 0 5.022.295 1.772.589 3.249.589 5.021v1.773c0-.296-.294-.296-.294-.591l-.295-.296c.589-.295 1.473-.886 2.062-1.181 1.472-.886 2.65-2.068 4.123-2.954.589-.591 1.472-.886 2.061-1.477l.884-.886.883.591Zm1.178-.591v1.181c0 .296-.294.296-.294.296l-.589.591-.884.886c-.589.591-1.178 1.181-2.061 1.772-1.473 1.182-2.651 2.363-4.123 3.249-.884.296-1.473.887-2.356 1.182h-.884c-.294 0-.294 0-.589-.295-.294 0-.294-.296-.294-.591v-2.068c-.295-1.772-.295-3.545-.295-5.317 0-1.772 0-3.545.295-5.317.294-.886.294-1.772 1.178-2.658.294-.296 1.178-.591 1.472-.296.589 0 .884.296 1.473.591 2.945 1.772 5.89 3.84 7.951 6.794Z"/><path fill="#07090F" d="M345.736 118.45c-6.773 6.794-20.025 7.09-28.86 8.271-12.369 1.182-24.149-.886-35.928-4.431-14.725-4.43-28.566-8.861-44.469-7.384-15.019 1.477-27.682 8.566-39.462 17.723-.295.295-.589-.295-.589-.591 12.957-23.04 46.53-24.812 68.911-18.905 14.725 3.84 28.566 10.044 44.175 9.748 6.773 0 13.546-.886 20.025-2.067 5.301-.887 10.307-2.659 15.608-2.659.589 0 .589.295.589.295Z"/><path fill="#1A83AF" d="M195.838 134.992c-.589.886-1.472 1.772-2.061 2.659-.589.886-.884 2.363-1.767 2.954h-.589c-1.178-2.068 1.767-6.794 4.123-6.204.294.296.294.296.294.591Z"/><path fill="#89D1F1" d="M146.658 163.645c24.148 2.363 22.382 67.053 3.534 69.12-13.841 1.773-22.971-10.338-27.094-24.221-6.478-20.973-1.472-47.558 23.56-44.899Z"/><path fill="#000" d="M146.658 162.463c4.123.591 7.951 2.659 10.307 5.908 2.651 2.954 4.418 6.794 5.595 10.338 2.356 7.385 3.24 15.361 3.24 23.041-.295 7.68-1.178 15.655-4.417 23.04-1.767 3.545-4.123 7.385-8.541 9.452-2.356.887-4.417.887-6.479.887-2.061 0-4.123-.591-6.184-1.182-4.123-1.477-7.657-4.135-10.307-7.089-2.945-2.954-5.007-6.499-6.774-10.339a54.033 54.033 0 0 1-5.301-23.336c.295-7.975 1.767-16.541 7.068-23.04 2.651-3.249 6.185-5.612 10.013-7.089 3.828-1.182 7.951-.886 11.78-.591Zm-.295 2.068c-3.534 0-7.362 0-10.601 1.477-3.24 1.477-5.89 3.544-7.952 6.498-3.828 5.908-4.712 13.293-4.417 20.382.294 7.089 1.767 14.474 4.712 20.973 2.65 6.498 7.362 12.701 13.546 15.064 1.473.591 3.24.887 5.007 1.182 1.767.295 3.534 0 4.712-.295 2.65-.887 5.006-3.84 6.773-7.09 3.24-6.498 4.712-14.178 5.006-21.563.295-7.385-.294-15.065-2.65-22.154-1.178-3.545-2.65-7.089-5.006-9.748-2.356-2.363-5.596-4.431-9.13-4.726Z"/><path fill="#1A83AF" d="M152.254 222.722c-5.89-1.181-10.602-7.384-13.253-12.406-6.184-11.815-6.773-31.016 8.246-36.333 4.418-1.477 8.246-1.181 12.074.296 4.123 9.748 5.596 20.972 4.712 31.015v2.364c0 .886-.294 1.476-.294 2.363v1.181c-.589 4.136-1.767 7.68-3.24 10.93-2.945.886-5.595.886-8.245.59Z"/><path fill="#07090F" d="M139.59 153.897c9.424-.886 18.259 11.815 21.498 19.2 5.007 10.929 6.479 23.336 5.007 35.151-.884 8.862-3.829 18.61-10.896 24.517-7.657 6.204-20.615 3.84-27.977-1.476-.295-.296 0-.887.294-.591 7.362 2.363 20.026 2.658 25.916-2.954 5.595-5.613 7.067-15.36 7.951-22.745.883-9.452-.884-18.905-3.829-28.062-3.533-10.338-10.601-15.36-18.258-22.449 0-.296 0-.591.294-.591Z"/><path fill="#E98DF7" d="M284.187 205.59c1.767-3.84 4.417-7.68 7.657-10.634 2.945-2.659 5.301-2.363 8.246 0 1.767 1.477 9.423 8.566 10.012 11.52.589 3.545-3.239 5.908-5.89 7.089-3.239 1.477-6.773 1.773-10.307 2.068-3.239.295-7.068.295-9.718-2.068-2.356-2.363-1.178-5.612 0-7.975Z"/><path fill="#000" d="M283.303 205.294c1.178-2.363 2.356-4.726 3.829-6.793.883-1.182 1.472-2.068 2.65-2.954.884-.887 1.767-1.773 3.24-2.659 1.178-.591 2.945-.886 4.417-.295a10.584 10.584 0 0 1 3.534 2.363c1.767 1.772 3.534 3.545 5.301 5.612.884.886 1.767 1.773 2.65 2.954.884.886 1.767 2.068 1.767 3.84 0 1.477-.589 2.954-1.472 4.136-.884 1.181-2.061 1.772-3.239 2.658-2.356 1.182-5.007 2.068-7.363 2.363-2.65.296-5.006.591-7.657.591-2.65-.295-5.595-.591-7.657-3.249-.883-1.182-1.177-2.954-.883-4.431 0-1.477.294-2.954.883-4.136Zm1.473.887c-.884 2.067-1.767 4.726-.589 6.203 1.472 1.477 3.828 2.067 6.184 2.363 4.712 0 10.013-.296 14.431-2.659 2.061-1.181 4.417-2.658 4.122-4.726 0-.886-.883-2.068-1.472-2.954-.883-.886-1.472-2.067-2.356-2.954-1.767-1.772-3.534-3.544-5.595-5.021-1.767-1.773-4.123-2.659-5.89-1.182-.884.591-1.767 1.182-2.651 2.068-.883.886-1.767 1.772-2.356 2.658-1.472 1.773-2.65 3.841-3.828 6.204Z"/><path fill="#07090F" d="M302.446 209.725c-1.767-1.181-1.767-4.726 0-5.612a2.667 2.667 0 0 1 2.945 0c.883.591 1.472 1.772 1.472 2.954 0 1.181-.589 2.363-1.472 2.954-1.178.59-2.062.295-2.945-.296Zm-10.308 2.068c-2.356-1.182-2.356-5.612 0-6.794 1.178-.591 2.356-.886 3.534 0 .883.591 1.767 2.068 1.767 3.249 0 1.477-.589 2.659-1.767 3.25-1.472.886-2.65.886-3.534.295Z"/><path fill="#EBF2FC" d="M233.828 167.189c2.062-4.726 6.185-7.975 11.191-9.452 12.663-3.545 21.793 4.136 24.443 17.723.884 5.022.884 10.044-.589 14.77-5.301 18.609-30.922 17.428-36.812-.591-2.061-7.089-1.472-15.656 1.767-22.45Z"/><path fill="#000" d="M232.945 166.894c2.65-5.612 7.951-9.748 13.841-10.634 2.945-.591 6.185-.591 9.129.296 2.945.886 5.596 2.658 7.657 4.726 4.123 4.431 5.89 10.338 6.774 15.951.589 5.612.294 11.815-2.062 17.132-1.178 2.659-2.945 5.317-5.595 7.089-2.356 1.773-5.301 3.25-8.246 3.545-5.89.886-12.369-.591-17.081-4.726-4.712-3.84-7.068-10.043-7.657-15.951-.294-6.203.589-12.111 3.24-17.428Zm1.767.886c-2.356 5.022-2.945 10.634-2.356 16.247.294 2.658 1.178 5.317 2.356 7.68.589 1.181 1.472 2.363 2.061 3.544.884.886 1.767 2.068 2.651 2.954 3.828 3.545 9.424 5.022 14.725 4.431 2.65-.295 5.006-1.477 7.362-2.659 2.356-1.476 4.123-3.544 5.301-5.907 2.65-4.726 3.534-10.93 2.356-16.247-.884-5.612-3.534-10.929-7.363-14.474-3.828-3.84-9.423-5.021-14.724-4.135-2.651.295-5.301 1.477-7.363 2.954-2.061.886-3.828 3.249-5.006 5.612Z"/><path fill="#07090F" d="M255.327 173.097c1.767-.295 3.828.296 5.006 1.772 1.767 1.773 2.062 3.545 2.356 5.908.295 2.068-.589 4.726-2.356 5.908-2.945 2.068-7.362 2.658-9.424-1.182-.294-.886-.589-1.772-.589-2.658-.294-2.659.295-5.908 1.178-7.089 1.178-1.477 2.356-2.363 3.829-2.659Z"/><path fill="#EBF2FC" d="M308.63 165.417c1.472-3.84 4.417-6.498 7.657-7.68 8.834-2.954 15.313 3.545 17.08 14.474.589 4.135.589 8.271-.294 12.111-3.829 15.36-21.498 14.179-25.621-.591-1.473-5.908-.884-12.701 1.178-18.314Z"/><path fill="#000" d="M307.746 165.122c.884-2.068 2.062-4.136 3.829-5.908 1.767-1.772 4.123-2.659 6.478-3.249 2.356-.591 5.007-.296 7.068.59 2.356.887 4.123 2.659 5.301 4.727 2.651 4.135 3.24 8.566 3.829 12.997.294 4.431.294 8.861-1.473 13.292-.883 2.068-2.061 4.136-3.828 5.908-1.767 1.772-4.123 2.954-6.479 3.249-2.356.296-5.007 0-7.068-.886-2.356-.886-4.123-2.658-5.89-4.431-2.945-3.84-4.417-8.566-4.417-12.997 0-4.431.883-9.157 2.65-13.292Zm2.062.886c-1.473 3.84-2.062 8.271-1.767 12.406.294 4.136 1.472 8.271 4.123 11.225 2.65 2.954 6.478 4.726 10.307 4.431 2.061-.296 3.828-1.182 5.301-2.363 1.767-1.182 2.65-2.954 3.828-4.727 3.829-7.68 2.062-17.723-2.945-24.221-2.356-3.25-6.184-5.022-10.307-4.136-3.828.591-7.068 3.545-8.54 7.385Z"/><path fill="#07090F" d="M323.649 170.143c1.178-.295 2.65.296 3.534 1.477 1.178 1.477 1.472 2.954 1.472 4.726.295 1.477-.294 3.84-1.472 5.022-2.062 1.772-5.301 2.363-6.479-1.182-.295-.59-.295-1.476-.589-2.067-.295-2.363.294-4.726.883-5.908.884-1.182 1.767-1.772 2.651-2.068Z"/><path fill="#1A83AF" d="M270.345 201.454c-1.472 4.727-5.595 8.862-10.012 10.634-6.774 2.659-11.78 2.068-17.67-2.067-.294-.296 0-.591.294-.591 4.712.886 10.602.886 15.314-.296 4.418-1.181 7.657-5.021 12.074-7.68 0-.295-.294-.295 0 0Zm59.489-2.067c-5.301 4.135-13.547 2.954-17.964-1.773-.295-.295 0-.59.294-.59 2.945.59 6.184 1.477 9.424 1.772 2.65.591 5.301.295 8.246.591Z"/><path fill="#07090F" d="M341.908 221.245c-11.485 18.314-35.928 24.222-55.954 25.404-27.093 1.772-55.365-6.794-75.096-26.29-1.178-1.181.589-3.249 2.061-2.068 18.259 18.314 43.88 25.995 69.501 25.699 19.731-.295 45.647-6.203 56.837-24.222 1.178-1.477 3.829 0 2.651 1.477Z"/><path fill="#1A83AF" d="M303.623 267.03c-3.534.887-6.479 1.477-10.307 1.773-4.123.295-7.362 1.477-10.896-.886-1.178-.887-1.473-2.068-.884-3.545 1.767-4.431 6.185-5.022 10.602-5.022 5.006-.295 8.246.887 12.074 3.84 1.178.887 1.178 3.25-.589 3.84Z"/><path fill="#07090F" d="M270.051 152.125c-6.184-.591-12.369-2.363-18.847-2.363-5.89 0-10.897.59-16.198-2.068-1.472-.591-1.472-2.363-.883-3.545 3.239-7.68 11.485-9.748 19.142-9.157 8.835.886 16.197 5.613 18.848 14.179.294 1.477-.884 3.249-2.062 2.954Zm62.433-4.727c-3.534 2.068-7.952 1.773-11.78 2.659-5.006 1.181-8.54 2.954-13.841 1.772-1.178-.295-2.062-1.477-2.062-2.658.295-7.976 7.068-10.634 14.136-11.52 5.301-.591 13.252 1.181 14.43 7.384.589.886 0 1.773-.883 2.363Z"/><path fill="#000" d="M124.571 46.08c22.971-17.723 51.536-27.175 80.102-29.538 28.861-2.363 57.132 4.726 85.109 5.317 14.136.295 27.977-.591 41.524-3.84a109.034 109.034 0 0 0 19.437-7.09c1.472-.886 2.944-1.477 4.417-2.363l4.417-2.658c1.473-.886 2.945-2.068 4.418-2.954.589-.59 1.472-1.182 2.356-1.477.589-.295 1.178-.59 1.767-.59s.883-.296 1.472 0c.589 0 1.178.295 1.767.885.884.886 1.178 1.477 1.178 2.068.295.59.295 1.182.295 1.772v2.954c0 1.773-.295 3.545-.295 5.613a66.658 66.658 0 0 1-1.767 10.634 86.083 86.083 0 0 1-7.951 20.381c-1.767 3.25-3.829 6.203-6.185 9.157-1.178 1.477-2.356 2.659-3.828 4.136-1.178 1.181-2.356 2.658-2.945 3.544-.294.591-.294.591 0 1.182.295.59.884 1.181 1.473 1.772l3.828 3.545c2.65 2.363 5.006 5.317 7.362 7.975 8.835 11.52 13.253 26.29 13.253 40.469 0 1.772.294 3.544-.295 5.612-.294.591-.294 1.181-.883 1.772-.295.296-.884.296-1.473.296-.294 0-.883-.296-.883-.296-.884-.591-1.473-1.181-2.356-2.068-2.356-2.953-4.418-5.612-6.774-8.27-1.178-1.182-2.356-2.363-3.828-2.954-.589-.296-1.473-.296-1.178-.296h.589v.296c0 1.181.589 2.658 1.178 4.135.589 1.477 1.472 3.249 2.061 4.726 2.945 6.499 5.007 13.293 7.363 19.791l7.657 19.791c5.006 13.293 10.601 26.29 14.724 40.173 4.123 13.883 7.363 28.062 7.952 42.536.589 14.474-1.473 29.243-7.952 42.831-.589.886-.883 1.772-1.472 2.659-.295.59-.589.886-1.178 1.181-.589.296-1.178 1.182-2.651 1.182-.883 0-1.472-.296-2.061-.591s-.589-.886-.884-1.182c-.294-.59-.589-1.181-.589-1.772-.294-1.182-.294-2.068-.294-2.954 0-1.772.294-3.84.294-5.612.295-1.773.295-3.545.295-5.317 0-3.545.294-7.089-.295-10.043v-.591s0 .295.295.295h.883l-.294.296c-.295.295-.295.59-.589.886-.884 1.181-1.473 2.954-2.062 4.431-1.178 3.249-2.356 6.794-3.828 10.043-1.472 3.249-2.945 6.498-4.712 9.748-3.534 6.498-7.657 12.406-12.074 18.018-8.835 11.225-19.731 20.973-31.511 29.244a115.942 115.942 0 0 1-18.553 10.634 28.333 28.333 0 0 1-5.301 2.067c-.589 0-1.178.296-2.356 0-.589-.295-1.472-1.181-1.472-1.772-.295-.591 0-1.182 0-1.477.294-1.477.588-2.068 1.177-2.954 1.473-3.249 3.534-6.498 5.007-9.452.294-.886.883-1.477.883-2.068 0-.295.295-.591.295-.886 0-.296 0-.296 0 0 0 .295.294.591.589.591h.294-.589c-.589.295-1.472.59-2.061.886-1.473.591-2.945 1.477-4.712 2.363-1.767.886-3.239 1.477-5.006 2.363-6.479 3.249-13.547 5.317-20.909 6.499-14.431 2.658-28.566 2.363-42.702 3.249-7.068.295-13.841 1.181-20.909 2.363-3.534.591-6.774 1.181-10.013 2.068-1.767.295-3.24.886-5.006 1.477-1.767.59-3.534 1.181-5.596 1.476-1.178.296-2.356.296-3.828 0-1.473-.295-3.534-1.476-4.418-2.658-.883-1.477-1.178-2.659-1.472-3.545-.295-1.181-.295-2.067-.589-2.954-.589-3.544-1.178-6.498-2.356-9.747-2.062-6.203-5.595-12.407-9.424-18.019-4.123-5.612-8.54-10.929-13.252-16.246l-7.068-7.976c-1.178-1.477-2.356-2.658-3.239-3.84-.589-.591-1.178-1.181-1.767-1.477-.295-.295-.589-.295-.295-.295h.589c.295 0 .884-.296.884-.591.589-.591.294-.591.294-.295v.886c0 .591.295 1.477.295 2.068v.59c.589-1.477-9.424 2.363-5.301 1.182l-.295-1.182c-1.178-.886 10.307-1.772 5.596-.886v.296l.294.59.295 1.182c.883 3.545 1.766 6.794 2.65 10.043 1.178 2.954 2.945 6.203 4.123 9.748.294.886.589 1.772.883 3.249v1.477c-.294.591-.294.886-.883 1.477-.589.591-1.178.886-1.767.886h-1.178c-.295 0-.589 0-.589-.295-.589-.296-.589-.296-.884-.591-2.061-1.182-3.239-2.363-4.711-3.545-5.301-5.021-10.308-9.747-15.314-15.064-2.356-2.659-5.007-5.317-7.362-7.976-2.356-2.658-4.712-5.612-6.774-7.975-.294-.591-1.472-1.182-.883-.886h.589c.294 0 .883-.001 1.178-.296.294 0 .589-.295.883-.591l.295-.295v-.295.295c0 1.182.294 2.954.589 4.726.589 3.545 1.767 6.794 1.767 11.225v.886c0 .295 0 .886-.295 1.182 0 .295-.589 1.181-.883 1.772-.589.591-1.767 1.477-2.356 1.477h-1.178c-.295 0-.589 0-.589-.296l-.589-.295-.589-.295c-.589-.296-1.178-.591-1.473-1.182-1.472-1.477-2.65-2.954-4.123-4.135-2.356-2.954-4.417-5.613-6.479-8.567-4.123-5.907-8.245-12.11-11.19-18.904-2.945-6.794-5.301-13.588-7.363-20.382-4.123-13.588-7.068-28.062-8.54-42.241-1.473-14.474-1.473-28.652-.884-43.126.59-14.179 2.356-28.653 5.596-42.831 3.534-13.884 9.13-27.767 17.08-39.878 7.068-12.406 17.376-23.04 28.861-31.901Zm2.945 4.136c-10.896 8.566-20.909 18.61-28.566 30.13s-12.958 24.812-16.197 38.4c-3.24 13.588-4.712 27.766-5.301 41.649-.59 14.179-.59 28.358.883 42.241 1.473 13.883 4.418 27.766 8.54 41.059 2.062 6.794 4.418 13.292 7.069 19.791 2.65 6.203 6.478 12.111 10.601 17.723 2.062 2.659 4.123 5.612 6.479 8.271 1.178 1.181 2.356 2.658 3.24 3.545.294.295.589.295.589.59h-.589c-.295 0-.295 0-.589.296-.295 0-.589.295-.589.59-.295 0-.295.591-.295.296v-.296c0-2.658-1.178-6.203-1.767-9.747-.294-1.773-.589-3.545-.883-5.908v-1.477c0-.295 0-.591.294-.886.295-.296 0-.296.589-.886.295-.591.884-.886 1.178-1.182.589-.295 1.178-.295 1.767-.295s.884 0 1.178.295c2.062.886 2.356 1.477 3.24 2.363 2.65 2.954 4.711 5.613 7.067 8.271 2.356 2.659 4.712 5.317 7.068 7.68 4.712 5.022 10.013 10.043 15.02 14.77 1.177 1.181 2.65 2.363 3.533 2.953h.295-.589c-.295 0-.884.296-1.178.591-.295.591-.589.591-.589.886v.296c0-.296-.295-1.182-.589-1.773-1.178-3.249-2.65-6.203-4.123-9.747-1.178-3.545-2.061-7.09-2.945-10.634l-.294-1.182-.295-.591v-.295c-4.712.591 6.479-.591 5.301-1.182 0 .296 0 .591.295 1.477 4.417-.886-5.89 3.545-5.301 1.477-.295-.295-.295-.59-.295-.59l-.294-.887c-.295-1.181-.295-2.067-.589-3.249v-1.772c0-.591.294-1.477 1.178-2.659.589-.591 1.472-.886 2.061-1.181.884 0 1.473 0 1.767.295.884.295 1.473.591 2.062.886.883.591 1.766 1.477 2.355 2.068 1.473 1.477 2.651 2.954 3.829 4.135l7.068 7.976c4.712 5.317 9.424 10.634 13.841 16.542 4.417 5.907 8.246 12.11 10.896 19.2 1.178 3.544 2.356 7.384 2.945 10.929.295.886.295 1.772.589 2.363.295.591.295 1.182.589 1.182h1.473c1.472-.296 2.945-.591 4.712-1.182s3.534-1.181 5.3-1.477c3.534-.886 7.068-1.772 10.602-2.067 7.068-1.182 14.43-1.477 21.498-1.773 7.068-.295 14.136-.295 21.204-.295 7.068-.296 14.136-.591 20.909-1.772 6.773-1.182 13.547-2.954 19.731-5.908 1.473-.591 3.24-1.477 4.712-2.068 1.473-.886 3.239-1.477 5.006-2.363.884-.295 1.767-.591 2.945-.886.589 0 1.178-.296 2.062-.296.294 0 .883 0 1.472.296a3.555 3.555 0 0 1 1.473 1.477c.589 1.181.294 2.067.294 2.658 0 .591-.294 1.182-.589 1.773-.294.886-.883 1.772-1.178 2.658-1.767 3.249-3.534 6.203-5.006 9.157-.295.591-.589 1.477-.884 1.772v-.295c0-.295-.294-.886-.883-.886h.294c1.178-.296 2.945-1.182 4.418-1.772 6.479-2.954 12.369-6.499 18.258-10.339 11.78-7.68 22.382-17.133 31.217-28.062 4.417-5.612 8.246-11.225 11.485-17.428 1.473-3.249 3.24-6.203 4.418-9.452.589-1.477 1.178-3.249 1.767-5.022l1.766-5.021c.589-1.773 1.178-3.545 2.356-5.317.295-.296.589-.886.884-1.477.294-.296.294-.591.589-.591.294 0 .294-.295.589-.295.294 0 .589-.296.883-.296.589-.295 1.767 0 2.062.296.294.295.589.295.589.59 0 .296.294.296.294.591.295.296.295.591.295.886 0 .296.294.591.294.886.589 2.068.589 3.841.589 5.613v5.317c0 3.544-.589 7.385-.589 10.634 0 .886 0 1.772.295 2.363 0 .295.294.591.294.591-.294-.296-.294-.296-.883-.296h-.295s.295-.591.589-.591c.295-.59.884-1.181 1.178-2.067 5.596-12.407 7.068-26.881 6.479-40.468-.883-13.884-4.123-27.471-8.835-40.764-9.718-26.289-22.97-51.988-30.333-79.755-.883-3.544-2.061-7.089-1.178-11.815l.295-.886c0-.296.294-.886.589-1.182.294-.295.589-.886 1.178-1.181.589-.296 1.178-.591 1.472-.591 2.062 0 2.945.886 3.829 1.477 1.767 1.477 2.945 2.658 3.828 4.135 2.062 2.954 4.123 5.908 6.479 8.567.589.59 1.178 1.181 1.767 1.476 0 .296 0-.295.295-.59.294-1.477.294-3.25.294-5.022 0-7.089-.883-14.178-3.239-20.677-2.356-6.499-5.596-12.997-10.013-18.314-2.062-2.659-4.712-5.317-7.068-7.385l-4.123-3.544c-.589-.591-1.472-1.182-2.061-2.364-.589-.886-.884-2.953-.295-3.84.884-2.067 2.356-3.249 3.534-4.726 1.178-1.477 2.356-2.658 3.534-3.84 2.061-2.658 4.123-5.612 5.595-8.566a77.273 77.273 0 0 0 7.068-19.496c.884-3.249 1.473-6.793 1.767-10.338.295-1.772.295-3.545.295-5.022V6.203c0-.59-.295-1.477 0-.886.294.295.589.295.589.295s-.295 0-.589.296c-.589.295-1.178.886-2.062 1.477-1.472 1.181-2.945 2.067-4.417 3.249-1.473.886-2.945 2.068-4.712 2.954-1.473.886-3.24 1.772-4.712 2.658-6.479 3.25-13.252 5.908-20.32 7.68-14.136 3.545-28.566 4.431-42.702 4.136-28.566-.59-56.543-7.385-84.52-5.022-27.977.886-55.659 10.043-77.746 27.176Z"/><path fill="#1A83AF" d="M175.518 176.051c1.767-7.68 4.123-15.065 6.774-21.563-1.178 10.043.589 20.086 2.356 30.72 2.356 13.883 1.178 27.471.589 41.65-.589 14.769 2.945 27.175 13.547 38.4 6.184 6.499 15.019 10.634 22.97 14.474 8.54 4.136 17.67 7.385 26.799 10.043 32.983 9.157 68.323 3.84 91.882-22.154 11.78-12.997 19.731-28.357 19.731-45.785 0-7.975-2.061-20.677-2.945-30.129v-.591c3.534 9.748 7.657 21.859 7.657 32.788-.294 31.016-20.025 56.714-47.708 68.825-26.504 11.52-59.193 8.566-86.581 1.773-29.155-7.09-51.537-22.45-55.365-53.17-1.178-8.862 3.534-15.656 3.828-25.699.295-12.702-6.478-26.88-3.534-39.582Z"/><path fill="#000" d="M204.379 121.7c18.553-12.407 42.407-14.474 63.316-8.271 5.301 1.477 10.013 3.84 15.019 5.021 5.007 1.477 10.013 2.659 15.314 3.25 5.007.59 10.307.886 15.608.59 2.651-.295 5.007-.59 7.657-.886l4.123-.59c1.473-.296 2.651-.296 4.123-.296 1.472 0 2.945-.295 4.712.296.883.295 2.061.886 2.65 1.772s.884 1.772 1.178 2.658c.884 2.954.884 5.613 1.178 8.271.589 5.317 1.767 10.339 3.24 15.065 3.239 9.748 8.54 19.2 13.252 28.653 2.356 4.726 5.006 9.747 6.773 14.769 2.062 5.022 3.534 10.339 4.712 15.951 2.062 10.929 2.062 22.449-.883 33.379-4.123 15.655-13.547 30.129-25.621 40.763-12.074 10.93-27.683 17.723-43.291 20.382-15.903 2.658-31.805 2.068-47.413-.591-7.657-1.181-15.314-2.954-22.971-5.021-7.657-2.068-15.019-4.727-22.087-8.567s-13.841-8.566-19.142-14.769c-5.301-6.203-9.424-13.292-11.78-21.268-1.178-3.84-1.767-7.68-2.356-11.815-.294-4.431.589-8.567 1.473-12.407.883-3.84 2.061-7.384 2.356-10.929.294-3.545 0-7.385-.295-11.225-.883-7.68-2.356-15.065-2.945-23.04-.294-3.84-.294-7.976.589-12.406.884-3.84 2.062-7.68 3.24-11.52 2.65-7.385 6.184-14.77 10.896-21.268 5.301-5.613 10.896-11.52 17.375-15.951Zm2.65 3.544c-5.889 4.136-11.19 10.044-15.313 16.247-4.123 6.203-7.363 12.997-9.719 20.086-1.178 3.545-2.061 7.385-2.945 10.929-.589 3.25-.883 7.09-.589 10.93.295 7.384 1.767 15.065 2.356 23.04.295 3.84.589 7.975 0 12.111-.294 4.135-1.472 7.975-2.356 11.815-.883 3.545-1.767 7.09-1.178 10.634.589 3.545 1.178 7.385 2.356 10.93 2.356 7.089 5.89 13.587 10.897 18.904 5.006 5.317 11.19 9.748 17.669 12.998 13.253 6.793 28.566 9.452 43.291 11.815 15.019 2.068 30.333 2.363 44.763-.591 7.363-1.477 14.43-3.84 20.909-6.794 6.479-3.249 12.664-7.384 18.259-12.111 11.191-9.452 19.437-22.154 23.559-36.332 2.945-9.748 3.829-20.087 2.356-30.13-1.472-10.043-4.712-20.086-9.129-29.834-4.712-9.452-10.013-18.905-13.547-29.243-1.767-5.022-2.945-10.634-3.534-15.951-.294-2.659-.589-5.317-1.178-7.385 0-.591-.294-.886-.589-1.181 0-.296-.294-.296-.589-.296-.589-.295-1.767-.295-3.239 0-1.178 0-2.65.296-3.828.296l-3.829.59c-2.65.296-5.301.591-8.246.886-5.595.296-10.896 0-16.491-.59-5.301-.591-10.602-2.068-15.903-3.545-5.301-1.477-10.307-3.545-15.019-5.022a76.783 76.783 0 0 0-30.628-2.658c-10.012.591-20.025 3.84-28.566 9.452Z"/><path fill="#762DD7" d="M100.128 42.24c10.896 15.065 31.805 35.447 66.261 46.081 16.492 5.022 19.142 23.336 12.663 38.105-10.307 23.336-30.038 22.745-50.064 9.157-10.307-7.089-18.847-16.837-25.621-27.471-12.368-18.314-20.614-43.127-18.258-65.576 1.472-15.36 4.417-15.065 15.019-.296Z"/><path fill="#AF62F1" d="M121.626 129.971c2.356 2.067 4.712 3.84 7.362 5.612 2.062 1.477 4.123 2.658 6.479 3.84 9.129-2.068 17.67-6.794 24.149-14.474 7.656-9.452 12.074-22.745 10.896-35.151-1.178-.59-2.356-1.182-3.829-1.477-2.356-.886-5.006-1.477-7.067-2.363.883 2.658 1.766 5.612 1.766 8.566 0 10.043-3.239 19.496-11.19 26.29-9.719 7.68-18.848 9.452-28.566 9.157Zm-5.301-24.222c16.786-3.249 21.203-16.246 20.614-30.13l9.719 5.317c-.884 12.111-7.657 24.222-17.67 30.721-5.301 3.544-12.074 5.317-19.142 5.907-2.356-2.954-4.712-5.907-6.773-9.157-.295-.59-.884-1.181-1.178-1.772 4.712.295 9.423 0 14.43-.886Zm-27.094-44.9c-1.178.296-2.356.592-3.828.592-.294-2.954-.589-5.613-.589-8.567 7.657 0 12.074-5.317 14.725-11.815.294.295.589.59.589.886 1.472 2.068 2.945 4.136 4.712 6.203-2.945 6.203-8.835 10.93-15.609 12.702Zm2.945 22.155c8.835.295 15.609-4.135 20.026-11.52 2.356-4.135 2.65-8.271 2.356-12.406 2.65 2.658 5.595 5.021 8.835 7.68-1.178 10.338-6.774 19.79-17.081 24.222-3.534 1.476-7.657 2.363-11.78 2.658-1.472-3.25-2.945-6.794-4.123-10.339.59-.59 1.178-.295 1.767-.295Z"/><path fill="#3D176E" d="M85.109 42.536c.589-5.613 1.472-9.157 2.65-10.634-1.178 25.699 9.718 51.988 25.916 72.074 13.841 17.133 35.633 34.856 58.015 33.675-10.896 11.52-26.799 8.861-42.702-2.068-10.307-7.089-18.847-16.837-25.621-27.471-12.368-18.019-20.614-42.831-18.258-65.576Z" opacity=".44"/><path fill="#762DD7" d="M115.147 106.044c2.356 2.954 5.006 5.613 7.951 8.566-4.123 1.477-8.54 2.659-12.958 2.954-2.356-2.954-4.712-5.907-6.773-9.157-.295-.59-.884-1.181-1.178-1.772 4.123.295 8.54 0 12.958-.591Zm20.32 33.379c-2.061-1.182-4.123-2.363-6.479-3.84-2.65-1.772-5.006-3.545-7.362-5.612 5.89.295 11.485-.296 17.081-2.659 3.534 2.363 7.362 4.431 11.19 5.908-4.417 2.954-9.423 5.021-14.43 6.203ZM90.41 82.709h1.766c2.65 0 5.007-.296 7.068-.886 1.472 3.249 3.239 6.203 5.301 9.157-2.945.886-6.479 1.772-9.718 1.772-1.767-2.954-2.945-6.499-4.418-10.043Zm.588-22.449c-.589.294-1.178.294-1.767.59-1.178.295-2.356.59-3.828.59-.294-2.953-.589-5.612-.589-8.566 1.472 0 2.945-.295 4.417-.59a38.79 38.79 0 0 0 1.767 7.975Z"/><path fill="#000" d="M101.306 41.354c7.657 10.93 17.964 19.791 28.86 27.176 11.191 7.385 23.265 12.702 35.929 16.542 3.239 1.181 7.067 2.658 10.012 5.021 2.945 2.363 5.301 5.908 6.479 9.157 2.651 7.09 2.062 14.77 0 21.268-.883 3.545-2.65 6.499-4.417 9.453l-2.651 4.43c-1.178 1.477-2.061 2.954-3.239 4.136-4.712 5.317-12.369 8.566-19.731 8.271-7.363-.296-14.136-2.954-20.32-6.499-6.185-3.544-11.78-7.68-16.786-12.701-10.013-9.748-18.26-21.268-23.56-33.97-2.65-6.499-4.712-12.997-6.479-19.496-1.767-6.794-3.24-13.587-3.534-20.381 0-1.773-.294-3.545 0-5.317 0-1.773 0-3.545.295-5.317.294-3.545.589-6.794 2.061-10.634.295-.887.884-1.773 1.767-2.954 0-.296.59-.591.884-.886.294-.296.589-.591 1.177-.591.295 0 .884-.296 1.473-.296.294 0 .883 0 1.178.296 1.473.59 2.062 1.181 2.945 1.772.589.591 1.472 1.477 1.767 2.068 2.061 3.84 3.828 6.794 5.89 9.452Zm-2.356 1.773c-2.062-2.659-4.123-5.317-6.479-7.68-.589-.591-1.178-1.182-1.767-1.477-.294-.296-.589-.296-.883-.591-.295 0-.59-.295-.59-.295-.294.295-.294.886-.588 1.476-.59 2.954-.884 6.203-1.178 9.453-.295 3.25-.295 6.498-.295 9.748.295 12.997 3.829 26.29 10.013 38.105 3.239 5.907 6.773 11.224 10.307 16.837 3.829 5.317 7.952 10.634 12.369 15.36 4.417 4.726 9.718 8.861 15.314 12.111 5.595 3.249 11.485 5.908 17.669 6.203 6.185.591 12.369-1.477 17.081-5.612 1.178-.887 2.061-2.364 3.239-3.545.884-1.477 2.062-2.659 2.651-4.136 1.472-2.953 2.65-5.907 3.239-9.157 1.178-6.203.884-12.997-1.767-18.314-1.178-2.658-2.945-5.021-5.301-6.793-1.178-.887-2.356-1.773-3.828-2.364-.589-.295-1.472-.59-2.061-.886-.589-.295-1.473-.59-2.356-.886-12.958-4.135-25.621-10.338-36.518-18.61-10.602-7.975-20.32-18.018-28.271-28.947Z"/></g><defs><clipPath id="a"><path fill="#fff" d="M0 0h460v602H0z"/></clipPath></defs></svg>