<svg xmlns="http://www.w3.org/2000/svg" width="401" height="531" fill="none"><path fill="#EBF2FC" d="m365.252 448.29-6.994-11.667c-17.615-29.558-27.2-24.113-31.863-24.372-6.476-.519-12.952.778-19.687 2.852-8.808 2.593-16.579 5.186-25.646 3.63-8.03-1.297-15.542-7.26-22.795-10.89-6.217-3.111-12.694-4.667-19.429-5.185-31.085-1.297-62.17 28.779-50.513 57.3 2.072 4.926 4.922 9.593 8.289 13.742 6.994 8.556 16.061 16.075 25.905 21.779 23.573 13.223 43.001 18.149 70.978 4.667 13.211-6.223 25.386-15.297 35.23-23.076 9.584-7.519 17.096-11.927 24.868-9.593 16.579 4.926 24.609 3.111 11.657-19.187Z"/><path fill="#D0D9E6" d="M369.137 469.033c-10.102-12.186-28.235-10.112-44.037-5.186-11.398 3.63-22.537 8.556-34.194 11.927-10.103 2.852-24.35 4.926-33.157-2.593-7.254-6.223 1.295-18.668 4.921-24.631 5.44-8.297 12.175-15.816 18.133-24.113 1.296-1.815 2.332-3.371 3.368-5.186-1.036 0-2.331-.259-3.368-.518-8.03-1.297-15.542-7.26-22.795-10.89-6.217-3.111-12.694-4.667-19.429-5.185-31.085-1.297-62.17 28.779-50.513 57.3 2.072 4.926 4.922 9.593 8.289 13.742 6.994 8.556 16.061 16.075 25.905 21.779 23.573 13.223 43.001 18.149 70.978 4.667 13.211-6.223 25.386-15.297 35.23-23.076 9.584-7.519 17.096-11.927 24.868-9.593 6.994 2.074 12.693 3.111 15.801 1.556Z"/><path fill="#000" d="m363.956 449.328-8.03-12.445c-2.59-4.149-5.181-8.297-8.03-11.927-3.109-3.63-6.476-7.26-10.362-9.334-2.072-1.037-4.145-1.556-6.476-1.556-1.036 0-2.332 0-3.627.26h-3.886c-4.662 0-9.325 1.037-13.988 2.333-4.663 1.297-9.325 3.111-14.247 4.149-4.922 1.037-10.362 1.555-15.543.518-5.44-1.037-10.103-3.37-14.506-5.963-4.404-2.334-8.549-4.927-12.694-6.482-4.403-1.556-8.807-2.334-13.47-2.593-9.066-.259-18.133 2.334-26.163 6.741-7.772 4.667-14.507 11.149-18.651 18.928-1.037 2.074-2.073 3.889-2.591 5.963-.777 2.074-1.036 4.148-1.295 6.223-.259 1.037 0 2.074 0 3.111v1.556c0 .518.259 1.037.259 1.555l.518 3.111 1.036 2.853c2.85 8.296 8.29 15.556 14.766 22.297 3.108 3.371 6.735 6.482 10.621 9.334 3.626 2.852 7.771 5.186 12.175 7.519 8.548 4.667 17.356 8.038 26.681 9.075 9.326 1.037 18.651-.259 27.459-3.63 8.807-3.37 17.615-7.778 25.645-12.964 4.145-2.592 8.03-5.444 12.175-8.296 3.886-2.853 7.771-5.964 12.175-8.557 4.145-2.592 8.808-5.185 14.248-5.444 2.59-.26 5.44.777 7.512 1.296l6.994 1.556c2.332.259 4.663.259 6.217-.778 1.295-1.037 1.554-3.371.777-5.445-.777-4.667-3.367-8.815-5.699-12.964Zm2.591-1.815c2.331 4.408 4.922 8.816 5.958 14.001.259 1.296.518 2.593.259 4.149-.259 1.555-1.036 3.111-2.332 3.889-2.59 1.815-5.44 1.555-8.03 1.296-2.59-.259-4.922-.778-7.512-1.556-2.591-.777-4.663-1.296-6.735-1.037-4.404.26-8.808 2.593-12.693 5.445-15.284 11.927-30.568 25.15-49.737 32.41-9.326 3.63-19.946 5.445-30.308 4.667-10.362-1.037-20.205-4.667-29.013-9.075-9.067-4.148-18.133-9.593-25.904-16.334-3.886-3.371-7.513-7.001-10.88-11.409-3.109-4.407-5.958-9.074-7.512-14.26-.519-1.296-.778-2.593-1.296-4.148l-.518-4.149c0-.778-.259-1.296-.259-2.074v-2.074c0-1.297 0-2.852.259-4.149.518-2.852 1.036-5.444 2.073-8.037.777-2.593 2.072-5.186 3.367-7.519 2.85-4.667 5.958-9.075 10.103-12.446 3.885-3.629 8.289-6.481 12.952-9.074 9.326-4.667 19.946-7.26 30.567-6.482 5.181.518 10.362 1.815 15.284 3.63 4.922 2.074 9.066 4.926 13.211 7.519s8.289 4.926 12.434 5.704c4.404 1.037 9.067.778 13.729 0 4.663-.778 9.326-2.334 14.248-3.63 4.922-1.296 9.844-2.074 15.024-2.074 1.296 0 2.591.259 3.627.259 1.036 0 2.59-.259 3.886-.259 2.59 0 5.44.778 7.771 2.074 4.663 2.333 8.289 6.223 11.657 9.853 3.109 3.889 5.958 8.037 8.808 12.186 2.849 4.148 5.18 8.556 7.512 12.704Z"/><path fill="#EBF2FC" d="M120.196 230.238c-19.169-9.334-57.767-22.038-103.1 1.815-15.542 8.038-17.614 40.188 11.399 43.818 14.506 1.815 28.754 1.815 41.965 8.556 9.844 5.186 18.392 11.408 29.53 13.223 16.321 2.593 34.454-6.741 39.635-22.816 2.849-9.075 2.849-17.631 0-24.891-3.368-8.297-9.844-15.038-19.429-19.705Z"/><path fill="#D0D9E6" d="M120.196 230.238c-8.03-3.889-19.169-8.297-32.898-10.371.777.778 1.813 1.556 2.59 2.593 10.362 11.149 14.247 30.854 2.072 41.744-10.88 9.852-26.163 7.778-39.633 8.296-6.217.26-12.434 1.556-18.133 4.149 12.434 1.296 24.868 2.074 36.266 8.038 9.843 5.185 18.392 11.408 29.53 13.223 16.321 2.592 34.454-6.742 39.634-22.817 2.85-9.074 2.85-17.631 0-24.89-3.367-8.557-9.843-15.298-19.428-19.965Z"/><path fill="#000" d="M120.196 230.238c-12.952-6.222-27.2-10.112-41.447-11.149-7.253-.518-14.506 0-21.5 1.037-3.627.778-6.995 1.037-10.621 2.075-1.813.518-3.368.777-5.181 1.296l-5.18 1.815c-1.814.518-3.368 1.296-4.923 1.815l-4.922 2.074-4.662 2.334-2.332 1.296c-.777.519-1.554.778-2.331 1.296-.518.519-1.295.778-1.813 1.556l-1.814 1.815c-1.036 1.296-2.072 2.593-2.59 4.148-1.554 2.852-2.332 6.223-2.332 9.594-.777 6.482 1.814 12.964 6.995 16.853 1.036 1.037 2.59 1.815 4.144 2.592 1.555.778 3.109 1.297 4.663 1.815 1.554.26 3.368.778 4.922 1.037l5.44.519c7.253.778 14.506 1.296 21.76 3.111 3.626.778 7.253 1.815 10.62 3.371 3.627 1.556 6.736 3.371 9.844 5.186 6.217 3.629 12.175 7.519 18.91 9.593 3.368 1.037 6.735 1.555 10.103 1.815 3.368 0 6.994-.519 10.362-1.297 6.735-1.815 12.952-5.704 17.356-11.149 4.662-5.444 6.994-12.445 7.512-19.445.518-7.001-1.036-14.52-4.922-20.483-3.886-6.742-9.585-11.408-16.061-14.52Zm0 0c6.476 3.112 12.434 7.519 16.579 13.742 4.145 5.963 5.958 13.482 5.44 20.742-.518 7.26-2.59 14.52-6.994 20.483-4.404 5.963-10.88 10.371-17.874 12.705-3.627 1.296-7.253 1.814-11.139 2.074-3.886 0-7.512-.26-11.139-1.297-7.253-1.815-13.73-5.704-20.205-9.074-3.109-1.815-6.217-3.371-9.585-4.667-3.108-1.297-6.476-2.075-10.103-2.852-6.735-1.556-13.988-2.075-21.241-2.852l-5.44-.519c-1.814-.259-3.886-.778-5.7-1.037-1.813-.519-3.626-1.296-5.44-2.074-1.812-1.037-3.626-1.815-4.92-3.371-6.477-5.185-9.326-13.482-8.55-21.261.26-3.889 1.555-7.778 3.368-11.149.777-1.815 2.073-3.37 3.368-4.926l2.072-2.074c.777-.778 1.554-1.037 2.59-1.556.778-.518 1.555-1.037 2.591-1.296l2.59-1.037c1.555-.778 3.368-1.556 4.922-2.334l5.181-1.815c1.813-.777 3.368-1.296 5.181-1.815l5.18-1.555c1.814-.519 3.628-.778 5.44-1.297 3.627-.777 7.254-1.296 10.88-1.815a101.854 101.854 0 0 1 21.76 0c13.989 1.556 27.977 5.445 41.188 11.927Z"/><path fill="#EBF2FC" d="M316.293 271.982c-20.724-49.003-73.31-77.005-125.378-73.376-9.325.778-18.392 2.593-26.681 5.705-22.537 8.556-37.821 18.927-43.261 37.595-8.03 26.705-22.795 43.558-28.753 50.818-14.507 17.112-29.272 36.04-32.122 58.856-4.404 33.188 11.657 59.375 35.748 76.487-9.066 10.63-16.838 21.001-22.278 30.335-12.693 21.002-3.108 16.853-25.386 19.446-13.73 1.556-11.139 15.038-3.627 22.298 26.682 25.928 59.062 37.595 78.75 19.446 16.579-15.816 29.531-29.558 45.592-39.929 14.247-9.075 32.898-12.705 50.772-17.89 29.013-8.038 54.14-9.075 87.557-58.078 24.868-36.818 25.386-93.34 9.067-131.713Z"/><path fill="#D0D9E6" d="M316.293 271.982c-6.477-15.297-16.061-28.521-27.718-39.41 2.331 12.704 3.626 25.928 4.922 38.632 4.144 37.595 2.849 74.931-14.248 109.156-14.765 30.076-41.965 57.559-74.086 68.19-16.32 5.185-33.417 8.556-47.923 18.409-10.88 7.519-19.429 18.408-28.495 28.001-13.471 14.261-28.236 22.817-48.183 21.002-10.88-1.037-20.982-5.445-30.567-11.149 25.646 22.298 54.918 31.373 73.31 14.26 16.579-15.297 29.531-29.039 45.592-39.41 14.247-9.075 32.898-12.704 50.772-17.89 29.013-8.038 54.14-9.075 87.557-58.078 24.868-36.818 25.386-93.34 9.067-131.713Z"/><path stroke="#000" stroke-miterlimit="10" stroke-width="2.455" d="M316.293 271.982c-20.724-49.003-73.31-77.005-125.378-73.376-9.325.778-18.392 2.593-26.681 5.705-22.537 8.556-37.821 18.927-43.261 37.595-8.03 26.705-22.795 43.558-28.753 50.818-14.507 17.112-29.272 36.04-32.122 58.856-4.404 33.188 11.657 59.375 35.748 76.487-9.066 10.63-16.838 21.001-22.278 30.335-12.693 21.002-3.108 16.853-25.386 19.446-13.73 1.556-11.139 15.038-3.627 22.298 26.682 25.928 59.062 37.595 78.75 19.446 16.579-15.816 29.531-29.558 45.592-39.929 14.247-9.075 32.898-12.705 50.772-17.89 29.013-8.038 54.14-9.075 87.557-58.078 24.868-36.818 25.386-93.34 9.067-131.713Z"/><path fill="#EBF2FC" d="M390.379 315.8c-6.735-17.631-17.615-33.447-30.567-47.189-8.03-8.556-17.615-17.371-28.236-23.335-10.362-5.704-34.712-20.483-55.694 3.112-6.735 7.519-10.88 17.89-11.139 27.742-.518 21.78 17.097 42.003 31.862 55.745 13.73 12.705 30.049 23.854 46.628 31.891 13.729 6.741 30.567 10.631 43.261 0 14.506-11.408 9.584-33.447 3.885-47.966Z"/><path fill="#000" d="M389.343 316.059c-6.217-15.557-15.284-30.076-26.423-42.521-5.439-6.223-11.657-12.186-18.133-17.631a90.195 90.195 0 0 0-10.102-7.26c-3.627-2.074-7.254-4.148-10.88-5.963-7.512-3.63-15.543-5.964-23.573-5.445-3.886.259-7.772 1.555-11.398 3.37-1.554 1.038-3.368 2.075-4.922 3.371l-2.331 1.815-2.073 2.074c-5.699 5.704-9.325 13.223-10.88 21.002-1.554 7.778-.518 15.816 2.591 23.075 2.849 7.519 7.512 14.261 12.693 20.742 5.181 6.482 11.139 12.187 17.097 17.891 12.434 11.149 26.163 20.742 40.67 28.261 7.253 3.889 14.765 7 22.537 8.037 3.885.519 7.771.519 11.398-.518 3.626-1.037 7.253-2.593 10.102-5.186 2.85-2.333 5.181-5.704 6.476-9.334 1.296-3.63 1.814-7.778 1.814-11.667 0-8.038-1.814-16.075-4.663-24.113Zm1.813-.778c3.368 7.779 5.958 16.075 6.476 24.891.259 4.408 0 8.815-1.554 13.223-1.295 4.408-3.886 8.556-7.253 11.668-3.368 3.111-7.512 5.444-11.916 7-4.404 1.296-9.067 1.556-13.73 1.296-9.066-.777-17.614-4.148-25.127-8.037-15.283-7.779-29.79-17.372-42.483-29.039-6.217-5.964-12.175-12.186-17.615-18.928-2.59-3.37-5.181-7-7.512-10.889-2.332-3.889-4.404-7.778-5.699-11.927-3.109-8.297-4.145-17.89-2.073-26.705 2.073-8.816 6.736-16.854 13.212-22.817l2.331-2.333 2.591-2.075c1.813-1.555 3.885-2.333 5.698-3.37 4.145-1.815 8.549-3.112 12.953-3.371 9.066-.518 17.615 2.593 25.127 6.482 3.886 2.074 7.512 4.149 11.139 6.223 3.626 2.333 6.994 4.926 10.362 7.519 6.476 5.445 12.434 11.667 18.133 17.89 11.398 12.964 20.982 27.483 26.94 43.299Z"/><path fill="#AF62F1" stroke="#000" stroke-miterlimit="10" d="M362.661 365.581c-.259 1.296-.259 2.074 0 3.371 0 .777.259 1.555.518 2.333 0 .259 2.591 5.963 5.699 5.963 2.85 0 5.699-2.592 5.699-5.704 0-1.296-.259-2.592-.777-3.889-.518-1.556-2.072-3.889-3.885-4.667-3.109-1.556-6.477-.518-7.254 2.593Zm16.32-2.593c.259 1.297 2.073 3.889 3.109 4.927 1.813 1.814 4.663 1.814 6.735 0 1.813-1.815 1.813-4.667 0-6.742-.777-1.037-1.813-1.555-2.85-2.333-1.295-.778-2.849-.778-3.626-.778-.259 0-2.591.778-3.109 2.333-.259 1.038-.259 1.815-.259 2.593Zm12.693-7.519c1.295 1.556 3.109 2.334 5.181 1.815 1.813-.259 2.85-2.074 2.85-3.63.259-2.593-1.814-4.148-3.886-4.926-1.813-.778-4.663-.259-5.44 1.556-1.036 2.074.259 3.889 1.295 5.185Z"/><path fill="#07090F" d="M268.887 296.095c7.254 16.334 18.911 30.335 32.122 42.003 11.398 10.371 25.645 21.52 40.67 25.409.259 0 .518-.519.259-.519-6.217-4.148-12.952-7.259-19.169-11.149-7.254-4.407-13.73-9.593-20.206-15.297-13.47-11.667-24.091-25.409-33.676-40.447Z"/><path fill="#AF62F1" stroke="#000" stroke-miterlimit="10" d="M15.284 277.427c2.072.518 3.885 0 5.698-.778.778-.259 1.555-1.037 2.332-1.815 1.295-1.297 1.813-2.852 2.072-4.667.26-2.593-2.59-5.445-5.18-5.186-1.814.26-2.85.519-4.404 1.556-.778.519-1.296 1.296-1.814 2.074-1.036 1.297-1.813 3.112-1.554 4.667-.259 2.074 1.036 3.63 2.85 4.149Zm-3.627-25.15c-.777-.519-1.813-.778-2.59-.778-1.037 0-1.814.259-2.591.519-1.813.777-3.109 1.555-4.404 3.111-2.331 3.111.777 7.778 4.404 7.778 1.554 0 2.59-.518 3.886-1.296.259-.259.777-.259 1.036-.519 1.295-.778 2.331-1.815 2.59-3.37.26-1.037 1.036-3.371-2.331-5.445Zm3.627-10.112c-.26-.778-.519-1.815-1.296-2.333-1.554-1.815-4.403-2.853-6.217-2.853-3.108 0-5.958 2.593-5.958 5.964 0 3.37 2.59 5.704 5.958 5.963 2.073 0 4.922-1.037 6.476-2.852 1.037-1.296 1.296-2.593 1.037-3.889Z"/><path fill="#07090F" d="M148.432 496.257c19.169-17.112 40.929-26.187 65.797-30.854 20.206-3.889 43.52-9.853 59.062-24.113.259-.259 0-.519-.259-.519-20.723 10.89-42.224 17.631-64.761 22.298-22.278 4.927-45.592 14.52-59.839 33.188-.259 0-.259-.259 0 0ZM73.05 462.032c8.549-11.927 16.32-23.853 26.94-33.965 12.953-12.446 18.393-16.594 26.941-22.557.259-.26 0-.778-.259-.519-23.055 11.668-44.037 32.928-53.88 57.041h.258Z"/><path fill="#89D1F1" d="M123.823 270.426c-15.284 15.039-29.531 35.262-34.194 42.522-9.844 15.557-21.241 36.558-13.988 55.226 8.29 21.261 26.94 16.335 41.447 9.853 9.066-4.149 18.392-6.223 27.977-8.557 13.47-3.111 25.904-7 35.23-17.63 7.771-9.075 11.916-20.743 13.47-32.41 1.813-12.186.259-25.409-4.404-37.077-8.807-22.298-49.477-27.742-65.538-11.927Z"/><path fill="#1A83AF" d="M169.156 264.722c6.217 9.853 10.102 21.261 11.657 32.669 2.331 17.89-1.296 40.447-16.579 52.115-7.253 5.445-16.32 7.778-24.868 10.371-8.808 2.852-16.579 6.223-24.869 10.112-9.843 4.667-20.982 7.778-31.603 4.667-1.813-.519-3.627-1.297-5.18-2.074 9.066 16.075 26.163 11.408 39.374 5.444 9.066-4.148 18.392-6.222 27.977-8.556 13.47-3.111 25.904-7 35.23-17.631 7.771-9.074 11.916-20.742 13.47-32.409 1.813-12.186.259-25.409-4.404-37.077-3.368-8.297-10.88-14.26-20.205-17.631Z"/><path fill="#762DD7" d="M51.29 39.67c10.622 12.445 30.31 29.039 61.136 36.04 14.765 3.37 18.392 19.186 13.729 32.668-7.512 21.261-24.868 21.779-43.26 11.149-9.585-5.445-17.615-13.482-24.35-22.298C46.628 82.191 37.82 60.93 38.338 40.966c.26-13.482 2.85-13.482 12.953-1.296Z"/><path fill="#3D176E" d="M127.709 92.043c-4.922 3.112-9.844 5.964-15.284 7.779-13.211 4.667-27.459 1.815-38.598-5.964C54.4 80.376 43.26 55.745 39.374 32.41c-.518 1.555-1.036 4.407-1.036 8.556-.518 19.964 8.29 41.225 20.206 56.263 6.735 8.556 14.765 16.594 24.35 22.298 18.392 10.63 35.748 9.852 43.26-11.149 1.814-5.445 2.332-11.149 1.555-16.335Z" opacity=".44"/><path fill="#AF62F1" d="m50.773 39.15.518.52c1.295 1.555 2.85 3.37 4.403 4.926a19.565 19.565 0 0 1-3.626 2.852c-2.85 1.815-8.549 3.63-13.73 3.63-.259-2.334-.518-4.408-.518-6.742 5.44.26 9.844-1.814 12.953-5.185Zm34.97 27.225c-2.849-1.556-5.44-2.852-8.03-4.408-1.295 4.408-2.85 8.556-5.44 12.446-5.18 8.556-12.434 11.926-20.723 12.963 1.554 2.852 3.367 5.445 5.18 7.779 13.212-1.815 24.87-14.779 29.013-28.78Zm13.989 5.704c0 5.964-1.295 11.927-4.404 17.631-4.404 8.297-14.247 16.075-24.61 20.742 1.814 1.815 3.887 3.371 5.959 4.926 9.584-4.407 18.651-11.926 23.573-18.927 3.886-5.445 6.994-13.482 8.289-22.038a48.862 48.862 0 0 1-8.807-2.334Zm-57.767-6.482c.777 2.074 1.554 4.408 2.331 6.482 6.995 0 14.766-3.89 19.17-7.26 2.85-2.074 5.18-4.667 7.253-7.778l-6.217-4.667c-1.036 1.815-2.332 3.63-3.886 5.186-5.44 5.704-11.916 8.556-18.651 8.037Z"/><path fill="#762DD7" d="M62.688 84.265c-3.367 1.815-6.994 2.852-10.88 3.37 1.555 2.853 3.368 5.446 5.181 7.78 4.145-.779 8.29-2.594 11.917-5.187-2.073-1.814-4.145-3.889-6.218-5.963ZM86.52 100.34c-4.662 4.149-10.102 7.779-15.801 10.371 1.813 1.815 3.886 3.371 5.958 4.927 6.994-3.112 13.73-8.297 18.91-13.483-3.108-.259-5.958-1.037-9.066-1.815ZM38.597 51.337c1.555 0 3.368-.26 5.181-.519-.777-2.074-1.295-4.407-2.072-6.482-1.036.26-2.331.26-3.627.26.26 2.074.26 4.407.518 6.74ZM49.736 64.82c-2.59.777-5.18 1.036-7.77 1.036.776 2.075 1.553 4.408 2.33 6.482 2.85 0 5.7-.777 8.549-1.555a44.33 44.33 0 0 1-3.109-5.964Z"/><path fill="#000" d="M52.327 38.892c7.512 8.815 16.838 16.334 26.94 22.297 10.103 5.964 21.242 9.853 32.64 12.446 2.849.778 6.217 1.555 8.807 3.63 2.591 1.815 4.922 4.407 6.476 7.26 3.109 5.703 3.627 12.445 2.591 18.667-.518 3.112-1.554 6.223-2.591 9.075-.518 1.556-1.295 2.852-2.072 4.149-1.036 1.296-1.554 2.852-2.849 3.889-4.145 5.185-10.88 8.297-17.356 8.297-6.476 0-12.693-2.075-18.133-4.667-5.44-2.593-10.621-6.223-15.284-10.112-9.066-8.038-16.579-17.631-22.537-28.261-5.699-10.63-9.843-22.04-11.139-34.225-.259-3.111-.518-5.964-.518-9.075 0-3.111 0-5.963.777-9.075.26-.777.518-1.555 1.037-2.333.259-.26.777-.778 1.295-1.037.259 0 .518-.26 1.036-.26h.777c2.072.52 3.109 1.816 4.145 2.593 2.072 2.334 3.885 4.667 5.958 6.742Zm-1.813 1.555c-1.814-2.333-3.886-4.407-5.959-6.482-1.036-.778-2.33-1.815-3.108-2.074-.518 0-.518 0-.777.26-.26.518-.518 1.036-.518 1.555-.518 2.593-.777 5.704-.777 8.556 0 2.852.259 5.704.518 8.816 1.554 11.667 5.699 22.816 11.657 32.928 5.958 10.112 13.47 19.186 22.537 26.446 4.403 3.63 9.325 6.741 14.506 9.075 5.18 2.333 10.62 4.148 16.061 3.889 5.44 0 10.361-2.074 13.988-6.223 1.036-1.037 1.554-2.074 2.59-3.111.778-1.296 1.296-2.333 2.073-3.63 1.036-2.593 2.072-5.185 2.59-8.037 1.036-5.445.777-11.15-1.813-16.076-1.295-2.333-2.85-4.667-5.181-6.222-2.331-1.556-4.663-2.593-7.512-3.112-23.573-5.704-45.333-18.149-60.875-36.558Z"/><path fill="#EBF2FC" d="M299.455 42.781c-18.911-14.52-41.965-22.557-65.279-25.15-24.351-2.852-48.96 2.852-73.31 3.89-24.35 1.036-49.736-1.297-69.683-15.557-4.922-3.63-7.771-6.742-6.994 3.63 1.036 13.741 6.217 29.298 15.802 39.41 6.217 6.482 4.922 5.963-1.814 11.926-3.108 2.852-5.699 5.964-7.77 8.816-6.218 9.075-9.585 19.705-9.844 30.335-.26 8.038-.519 11.668 5.698 3.63 1.296-1.815 2.59-3.37 3.886-4.926 5.181-5.963 8.29-4.667 5.7 4.408L91.96 114.86c-5.44 15.816-11.916 31.113-18.133 46.67-6.217 15.557-11.139 31.632-12.434 48.226-.777 11.667.26 24.89 4.663 36.039 3.886 9.853 6.735 8.556 5.699-1.556-.259-3.629-.518-7.519-.259-11.148.259-8.297 3.109-5.964 5.958 3.111 8.548 27.224 31.085 49.781 56.472 62.745 12.952 6.741 11.657 4.408 5.699-5.963-.26-.519-.778-1.297-1.037-2.075-4.662-8.815 4.663-2.852 8.549-1.296l5.44 2.334c9.843 4.148 20.205 5.704 30.826 6.222 18.91 1.037 37.043 0 54.917 5.964 9.585 3.111 8.808-.26 10.103-7.519 2.59-12.705 10.362-22.817 19.428-32.929 3.109-3.37 6.476-7.259 9.844-11.149 11.139-13.482 5.699 4.149 6.476 0 .777-3.63-1.813 7.26-3.109 10.89-2.59 6.223-9.325 17.89 2.85 6.482 6.994-6.741 14.506-14.26 21.242-22.039 6.735-8.037 6.735-5.444 4.403 5.186-2.072 9.593-.259 10.371 6.476 1.815 4.404-5.704 8.808-11.408 12.175-17.89 4.145-8.297 7.254-17.372 9.844-26.447 5.181-18.149 7.512-36.817 7.253-55.744-.518-51.078-10.879-85.043-45.85-112.008Z"/><path fill="#D0D9E6" d="M258.267 200.94c-1.554-8.297-3.109-15.816-2.85-24.372.259-7.778 1.555-15.557 0-23.335-3.367-18.409-11.916-30.335-30.826-35.78-19.428-5.445-46.628-1.297-60.875 2.593-46.369 12.445-88.852 45.632-75.123 98.525 13.988 54.708 93.256 59.115 135.739 39.929 23.055-10.112 38.857-31.891 33.935-57.56Zm22.537-116.156c-10.621-7.779-27.977-10.63-33.158 3.889-3.627 9.852.518 24.89 5.44 31.631 8.807 12.705 30.308 17.631 39.115 2.334 7.513-13.223-.518-30.076-11.397-37.855Z"/><path fill="#D0D9E6" d="M345.046 155.048c-.259-37.595-5.699-65.597-22.018-88.414 1.295 2.334 2.331 4.667 3.367 7 10.88 23.854 25.127 70.265.518 152.456-3.367 10.889-6.994 7.26-6.994-2.852 0-10.89-12.693 10.63-18.392 18.927-8.289 12.186-9.067 2.593-9.585-2.593-.777-12.445-5.181-17.112-13.211-1.037-8.03 16.335-22.537 28.002-33.157 43.04-1.296 1.815-2.591 3.889-3.627 5.964-3.368 6.222-3.627 9.334-14.766 6.222-6.994-2.074-14.506-2.852-21.241-3.63-14.507-1.555-30.049 1.297-44.556-1.037-11.916-2.074-21.5-6.482-30.049-14.519-4.404-4.149-10.621-7.779-7.512 2.333.518 1.815 1.295 3.63 2.072 5.186 3.109 6.741 5.699 9.593-3.626 2.852-25.387-18.668-37.562-38.373-47.405-65.079-4.404-12.186-5.44-8.297-6.736-2.074-.777 3.63-2.85 5.963-2.85-.778 0-9.852 1.814-28.52 11.14-62.486-1.036 2.334-1.814 4.667-2.85 7.001-6.217 15.556-11.139 31.632-12.434 48.225-.777 11.668.26 24.891 4.663 36.04 3.886 9.852 6.735 8.556 5.699-1.556-.26-3.63-.518-7.519-.26-11.149.26-8.297 3.11-5.963 5.959 3.112 8.548 27.224 31.085 49.781 56.472 62.745 12.952 6.741 11.657 4.408 5.699-5.964-.26-.518-.778-1.296-1.037-2.074-4.662-8.815 4.663-2.852 8.549-1.296l5.44 2.333c9.843 4.149 20.205 5.704 30.826 6.223 18.91 1.037 37.043 0 54.917 5.963 9.585 3.112 8.808-.259 10.103-7.519 2.59-12.704 10.362-22.816 19.428-32.928 3.109-3.371 6.476-7.26 9.844-11.149 11.139-13.482 5.699 4.149 6.476 0 .777-3.63-1.813 7.26-3.109 10.89-2.59 6.222-9.325 17.89 2.85 6.482 6.994-6.742 14.506-14.261 21.242-22.039 6.735-8.037 6.735-5.445 4.403 5.186-2.072 9.593-.259 10.371 6.476 1.815 4.404-5.704 8.808-11.409 12.175-17.891 4.145-8.296 7.254-17.371 9.844-26.446 4.922-17.89 7.253-36.817 7.253-55.485Z"/><path fill="#89D1F1" d="M229.254 108.897c-13.729-9.334-36.525-14.001-59.321-5.186-25.127 9.593-40.67 5.704-46.369 4.926-9.844-1.296-9.067-.518-10.362 11.409-1.554 12.445-7.771 23.853-13.47 35.002-6.476 12.964-11.398 25.928-11.139 40.447.26 27.224 18.392 51.337 43.001 61.968 23.314 10.111 52.068 7.519 76.159 1.555 25.646-6.222 45.333-19.705 48.7-46.67 1.037-7.778-3.108-13.741-3.367-22.557-.518-11.408 2.331-25.668-.259-36.558-4.663-19.705-12.693-36.817-23.573-44.336Z"/><path fill="#EBF2FC" stroke="#000" stroke-miterlimit="10" d="M216.042 199.903c-1.036-1.297-2.849-2.852-4.921-4.149-4.404-2.593-7.772-5.185-7.254 4.408 0 2.593.778 5.445.778 6.482-.26 1.037 11.916-6.223 11.397-6.741Zm-101.027-.519c.777-1.296 2.332-2.852 3.886-4.148 3.627-2.593 6.217-5.186 5.958 4.407 0 2.593-.518 5.445-.518 6.482 0 1.297-9.844-5.963-9.326-6.741Z"/><path fill="#07090F" d="M106.208 104.748c5.958 5.963 17.615 6.222 25.386 7.26 10.88 1.037 21.242-.778 31.603-3.89 12.953-3.889 25.128-7.778 39.116-6.481 13.211 1.296 24.35 7.519 34.712 15.556.259.259.518-.259.518-.518-11.398-20.224-40.929-21.78-60.616-16.594-12.952 3.37-25.127 8.815-38.857 8.556-5.958 0-11.916-.778-17.615-1.815-4.663-.778-9.066-2.333-13.729-2.333-.518-.26-.777 0-.518.259Z"/><path fill="#1A83AF" d="M238.062 119.008c.518.778 1.295 1.556 1.813 2.334s.777 2.074 1.554 2.593h.518c1.036-1.815-1.554-5.964-3.626-5.445-.259.259-.259.518-.259.518Z"/><path fill="#89D1F1" stroke="#000" stroke-miterlimit="10" d="M281.322 144.158c-21.242 2.074-19.688 58.856-3.109 60.671 12.175 1.556 20.205-9.075 23.832-21.261 5.699-18.408 1.295-41.743-20.723-39.41Z"/><path fill="#1A83AF" d="M276.4 196.013c5.181-1.037 9.325-6.481 11.657-10.889 5.44-10.371 5.958-27.224-7.254-31.891-3.885-1.297-7.253-1.037-10.62.259-3.627 8.556-4.922 18.409-4.145 27.224v2.074c0 .778.259 1.297.259 2.075v1.037c.518 3.63 1.554 6.741 2.849 9.593 2.591.778 4.922 1.037 7.254.518Z"/><path fill="#07090F" d="M287.539 135.602c-8.549-.778-16.061 10.371-18.911 16.853-4.403 9.593-5.698 20.483-4.403 30.854.777 7.778 3.367 16.335 9.584 21.52 6.735 5.445 18.133 3.371 24.61-1.296.259-.259 0-.778-.26-.519-6.476 2.074-17.614 2.334-22.795-2.593-4.922-4.926-6.217-13.482-6.995-19.964-.777-8.297.778-16.594 3.368-24.631 3.109-9.075 9.326-13.483 16.061-19.705 0-.26-.259-.519-.259-.519Z"/><path fill="#E98DF7" stroke="#000" stroke-miterlimit="10" stroke-width=".691" d="M160.348 181.235c-1.554-3.371-3.886-6.741-6.735-9.334-2.591-2.334-4.663-2.074-7.253 0-1.555 1.296-8.29 7.519-8.808 10.112-.518 3.111 2.85 5.185 5.181 6.222 2.85 1.297 5.958 1.556 9.067 1.815 2.849.26 6.217.26 8.548-1.815 2.072-2.074 1.036-4.926 0-7Z"/><path fill="#07090F" d="M144.287 184.865c1.555-1.037 1.555-4.148 0-4.926a2.349 2.349 0 0 0-2.59 0c-.777.518-1.295 1.555-1.295 2.592 0 1.038.518 2.075 1.295 2.593.777.26 1.813.26 2.59-.259Zm9.067 1.556c2.072-1.038 2.072-4.927 0-5.964-1.036-.518-2.072-.778-3.109 0-.777.519-1.554 1.815-1.554 2.852 0 1.297.518 2.334 1.554 2.852 1.037 1.037 2.073.778 3.109.26Z"/><path fill="#EBF2FC" d="M204.645 147.529c-1.814-4.149-5.44-7.001-9.844-8.297-11.139-3.111-19.169 3.63-21.501 15.557-.777 4.407-.777 8.815.518 12.963 4.663 16.335 27.2 15.298 32.381-.518 1.813-6.482 1.295-14.001-1.554-19.705Z"/><path fill="#000" d="M204.127 147.788c-3.886-9.074-17.874-11.667-24.351-4.407-3.367 3.37-5.18 8.296-5.699 12.963-.518 4.667 0 9.853 2.073 14.001 1.036 2.075 2.331 3.89 4.404 5.445 1.813 1.297 4.144 2.334 6.476 2.593 4.662.778 9.584-.519 13.211-3.63 3.886-3.111 5.699-7.778 6.217-12.704.518-4.927-.259-9.853-2.331-14.261Zm1.036-.518c2.331 4.667 3.108 9.852 2.59 15.038-.518 4.926-2.331 10.371-6.476 13.742-3.886 3.629-9.325 5.185-14.765 4.407-2.591-.259-5.181-1.296-7.513-2.852-2.331-1.555-3.885-3.63-5.181-5.963-2.331-4.926-2.59-10.371-1.813-15.557.777-5.185 2.85-10.112 6.735-13.742 1.814-1.814 4.145-3.111 6.735-3.889 2.591-.778 5.181-.518 7.772 0 4.922.519 9.584 4.149 11.916 8.816Z"/><path fill="#07090F" d="M185.734 152.715c-1.554-.26-3.367.259-4.403 1.555-1.555 1.556-1.814 3.112-2.073 5.186-.259 1.815.518 4.148 2.073 5.185 2.59 1.815 6.476 2.334 8.289-1.037.259-.777.518-1.555.518-2.333.259-2.334-.259-5.186-1.036-6.223-1.036-1.555-2.072-2.333-3.368-2.333Z"/><path fill="#EBF2FC" d="M138.847 145.973c-1.554-3.371-3.885-5.964-6.994-7.001-7.771-2.592-13.47 3.112-15.024 12.705-.518 3.63-.518 7.26.259 10.63 3.367 13.483 18.91 12.446 22.536-.518 1.555-4.927 1.037-11.149-.777-15.816Z"/><path fill="#000" d="M138.329 145.973c-1.295-3.371-4.403-6.223-8.03-7.001-1.813-.259-3.627-.259-5.181.519-1.554.778-3.108 2.074-4.145 3.63-2.072 3.111-2.849 6.741-3.367 10.371-.259 3.63.259 7.519 1.554 10.63.777 1.556 1.554 3.112 2.85 4.408 1.295 1.037 2.849 2.074 4.662 2.334 1.814.259 3.368 0 5.181-.519 1.554-.519 3.109-1.815 4.404-3.111 2.331-2.852 3.627-6.482 3.886-10.371 0-3.371-.518-7.26-1.814-10.89Zm.777-.259c1.555 3.63 2.073 7.519 1.814 11.667 0 3.63-1.036 7.778-3.627 11.149-1.295 1.556-2.849 2.852-4.922 3.889-1.813.778-4.144 1.297-6.217 1.037-2.072-.259-4.144-1.296-5.699-2.592-1.813-1.297-2.849-3.112-3.626-5.186-1.555-3.889-1.555-8.038-1.296-11.927.519-3.889 1.555-7.778 4.145-11.149 1.295-1.555 2.85-3.111 4.663-3.889 1.813-.778 4.145-.778 5.958-.518 4.145.518 7.512 3.889 8.807 7.519Z"/><path fill="#07090F" d="M125.636 150.121c-1.036-.259-2.331.26-3.108 1.297-1.036 1.296-1.295 2.592-1.295 4.148-.26 1.296.259 3.371 1.295 4.408 1.813 1.555 4.663 2.074 5.699-1.037.259-.519.259-1.297.518-1.815.259-2.074-.259-4.149-.777-5.186-.777-1.037-1.555-1.815-2.332-1.815Z"/><path fill="#1A83AF" d="M172.523 177.346c1.295 4.148 4.922 7.778 8.808 9.334 5.958 2.333 10.361 1.815 15.542-1.815.259-.26 0-.519-.259-.519-4.144.778-9.325.778-13.47-.259-3.886-1.037-6.735-4.408-10.621-6.741Zm-52.327-1.556c4.663 3.63 11.916 2.593 15.802-1.556.259-.259 0-.518-.259-.518-2.591.518-5.44 1.296-8.289 1.555-2.332.26-4.663 0-7.254.519Z"/><path fill="#07090F" d="M109.576 194.717c10.102 16.076 31.603 21.261 49.218 22.298 23.832 1.556 48.7-5.963 66.056-23.075 1.036-1.038-.518-2.853-1.813-1.815-16.061 16.075-38.598 22.816-61.135 22.557-17.356-.26-40.151-5.445-49.995-21.261-1.036-1.296-3.368 0-2.331 1.296Z"/><path fill="#1A83AF" d="M143.251 235.165c3.109.777 5.699 1.296 9.067 1.555 3.626.26 6.476 1.297 9.584-.778 1.037-.777 1.296-1.814.778-3.111-1.555-3.889-5.44-4.408-9.326-4.408-4.404-.259-7.253.778-10.621 3.371-1.036.778-1.295 2.852.518 3.371Z"/><path fill="#07090F" d="M172.782 134.306c5.44-.519 10.88-2.074 16.579-2.074 5.181 0 9.585.518 14.248-1.815 1.295-.519 1.295-2.075.777-3.112-2.85-6.741-10.103-8.556-16.838-8.037-7.772.778-14.248 4.926-16.579 12.445-.259 1.296.777 2.593 1.813 2.593Zm-55.176-4.149c3.108 1.815 6.994 1.556 10.362 2.334 4.403 1.037 7.512 2.593 12.175 1.556 1.036-.26 1.813-1.297 1.813-2.334-.259-7-6.217-9.334-12.434-10.112-4.663-.518-11.657 1.037-12.693 6.482-.259.519 0 1.556.777 2.074Z"/><path fill="#1A83AF" d="M252.827 153.492c-1.554-6.741-3.627-13.223-5.958-18.927 1.036 8.815 1.036 17.631-.518 26.965-2.073 12.186-1.554 24.113-1.036 36.558.518 12.964-.518 25.928-10.103 35.521-5.44 5.704-13.211 9.075-20.206 12.704-7.512 3.63-15.542 6.482-23.573 8.816-29.012 8.038-60.098 3.371-80.821-19.446-10.362-11.408-15.802-26.187-17.356-41.225-1.036-8.297-.518-16.594.259-24.891v-.518c-3.109 8.556-5.181 17.371-5.181 26.965.259 27.224 18.392 51.337 43.001 61.967 23.314 10.112 52.068 7.519 76.159 1.556 25.646-6.223 45.333-19.705 48.7-46.67 1.037-7.779-3.108-13.742-3.367-22.557-.259-11.668 2.59-25.928 0-36.818Z"/><path fill="#000" d="M228.477 110.193c-7.513-5.186-16.32-8.038-25.387-9.334-9.066-1.037-18.392-.259-26.94 2.334-2.332.518-4.404 1.555-6.476 2.074-2.332.778-4.404 1.555-6.735 2.333-4.404 1.297-9.067 2.593-13.73 3.112-4.663.777-9.325 1.037-14.247.777-4.663 0-9.585-1.037-13.989-1.555-1.036 0-2.331-.26-3.108 0-.518 0-.777.259-1.036.259s-.259.259-.518.519c-.259.518-.518 1.815-.777 2.852l-.519 3.37c-.518 4.667-1.295 9.593-2.849 14.001-2.849 9.075-7.253 17.372-11.398 25.669-3.886 8.297-6.994 16.853-8.548 25.668-.778 4.408-1.296 9.075-1.296 13.483 0 3.889 1.296 8.296 2.85 12.445 4.663 12.186 11.139 23.853 19.946 33.447 4.404 4.926 9.585 9.074 15.025 12.186 5.699 2.852 12.175 4.926 18.651 6.222 12.952 2.593 26.422 2.075 39.634.26a240.5 240.5 0 0 0 19.687-3.89c6.476-1.555 12.693-3.629 18.651-6.741 5.958-2.852 11.398-6.741 15.802-11.408s7.771-10.371 9.844-16.334c1.036-3.112 1.813-6.223 2.072-9.334.518-3.112.259-5.964-.518-9.075-.777-3.111-1.814-6.482-2.332-10.112-.518-3.63-.518-7.26-.259-10.63.259-7.001 1.037-13.483.777-20.224 0-3.371-.259-6.482-1.036-9.593-.777-3.371-1.554-6.482-2.59-9.593-1.813-6.482-4.145-12.705-7.253-18.409-2.332-5.445-6.217-11.149-11.398-14.779Zm1.554-2.333c5.958 3.889 10.362 9.593 13.729 15.556 3.627 5.964 6.217 12.445 8.29 18.927 1.036 3.371 2.072 6.482 2.849 9.853.777 3.371 1.295 7 1.295 10.63.259 7.001-.518 13.742-.777 20.483 0 3.371-.259 6.741.259 9.593.518 3.112 1.296 6.223 2.073 9.594.777 3.37 1.295 7.26.777 10.889-.518 3.371-1.295 7.001-2.332 10.371-2.331 6.742-5.958 12.964-10.879 18.15-4.922 5.185-10.88 9.075-17.097 12.186-6.217 3.111-12.953 5.185-19.688 7a277.537 277.537 0 0 1-20.205 3.89c-13.47 1.815-27.459 2.074-41.188-.519-6.735-1.296-13.47-3.371-19.687-6.741-6.217-3.371-11.916-7.779-16.838-12.445-4.922-4.927-9.326-10.372-13.212-16.076-1.813-2.852-3.626-5.963-5.44-9.074l-2.33-4.667c-.26-.778-.778-1.556-1.037-2.334l-.518-1.296v-1.037s-.26 0 .259-.26c-1.554-4.667-2.59-9.334-2.331-14.778.259-4.927 1.036-9.594 2.072-14.261a106.524 106.524 0 0 1 9.844-26.705c4.144-8.297 8.807-16.335 11.398-24.891 1.554-4.408 2.331-8.556 2.849-13.223l.518-3.63c.259-1.296.259-2.333 1.036-3.889.259-.778 1.036-1.556 1.814-2.074.777-.519 1.554-.519 2.331-.778 1.295 0 2.59 0 3.886.259 4.921.519 9.066 1.556 13.729 1.556 4.404.259 9.066 0 13.47-.519 4.404-.518 9.067-1.555 13.471-2.852 4.403-1.296 8.548-3.111 13.211-4.408 17.874-5.185 38.338-2.852 54.399 7.52Z"/><path fill="#000" d="M298.419 44.336C278.99 29.298 254.64 21.52 230.29 19.186c-24.609-1.814-49.218 4.149-74.346 4.668-12.693.259-25.386-.519-37.82-3.63-6.217-1.556-12.175-3.63-18.133-6.482-1.554-.778-2.85-1.556-4.145-2.334-1.295-.778-2.85-1.555-4.144-2.593-1.296-.777-2.59-1.815-3.886-2.852-.518-.518-1.295-.777-1.554-1.037-.518.26-.778.26-.778.26h.26c.259 0 .518-.26.777-.26l.259-.259v2.852c0 1.556.259 2.852.259 4.408a48.199 48.199 0 0 0 1.554 8.815c1.295 5.964 3.627 11.668 6.476 16.853 1.554 2.593 3.109 5.186 4.922 7.26 1.036 1.296 1.813 2.074 3.108 3.37.519.52 1.037 1.297 1.555 1.816.518.777 1.036 1.296 1.813 2.592.259.519.518 1.297.518 2.334 0 1.037-.259 1.815-.777 2.333-.777 1.297-1.295 1.815-2.072 2.334l-3.627 3.111c-2.331 2.074-4.145 4.149-5.958 6.482-7.253 9.334-10.88 21.26-10.88 33.188v3.889s.26.259-.518-.519c-.518-.259-1.036-.518-1.554-.259-.26 0-.518.259-.518 0l.259-.259c.259-.26.518-.519.518-.778a88.604 88.604 0 0 0 5.699-7.26c1.036-1.296 2.331-2.593 3.885-3.89.778-.518 1.814-1.296 4.145-1.296.518 0 1.295.26 1.813.519.519.26 1.037.778 1.296 1.296.259.26.518.778.518 1.297 0 .26.259.778.259 1.037.259 2.333-.26 4.148-.518 5.704-.518 1.815-1.036 3.111-1.555 4.667a517.932 517.932 0 0 1-12.952 35.262c-4.662 11.667-9.584 23.075-13.47 34.743-3.886 11.667-6.476 23.594-6.994 35.78-.26 5.964 0 12.186 1.036 18.15 1.036 5.963 2.59 11.926 5.18 16.853.26.518.519 1.037 1.037 1.555 0 0 .26.519.26.26 0 0 0-.26-1.037-.26-.518 0-1.036.26-1.554.519l-.26.259s0 .259-.258.259v-2.074c0-1.296 0-2.852-.26-4.408-.258-1.555-.258-3.111-.258-4.926v-4.926c0-1.556 0-3.371.518-5.445 0-.259.259-.519.259-.778l.259-.518c0-.26.259-.519.259-.778.259-.259.259-.519.518-.519.259-.259.777-.518 1.036-.778.518-.518 2.331-.777 3.109-.518.518 0 .777.259 1.036.518.259.26.518.26.518.519l.518.519.259.259c.518.518.777 1.037 1.036 1.296 1.036 1.815 1.554 3.371 2.073 4.926l1.554 4.408c.518 1.297 1.036 2.852 1.554 4.149 1.036 2.852 2.59 5.444 3.886 8.037 2.85 5.186 6.217 10.371 10.102 15.038 7.513 9.594 16.579 17.631 26.682 24.372 4.922 3.371 10.362 6.482 15.802 9.075 1.295.519 2.849 1.296 3.626 1.556.259 0 .259-.26-.777.259-.259 0-.777.259-1.036.778-.259.259-.518.778-.518 1.037-.259.519 0 .778 0 .778s-.259-.778-.518-1.297c-1.296-2.592-2.85-5.185-4.404-8.037-.518-.778-.777-1.556-1.295-2.593-.259-.518-.259-1.037-.518-1.556 0-.777-.259-1.555.259-3.111.259-.778 1.036-1.556 1.813-1.815.518-.259.777-.259 1.036-.259h.777c1.036 0 1.555 0 2.073.259 1.036.259 1.813.519 2.849 1.037 1.554.778 3.109 1.556 4.404 2.074 1.295.519 2.849 1.297 4.145 1.815 5.44 2.593 11.138 4.149 17.096 5.186 11.917 2.074 24.351 1.815 37.044 2.333 6.217.26 12.693.778 18.91 1.815 3.108.519 6.217 1.037 9.326 2.075 1.554.259 3.108.777 4.662 1.296 1.555.519 2.85 1.037 4.145 1.037h1.295l.518-1.037c.259-.519.259-1.296.518-2.074.519-3.112 1.296-6.482 2.332-9.593 2.331-6.223 5.699-11.927 9.584-17.113 3.886-5.185 8.031-9.852 12.176-14.519l6.217-7.001c1.036-1.296 2.072-2.593 3.367-3.63.518-.518 1.295-1.296 2.072-1.815.519-.259 1.037-.518 1.814-.777.518 0 1.036-.26 1.813-.26.777 0 1.554.519 2.072 1.037 1.037 1.037 1.037 2.075 1.296 2.593v1.815c0 1.037-.259 1.815-.518 2.852l-.259.778c0 .259 0 .259-.259.519.259 2.074-9.585-2.593-5.44-1.556 0-.778.259-1.037.259-1.297-1.296.778 10.102 1.815 5.44 1.297v.259l-.259.519-.26 1.037a173.64 173.64 0 0 1-2.59 9.334c-1.295 3.111-2.59 5.963-3.627 8.556-.259.518-.518 1.296-.518 1.556v-.26c0-.259-.259-.518-.518-1.037-.518-.518-.777-.518-1.295-.518h-.518.259c.777-.519 2.072-1.556 3.108-2.593 4.404-4.149 9.067-8.556 13.212-12.964 2.072-2.333 4.144-4.408 6.217-6.741 2.072-2.334 3.885-4.667 6.217-7.26.777-.519 1.036-1.296 2.849-2.074.259 0 .259-.259 1.036-.259.519 0 1.037 0 1.555.259s.777.518 1.295 1.037c.259.518.259.518.518.778 0 .259.259.518.259.778v1.296c0 2.074-.518 3.371-.777 5.186-.518 3.111-1.554 6.222-1.554 8.556v.259s0-.259-.259-.259l-.518-.519c-.259 0-.519-.259-.519-.259h-.518l.518-.519c1.037-.778 1.814-2.074 2.85-3.111 1.813-2.334 3.886-4.926 5.699-7.26a95.162 95.162 0 0 0 9.326-15.556c2.59-5.445 4.403-11.409 6.217-17.372 3.626-11.927 6.217-23.854 7.512-36.04s1.295-24.631.777-37.076c-.518-12.446-1.813-24.632-4.663-36.558-2.849-11.927-7.512-23.335-14.247-33.706-6.476-8.816-15.025-17.631-24.609-25.41Zm2.331-3.11c10.103 7.777 19.169 16.852 26.163 27.483 6.995 10.63 11.916 22.557 15.025 35.002 3.109 12.445 4.404 24.891 4.922 37.595.518 12.445.518 25.15-.777 37.855-1.296 12.445-3.886 25.15-7.513 37.076-1.813 5.964-3.885 11.927-6.476 17.89-2.59 5.964-5.958 11.409-9.843 16.594-1.814 2.593-3.886 4.926-5.699 7.519-1.036 1.297-2.073 2.593-3.627 3.63-.259.259-.777.519-1.295 1.037l-.259.259-.518.26c-.259 0-.518.259-.518.259h-1.037c-.518 0-1.813-.518-2.072-1.037-.259-.519-.777-1.037-.777-1.556 0-.259-.259-.778-.259-1.037v-.778c0-3.889 1.036-6.741 1.554-9.852.259-1.556.518-3.112.518-4.149 0 .26 0 0 .259.26.259.259.518.518.777.518.26.259.519.259 1.037.259h.518c.518-.259-.518.26-.777.778-1.814 1.815-3.886 4.667-5.958 7.001-2.073 2.333-4.145 4.667-6.477 7-4.403 4.667-8.807 8.816-13.47 13.223-1.295 1.038-2.331 2.075-4.145 3.371-.259.259-.518.259-1.036.519-.259 0-.259.259-.777.259h-1.295c-.518 0-1.295-.259-1.813-.778s-.777-1.037-.777-1.556c0-.259 0-.518-.26-1.037v-.518c.26-1.297.519-2.075.778-2.852 1.295-3.112 2.59-5.964 3.626-8.557 1.036-2.592 1.554-5.704 2.332-8.815l.259-1.037.259-.519v-.259c-4.922-.778 6.735 0 5.44 1.037l-.259 1.037c4.144 1.297-5.699-3.111-5.181-1.296v-.259c.259-.519.259-1.297.259-1.815v-.519s-.259 0 .259.519c.259.259.777.518 1.036.518h.518l-.259.26c-.518.259-.777.777-1.295 1.296-1.036 1.037-1.814 2.074-2.85 3.371l-6.217 7c-4.144 4.667-8.289 9.334-11.916 14.26-3.626 4.927-6.735 10.112-8.548 15.557-1.036 2.852-1.554 5.445-2.073 8.556-.259.778-.259 1.556-.518 2.593-.259.778-.518 1.815-1.295 3.111-.777 1.297-2.59 2.334-3.886 2.334-1.295.259-2.331 0-3.367 0-1.813-.26-3.368-.778-4.922-1.297-1.554-.518-2.849-.778-4.404-1.296-2.849-.778-5.958-1.296-8.807-1.815-5.958-1.037-12.175-1.556-18.392-1.815l-18.651-.519c-6.217-.259-12.694-.518-19.17-1.814-6.217-1.038-12.693-2.853-18.651-5.705-1.554-.777-2.849-1.296-4.404-2.074-1.554-.778-2.849-1.296-4.144-2.074-.518-.259-1.296-.519-1.555-.519h-.259.259s.259 0 .519-.259c.259-.259.777-.518 1.036-1.037l.259-.778s0 .259.259.519c.259.518.518 1.037.777 1.815 1.554 2.593 3.108 5.185 4.663 8.297.259.777.777 1.555 1.036 3.111 0 .518.259 1.037 0 2.074 0 .519-.259 1.037-.777 1.556-.518.518-1.036.778-1.555 1.037-1.813.518-2.331.259-3.108.259-2.331-.518-3.627-1.296-5.181-1.815-5.699-2.852-11.398-5.963-16.838-9.334-10.621-7-20.464-15.816-28.495-25.668a115.048 115.048 0 0 1-10.62-16.075c-1.555-2.852-2.85-5.704-4.145-8.816-.777-1.555-1.295-3.111-1.813-4.667l-1.555-4.408c-.518-1.296-1.036-2.852-1.554-3.629-.259-.26-.259-.519-.259-.519h.26c.258 0 .517.259.517.259.26 0 .518.26 1.036 0 .518 0 .777-.259 1.037-.259.258 0 .518-.259.518-.519v-.518.259c-.26 1.037-.26 2.334-.26 3.889v4.408c0 1.556.26 3.111.26 4.408.259 1.555.259 3.37.259 5.185v1.297c0 .518 0 1.037-.26 1.555 0 .519-.258 1.297-.777 2.075-.259.259-.259.518-.518.777-.259.26-.259.519-.777.778-.777.519-1.554 1.037-2.59.778-1.814 0-2.59-1.037-3.109-1.296-.518-.519-.777-1.037-1.295-1.297l-1.554-2.333c-2.85-6.223-4.663-12.445-5.7-18.927-1.035-6.482-1.294-12.964-1.035-19.446.777-12.964 3.626-25.409 7.512-37.336 3.886-12.186 9.067-23.594 13.73-35.003 4.662-11.667 9.066-23.075 12.951-35.002.518-1.556 1.037-2.852 1.296-4.408.259-1.296.518-2.852.518-3.37v.259c0 .26.518.519 1.036.519.777 0 .259 0-.26.259-.776.518-1.812 1.555-2.849 2.593-2.072 2.333-3.626 4.667-5.958 7.259-.259.26-.518.778-1.036 1.037l-.518.519c-.259.259-.518.519-.777.519-.26.259-1.036.518-1.554.518-.777 0-2.073 0-2.59-.778-.778-.778-1.037-1.037-1.296-1.555-.259-.519-.259-.778-.259-1.038-.518-2.333-.259-3.629-.259-5.444 0-12.964 4.145-26.187 12.434-36.558 2.072-2.593 4.404-4.927 6.735-7.26l3.368-3.111 1.036-1.038c0 .519 0-.259 0 0-.26-.518-1.295-1.815-2.331-2.852-1.037-1.037-2.332-2.333-3.109-3.63-2.072-2.592-3.886-5.185-5.44-8.037-3.108-5.704-5.44-11.927-6.735-18.15a57.044 57.044 0 0 1-1.554-9.593c-.26-1.556-.26-3.111-.26-4.926V5.704c0-.518 0-1.037.26-1.556.259-.518.518-1.296 1.295-2.074.518-.518 1.036-.778 1.813-.778.777-.259 1.036 0 1.554 0 .778.26 1.296.519 1.814.778l2.331 1.556c1.295 1.037 2.59 1.815 3.627 2.593l3.885 2.333c1.296.778 2.59 1.556 3.886 2.074a67.632 67.632 0 0 0 17.097 6.223c11.916 3.111 24.091 3.89 36.525 3.63 25.646-1.556 50.255-7.52 75.641-5.445 25.386 2.334 50.255 10.63 70.46 26.187Z"/><path fill="#762DD7" d="M322.251 37.595c-9.585 13.224-27.977 31.114-58.285 40.448-14.507 4.407-16.838 20.482-11.139 33.446 9.066 20.483 26.422 19.965 44.037 8.038 9.067-6.223 16.579-14.779 22.537-24.113 10.88-16.075 18.133-37.854 16.061-57.56-1.295-13.482-3.886-13.223-13.211-.259Z"/><path fill="#AF62F1" d="M303.34 114.601c-2.072 1.815-4.144 3.37-6.476 4.926-1.813 1.296-3.626 2.333-5.699 3.37-8.03-1.814-15.542-5.963-21.241-12.704-6.736-8.297-10.621-19.965-9.585-30.854 1.036-.519 2.072-1.037 3.368-1.296 2.072-.778 4.403-1.297 6.217-2.075-.778 2.334-1.555 4.926-1.555 7.52 0 8.815 2.85 17.112 9.844 23.075 8.548 6.741 16.579 8.556 25.127 8.038Zm4.663-21.261c-14.765-2.852-18.651-14.26-18.133-26.446l-8.548 4.666c.777 10.63 6.735 21.261 15.542 26.965 4.663 3.112 10.621 4.667 16.838 5.186 2.072-2.593 4.145-5.445 5.958-8.038.259-.518.777-1.037 1.036-1.555-4.145.259-8.289.259-12.693-.778Zm23.832-39.151c1.036.26 2.072.519 3.109.519.259-2.593.518-4.927.518-7.52-6.735 0-10.621-4.666-12.952-10.37-.26.259-.519.518-.519.777-1.295 1.815-2.59 3.63-4.144 5.445 2.849 5.186 7.771 9.334 13.988 11.149Zm-2.59 19.187c-7.772.259-13.73-3.63-17.615-10.112-2.073-3.63-2.332-7.26-2.073-10.89-2.331 2.334-4.922 4.408-7.771 6.741 1.036 9.075 5.958 17.372 15.025 21.002 3.108 1.296 6.735 2.074 10.361 2.333 1.296-2.852 2.591-5.963 3.627-9.075h-1.554Z"/><path fill="#3D176E" d="M335.462 38.114c-.518-4.926-1.296-8.038-2.332-9.334 1.036 22.557-8.548 45.633-22.796 63.263-12.434 15.298-31.344 30.595-51.29 29.817 9.584 10.112 23.573 7.779 37.561-1.815 9.067-6.222 16.579-14.778 22.537-24.112 11.139-16.335 18.392-38.114 16.32-57.82Z" opacity=".44"/><path fill="#762DD7" d="M309.039 93.6c-2.072 2.592-4.403 4.925-6.994 7.518 3.627 1.297 7.512 2.334 11.398 2.593 2.072-2.593 4.145-5.445 5.958-8.038.259-.518.777-1.037 1.036-1.555-3.626.259-7.512.259-11.398-.519Zm-17.874 29.557c1.814-1.037 3.627-2.074 5.699-3.371 2.332-1.556 4.404-3.111 6.476-4.926-5.18.259-10.102-.259-15.024-2.334-3.109 2.075-6.476 3.89-9.844 5.186 3.886 2.593 8.29 4.408 12.693 5.445Zm39.634-49.781h-1.554c-2.332 0-4.404-.26-6.217-.778-1.295 2.852-2.85 5.445-4.663 8.037 2.59.778 5.44 1.556 8.548 1.556 1.555-2.852 2.591-5.704 3.886-8.816Zm-.518-19.706c.518.26 1.036.26 1.554.519 1.036.26 2.073.519 3.109.519.259-2.593.518-4.927.518-7.52-1.295 0-2.591-.259-3.886-.518-.259 2.333-.777 4.667-1.295 7Z"/><path fill="#000" d="M323.287 38.373c-13.989 19.446-34.971 33.706-57.767 41.225-2.85 1.037-5.181 2.074-7.253 3.89-2.073 1.814-3.627 3.888-4.663 6.481-2.072 4.927-1.813 10.89-.518 16.075a48.703 48.703 0 0 0 3.108 7.779c.777 1.296 1.555 2.333 2.332 3.63 1.036 1.037 1.554 2.074 2.59 3.111 3.886 3.889 9.067 5.704 14.248 5.186 5.439-.26 10.62-2.334 15.801-4.927 4.922-2.852 9.585-6.222 13.73-10.371a101.246 101.246 0 0 0 20.464-28.261c4.922-10.63 8.549-22.039 9.067-33.706a50.106 50.106 0 0 0 0-8.816c-.259-2.852-.518-5.963-1.296-8.556-.259-.518-.518-1.296-.777-1.555-.259-.26-.259-.519-.777-.26-.777.26-2.072 1.297-2.849 2.334-2.073 2.074-3.886 4.407-5.44 6.741Zm-2.073-1.296c1.814-2.334 3.627-4.927 5.44-7 1.036-1.038 2.073-2.334 4.145-3.112.259 0 .518 0 .777-.26.259 0 .518 0 1.036.26s1.036.518 1.555 1.037c.518.778 1.036 1.556 1.295 2.333 1.036 3.112 1.295 5.964 1.554 9.075.259 3.112.259 5.964.259 9.075-.518 12.186-3.627 23.853-8.548 35.002-4.922 10.89-11.916 21.002-20.465 29.817-4.145 4.408-9.066 8.297-14.506 11.408-5.181 3.112-11.139 5.704-17.874 6.223-6.476.519-13.471-2.333-17.874-7-1.296-1.038-2.073-2.593-3.109-3.63-.777-1.297-1.813-2.593-2.331-4.149-1.296-2.852-2.591-5.704-3.368-8.815-1.554-5.964-1.554-12.705 1.036-18.668 1.296-2.852 3.368-5.704 5.699-7.779 2.591-2.074 5.699-3.37 8.549-4.148 11.139-3.37 22.018-8.297 31.603-15.038 9.585-7 18.392-15.297 25.127-24.631Z"/></svg>