<svg xmlns="http://www.w3.org/2000/svg" width="146" height="48" fill="none"><g filter="url(#a)"><rect width="145.496" height="47.206" fill="#fff" fill-opacity=".8" rx="14.266"/><path fill="#0F3356" d="M34.526 28.405a.351.351 0 0 1-.216-.072.351.351 0 0 1-.072-.216V11.893a.26.26 0 0 1 .072-.192.298.298 0 0 1 .216-.096h5.856c1.136 0 2.136.2 3 .6.864.4 1.528.976 1.992 1.728.48.736.72 1.6.72 2.592v6.96c0 .992-.24 1.864-.72 2.616-.464.736-1.128 1.304-1.992 1.704-.864.4-1.864.6-3 .6h-5.856Zm2.496-2.52c0 .08.04.12.12.12h3.36c.848 0 1.52-.264 2.016-.792.512-.544.776-1.264.792-2.16V16.98c0-.912-.256-1.632-.768-2.16-.512-.544-1.2-.816-2.064-.816h-3.336c-.08 0-.12.04-.12.12v11.76Zm22.132-4.992c.064.4.096.848.096 1.344l-.024.744c0 .192-.096.288-.288.288h-7.512c-.08 0-.12.04-.12.12.048.528.12.888.216 1.08.384 1.152 1.32 1.736 2.808 1.752 1.088 0 1.952-.448 2.592-1.344.064-.096.144-.144.24-.144a.23.23 0 0 1 .168.072l1.488 1.224c.144.112.168.24.072.384-.496.704-1.16 1.248-1.992 1.632-.816.384-1.728.576-2.736.576-1.248 0-2.312-.28-3.192-.84-.864-.56-1.496-1.344-1.896-2.352-.368-.864-.552-2.064-.552-3.6 0-.928.096-1.68.288-2.256.32-1.12.92-2 1.8-2.64.896-.656 1.968-.984 3.216-.984 3.152 0 4.928 1.648 5.328 4.944Zm-5.328-2.544c-.592 0-1.088.152-1.488.456-.384.288-.656.696-.816 1.224-.096.272-.16.624-.192 1.056-.032.08 0 .12.096.12h4.872c.08 0 .12-.04.12-.12-.032-.4-.08-.704-.144-.912-.144-.576-.432-1.024-.864-1.344-.416-.32-.944-.48-1.584-.48Zm10.741 10.056c-.16 0-.264-.08-.312-.24l-3.864-11.712a.267.267 0 0 1-.024-.12c0-.144.088-.216.264-.216h2.448c.176 0 .288.08.336.24l2.328 8.016c.016.048.04.072.072.072.032 0 .056-.024.072-.072l2.328-8.016c.048-.16.16-.24.336-.24l2.448.048c.096 0 .168.032.216.096.048.048.056.128.024.24l-3.84 11.664c-.048.16-.152.24-.312.24h-2.52Zm14.733.24c-1.2 0-2.263-.24-3.191-.72a5.324 5.324 0 0 1-2.16-2.088c-.496-.896-.744-1.928-.744-3.096v-5.472c0-1.152.256-2.168.768-3.048a5.204 5.204 0 0 1 2.136-2.064c.928-.496 1.992-.744 3.192-.744 1.216 0 2.28.248 3.192.744a5.169 5.169 0 0 1 2.16 2.064c.512.88.768 1.896.768 3.048v5.472c0 1.168-.256 2.2-.768 3.096a5.324 5.324 0 0 1-2.16 2.088c-.912.48-1.976.72-3.192.72Zm0-2.4c1.009 0 1.817-.312 2.425-.936.608-.624.912-1.448.912-2.472v-5.592c0-1.04-.304-1.872-.912-2.496-.608-.624-1.416-.936-2.424-.936-.992 0-1.792.312-2.4.936-.608.624-.912 1.456-.912 2.496v5.592c0 1.024.304 1.848.912 2.472.608.624 1.408.936 2.4.936Zm19.347-6.936c.288.816.432 1.816.432 3 0 1.136-.136 2.112-.408 2.928-.352 1.056-.92 1.88-1.704 2.472-.768.592-1.744.888-2.928.888-1.136 0-2.048-.408-2.736-1.224-.032-.032-.064-.04-.096-.024s-.048.048-.048.096v5.208c0 .08-.032.144-.096.192a.228.228 0 0 1-.192.096h-2.208a.298.298 0 0 1-.216-.096.26.26 0 0 1-.072-.192V16.429a.26.26 0 0 1 .072-.192.298.298 0 0 1 .216-.096h2.208c.08 0 .144.032.192.096a.228.228 0 0 1 .096.192v.72c0 .048.016.08.048.096s.064 0 .096-.048c.704-.832 1.624-1.248 2.76-1.248 1.136 0 2.096.296 2.88.888.784.592 1.352 1.416 1.704 2.472Zm-3.12 5.88c.48-.736.72-1.712.72-2.928 0-1.168-.192-2.088-.576-2.76-.448-.784-1.128-1.176-2.04-1.176-.832 0-1.456.384-1.872 1.152-.368.624-.552 1.552-.552 2.784 0 1.264.2 2.224.6 2.88.416.704 1.016 1.056 1.8 1.056.848 0 1.488-.336 1.92-1.008Zm10.811 3.36c-1.008 0-1.896-.144-2.664-.432-.752-.304-1.336-.712-1.752-1.224a2.765 2.765 0 0 1-.624-1.752v-.216a.26.26 0 0 1 .072-.192.298.298 0 0 1 .216-.096h2.112c.08 0 .144.032.192.096a.228.228 0 0 1 .096.192v.048c0 .4.216.752.648 1.056.448.288 1.008.432 1.68.432.64 0 1.16-.128 1.56-.384.4-.272.6-.608.6-1.008 0-.368-.168-.64-.504-.816-.32-.192-.848-.392-1.584-.6l-.912-.288c-.816-.24-1.504-.496-2.064-.768a4.187 4.187 0 0 1-1.416-1.104c-.384-.48-.576-1.088-.576-1.824 0-1.12.44-2.008 1.32-2.664.88-.672 2.04-1.008 3.48-1.008.976 0 1.832.16 2.568.48.736.304 1.304.736 1.704 1.296.4.544.6 1.168.6 1.872 0 .08-.032.152-.096.216a.26.26 0 0 1-.192.072h-2.04a.351.351 0 0 1-.216-.072.351.351 0 0 1-.072-.216c0-.416-.208-.76-.624-1.032-.4-.288-.952-.432-1.656-.432-.624 0-1.136.12-1.536.36-.384.224-.576.544-.576.96 0 .384.184.68.552.888.384.192 1.016.408 1.896.648l.528.144c.848.256 1.56.52 2.136.792a3.988 3.988 0 0 1 1.464 1.104c.4.464.6 1.072.6 1.824 0 1.136-.448 2.032-1.344 2.688-.896.64-2.088.96-3.576.96Z"/></g><defs><filter id="a" width="171.174" height="72.885" x="-12.839" y="-12.839" color-interpolation-filters="sRGB" filterUnits="userSpaceOnUse"><feFlood flood-opacity="0" result="BackgroundImageFix"/><feGaussianBlur in="BackgroundImageFix" stdDeviation="6.42"/><feComposite in2="SourceAlpha" operator="in" result="effect1_backgroundBlur_109_147"/><feBlend in="SourceGraphic" in2="effect1_backgroundBlur_109_147" result="shape"/></filter></defs></svg>