<svg xmlns="http://www.w3.org/2000/svg" width="126" height="43" fill="none"><g filter="url(#a)"><rect width="125.676" height="42.862" fill="#fff" fill-opacity=".8" rx="14.266"/><path fill="#0F3356" d="M40.262 28.597c-1.2 0-2.256-.232-3.168-.696-.912-.48-1.616-1.144-2.112-1.992-.496-.848-.744-1.832-.744-2.952v-5.928c0-1.12.248-2.104.744-2.952.496-.848 1.2-1.504 2.112-1.968.912-.464 1.968-.696 3.168-.696 1.184 0 2.232.224 3.144.672.912.448 1.616 1.08 2.112 1.896.496.816.744 1.76.744 2.832 0 .08-.032.152-.096.216a.26.26 0 0 1-.192.072l-2.208.12c-.192 0-.288-.088-.288-.264 0-.944-.296-1.704-.888-2.28-.576-.576-1.352-.864-2.328-.864-.976 0-1.76.288-2.352.864-.592.576-.888 1.336-.888 2.28v6.12c0 .928.296 1.68.888 2.256.592.576 1.376.864 2.352.864s1.752-.28 2.328-.84c.592-.576.888-1.336.888-2.28 0-.176.096-.264.288-.264l2.208.096a.26.26 0 0 1 .192.072c.064.048.096.104.096.168 0 1.088-.248 2.048-.744 2.88-.496.816-1.2 1.448-2.112 1.896-.912.448-1.96.672-3.144.672Zm9.009-.192a.351.351 0 0 1-.216-.072.351.351 0 0 1-.072-.216V11.893a.26.26 0 0 1 .072-.192.298.298 0 0 1 .216-.096h2.208c.08 0 .144.032.192.096a.228.228 0 0 1 .096.192v16.224c0 .08-.032.152-.096.216a.26.26 0 0 1-.192.072h-2.208Zm10.663.192c-1.264 0-2.352-.32-3.264-.96-.897-.64-1.529-1.528-1.897-2.664a9.058 9.058 0 0 1-.408-2.736c0-1.024.128-1.936.384-2.736.368-1.12 1.008-1.992 1.92-2.616.913-.624 2.009-.936 3.289-.936 1.215 0 2.264.312 3.144.936.896.624 1.527 1.488 1.896 2.592.287.768.431 1.68.431 2.736 0 1.008-.136 1.92-.407 2.736-.369 1.136-1 2.032-1.897 2.688-.895.64-1.96.96-3.191.96Zm0-2.4c.592 0 1.096-.168 1.512-.504.431-.336.744-.808.936-1.416.16-.528.24-1.2.24-2.016 0-.864-.08-1.536-.24-2.016-.176-.608-.48-1.072-.913-1.392-.431-.336-.96-.504-1.584-.504-.591 0-1.103.168-1.535.504-.433.32-.745.784-.937 1.392-.16.56-.24 1.232-.24 2.016s.08 1.456.24 2.016c.177.608.48 1.08.913 1.416.447.336.983.504 1.608.504Zm15.376-9.768a.26.26 0 0 1 .072-.192.298.298 0 0 1 .215-.096h2.184c.08 0 .144.032.192.096a.228.228 0 0 1 .097.192v11.688c0 .08-.032.152-.096.216a.26.26 0 0 1-.193.072h-2.184a.351.351 0 0 1-.215-.072.351.351 0 0 1-.073-.216v-.768c0-.048-.016-.08-.047-.096-.032-.016-.064 0-.097.048-.656.848-1.64 1.272-2.952 1.272-1.215 0-2.24-.352-3.072-1.056-.816-.704-1.224-1.704-1.224-3v-8.088a.26.26 0 0 1 .073-.192.298.298 0 0 1 .216-.096h2.207a.23.23 0 0 1 .193.096.228.228 0 0 1 .096.192v7.296c0 .752.192 1.352.576 1.8.4.448.951.672 1.655.672.72 0 1.296-.224 1.728-.672.433-.448.648-1.048.648-1.8v-7.296Zm13.344-4.536a.26.26 0 0 1 .072-.192.298.298 0 0 1 .216-.096h2.208c.08 0 .144.032.192.096a.228.228 0 0 1 .096.192v16.224c0 .08-.032.152-.096.216a.26.26 0 0 1-.192.072h-2.208a.351.351 0 0 1-.216-.072.351.351 0 0 1-.072-.216v-.72c0-.048-.016-.08-.048-.096s-.064 0-.096.048c-.704.832-1.624 1.248-2.76 1.248-1.136 0-2.096-.296-2.88-.888-.784-.592-1.352-1.416-1.704-2.472-.288-.896-.432-1.896-.432-3 0-1.136.136-2.112.408-2.928.352-1.056.92-1.88 1.704-2.472.784-.592 1.768-.888 2.952-.888 1.104 0 2.008.4 2.712 1.2.032.032.064.048.096.048.032-.016.048-.048.048-.096v-5.208Zm-.576 13.152c.368-.656.552-1.584.552-2.784 0-1.248-.2-2.2-.6-2.856-.432-.704-1.04-1.056-1.824-1.056-.816 0-1.456.336-1.92 1.008-.48.704-.72 1.68-.72 2.928 0 1.12.192 2.04.576 2.76.448.768 1.128 1.152 2.04 1.152.816 0 1.448-.384 1.896-1.152Z"/></g><defs><filter id="a" width="151.354" height="68.541" x="-12.839" y="-12.839" color-interpolation-filters="sRGB" filterUnits="userSpaceOnUse"><feFlood flood-opacity="0" result="BackgroundImageFix"/><feGaussianBlur in="BackgroundImageFix" stdDeviation="6.42"/><feComposite in2="SourceAlpha" operator="in" result="effect1_backgroundBlur_109_149"/><feBlend in="SourceGraphic" in2="effect1_backgroundBlur_109_149" result="shape"/></filter></defs></svg>